<svg width="393" height="77" viewBox="0 0 393 77" fill="none" xmlns="http://www.w3.org/2000/svg">
<g clip-path="url(#clip0_1259_2980)">
<path d="M38.8724 0H39.8776C42.3142 0.18696 44.5592 1.59124 45.9574 3.57856C46.8041 4.67401 47.346 5.96058 47.7873 7.26514C50.1246 7.96867 52.4095 8.91455 54.4559 10.2648C57.331 12.1303 59.7593 14.7408 61.25 17.8471C62.5296 20.4258 63.1295 23.3063 63.2219 26.1758C63.2481 27.6923 63.1267 29.206 63.0302 30.7169C62.9295 31.3484 62.8482 31.9827 62.7475 32.6128C62.5696 34.1459 62.1132 35.6236 61.7588 37.1206C61.4444 38.4889 60.9687 39.8129 60.4957 41.1327C60.1909 41.9345 59.8393 42.7198 59.5649 43.5341C59.0464 44.9591 58.2728 46.2706 57.6302 47.6389C57.4468 47.9934 57.2827 48.4491 56.8456 48.5446C56.4691 48.6873 56.0817 48.4962 55.7852 48.2676C53.9388 46.8828 52.0717 45.5242 50.217 44.149C49.9123 43.9357 49.5785 43.6158 49.6599 43.2031C49.7716 42.6173 50.0239 42.0716 50.1991 41.5052C50.4183 40.8211 50.6293 40.1342 50.8334 39.4459C50.9975 38.8379 51.123 38.2202 51.2691 37.6067C51.4112 36.9863 51.4898 36.3534 51.5932 35.7247C51.9214 33.6321 52.022 31.4509 51.5104 29.3805C51.3326 28.7614 51.1312 28.1438 50.8265 27.576C50.581 27.5372 50.3301 27.54 50.0887 27.4804C50.206 27.4098 50.3204 27.3322 50.4307 27.2505C50.5438 26.324 50.7493 25.4114 50.9092 24.4904C52.6522 26.4694 53.5761 29.0924 53.6437 31.7182C53.6809 34.2844 53.3458 36.8478 52.706 39.3309C52.4716 40.5635 51.9517 41.7143 51.6387 42.922C53.1404 44.1199 54.7344 45.2056 56.2637 46.3717C59.0754 40.6798 61.1755 34.5046 61.4127 28.1078C61.6154 24.3007 60.8666 20.3579 58.7996 17.1159C56.8263 13.9445 53.7581 11.5638 50.359 10.1C49.3855 9.71363 48.4147 9.26493 47.3722 9.10982C47.8011 10.0155 48.4202 10.8174 48.8339 11.7342C49.5496 13.2396 50.057 14.8377 50.4473 16.4581C49.664 16.6838 48.8794 16.8985 48.0879 17.0937C48.4285 18.0521 49.0849 18.8539 49.5206 19.7693C48.5898 20.5546 47.7956 21.4852 46.873 22.2788C44.7922 24.345 42.6342 26.3296 40.5602 28.4014C40.3686 28.6188 40.0748 28.6451 39.8115 28.7033C40.0417 28.2144 40.2637 27.7214 40.5133 27.2408C40.887 27.0359 41.1932 26.7367 41.4841 26.4293C43.2574 24.7522 45.0625 23.1042 46.7158 21.3052C47.2978 20.7152 47.9638 20.2083 48.4823 19.5561C47.9638 18.6891 47.4508 17.8166 46.9585 16.9345C46.4538 17.5604 46.1243 18.3097 45.5824 18.9079C44.9922 19.6447 44.242 20.2194 43.5236 20.8191C41.1421 22.4477 37.8051 22.5156 35.4016 20.898C34.0764 20.0089 32.9333 18.8373 32.1528 17.4372C32.0411 17.3112 31.9983 17.0453 31.7887 17.073C31.4288 17.6117 31.1517 18.2003 30.8028 18.7473C30.6539 19.0243 30.4401 19.2846 30.3808 19.599C32.2272 21.4409 34.0392 23.3188 35.9352 25.1081C36.6523 25.8753 37.4148 26.6024 38.2588 27.2256C38.5235 27.7463 38.78 28.2726 39.0186 28.8071C38.9248 28.8113 38.74 28.821 38.6476 28.8265C37.9251 28.0067 37.0605 27.3336 36.3144 26.5401C34.457 24.7619 32.5968 22.9878 30.7669 21.1819C30.2416 20.7138 29.7162 20.2416 29.2694 19.6959C29.77 18.847 30.2705 17.9994 30.7435 17.1367C29.9492 16.8943 29.1439 16.6907 28.3414 16.4816C28.8833 13.824 29.9989 11.3187 31.4702 9.05165C27.5733 10.1443 23.8391 12.2023 21.2398 15.3695C19.0997 17.9302 17.8228 21.1639 17.4753 24.478C17.2188 26.3503 17.4173 28.2338 17.4628 30.1117C16.8892 30.3374 16.3349 30.62 15.7268 30.7501C15.7199 29.2725 15.4951 27.7989 15.5544 26.324C15.6082 22.1735 16.9002 17.987 19.472 14.7062C22.3099 11.0002 26.5212 8.5254 30.971 7.29561C31.3957 6.08383 31.877 4.8762 32.6382 3.832C34.0378 1.73665 36.3351 0.200809 38.8724 0ZM38.6697 1.88207C37.3749 2.10365 36.1655 2.7504 35.2113 3.65058C33.5648 5.28059 32.6464 7.54074 32.3941 9.82858C32.1583 12.2064 32.5292 14.7048 33.7923 16.7627C34.5728 18.0659 35.6981 19.1946 37.0922 19.8206C38.9 20.6446 41.1242 20.3856 42.7293 19.2251C44.3303 18.1435 45.3714 16.3971 45.9643 14.5843C46.6497 12.3449 46.6772 9.90059 45.9974 7.65707C45.4445 5.79023 44.3468 4.05219 42.7624 2.90412C41.5834 2.07318 40.101 1.67987 38.6697 1.88207ZM29.3632 15.8792C30.1257 16.0523 30.8731 16.2863 31.6329 16.4761C31.1006 15.2297 30.7407 13.914 30.5794 12.5665C29.9658 13.5789 29.6776 14.7477 29.3632 15.8792ZM48.1982 12.5347C48.0548 13.8905 47.6839 15.2103 47.1392 16.4581C47.9128 16.2753 48.6891 16.0897 49.4406 15.8279C49.0463 14.7256 48.8077 13.547 48.1982 12.5347Z" fill="#276404"/>
<path d="M25.9158 27.8709C26.4246 26.7118 27.0107 25.5554 27.8987 24.6386C28.0697 25.5914 28.2462 26.5442 28.4117 27.4984C27.5774 27.5981 26.7362 27.6812 25.9158 27.8709Z" fill="#276404"/>
<path d="M29.2998 36.9655C29.9327 36.6609 30.6332 36.5819 31.3158 36.4573C33.1194 38.1953 35.6016 39.054 38.0519 39.3019C41.389 39.6093 44.977 38.7756 47.4922 36.4587C48.1541 36.6221 48.8491 36.6886 49.4696 36.9905C46.8896 40.0068 42.7666 41.3003 38.8986 41.1604C35.3409 41.069 31.6481 39.7436 29.2998 36.9655Z" fill="#276404"/>
<path d="M25.7531 38.097C26.3047 37.8325 26.8742 37.5832 27.4864 37.496C27.616 38.1565 27.7967 38.8047 27.9525 39.4583C28.1318 40.1743 28.3565 40.8779 28.6075 41.5717C28.7564 42.1672 29.0984 42.7253 29.0984 43.3499C29.1177 43.7598 28.7551 44.0008 28.4724 44.2224C27.6602 44.8026 26.8797 45.4286 26.022 45.941C24.9147 46.718 23.8446 47.5461 22.7484 48.3369C22.3871 48.6305 21.801 48.5529 21.5432 48.161C21.1446 47.5641 20.9213 46.8703 20.5352 46.2651C20.0001 45.448 19.6871 44.516 19.2776 43.6338C19.1728 43.3707 19.0211 43.1103 19.0142 42.8223C19.3479 42.26 19.7974 41.7753 20.269 41.328C20.9681 43.0078 21.6645 44.6919 22.507 46.3066C23.0724 46.0186 23.5454 45.5906 24.0584 45.2237C24.9643 44.5631 25.862 43.89 26.7721 43.2349C26.8852 43.1283 27.0548 43.0521 27.1017 42.8943C27.0286 42.3999 26.8094 41.9428 26.6728 41.4651C26.3074 40.3585 26.033 39.2271 25.7531 38.097Z" fill="#276404"/>
<path d="M28.4118 27.4984C29.8804 27.3502 31.3531 27.2602 32.8203 27.112C33.2257 27.0913 33.7042 27.0109 34.0297 27.3184C34.3606 27.5926 34.3179 28.0579 34.2765 28.4415C34.0076 30.6823 33.7883 32.93 33.5346 35.1721C33.5084 35.5613 33.3181 36.0003 32.9058 36.1041C32.3818 36.2426 31.8399 36.3105 31.3159 36.4573C30.6333 36.5819 29.9328 36.6609 29.2999 36.9655C28.7097 37.1885 28.1043 37.3741 27.4866 37.496C26.8743 37.5832 26.3048 37.8325 25.7532 38.097C23.8172 38.9667 21.837 39.8544 20.2691 41.328C19.7975 41.7753 19.348 42.26 19.0143 42.8223C19.0212 43.1103 19.1729 43.3707 19.2777 43.6338C19.246 43.5798 19.1839 43.4732 19.1522 43.4191C18.2711 43.6809 17.4354 44.0797 16.5432 44.3041C16.6467 43.6712 16.9555 43.102 17.2686 42.5522C18.2876 40.7726 19.832 39.3476 21.5447 38.2535C24.7231 36.3894 28.2739 35.251 31.884 34.5946C32.1529 32.6973 32.3074 30.7848 32.5266 28.8792C27.3887 29.098 22.2645 30.084 17.4657 31.9564C15.1257 32.9355 12.8187 34.0642 10.8082 35.6319C8.09718 37.7286 5.97774 40.623 4.95042 43.9135C3.79211 47.5821 3.87346 51.5803 4.84286 55.2807C5.16002 54.8694 5.35583 54.3875 5.58887 53.9291C6.64101 52.0138 8.09994 50.3602 9.67056 48.8604C10.3145 49.395 10.8289 50.0611 11.4411 50.6275C11.9706 49.7661 12.4491 48.8742 12.9676 48.0059C14.1728 48.3632 15.4056 48.6443 16.5667 49.136C19.5535 50.0542 22.5761 50.8491 25.5864 51.68C25.6236 51.7493 25.6953 51.8864 25.7312 51.9556C25.1479 51.9972 24.5659 52.0539 23.9827 52.0872C21.797 51.3033 19.5535 50.694 17.3251 50.0486C16.0978 49.8201 14.9147 49.4116 13.7136 49.0764C13.5509 49.0487 13.3068 48.9366 13.2186 49.1512C12.7056 49.978 12.2382 50.8352 11.7859 51.698C12.6325 51.7091 13.482 51.7119 14.3162 51.8739C15.2125 52.0152 16.0509 52.3739 16.8893 52.7035C19.5383 53.9693 21.2441 56.9398 20.9917 59.8772C20.869 60.8314 20.6966 61.7842 20.3588 62.6885C20.1064 63.4198 19.7052 64.0831 19.3742 64.7783C20.396 64.7894 21.4192 64.795 22.441 64.8143C22.8037 63.2536 23.1691 61.6914 23.6476 60.1625C24.1385 58.0879 24.7218 56.0314 25.1065 53.9346C25.4071 53.4693 25.7256 53.0164 26.0387 52.5608C26.0731 52.619 26.1407 52.7325 26.1752 52.7907C25.665 54.4927 25.3202 56.2405 24.8735 57.9605C24.5921 59.1391 24.2543 60.3065 24.0323 61.4989C23.8255 62.8949 23.4311 64.2521 23.1056 65.6231C22.1059 65.6716 21.1062 65.6259 20.1064 65.6494C20.2885 66.4707 20.5491 67.2725 20.7228 68.0952C19.3466 68.4594 17.9663 68.8402 16.5446 68.9649C15.9723 68.9995 15.4001 69.0216 14.8292 69.0729C14.1577 69.1407 13.4861 69.0147 12.8118 69.0549C13.1951 69.5714 13.7136 69.9564 14.1907 70.3788C17.5361 73.1874 21.7929 75.075 26.2055 74.9961C28.6325 74.9988 31.0318 74.4089 33.2437 73.4311C34.1469 72.9492 35.1025 72.56 35.9492 71.9784C36.5931 71.5505 37.2536 71.1488 37.8811 70.6974C38.3761 71.0879 38.8877 71.4563 39.391 71.8357C37.9928 72.8162 36.5862 73.8078 35.0335 74.5335C34.4144 74.834 33.8159 75.1872 33.1623 75.4129C31.6896 75.9087 30.2307 76.489 28.6849 76.7244C27.9747 76.8269 27.2618 76.9155 26.5475 77H25.5919C24.0861 76.8283 22.5623 76.6635 21.1282 76.1441C17.976 75.2301 15.0678 73.5627 12.5953 71.4078C12.2023 71.0464 11.819 70.6711 11.3984 70.3428C8.74529 70.9923 5.77917 70.7625 3.43772 69.2723C1.50443 68.1048 0.286821 65.9818 0 63.7604V62.1484C0.242695 59.7415 1.40377 57.5049 3.04334 55.7585C1.97327 51.3657 1.91398 46.6141 3.56596 42.3555C4.26095 40.5164 5.27447 38.8033 6.51001 37.2785C8.93558 34.3273 12.2382 32.2167 15.7269 30.7501C16.335 30.62 16.8893 30.3374 17.463 30.1117C18.7964 29.6035 20.1699 29.2171 21.5364 28.8168C22.3086 28.6036 23.1098 28.5232 23.8737 28.2837C24.5384 28.0718 25.243 28.0468 25.9159 27.871C26.7364 27.6812 27.5776 27.5981 28.4118 27.4984ZM8.00341 51.8241C8.08753 52.0069 8.16613 52.1938 8.2792 52.3628C8.47225 52.4279 8.65703 52.2894 8.84043 52.2478C9.62643 51.9362 10.4814 51.9141 11.2894 51.6939C10.7737 51.1136 10.2208 50.568 9.65125 50.0417C9.02935 50.5638 8.55637 51.2313 8.00341 51.8241ZM10.9571 53.5427C9.76571 53.7103 8.62256 54.1202 7.54146 54.6395C6.76374 54.8999 6.08943 55.386 5.45374 55.8943C3.71626 57.2321 2.33042 59.128 1.86158 61.2995C1.54994 62.7813 1.68645 64.3809 2.38834 65.7339C3.14676 66.8183 4.13408 67.7877 5.37927 68.2821C7.1195 69.0244 9.08037 69.0244 10.9047 68.6256C11.9941 68.5466 12.9814 68.0647 13.9494 67.6007C15.0705 67.1839 16.1875 66.5856 16.8838 65.5746C17.7291 64.5664 18.5386 63.4793 18.9123 62.1955C19.2253 60.9297 19.6597 59.621 19.3494 58.3067C19.1315 56.5299 17.8587 55.0661 16.3295 54.2421C14.6817 53.4042 12.7594 53.3239 10.9571 53.5427ZM17.3196 67.1119C17.0286 67.3404 16.8825 67.7129 16.5446 67.886C16.5157 67.9317 16.4591 68.0218 16.4302 68.0661C16.8618 67.8583 17.3444 68.0051 17.7981 67.9096C18.4186 67.7794 19.0433 67.6617 19.6528 67.4803C19.4776 66.7269 19.286 65.9776 19.0474 65.2437C18.4407 65.8378 17.987 66.5773 17.3196 67.1119Z" fill="#646E02"/>
<path d="M27.9527 39.4584C30.6581 39.9888 33.0437 41.6257 34.8157 43.7058C36.6538 45.8856 37.9404 48.5585 38.3596 51.392C38.6436 53.2159 38.5057 55.0979 37.9638 56.8595C37.4467 56.3651 36.993 55.8112 36.4994 55.2932C36.7365 54.0039 36.782 52.6578 36.5256 51.3684C35.9561 48.0876 34.0972 45.063 31.4814 43.0245C30.592 42.422 29.686 41.767 28.6076 41.5717C28.3567 40.8779 28.1319 40.1744 27.9527 39.4584Z" fill="#646E02"/>
<path d="M43.4809 54.0524C43.7774 53.8322 44.1332 53.9928 44.4324 54.1161C46.5698 55.0661 48.7113 56.0078 50.8514 56.951C51.2182 57.113 51.5781 57.4634 51.5092 57.9024C51.4195 58.178 51.2623 58.4231 51.112 58.6682C50.2998 59.97 49.3746 61.1956 48.4879 62.4462C48.39 62.5819 48.2907 62.7176 48.1942 62.8547C47.5544 62.8021 46.9173 62.7038 46.3023 62.5127C47.3613 61.0945 48.4879 59.7097 49.3539 58.1613C47.6219 57.3886 45.8886 56.6158 44.1442 55.8707C43.0755 57.1033 41.9448 58.2749 40.7837 59.4188C40.3039 59.0172 39.8102 58.6294 39.3648 58.1877C39.8474 57.7708 40.2211 57.2265 40.7741 56.8942C41.3767 56.5272 41.7449 55.8929 42.2427 55.4054C42.6674 54.9664 42.9859 54.418 43.4809 54.0524Z" fill="#646E02"/>
<path d="M30.1548 62.4849C30.6761 63.1677 31.2139 63.8366 31.7475 64.5096C30.4899 64.7506 29.2075 64.655 27.9623 64.3877C28.6835 63.7424 29.4474 63.1455 30.1548 62.4849Z" fill="#646E02"/>
<path d="M36.2716 29.861C37.6588 29.7821 39.0432 29.7045 40.4332 29.6685C41.142 29.6422 41.8742 29.4635 42.5678 29.6893C42.947 30.0424 42.8712 30.6269 42.9981 31.0949C42.9222 31.6115 43.1718 32.1073 43.1153 32.6211C43.2297 33.1875 43.278 33.7609 43.3345 34.3342C43.2173 34.5406 43.158 34.8702 42.8684 34.8868C41.7956 34.9533 40.7173 34.8452 39.6472 34.7982C39.0819 34.7732 38.5151 34.7926 37.9511 34.7275C37.1362 34.7095 36.3226 34.7912 35.5076 34.7594C35.6538 33.3357 35.7131 31.9037 35.8427 30.4773C35.84 30.2114 35.9723 29.8929 36.2716 29.861Z" fill="#E83900"/>
<path d="M26.5431 47.6057C27.2726 47.2082 27.9069 46.6529 28.6281 46.2402C28.9232 46.074 29.2776 46.2471 29.4334 46.5213C30.1725 47.7428 30.8082 49.0307 31.6246 50.2051C32.0052 50.7646 32.3471 51.349 32.7277 51.9085C32.9746 52.2188 32.9677 52.7769 32.5471 52.932C31.2964 53.4776 30.0443 54.0219 28.7991 54.5786C28.4006 54.7836 28.0572 54.429 27.7994 54.1715C27.6904 53.9582 27.5774 53.7463 27.5139 53.515C27.416 53.3253 27.3085 53.1383 27.1706 52.9749C27.0658 52.547 26.79 52.1938 26.6038 51.8019C26.1708 50.8962 25.6979 50.0098 25.2787 49.0986C25.1435 48.823 25.3104 48.5142 25.5269 48.3383C25.8454 48.0668 26.2039 47.8494 26.5431 47.6057Z" fill="#E83900"/>
<path d="M49.0586 46.6667C49.2503 46.506 49.4434 46.3454 49.6282 46.1764C49.9012 46.1819 50.1659 46.247 50.4004 46.3911C51.2925 47.0835 52.2564 47.6804 53.1762 48.3354C53.4754 48.5058 53.5968 48.8936 53.4078 49.1927C52.8411 50.3546 52.2895 51.5262 51.6359 52.6439C51.3036 53.2781 51.0181 53.9526 50.5645 54.5093C50.0446 54.8417 49.4654 54.3611 48.9787 54.1603C48.1872 53.8958 47.4687 53.4595 46.6827 53.1784C46.4221 53.0302 46.1215 52.9388 45.9036 52.7256C45.7106 52.3046 45.9546 51.8531 46.2056 51.5138C46.6579 50.7742 47.1309 50.0499 47.557 49.2952C47.8521 49.0224 47.9789 48.6027 48.1637 48.2537C48.3209 48.0335 48.4836 47.8175 48.6395 47.5945C48.6684 47.3259 48.8918 47.1403 49.049 46.9395C49.0518 46.8716 49.0559 46.7359 49.0586 46.6667Z" fill="#E83900"/>
<path d="M44.4048 28.1189C44.2959 27.5594 44.7965 27.0124 45.3591 27.0664C46.9393 27.137 48.5238 27.2381 50.0889 27.4804C50.3302 27.54 50.5811 27.5372 50.8266 27.576C51.1313 28.1438 51.3327 28.7615 51.5106 29.3805C49.7565 29.1465 47.997 28.936 46.2278 28.8598C46.4126 30.7709 46.636 32.6779 46.8538 34.5863C48.4576 34.8619 50.0254 35.2968 51.5933 35.7247C51.4899 36.3534 51.4113 36.9863 51.2692 37.6068C50.697 37.3187 50.0489 37.255 49.4697 36.9905C48.8492 36.6886 48.1542 36.6221 47.4923 36.4587C46.8966 36.3174 46.2719 36.2911 45.6942 36.0779C45.3729 35.956 45.2239 35.6042 45.1798 35.2857C44.933 32.8954 44.653 30.5078 44.4048 28.1189Z" fill="#033790"/>
<path d="M63.0303 30.7169C63.3129 30.8568 63.597 30.9981 63.8866 31.1282C67.316 32.6918 70.5179 34.927 72.7739 37.9945C74.7182 40.6009 75.9096 43.746 76.2916 46.9728C76.6584 49.7813 76.3978 52.6453 75.7469 55.3929C75.6862 55.5896 75.6904 55.807 75.8545 55.9552C76.9714 57.1933 77.8664 58.6571 78.3435 60.2664C78.9406 62.2135 78.8951 64.4086 77.9808 66.2519C77.2486 67.8251 75.9124 69.0798 74.3431 69.793C72.1492 70.8137 69.612 70.9023 67.2829 70.3414C64.4837 73.0669 61.0735 75.2467 57.269 76.2106C55.897 76.6842 54.4491 76.8297 53.0177 77H52.069C50.5977 76.8269 49.1043 76.6787 47.6991 76.1732C46.9269 75.8907 46.1561 75.6013 45.3728 75.3451C43.2589 74.4019 41.2332 73.247 39.391 71.8357C38.8876 71.4563 38.3761 71.0879 37.881 70.6974C35.6513 68.8319 33.6008 66.7518 31.7475 64.5097C31.2138 63.8366 30.676 63.1677 30.1548 62.485C29.275 61.287 28.4063 60.0794 27.6079 58.8247C27.4107 58.4882 27.0949 58.1613 27.1556 57.7389C27.139 57.3235 27.4713 57.0119 27.8313 56.8748C29.9273 55.9441 32.0274 55.0259 34.1234 54.0939C34.5191 53.9346 35.0307 53.7144 35.4058 54.0385C35.8223 54.4083 36.1215 54.8861 36.4993 55.2932C36.993 55.8112 37.4466 56.3651 37.9638 56.8595C38.4257 57.3068 38.8863 57.7569 39.3648 58.1876C39.8102 58.6294 40.3038 59.0172 40.7837 59.4188C42.466 60.6943 44.2462 61.9435 46.3022 62.5127C46.9173 62.7038 47.5543 62.8021 48.1942 62.8547C48.2907 62.7176 48.39 62.5819 48.4879 62.4462C49.2794 63.1137 50.0751 63.7771 50.8542 64.4598C49.2477 64.8448 47.5626 64.6994 45.9644 64.3449C44.3317 63.8948 42.8052 63.1095 41.4332 62.1207C40.3121 61.4768 39.3565 60.6043 38.3485 59.8052C37.0302 58.5629 35.7368 57.2902 34.6129 55.8652C32.852 56.6241 31.0994 57.4024 29.3467 58.1793C30.676 60.2234 32.1336 62.183 33.7194 64.0346C34.8556 65.252 35.9905 66.4679 37.164 67.6492C39.4723 69.6809 41.8758 71.6709 44.6696 72.9977C47.7832 74.6305 51.3933 75.3298 54.8834 74.8382C57.7985 74.4615 60.5426 73.2013 62.9517 71.5422C63.979 70.7929 64.9884 70.0091 65.8654 69.084C63.2357 69.2169 60.5826 68.9205 58.0785 68.0896C58.1005 67.2642 58.5114 66.4818 58.6314 65.6605C57.6344 65.6328 56.6361 65.6785 55.6405 65.6273C54.8986 62.5348 54.1374 59.4465 53.3749 56.3582C53.0591 55.2157 52.8812 54.0371 52.4923 52.9167C52.5558 52.7949 52.6192 52.673 52.6826 52.5511C53.0081 53.0261 53.35 53.4887 53.6479 53.9831C54.5249 57.5935 55.3992 61.2053 56.2927 64.813C57.3145 64.8282 58.3363 64.788 59.3581 64.7756C58.5239 63.2591 57.8895 61.6152 57.7379 59.8758C57.4841 56.9329 59.2009 53.9651 61.8526 52.6993C62.68 52.3503 63.5157 51.9999 64.4051 51.8476C65.2269 51.68 66.0681 51.6897 66.9037 51.687C66.4459 50.7812 65.9012 49.924 65.4324 49.0252C64.4851 49.1789 63.5818 49.5182 62.6566 49.7647C60.0421 50.5444 57.4042 51.2535 54.8048 52.083C54.1995 52.0664 53.5969 52.0013 52.9929 51.9667C53.0563 51.8434 53.1211 51.7188 53.186 51.5969C54.245 51.41 55.2489 51.0097 56.2872 50.7397C57.1587 50.5223 57.9902 50.1719 58.8548 49.9323C61.1894 49.3797 63.477 48.6485 65.7854 48.0004C66.3259 48.8535 66.741 49.7883 67.3491 50.597C67.9228 50.0126 68.495 49.424 69.0838 48.8535C70.3235 50.0279 71.5163 51.2784 72.4099 52.745C72.887 53.5593 73.5199 54.2767 73.8895 55.1533C74.3004 53.4153 74.6176 51.6413 74.6562 49.852C74.6438 47.1348 74.2121 44.3623 72.9945 41.9124C71.4722 38.6247 68.8136 35.956 65.722 34.1321C64.7498 33.5892 63.7597 33.0768 62.7476 32.6128C62.8482 31.9827 62.9296 31.3484 63.0303 30.7169ZM67.516 51.7202C68.1227 51.8531 68.7377 51.9473 69.3486 52.0692C70.0257 52.288 70.6779 52.5844 71.3646 52.7783C71.1357 52.234 70.6931 51.8144 70.3387 51.3518C69.8478 50.982 69.5775 50.4073 69.0894 50.0348C68.5654 50.5943 67.9228 51.0638 67.516 51.7202ZM63.8618 53.8349C62.8455 54.069 61.9698 54.6811 61.1963 55.3583C60.5578 56.0272 60.0476 56.8318 59.7966 57.7279C59.4822 58.5616 59.4795 59.4784 59.6174 60.3494C59.6849 61.5792 60.2655 62.7162 60.9232 63.7327C61.0501 63.9045 61.1508 64.1191 61.341 64.2313C61.3907 64.4072 61.4569 64.5872 61.5975 64.7146C62.4001 65.5331 63.1944 66.3765 64.1789 66.9803C66.7383 68.6325 70.0698 69.4426 72.9959 68.332C74.6603 67.7794 75.9924 66.3931 76.6088 64.7589C77.1714 63.2342 76.9273 61.5155 76.3081 60.0475C75.8972 59.1695 75.4463 58.2693 74.7527 57.5824C74.3128 57.1088 73.9129 56.5895 73.3917 56.2017C72.9159 55.7973 72.4209 55.4151 71.8776 55.1076C71.5135 54.893 71.1371 54.7033 70.7537 54.5301C69.9553 54.1424 69.1045 53.8294 68.2248 53.6978L68.2027 53.6715C66.77 53.4208 65.2573 53.3765 63.8618 53.8349ZM59.6436 65.3669C59.4271 66.0635 59.2616 66.7753 59.081 67.4816C60.2034 67.7822 61.3438 68.0758 62.5132 68.1159C62.1533 67.6811 61.6734 67.3639 61.2569 66.9872C60.7784 66.6812 60.5357 66.1494 60.1248 65.7713C59.9662 65.6425 59.8683 65.3711 59.6436 65.3669Z" fill="#033790"/>
<path d="M45.6486 41.9788C47.1379 40.7311 48.9154 39.799 50.8335 39.4459C50.6294 40.1342 50.4184 40.8211 50.1992 41.5052C48.31 42.1464 46.6249 43.3291 45.3494 44.8663C44.2738 45.9826 43.5871 47.3924 42.9445 48.787C42.0565 50.8602 41.8359 53.1923 42.2426 55.4054C41.7448 55.8928 41.3767 56.5271 40.7741 56.8941C40.4059 55.7377 40.2363 54.5315 40.2046 53.3197C40.257 48.9809 42.3516 44.7569 45.6486 41.9788Z" fill="#033790"/>
<path d="M59.5649 43.5341C59.8394 42.7198 60.191 41.9346 60.4957 41.1327C61.2735 42.1188 61.8885 43.2156 62.3146 44.3997C61.4086 44.0798 60.5081 43.7294 59.5649 43.5341Z" fill="#033790"/>
<path d="M295.809 16.1783C297.556 16.3404 299.285 16.6644 301.01 16.9899C301.667 17.0924 302.32 17.3596 302.995 17.2281C303.19 17.4386 303.193 17.728 303.189 17.9995C303.183 26.2631 303.166 34.5268 303.188 42.7904C303.208 46.4881 303.043 50.2134 303.652 53.8765C303.792 54.6216 304.105 55.3182 304.289 56.0508C302.066 56.0522 299.841 56.0771 297.618 56.0286C297.16 55.8084 297.182 55.1852 297.053 54.7587C296.265 55.2129 295.471 55.6533 294.675 56.0909C294.357 56.2793 293.989 56.3277 293.642 56.4205C292.331 56.854 290.925 56.7709 289.568 56.6934C288.893 56.6754 288.254 56.4468 287.605 56.2945C285.676 55.8555 283.874 54.8016 282.603 53.2699C281.745 52.2395 281.022 51.0929 280.454 49.8783C279.865 48.5142 279.67 47.0227 279.478 45.5616C279.184 42.7558 279.132 39.8558 279.925 37.1234C280.109 36.4352 280.376 35.7718 280.713 35.1458C281.106 34.4229 281.344 33.6127 281.846 32.9508C282.753 31.7501 283.776 30.5978 285.07 29.8071C285.929 29.2946 286.836 28.8501 287.794 28.5523C289.219 28.1078 290.729 28.0967 292.206 28.1563C293.483 28.2435 294.821 28.5302 295.813 29.3985C295.809 24.9918 295.817 20.5851 295.809 16.1783ZM292.053 34.0947C291.751 34.1819 291.41 33.8786 291.153 34.1307C290.856 34.3661 290.514 34.524 290.141 34.5863C289.66 34.6293 289.422 35.0973 289.131 35.4186C288.772 36.0391 288.517 36.7163 288.18 37.3478C287.843 37.791 288.178 38.41 287.743 38.8116C287.738 39.1509 287.833 39.5539 287.474 39.7492C287.519 40.1384 287.695 40.5386 287.561 40.9291C287.286 41.8044 287.412 42.7336 287.399 43.6352C287.403 44.2459 288.026 44.9107 287.45 45.4273C287.528 45.6475 287.677 45.8275 287.851 45.9854C287.785 46.1017 287.723 46.2194 287.666 46.3371C288.001 46.718 287.854 47.2733 288.19 47.6403C288.331 47.9007 288.383 48.1984 288.478 48.4796C288.514 48.6942 288.739 48.8438 288.678 49.0806C289.034 49.1346 289.282 49.3784 289.387 49.7218C289.936 49.7163 290.359 50.1345 290.901 50.1802C290.882 50.2536 290.843 50.399 290.824 50.4724C291.08 50.3866 291.364 50.255 291.632 50.4018C292.046 50.6012 292.586 50.6746 292.968 50.3602C293.511 49.9198 294.22 49.737 294.903 49.6567L294.853 49.4448C294.93 49.4725 295.086 49.5279 295.163 49.5556C295.241 49.0626 295.857 48.8673 295.809 48.3341C295.821 44.6406 295.803 40.9485 295.812 37.255C295.801 36.636 295.934 35.938 295.554 35.3993C295.19 35.1555 294.766 35.0226 294.401 34.7816C293.928 34.4728 293.317 34.4575 292.89 34.0711C292.651 33.826 292.323 34.0684 292.053 34.0947Z" fill="black"/>
<path d="M97.6238 19.7084C100.98 19.7154 104.335 19.7195 107.69 19.707C109.652 27.209 111.561 34.7248 113.52 42.2282C113.533 42.3888 113.661 42.4636 113.797 42.5176C114.025 41.0552 114.519 39.6564 114.847 38.2175C115.027 37.4572 115.2 36.6941 115.401 35.9394C115.615 35.1306 115.983 34.3689 116.135 33.5435C116.371 32.3026 116.924 31.1463 117.112 29.8957C117.23 29.0454 117.605 28.2643 117.806 27.4361C118.126 25.9294 118.665 24.4822 119.011 22.9823C119.262 21.8786 119.581 20.7942 119.931 19.7195C123.297 19.7043 126.666 19.7181 130.033 19.7126C130.265 20.5158 130.113 21.3745 130.381 22.1666C130.454 22.8951 130.447 23.6318 130.513 24.3617C130.743 25.1746 130.695 26.0305 130.785 26.8642C131.001 29.3597 131.163 31.8581 131.34 34.3564C131.34 34.9256 131.689 35.4283 131.586 36.01C131.769 37.7647 131.847 39.5304 132.023 41.2864C132.179 41.7698 132.148 42.2766 132.179 42.778C132.351 43.4136 132.252 44.0798 132.428 44.7168C132.635 48.859 133.267 52.9763 133.401 57.1171C130.85 57.0728 128.294 57.0867 125.743 57.1102C125.643 56.1685 125.644 55.2157 125.483 54.2795C125.428 53.9153 125.465 53.5455 125.458 53.1785C125.159 50.2827 125.058 47.3689 124.881 44.4634C124.855 43.9454 124.826 43.4247 124.705 42.9192C124.426 41.8321 124.622 40.7048 124.533 39.601C124.442 38.5443 124.509 37.4711 124.28 36.4282C124.042 35.4173 124.211 34.3454 123.862 33.3552C123.598 34.337 123.307 35.3106 123.013 36.2842C122.494 37.9752 122.179 39.7215 121.615 41.4014C120.716 44.1005 120.096 46.8842 119.2 49.5861C118.369 52.0831 117.827 54.6673 116.928 57.1421C114.908 57.1268 112.886 57.0867 110.866 57.1407C110.585 57.1282 110.18 57.239 110.07 56.8817C109.658 55.7544 109.447 54.5676 109.116 53.4167C108.759 52.1648 108.44 50.9004 108.003 49.6747C107.711 48.8327 107.628 47.9395 107.396 47.0822C107.086 45.9092 106.628 44.7791 106.364 43.5923C106.067 42.404 105.602 41.2587 105.412 40.0428C105.267 39.0304 104.826 38.0956 104.615 37.0985C104.405 35.8687 103.93 34.7027 103.745 33.4673C103.659 33.538 103.584 33.6183 103.52 33.7083C103.388 34.5669 103.647 35.4685 103.341 36.3022C103.215 36.9808 103.247 37.6774 103.204 38.3643C103.124 41.7407 102.802 45.1046 102.613 48.4754C102.347 51.338 102.218 54.2102 102.068 57.0797C100.317 57.1545 98.5615 57.0936 96.8074 57.113C95.9304 57.0922 95.0507 57.1587 94.1778 57.0742C93.9585 56.8997 94.1709 56.5923 94.1488 56.3624C94.1075 55.7046 94.3529 55.0772 94.2881 54.418C94.4453 52.3863 94.717 50.3644 94.8976 48.3383C95.0824 47.0947 94.9638 45.8233 95.223 44.5894C95.3637 43.9482 95.3237 43.2835 95.4726 42.6422C95.5788 41.7282 95.4837 40.7865 95.7567 39.8946C95.9235 37.5791 95.9194 35.2455 96.2835 32.948C96.6309 30.789 96.7095 28.5981 96.9922 26.4321C97.0184 25.6607 96.9702 24.8727 97.1825 24.1207C97.3025 23.7509 97.206 23.3604 97.2653 22.9837C97.5245 21.9118 97.4638 20.7956 97.6238 19.7084Z" fill="black"/>
<path d="M206.912 19.7153C216.031 19.7098 225.152 19.7153 234.271 19.7126C233.719 21.7428 233.483 23.8354 233.045 25.8892C232.983 26.2091 232.595 26.1634 232.354 26.1911C229.632 26.1634 226.906 26.108 224.185 26.2022C223.952 27.4209 224.131 28.677 224.073 29.9109C224.066 37.7106 224.075 45.509 224.069 53.3087C224.09 54.4872 224.039 55.6672 224.121 56.8443C223.975 56.9329 223.855 57.1088 223.671 57.0881C221.161 57.1213 218.651 57.0922 216.141 57.1047C216.132 46.7997 216.14 36.4947 216.137 26.1897C213.224 26.1925 210.31 26.1883 207.396 26.1925C207.227 26.1869 207.063 26.1537 206.908 26.0928C206.925 23.967 206.936 21.8412 206.912 19.7153Z" fill="black"/>
<path d="M173.333 20.3371C174.184 20.1197 175.013 19.8109 175.887 19.6932C175.77 21.0199 175.709 22.3508 175.642 23.6816C175.441 25.115 175.533 26.5664 175.507 28.008C177.637 28.069 179.773 27.9776 181.901 28.0773C181.428 29.6491 180.821 31.1808 180.259 32.7222C180.192 32.984 179.893 33.02 179.671 33.0186C178.311 33.0394 176.949 32.9978 175.591 33.0352C175.573 33.0781 175.54 33.1654 175.522 33.2097C175.501 38.1579 175.512 43.1061 175.52 48.0544C175.511 48.8798 175.639 49.7799 176.236 50.399C176.818 51.0513 177.764 51.0651 178.572 51.0457C179.463 51.0374 180.276 50.6303 181.147 50.4987C181.283 51.1912 181.382 51.8933 181.639 52.5553C181.821 53.3945 181.988 54.2421 182.105 55.0938C180.221 55.9233 178.156 56.4233 176.091 56.3291C174.939 56.3014 173.751 56.3817 172.656 55.9469C170.952 55.3874 169.165 54.3667 168.564 52.558C168.415 51.9224 167.976 51.3587 168.016 50.687C168.009 44.8082 168.014 38.9293 168.014 33.0504C167.121 33.0504 166.231 33.0435 165.34 33.056C165.308 31.4287 165.316 29.8015 165.334 28.1742C166.226 28.1812 167.119 28.177 168.012 28.177C168.049 26.0969 167.902 24.0029 168.189 21.9353C168.252 21.6278 168.565 21.4838 168.844 21.427C169.555 21.2761 170.25 21.06 170.956 20.88C171.741 20.6695 172.552 20.5642 173.333 20.3371Z" fill="black"/>
<path d="M317.286 27.8904C318.834 27.4334 320.463 27.5912 322.049 27.6909C323.411 27.9596 324.771 28.3114 326.045 28.8778C326.721 29.1659 327.247 29.6949 327.811 30.1547C328.699 30.8873 329.466 31.775 330.018 32.7915C330.638 33.8967 330.91 35.1458 331.289 36.3451C331.554 37.1262 331.586 37.9572 331.674 38.7715C331.854 40.6078 331.918 42.4539 331.984 44.2986C326.628 44.2972 321.272 44.2958 315.915 44.2986C316.089 45.599 316.11 46.9825 316.769 48.1541C317.322 49.1346 318.139 50.0057 319.192 50.4406C321.186 51.1718 323.488 51.0859 325.372 50.0708C326.408 49.5113 327.471 48.9864 328.429 48.2954C328.682 48.1015 328.898 48.3979 329.03 48.5904C329.825 49.7758 330.649 50.9433 331.408 52.1537C331.613 52.4251 331.524 52.8517 331.231 53.0206C330.688 53.407 330.124 53.7629 329.567 54.1258C328.519 54.8764 327.283 55.2835 326.121 55.8112C323.866 56.6034 321.431 56.6518 319.074 56.4455C316.544 56.3513 314.157 55.1741 312.257 53.5441C310.939 52.4168 309.96 50.9544 309.227 49.3908C308.607 48.1735 308.388 46.8122 308.097 45.491C307.745 43.8277 307.975 42.1257 307.931 40.4444C307.908 39.511 308.108 38.5942 308.204 37.6705C308.366 36.1069 309.109 34.6916 309.775 33.2942C310.206 32.3539 310.979 31.6504 311.636 30.8734C313.11 29.2794 315.14 28.2047 317.286 27.8904ZM317.021 34.9021C316.312 36.0834 316.041 37.4835 316.108 38.8518C318.783 38.8518 321.461 38.8532 324.138 38.8504C324.084 38.0818 324.019 37.316 323.961 36.5473C323.881 35.5862 323.419 34.6694 322.713 34.0199C321.106 32.473 318.097 32.9508 317.021 34.9021Z" fill="black"/>
<path d="M258.548 28.8114C260.391 28.2754 262.266 27.7339 264.201 27.7367C265.966 27.7436 267.768 27.8932 269.437 28.515C270.185 28.7781 270.796 29.3058 271.488 29.6797C272.408 30.1727 272.953 31.1144 273.434 32.0035C274.005 33.3497 274.06 34.8398 274.147 36.2801C274.216 38.1248 274.1 39.9694 274.114 41.8155C274.117 44.0369 274.03 46.2555 274.022 48.4768C274.015 49.4366 274.325 50.3949 274.876 51.1774C275.293 51.7715 275.934 52.1496 276.395 52.7049C276.52 52.8476 276.451 53.0553 276.341 53.1841C275.4 54.3142 274.523 55.5024 273.456 56.5189C273.087 56.7987 272.971 57.5631 272.392 57.4136C271.313 56.897 270.221 56.3236 269.42 55.411C269.119 55.0828 268.97 54.6091 268.537 54.4222C267.553 55.3044 266.446 56.0757 265.195 56.5203C263.861 56.9884 262.43 57.0313 261.032 57.0036C260.014 56.9704 258.979 57.041 257.99 56.7516C256.61 56.3707 255.232 55.7974 254.199 54.7726C253.526 54.0912 252.924 53.317 252.54 52.4321C251.894 50.6885 251.776 48.7954 251.927 46.9535C252.055 46.1447 252.125 45.3179 252.445 44.5562C252.779 43.71 253.288 42.94 253.845 42.2268C254.731 41.1563 255.989 40.4957 257.248 39.9639C258.383 39.4903 259.62 39.3809 260.814 39.1344C262.768 38.7951 264.759 38.8228 266.734 38.7244C266.803 37.9046 266.739 37.0819 266.612 36.2732C266.519 35.3356 265.865 34.4645 264.971 34.1584C263.855 33.7527 262.642 34.0006 261.53 34.2845C259.6 34.844 257.793 35.7746 256.146 36.9213C255.948 37.0875 255.579 37.2232 255.436 36.9241C254.471 35.3508 253.5 33.7817 252.532 32.2099C252.415 32.0271 252.274 31.7543 252.481 31.5798C254.367 30.3888 256.41 29.447 258.548 28.8114ZM262.014 44.5811C261.279 44.836 260.617 45.347 260.283 46.063C259.602 47.3578 259.683 49.0308 260.526 50.2329C261.037 50.9793 261.907 51.5042 262.824 51.4904C263.708 51.4959 264.519 51.0638 265.28 50.6553C265.883 50.3104 266.564 49.8022 266.556 49.0294C266.396 47.3731 266.553 45.7112 266.679 44.059C265.118 44.1394 263.504 44.0106 262.014 44.5811Z" fill="black"/>
<path d="M191.942 28.1286C193.856 27.9029 195.798 27.5982 197.72 27.9209C200.026 28.1327 202.449 29.0579 203.825 31.0189C204.531 32.0146 204.907 33.2278 204.906 34.4492C205.045 38.5208 205.109 42.5938 204.969 46.6654C204.965 47.8259 204.818 49.0405 205.266 50.1456C205.686 51.2244 206.61 51.9737 207.445 52.7243C207.643 52.9611 207.32 53.209 207.188 53.3946C205.979 54.7352 204.925 56.217 203.601 57.4537C203.119 57.4191 202.72 57.1213 202.311 56.8984C201.224 56.2945 200.292 55.411 199.637 54.3529C198.747 54.9387 198.013 55.7614 197.024 56.1921C195.645 56.7862 194.131 57.0188 192.637 56.9939C191.254 56.9704 189.841 57.023 188.501 56.6228C187.122 56.2045 185.79 55.5079 184.808 54.4305C183.949 53.5026 183.451 52.306 183.084 51.1109C182.738 49.7191 182.753 48.2566 182.888 46.8371C183.09 44.5645 184.238 42.2933 186.167 41.0289C188.134 39.8379 190.394 39.2493 192.646 38.9072C194.342 38.8546 196.039 38.7743 197.737 38.723C197.647 37.4614 197.647 36.1416 197.105 34.9727C196.653 34.1944 195.67 33.9812 194.842 33.905C193.747 33.9396 192.639 34.1293 191.631 34.5725C190.879 34.8813 190.084 35.0932 189.386 35.5198C188.478 36.1097 187.491 36.5543 186.555 37.0889C185.456 35.5807 184.742 33.8219 183.604 32.3387C183.396 32.0963 183.215 31.6808 183.576 31.4814C185.059 30.5162 186.673 29.7558 188.349 29.1894C189.525 28.7753 190.69 28.274 191.942 28.1286ZM192.737 44.6975C191.993 45.0035 191.383 45.6156 191.087 46.3676C190.69 47.4492 190.708 48.6887 191.263 49.7135C191.6 50.7079 192.567 51.3879 193.594 51.4737C194.641 51.5901 195.648 51.1178 196.486 50.5306C196.907 50.2218 197.422 49.8866 197.449 49.305C197.651 47.5434 197.575 45.7597 197.552 43.9912C197.249 44.0576 196.947 44.1144 196.639 44.1075C195.321 44.0936 193.965 44.1823 192.737 44.6975Z" fill="black"/>
<path d="M234.599 29.4289C236.595 29.0065 238.549 28.4138 240.501 27.8169C240.843 27.6854 241.271 27.7477 241.506 28.0524C242.165 28.9705 242.222 30.1339 242.532 31.1808C243.133 30.3887 243.919 29.7641 244.684 29.1395C245.833 28.2296 247.284 27.659 248.763 27.7795C249.709 27.8723 250.761 27.7505 251.596 28.2947C251.619 28.3529 251.669 28.4664 251.694 28.5246C251.298 29.494 251.077 30.5216 250.745 31.5132C250.378 32.6668 250.028 33.8274 249.65 34.9782C248.89 34.7829 248.184 34.3301 247.377 34.3689C246.044 34.4824 244.759 35.0751 243.799 36.0127C243.572 36.2551 243.199 36.4614 243.217 36.8409C243.188 43.2363 243.208 49.6318 243.201 56.0272C240.701 56.0272 238.202 56.0272 235.702 56.0272C235.701 50.23 235.702 44.4329 235.702 38.6357C235.757 35.7634 235.557 32.8482 234.673 30.1006C234.607 29.8818 234.604 29.6533 234.599 29.4289Z" fill="black"/>
<path d="M148.627 28.0981C150.905 27.9028 153.262 27.6674 155.487 28.3418C156.883 28.7711 158.275 29.3639 159.361 30.3693C159.922 30.9177 160.406 31.5381 160.898 32.1489C161.56 32.966 161.852 33.9949 162.223 34.9602C162.52 35.8562 162.896 36.737 163.013 37.6815C163.104 38.4128 163.146 39.1495 163.258 39.8794C163.503 41.4304 163.252 43.0078 163.429 44.5644C158.1 44.5603 152.773 44.5644 147.445 44.5631C147.407 46.0726 147.897 47.5226 148.536 48.8687C148.812 49.4365 149.298 49.87 149.842 50.176C150.629 50.6317 151.459 51.1025 152.385 51.169C153.769 51.1801 155.192 51.1011 156.483 50.5458C157.615 50.0902 158.678 49.4725 159.642 48.7205C159.879 48.4851 160.342 48.3951 160.522 48.7496C161.134 49.6982 161.734 50.6566 162.347 51.6052C162.63 52.0761 163.004 52.5165 163.087 53.0802C162.107 53.8557 161.024 54.4789 159.944 55.0979C158.827 55.7502 157.579 56.1228 156.345 56.4828C155.195 56.8484 153.974 56.7238 152.789 56.7654C151.33 56.7612 149.822 56.8291 148.434 56.3028C146.181 55.5633 143.872 54.4678 142.48 52.4583C141.772 51.4418 140.948 50.4696 140.548 49.2772C140.193 48.1859 139.759 47.114 139.559 45.9798C139.41 45.2029 139.447 44.408 139.389 43.6213C139.376 42.465 139.331 41.303 139.456 40.1494C139.524 39.3711 139.68 38.5997 139.661 37.8145C140.134 36.2454 140.647 34.6652 141.473 33.2416C142.154 32.2029 142.91 31.1781 143.912 30.4302C145.374 29.4608 146.827 28.3086 148.627 28.0981ZM148.861 34.6971C147.859 35.9269 147.59 37.5707 147.575 39.1149C150.271 39.1121 152.966 39.1232 155.662 39.1094C155.688 37.4627 155.527 35.582 154.283 34.3675C152.82 32.9037 150.151 33.1017 148.861 34.6971Z" fill="black"/>
<path d="M341.459 29.6769C341.961 29.422 342.614 29.6616 342.812 30.1976C343.165 31.0839 343.354 32.0284 343.622 32.9438C344.852 31.732 346.091 30.3721 347.785 29.8417C349.435 29.4068 351.243 29.4123 352.809 30.1491C352.295 32.3095 351.436 34.3661 350.865 36.5085C350.787 36.7398 350.47 36.8381 350.27 36.7176C349.813 36.5251 349.367 36.2662 348.861 36.2412C347.284 36.1291 345.746 36.8949 344.683 38.0333C344.501 38.2466 344.226 38.4488 344.254 38.7618C344.233 45.1323 344.24 51.5028 344.251 57.8733C341.753 57.8733 339.254 57.8733 336.755 57.8733C336.755 51.3227 336.777 44.7722 336.742 38.2216C336.736 36.9212 336.491 35.643 336.38 34.3523C336.371 34.0088 336.132 33.7318 336.102 33.3925C335.984 32.6779 335.815 31.9744 335.622 31.2778C336.682 31.0119 337.758 30.7986 338.8 30.4607C339.672 30.1463 340.604 30.0466 341.459 29.6769Z" fill="black"/>
<path d="M38.6697 1.88207C40.1011 1.67988 41.5834 2.07318 42.7624 2.90412C44.3469 4.05219 45.4445 5.79023 45.9975 7.65707C46.6773 9.90059 46.6497 12.3449 45.9644 14.5843C45.3714 16.3971 44.3303 18.1435 42.7294 19.2251C41.1243 20.3856 38.9 20.6446 37.0922 19.8206C35.6981 19.1946 34.5729 18.0659 33.7924 16.7627C32.5293 14.7048 32.1583 12.2064 32.3941 9.82858C32.6465 7.54074 33.5649 5.28059 35.2113 3.65058C36.1656 2.7504 37.3749 2.10365 38.6697 1.88207Z" fill="#56BD1E"/>
<path d="M21.2398 15.3695C23.8392 12.2023 27.5733 10.1443 31.4703 9.05166C29.9989 11.3187 28.8833 13.824 28.3414 16.4816C29.144 16.6907 29.9493 16.8943 30.7435 17.1367C30.2706 17.9995 29.77 18.847 29.2695 19.6959C29.7162 20.2416 30.2416 20.7138 30.767 21.1819C32.5969 22.9878 34.4571 24.7619 36.3145 26.5401C37.0605 27.3336 37.9251 28.0067 38.6477 28.8265C37.7114 28.8667 36.7751 28.9207 35.8429 29.0052C35.3754 29.0218 35.0072 29.4442 35.01 29.9054C34.89 31.4772 34.7646 33.0505 34.6625 34.6223C34.5839 35.1458 35.0376 35.6638 35.5712 35.6194C37.9651 35.5931 40.3672 35.5571 42.7528 35.8022C43.1279 35.8161 43.5678 35.9172 43.8753 35.6361C44.1855 35.4048 44.2407 34.9907 44.18 34.632C43.987 32.9895 43.8077 31.3443 43.6243 29.7004C43.6008 29.2752 43.3375 28.8196 42.881 28.7753C41.8454 28.641 40.803 28.7947 39.7646 28.7698C39.7756 28.7531 39.7991 28.7199 39.8115 28.7033C40.0749 28.6451 40.3686 28.6188 40.5603 28.4014C42.6342 26.3296 44.7923 24.345 46.8731 22.2788C47.7956 21.4852 48.5899 20.5546 49.5207 19.7693C49.0849 18.8539 48.4285 18.0521 48.0879 17.0937C48.8795 16.8985 49.6641 16.6838 50.4473 16.4581C50.0571 14.8377 49.5496 13.2396 48.834 11.7342C48.4203 10.8174 47.8011 10.0155 47.3723 9.10983C48.4148 9.26494 49.3855 9.71364 50.3591 10.1C53.7582 11.5639 56.8263 13.9445 58.7996 17.1159C60.8666 20.3579 61.6154 24.3007 61.4127 28.1078C61.1755 34.5046 59.0754 40.6798 56.2637 46.3717C54.7345 45.2057 53.1404 44.1199 51.6387 42.922C51.9518 41.7143 52.4716 40.5635 52.706 39.3309C53.3459 36.8478 53.681 34.2844 53.6437 31.7182C53.5761 29.0924 52.6523 26.4695 50.9093 24.4904C50.7493 25.4114 50.5438 26.324 50.4308 27.2505C50.3205 27.3322 50.206 27.4098 50.0888 27.4804C48.5237 27.2381 46.9393 27.137 45.359 27.0663C44.7964 27.0123 44.2958 27.5594 44.4048 28.1189C44.653 30.5078 44.9329 32.8954 45.1797 35.2857C45.2239 35.6042 45.3728 35.956 45.6941 36.0778C46.2719 36.2911 46.8965 36.3174 47.4922 36.4587C44.977 38.7756 41.389 39.6093 38.052 39.3019C35.6016 39.054 33.1195 38.1953 31.3158 36.4573C31.8398 36.3105 32.3817 36.2426 32.9057 36.1041C33.318 36.0003 33.5083 35.5613 33.5345 35.1721C33.7883 32.93 34.0075 30.6823 34.2764 28.4415C34.3178 28.0579 34.3605 27.5926 34.0296 27.3184C33.7041 27.0109 33.2257 27.0913 32.8202 27.112C31.353 27.2602 29.8803 27.3502 28.4117 27.4984C28.2463 26.5442 28.0698 25.5914 27.8988 24.6386C27.0107 25.5554 26.4247 26.7118 25.9159 27.871C25.2429 28.0468 24.5383 28.0718 23.8736 28.2837C23.1097 28.5232 22.3085 28.6036 21.5363 28.8168C20.1698 29.2171 18.7964 29.6035 17.4629 30.1117C17.4174 28.2338 17.2188 26.3504 17.4753 24.478C17.8228 21.1639 19.0997 17.9302 21.2398 15.3695Z" fill="#56BD1E"/>
<path d="M29.3632 15.8792C29.6776 14.7477 29.9658 13.5789 30.5794 12.5665C30.7408 13.914 31.1007 15.2297 31.6329 16.4761C30.8731 16.2864 30.1258 16.0523 29.3632 15.8792Z" fill="#56BD1E"/>
<path d="M48.1983 12.5347C48.8078 13.547 49.0463 14.7256 49.4407 15.828C48.6892 16.0897 47.9128 16.2753 47.1392 16.4581C47.6839 15.2103 48.0549 13.8905 48.1983 12.5347Z" fill="#56BD1E"/>
<path d="M31.7888 17.0729C31.9984 17.0452 32.0411 17.3111 32.1528 17.4372C32.9333 18.8373 34.0765 20.0089 35.4016 20.898L35.2885 20.9562C36.2869 23.0418 37.2729 25.1344 38.2588 27.2256C37.4149 26.6024 36.6523 25.8753 35.9353 25.1081C34.0392 23.3188 32.2273 21.4409 30.3809 19.599C30.4402 19.2846 30.6539 19.0242 30.8028 18.7473C31.1517 18.2002 31.4289 17.6117 31.7888 17.0729Z" fill="#56BD1E"/>
<path d="M45.5824 18.9079C46.1243 18.3097 46.4539 17.5604 46.9586 16.9345C47.4509 17.8167 47.9638 18.6891 48.4823 19.5561C47.9638 20.2084 47.2978 20.7152 46.7159 21.3052C45.0625 23.1042 43.2575 24.7522 41.4842 26.4293C41.1932 26.7367 40.8871 27.0359 40.5134 27.2408C41.509 25.097 42.5611 22.9795 43.5236 20.8191C44.2421 20.2194 44.9922 19.6447 45.5824 18.9079Z" fill="#56BD1E"/>
<path d="M20.2691 41.328C21.8369 39.8544 23.8171 38.9667 25.7531 38.097C26.0331 39.2271 26.3075 40.3585 26.6729 41.4651C26.8094 41.9429 27.0287 42.3999 27.1018 42.8943C27.0549 43.0522 26.8853 43.1283 26.7722 43.235C25.8621 43.89 24.9644 44.5631 24.0584 45.2237C23.5454 45.5907 23.0725 46.0186 22.5071 46.3067C21.6646 44.6919 20.9682 43.0078 20.2691 41.328Z" fill="#56BD1E"/>
<path d="M17.4657 31.9564C22.2644 30.084 27.3886 29.0979 32.5266 28.8791C32.3073 30.7847 32.1529 32.6973 31.884 34.5946C28.2739 35.251 24.7231 36.3894 21.5446 38.2535C19.832 39.3475 18.2876 40.7726 17.2685 42.5522C16.9555 43.102 16.6466 43.6712 16.5432 44.3041C17.4354 44.0797 18.271 43.6809 19.1522 43.4191C19.1839 43.4731 19.2459 43.5798 19.2776 43.6338C19.6872 44.516 20.0002 45.448 20.5352 46.2651C20.9213 46.8703 21.1447 47.5641 21.5432 48.161C21.8011 48.5529 22.3872 48.6305 22.7484 48.3369C23.8447 47.5461 24.9148 46.7179 26.0221 45.941C26.8798 45.4286 27.6603 44.8026 28.4725 44.2224C28.7551 44.0008 29.1178 43.7598 29.0985 43.3499C29.0985 42.7253 28.7565 42.1672 28.6076 41.5717C29.6859 41.7669 30.5919 42.422 31.4813 43.0244C34.0972 45.063 35.956 48.0876 36.5255 51.3684C36.782 52.6577 36.7365 54.0039 36.4993 55.2932C36.1215 54.886 35.8222 54.4082 35.4058 54.0385C35.0307 53.7144 34.5191 53.9346 34.1234 54.0939C32.0274 55.0259 29.9272 55.9441 27.8312 56.8747C27.4713 57.0118 27.139 57.3234 27.1556 57.7389C27.0949 58.1613 27.4107 58.4881 27.6079 58.8247C28.4063 60.0794 29.275 61.287 30.1548 62.4849C29.4474 63.1455 28.6834 63.7424 27.9622 64.3878C29.2074 64.6551 30.4899 64.7506 31.7474 64.5096C33.6008 66.7518 35.6512 68.8319 37.881 70.6973C37.2536 71.1488 36.5931 71.5504 35.9491 71.9784C35.1024 72.56 34.1468 72.9492 33.2436 73.4311C31.0318 74.4089 28.6324 74.9988 26.2055 74.9961C21.7928 75.075 17.536 73.1874 14.1907 70.3788C13.7136 69.9564 13.1951 69.5714 12.8118 69.0549C13.4861 69.0147 14.1576 69.1407 14.8292 69.0729C15.4 69.0216 15.9723 68.9995 16.5446 68.9649C17.9663 68.8402 19.3466 68.4594 20.7228 68.0951C20.549 67.2725 20.2884 66.4707 20.1064 65.6494C21.1061 65.6259 22.1059 65.6716 23.1056 65.6231C23.431 64.2521 23.8254 62.8949 24.0322 61.4989C24.2543 60.3065 24.5921 59.139 24.8734 57.9605C25.3202 56.2405 25.6649 54.4927 26.1751 52.7907C26.6564 53.6064 27.0756 54.4609 27.583 55.2613C27.8285 55.6782 28.3925 55.7087 28.7882 55.5037C30.3823 54.7891 32.0067 54.1423 33.5897 53.4042C34.1068 53.1674 34.2075 52.4389 33.8559 52.0165C32.5279 50.122 31.2965 48.1568 30.2017 46.1169C29.9741 45.725 29.7976 45.1973 29.3012 45.0865C28.9165 44.9757 28.5731 45.2236 28.2725 45.4286C27.0756 46.2582 25.8649 47.0683 24.6652 47.8937C24.2474 48.1319 24.0929 48.6873 24.3204 49.1124C24.7217 49.978 25.1464 50.8325 25.5863 51.68C22.5761 50.8491 19.5534 50.0541 16.5666 49.136C15.4056 48.6443 14.1728 48.3632 12.9676 48.0059C12.4491 48.8742 11.9706 49.7661 11.4411 50.6275C10.8288 50.0611 10.3145 49.3949 9.67051 48.8604C8.09989 50.3602 6.64097 52.0138 5.58883 53.9291C5.35579 54.3875 5.15998 54.8694 4.84282 55.2807C3.87342 51.5803 3.79206 47.5821 4.95038 43.9135C5.97769 40.623 8.09714 37.7286 10.8081 35.6319C12.8186 34.0642 15.1256 32.9355 17.4657 31.9564Z" fill="#A9B411"/>
<path d="M13.2185 49.1512C13.3068 48.9365 13.5509 49.0487 13.7136 49.0764C14.9146 49.4115 16.0978 49.8201 17.325 50.0486C19.5534 50.6939 21.797 51.3033 23.9826 52.0871C22.1445 52.2436 20.3049 52.3849 18.4668 52.5359C17.94 52.5802 17.4064 52.5788 16.8893 52.7034C16.0509 52.3738 15.2125 52.0151 14.3162 51.8739C13.4819 51.7118 12.6325 51.7091 11.7858 51.698C12.2381 50.8352 12.7056 49.978 13.2185 49.1512Z" fill="#A9B411"/>
<path d="M8.00337 51.8241C8.55633 51.2313 9.02931 50.5638 9.65121 50.0417C10.2207 50.568 10.7737 51.1136 11.2894 51.6939C10.4813 51.9141 9.62639 51.9362 8.84039 52.2479C8.65699 52.2894 8.47221 52.4279 8.27916 52.3628C8.16609 52.1938 8.08749 52.0069 8.00337 51.8241Z" fill="#A9B411"/>
<path d="M10.9571 53.5427C12.7593 53.3238 14.6816 53.4042 16.3294 54.242C17.8587 55.066 19.1315 56.5299 19.3493 58.3067C19.6596 59.6209 19.2252 60.9297 18.9122 62.1955C18.5385 63.4793 17.7291 64.5664 16.8838 65.5746C16.1874 66.5856 15.0705 67.1838 13.9494 67.6007C12.9814 68.0646 11.994 68.5466 10.9047 68.6255C9.08032 69.0244 7.11945 69.0244 5.37922 68.2821C4.13403 67.7877 3.14671 66.8182 2.38829 65.7339C1.6864 64.3808 1.54989 62.7813 1.86153 61.2994C2.33037 59.1279 3.71621 57.232 5.45368 55.8942C6.08938 55.3859 6.76368 54.8998 7.54141 54.6395C8.62251 54.1202 9.76565 53.7102 10.9571 53.5427Z" fill="#A9B411"/>
<path d="M20.9917 59.8772C22.4023 57.9245 23.711 55.8984 25.1065 53.9346C24.7217 56.0314 24.1384 58.0879 23.6475 60.1625C23.169 61.6914 22.8036 63.2536 22.441 64.8143C21.4192 64.7949 20.396 64.7894 19.3742 64.7783C19.7051 64.0831 20.1064 63.4198 20.3587 62.6885C20.6966 61.7842 20.869 60.8314 20.9917 59.8772Z" fill="#A9B411"/>
<path d="M40.7837 59.4187C41.9447 58.2748 43.0755 57.1032 44.1442 55.8707C45.8885 56.6157 47.6219 57.3885 49.3538 58.1613C48.4879 59.7096 47.3613 61.0945 46.3022 62.5126C44.2462 61.9434 42.466 60.6942 40.7837 59.4187Z" fill="#A9B411"/>
<path d="M17.3195 67.1119C17.9869 66.5773 18.4406 65.8377 19.0473 65.2436C19.2859 65.9776 19.4776 66.7268 19.6527 67.4802C19.0432 67.6617 18.4185 67.7794 17.798 67.9095C17.3443 68.0051 16.8617 67.8583 16.4301 68.066C16.459 68.0217 16.5156 67.9317 16.5445 67.886C16.8824 67.7129 17.0285 67.3404 17.3195 67.1119Z" fill="#A9B411"/>
<path d="M371.872 9.5451C371.862 9.61755 371.843 9.76244 371.834 9.83489C375.808 9.83215 379.783 9.83352 383.758 9.83352C378.629 20.4188 373.509 31.0055 368.376 41.5895C372.352 41.5895 376.329 41.5881 380.306 41.5895C380.724 35.3332 381.146 29.0782 381.56 22.8219C384.435 22.1343 387.315 21.4632 390.192 20.7824C390.194 27.822 390.192 34.8616 390.192 41.9025C392.127 41.9039 394.064 41.9011 396 41.9025V51.4408C394.064 51.4422 392.127 51.4394 390.192 51.4422C390.195 56.0309 390.191 60.6196 390.194 65.2083C386.845 65.7318 383.497 66.2539 380.148 66.772C380.15 61.5039 380.148 56.2359 380.148 50.9678C372.25 50.9692 364.353 50.9678 356.455 50.9692C356.451 48.6058 356.462 46.2424 356.449 43.8791C356.446 43.5975 356.442 43.305 356.572 43.0466C360.569 34.3175 364.562 25.5871 368.559 16.8581C369.655 14.4168 370.821 12.0055 371.872 9.5451Z" fill="#F5941F"/>
<path d="M46.2278 28.8598C47.9969 28.9359 49.7565 29.1465 51.5105 29.3805C52.0221 31.4509 51.9214 33.6321 51.5932 35.7247C50.0254 35.2968 48.4575 34.8619 46.8538 34.5863C46.6359 32.6779 46.4125 30.7709 46.2278 28.8598Z" fill="#3E8FCA"/>
<path d="M62.7475 32.6129C63.7597 33.0768 64.7498 33.5892 65.7219 34.1321C68.8135 35.956 71.4721 38.6247 72.9945 41.9124C74.2121 44.3623 74.6437 47.1349 74.6561 49.852C74.6175 51.6413 74.3004 53.4153 73.8894 55.1534C73.5199 54.2767 72.8869 53.5594 72.4098 52.7451C71.5163 51.2785 70.3235 50.0279 69.0838 48.8535C68.495 49.4241 67.9227 50.0127 67.3491 50.5971C66.741 49.7883 66.3259 48.8535 65.7854 48.0004C63.477 48.6485 61.1893 49.3798 58.8548 49.9323C57.9902 50.1719 57.1587 50.5223 56.2872 50.7397C55.2488 51.0098 54.245 51.41 53.1859 51.597C53.6189 50.7785 54.0285 49.9476 54.4173 49.1069C54.6269 48.6873 54.5014 48.1292 54.0781 47.8993C52.8977 47.1058 51.7353 46.2845 50.5521 45.4951C50.2308 45.2999 49.9026 45.0146 49.5 45.0838C49.1263 45.1198 48.8933 45.4481 48.7319 45.7527C47.5474 47.8993 46.2664 49.9919 44.875 52.0111C44.4765 52.4653 44.6544 53.2547 45.2363 53.4541C46.8317 54.1576 48.4286 54.8598 50.0281 55.5564C50.4184 55.7392 50.9313 55.6436 51.1644 55.2586C51.6332 54.4942 52.0524 53.6992 52.4923 52.9168C52.8812 54.0372 53.0591 55.2157 53.3748 56.3582C54.1374 59.4466 54.8986 62.5349 55.6404 65.6273C56.636 65.6786 57.6344 65.6329 58.6314 65.6606C58.5114 66.4818 58.1005 67.2643 58.0784 68.0897C60.5826 68.9206 63.2357 69.217 65.8653 69.084C64.9883 70.0091 63.9789 70.793 62.9516 71.5422C60.5426 73.2013 57.7985 74.4616 54.8834 74.8382C51.3933 75.3299 47.7832 74.6305 44.6695 72.9977C41.8758 71.671 39.4723 69.6809 37.1639 67.6493C35.9904 66.468 34.8556 65.252 33.7193 64.0347C32.1335 62.1831 30.676 60.2235 29.3467 58.1794C31.0993 57.4025 32.852 56.6241 34.6129 55.8652C35.7367 57.2903 37.0302 58.563 38.3484 59.8052C39.3565 60.6043 40.3121 61.4768 41.4332 62.1208C42.8052 63.1096 44.3317 63.8948 45.9644 64.3449C47.5626 64.6994 49.2476 64.8449 50.8541 64.4599C50.075 63.7771 49.2794 63.1137 48.4878 62.4462C49.3745 61.1957 50.2998 59.97 51.112 58.6682C51.2623 58.4231 51.4195 58.178 51.5091 57.9024C51.5781 57.4634 51.2182 57.113 50.8514 56.951C48.7112 56.0079 46.5697 55.0661 44.4324 54.1161C44.1331 53.9928 43.7774 53.8322 43.4809 54.0524C42.9858 54.418 42.6673 54.9664 42.2426 55.4054C41.8358 53.1924 42.0564 50.8602 42.9445 48.787C43.5871 47.3925 44.2738 45.9826 45.3494 44.8664C46.6249 43.3292 48.31 42.1465 50.1991 41.5053C50.024 42.0717 49.7716 42.6173 49.66 43.2031C49.5786 43.6158 49.9123 43.9358 50.217 44.149C52.0717 45.5242 53.9388 46.8828 55.7852 48.2677C56.0817 48.4962 56.4692 48.6873 56.8456 48.5447C57.2828 48.4491 57.4469 47.9935 57.6303 47.639C58.2729 46.2707 59.0464 44.9592 59.5649 43.5341C60.5081 43.7294 61.4086 44.0798 62.3145 44.3997C61.8885 43.2156 61.2734 42.1188 60.4957 41.1327C60.9687 39.8129 61.4444 38.489 61.7588 37.1207C62.1132 35.6236 62.5697 34.146 62.7475 32.6129Z" fill="#3E8FCA"/>
<path d="M62.6565 49.7647C63.5818 49.5182 64.485 49.1789 65.4323 49.0252C65.9012 49.9239 66.4459 50.7812 66.9037 51.6869C66.068 51.6897 65.2269 51.68 64.405 51.8476C63.5156 51.9999 62.68 52.3503 61.8526 52.6993C61.33 52.5691 60.7867 52.5705 60.253 52.5248C58.4369 52.3738 56.6209 52.2312 54.8048 52.083C57.4041 51.2534 60.042 50.5444 62.6565 49.7647Z" fill="#3E8FCA"/>
<path d="M67.516 51.7202C67.9227 51.0637 68.5653 50.5942 69.0893 50.0347C69.5775 50.4073 69.8478 50.982 70.3387 51.3518C70.6931 51.8143 71.1357 52.234 71.3646 52.7782C70.6779 52.5843 70.0256 52.288 69.3486 52.0692C68.7377 51.9473 68.1227 51.8531 67.516 51.7202Z" fill="#3E8FCA"/>
<path d="M53.6479 53.9831C55.0172 55.9413 56.3161 57.9563 57.7378 59.8758C57.8895 61.6152 58.5238 63.2591 59.3581 64.7756C58.3363 64.788 57.3145 64.8282 56.2927 64.8129C55.3991 61.2053 54.5249 57.5935 53.6479 53.9831Z" fill="#3E8FCA"/>
<path d="M59.6435 65.3669C59.8683 65.371 59.9662 65.6425 60.1248 65.7713C60.5357 66.1494 60.7784 66.6812 61.2569 66.9872C61.6734 67.3639 62.1532 67.681 62.5131 68.1159C61.3438 68.0757 60.2034 67.7821 59.0809 67.4816C59.2616 66.7753 59.427 66.0635 59.6435 65.3669Z" fill="#3E8FCA"/>
<path d="M63.8617 53.8349C65.2572 53.3765 66.7699 53.4208 68.2026 53.6715L68.2247 53.6978C68.6508 54.1922 69.1182 54.6686 69.3706 55.2835C69.3044 55.2655 69.1693 55.2323 69.1031 55.2157C68.768 55.1284 68.4357 55.0329 68.0992 54.9553C67.7683 54.8944 67.4332 54.857 67.0995 54.8223C65.5454 54.6409 63.9169 54.9941 62.6179 55.8818C62.6137 55.0065 63.3432 54.4401 63.8617 53.8349Z" fill="#3E8FCA"/>
<path d="M61.1962 55.3582C61.9698 54.681 62.8454 54.069 63.8617 53.8349C63.3432 54.4401 62.6137 55.0065 62.6179 55.8818C62.3973 56.0618 62.189 56.2556 61.9863 56.4551C61.7312 56.7113 61.5037 56.9952 61.3231 57.3095C61.2445 57.4536 61.1727 57.6018 61.1038 57.7527C61.0859 56.9522 61.0721 56.1504 61.1962 55.3582Z" fill="#3E8FCA"/>
<path d="M70.7537 54.5301C71.137 54.7032 71.5135 54.893 71.8775 55.1076C71.9423 55.8125 72.1505 56.4925 72.2374 57.1919C72.0182 57.8552 72.0844 58.6252 71.6334 59.1931C71.1756 59.88 70.8102 60.6458 70.1607 61.1804C69.0783 62.2661 67.5628 62.8159 66.0542 62.8866C64.7277 62.845 63.4135 62.4143 62.3421 61.6249C61.7629 61.2275 61.3175 60.6389 60.6474 60.3827C60.395 59.4866 59.98 58.6432 59.7966 57.7278C60.0475 56.8318 60.5577 56.0271 61.1962 55.3582C61.0721 56.1504 61.0859 56.9522 61.1038 57.7527L61.0555 57.8677C60.9549 58.0962 60.8515 58.3233 60.7577 58.556C60.635 59.0352 60.6419 59.5365 60.7315 60.0226C61.2348 60.0752 61.7919 60.0295 62.2249 60.3397C62.7213 60.6763 63.1722 61.0834 63.7128 61.3535C65.9798 62.5306 69.0741 61.6679 70.3883 59.4673C70.7013 58.9839 71.1357 58.5061 71.1136 57.8899C71.1177 57.3539 71.1398 56.811 71.3287 56.3028C71.0446 55.7447 70.8543 55.1464 70.7537 54.5301Z" fill="#3E8FCA"/>
<path d="M67.0995 54.8223C67.4332 54.857 67.7683 54.8944 68.0992 54.9553C67.7945 55.3154 67.5821 55.7363 67.3766 56.1587C67.0829 56.5437 66.8071 56.9578 66.4334 57.268C65.6902 57.3843 64.9345 57.2777 64.1871 57.3026C64.0947 57.0423 64.0561 56.7085 63.779 56.5742C63.4191 56.444 63.0274 56.4551 62.6524 56.4177C62.8992 56.3152 63.1584 56.2279 63.4328 56.2446C64.7704 56.3083 66.159 55.7876 67.0995 54.8223Z" fill="#3E8FCA"/>
<path d="M71.8775 55.1076C72.4208 55.4151 72.9159 55.7973 73.3916 56.2017C73.2758 57.07 73.5047 57.9716 73.211 58.815C72.9972 59.5143 72.5229 60.0863 72.1905 60.7289C71.2653 62.1152 69.907 63.2522 68.3102 63.7618C66.581 64.3587 64.6174 64.2784 62.9654 63.4779C61.5754 62.8048 60.3137 61.7537 59.6173 60.3494C59.4794 59.4783 59.4822 58.5615 59.7966 57.7278C59.98 58.6432 60.395 59.4866 60.6474 60.3827C61.3175 60.6389 61.7629 61.2275 62.3421 61.6249C63.4135 62.4143 64.7277 62.845 66.0542 62.8866C67.5628 62.8159 69.0783 62.2661 70.1607 61.1804C70.8102 60.6458 71.1756 59.88 71.6334 59.1931C72.0844 58.6252 72.0182 57.8552 72.2374 57.1919C72.1505 56.4925 71.9423 55.8125 71.8775 55.1076Z" fill="#3E8FCA"/>
<path d="M69.1031 55.2157C69.1693 55.2323 69.3044 55.2655 69.3706 55.2835C69.4313 55.3001 69.5512 55.3333 69.6119 55.35C69.0824 56.0756 68.5901 56.8262 68.0923 57.5727C67.7986 58.0076 67.538 58.5324 67.0209 58.7374C66.0225 59.1999 64.929 58.7319 63.9045 58.628C63.699 58.3842 63.4839 58.1502 63.2646 57.9217C63.5473 57.9203 63.8314 57.9134 64.1154 57.912C64.8518 57.894 65.5964 58.0214 66.3273 57.8898C66.9616 57.6807 67.3849 57.1254 67.8014 56.6337C68.0606 56.3374 68.2509 55.9731 68.5832 55.7502C68.7942 55.6103 68.961 55.422 69.1031 55.2157Z" fill="#3E8FCA"/>
<path d="M69.6119 55.35C69.9442 55.4566 70.2628 55.602 70.5813 55.746C70.2545 56.2308 69.9029 56.7044 69.6795 57.2487C69.5057 57.66 69.5568 58.1419 69.3292 58.5311C68.4839 59.6057 67.2043 60.5239 65.7798 60.3965C64.5126 60.3093 63.517 59.3565 62.2387 59.3177C62.56 59.2138 62.8703 59.0781 63.175 58.9368C62.9668 58.8468 62.7586 58.7568 62.5476 58.6779C62.9985 58.6571 63.4508 58.6114 63.9045 58.628C64.929 58.7319 66.0225 59.1999 67.0209 58.7374C67.538 58.5324 67.7986 58.0076 68.0923 57.5727C68.5901 56.8262 69.0824 56.0756 69.6119 55.35Z" fill="#3E8FCA"/>
<path d="M66.4334 57.268C66.8071 56.9578 67.0829 56.5437 67.3766 56.1587C67.5187 56.3166 67.6593 56.4745 67.8014 56.6337C67.3849 57.1254 66.9616 57.6807 66.3273 57.8898C65.5964 58.0214 64.8518 57.894 64.1154 57.912C64.1375 57.7084 64.1609 57.5048 64.1871 57.3026C64.9345 57.2777 65.6902 57.3843 66.4334 57.268Z" fill="#3E8FCA"/>
<path d="M62.6179 55.8818C63.9169 54.9941 65.5454 54.6409 67.0995 54.8223C66.159 55.7876 64.7704 56.3083 63.4328 56.2446C63.1584 56.2279 62.8992 56.3152 62.6524 56.4177C62.4304 56.4343 62.207 56.444 61.9863 56.4551C62.189 56.2556 62.3973 56.0618 62.6179 55.8818Z" fill="#3E8FCA"/>
<path d="M68.2247 53.6978C69.1045 53.8294 69.9553 54.1423 70.7537 54.5301C70.8543 55.1464 71.0446 55.7447 71.3287 56.3028C71.1398 56.811 71.1177 57.3539 71.1136 57.8899C71.1357 58.5061 70.7013 58.9839 70.3883 59.4673C69.0741 61.6679 65.9798 62.5306 63.7128 61.3535C63.1722 61.0834 62.7213 60.6763 62.2249 60.3397C61.7919 60.0295 61.2348 60.0752 60.7315 60.0226C60.6419 59.5365 60.635 59.0352 60.7577 58.556C60.7853 58.779 60.8156 59.0019 60.8459 59.2263C61.312 59.2304 61.7767 59.2609 62.2387 59.3177C63.517 59.3565 64.5126 60.3093 65.7798 60.3965C67.2043 60.5239 68.4839 59.6057 69.3292 58.5311C69.5568 58.1419 69.5057 57.66 69.6795 57.2487C69.9029 56.7044 70.2545 56.2308 70.5813 55.746C70.2628 55.602 69.9442 55.4566 69.6119 55.35C69.5512 55.3333 69.4313 55.3001 69.3706 55.2835C69.1182 54.6686 68.6508 54.1922 68.2247 53.6978Z" fill="#3E8FCA"/>
<path d="M68.0992 54.9553C68.4357 55.0329 68.768 55.1284 69.1031 55.2157C68.961 55.422 68.7942 55.6103 68.5832 55.7502C68.2509 55.9731 68.0606 56.3374 67.8014 56.6337C67.6593 56.4745 67.5187 56.3166 67.3766 56.1587C67.5821 55.7363 67.7945 55.3154 68.0992 54.9553Z" fill="#3E8FCA"/>
<path d="M73.3916 56.2017C73.9128 56.5894 74.3128 57.1087 74.7527 57.5824C74.5306 58.2624 74.4851 58.977 74.4052 59.6833C74.2342 60.0364 73.9267 60.3148 73.7833 60.6887C73.2358 61.8977 72.2871 62.8588 71.2929 63.7064C69.1307 65.4403 66.1232 65.9194 63.4894 65.1508C62.7475 64.9071 62.0677 64.5124 61.341 64.2312C61.1507 64.1191 61.0501 63.9044 60.9232 63.7327C60.2654 62.7162 59.6849 61.5792 59.6173 60.3494C60.3137 61.7537 61.5754 62.8048 62.9654 63.4779C64.6174 64.2784 66.581 64.3587 68.3102 63.7618C69.907 63.2522 71.2653 62.1152 72.1905 60.7289C72.5229 60.0863 72.9972 59.5143 73.211 58.815C73.5047 57.9716 73.2758 57.07 73.3916 56.2017Z" fill="#3E8FCA"/>
<path d="M61.3231 57.3095C61.5037 56.9952 61.7312 56.7113 61.9863 56.4551C62.207 56.444 62.4304 56.4343 62.6524 56.4177C63.0274 56.4551 63.4191 56.444 63.779 56.5742C64.0561 56.7085 64.0947 57.0423 64.1871 57.3026C63.2329 57.3442 62.2773 57.3054 61.3231 57.3095Z" fill="#3E8FCA"/>
<path d="M61.1038 57.7527C61.1727 57.6018 61.2445 57.4536 61.3231 57.3095C62.2773 57.3054 63.2329 57.3442 64.1871 57.3026C64.1609 57.5048 64.1375 57.7084 64.1154 57.912C63.8314 57.9134 63.5473 57.9203 63.2646 57.9217C62.5269 57.9175 61.7905 57.8954 61.0555 57.8677L61.1038 57.7527Z" fill="#3E8FCA"/>
<path d="M74.7527 57.5824C75.4463 58.2693 75.8972 59.1695 76.3081 60.0475C76.9273 61.5155 77.1713 63.2341 76.6087 64.7589C75.9923 66.3931 74.6603 67.7794 72.9959 68.3319C70.0698 69.4426 66.7382 68.6325 64.1789 66.9803C63.1943 66.3765 62.4 65.5331 61.5975 64.7146C61.4568 64.5872 61.3907 64.4071 61.341 64.2312C62.0677 64.5124 62.7475 64.9071 63.4894 65.1508C66.1232 65.9194 69.1307 65.4403 71.2929 63.7064C72.2871 62.8588 73.2358 61.8977 73.7833 60.6887C73.9267 60.3148 74.2342 60.0364 74.4052 59.6833C74.4851 58.977 74.5306 58.2624 74.7527 57.5824Z" fill="#3E8FCA"/>
<path d="M60.7577 58.556C60.8515 58.3233 60.9549 58.0962 61.0555 57.8677C61.7905 57.8954 62.5269 57.9175 63.2646 57.9217C63.4839 58.1502 63.699 58.3842 63.9045 58.628C63.4508 58.6114 62.9985 58.6571 62.5476 58.6779C61.9505 58.6335 61.3548 58.5754 60.7577 58.556Z" fill="#3E8FCA"/>
<path d="M60.7577 58.556C61.3548 58.5754 61.9505 58.6335 62.5476 58.6779C62.7586 58.7568 62.9668 58.8468 63.175 58.9368C62.8703 59.0781 62.56 59.2138 62.2387 59.3177C61.7767 59.2609 61.312 59.2304 60.8459 59.2263C60.8156 59.0019 60.7853 58.779 60.7577 58.556Z" fill="#3E8FCA"/>
</g>
<defs>
<clipPath id="clip0_1259_2980">
<rect width="393" height="77" fill="white"/>
</clipPath>
</defs>
</svg>
