<?xml version="1.0" standalone="no"?>
<!DOCTYPE svg PUBLIC "-//W3C//DTD SVG 20010904//EN"
 "http://www.w3.org/TR/2001/REC-SVG-20010904/DTD/svg10.dtd">
<svg version="1.0" xmlns="http://www.w3.org/2000/svg"
 width="227.000000pt" height="222.000000pt" viewBox="0 0 227.000000 222.000000"
 preserveAspectRatio="xMidYMid meet">

<g transform="translate(0.000000,222.000000) scale(0.100000,-0.100000)"
fill="#000000" stroke="none">
<path d="M1095 2204 c-54 -18 -85 -43 -122 -97 -47 -70 -60 -145 -39 -227 29
-113 100 -188 188 -197 121 -13 241 143 225 292 -15 147 -146 266 -252 229z"/>
<path d="M799 2001 c-98 -41 -148 -73 -206 -132 -90 -91 -145 -219 -159 -376
l-7 -71 60 30 c33 16 98 37 145 45 83 16 84 17 100 55 21 49 48 51 48 3 0 -35
0 -35 46 -35 25 0 82 10 127 21 158 42 334 26 470 -42 32 -17 61 -29 63 -27 2
2 10 29 17 59 16 62 38 75 55 32 20 -51 32 -107 32 -150 0 -23 5 -45 10 -48
20 -12 90 -124 111 -177 11 -29 27 -80 33 -113 11 -53 14 -57 24 -39 20 38 52
178 62 276 21 210 -34 409 -150 541 -48 54 -154 127 -228 156 l-52 21 5 -23
c4 -13 1 -60 -4 -106 -19 -149 -96 -250 -214 -282 -93 -25 -217 34 -274 129
-35 60 -58 160 -52 235 2 26 4 47 4 46 0 0 -30 -13 -66 -28z"/>
<path d="M1896 1262 c-4 -37 -14 -92 -23 -122 -10 -30 -17 -57 -18 -60 0 -3
-6 -14 -12 -26 -10 -18 -9 -24 12 -42 14 -12 25 -31 25 -42 0 -22 -16 -23 -38
-2 -7 6 -18 12 -23 12 -13 0 -66 -109 -72 -150 -9 -53 -12 -64 -20 -77 -5 -7
-5 -13 -1 -13 3 0 1 -6 -5 -14 -7 -8 -14 -25 -16 -37 -3 -13 -9 -25 -15 -27
-6 -2 -8 -8 -4 -13 3 -5 0 -9 -6 -9 -6 0 -8 -4 -5 -10 3 -5 1 -10 -4 -10 -6 0
-11 -7 -11 -15 0 -8 -4 -15 -10 -15 -5 0 -10 -4 -10 -9 0 -13 -128 -141 -140
-141 -6 0 -10 -4 -10 -10 0 -5 -7 -10 -15 -10 -8 0 -15 -5 -15 -11 0 -5 -4 -8
-9 -5 -5 4 -11 0 -14 -6 -2 -7 11 -30 29 -51 19 -20 34 -42 34 -48 0 -16 -79
-8 -128 14 -62 27 -79 28 -159 17 -83 -13 -207 0 -283 29 l-47 18 79 -79 c43
-43 82 -78 87 -78 5 0 11 -7 15 -15 3 -8 12 -15 20 -15 7 0 17 -7 20 -16 3 -8
10 -13 15 -10 5 3 12 -1 15 -10 4 -9 9 -14 12 -11 4 3 15 -3 27 -13 11 -11 24
-17 29 -14 4 3 8 0 8 -6 0 -6 4 -9 9 -6 5 4 11 1 13 -4 2 -6 10 -12 18 -14 8
-1 24 -7 36 -14 81 -44 286 -67 379 -41 22 6 40 10 40 8 0 -1 11 4 25 11 14 8
27 15 30 15 23 4 50 18 50 26 0 6 4 8 9 5 5 -3 20 5 34 18 14 13 28 22 31 19
2 -3 12 7 21 21 9 13 24 27 33 29 12 3 10 5 -5 6 -13 0 -23 6 -23 12 0 5 -4 7
-10 4 -5 -3 -10 -1 -10 4 0 6 -7 11 -15 11 -8 0 -15 5 -15 10 0 6 -5 10 -11
10 -7 0 -18 8 -25 18 -7 9 -18 17 -26 17 -7 0 -19 13 -26 28 -8 16 -20 31 -28
34 -8 3 -11 9 -8 14 3 5 1 9 -4 9 -18 0 -36 77 -36 150 0 70 6 110 16 110 4 0
8 6 8 13 0 16 42 57 58 57 7 0 12 4 12 8 0 4 24 17 53 27 59 22 153 25 207 7
19 -7 37 -11 40 -9 3 1 19 -8 36 -20 17 -12 34 -20 38 -16 3 3 6 1 6 -5 0 -7
7 -12 15 -12 8 0 15 -6 16 -12 1 -29 21 42 29 104 9 77 -3 203 -22 226 -7 8
-12 18 -10 21 5 10 -30 81 -40 81 -5 0 -6 5 -3 10 3 6 -1 13 -9 16 -9 3 -16
10 -16 14 0 8 -118 130 -125 130 -2 0 -16 11 -31 25 -14 13 -30 22 -35 19 -5
-3 -9 -1 -9 4 0 6 -6 12 -14 15 -10 4 -15 -11 -20 -61z"/>
<path d="M1890 679 c-19 -6 -38 -16 -42 -22 -4 -7 -8 -8 -8 -4 0 14 -72 -66
-81 -91 -15 -39 -10 -101 11 -148 18 -39 110 -145 110 -126 0 4 4 2 8 -4 27
-41 177 -68 237 -43 17 7 33 12 38 11 4 -1 7 2 7 8 0 5 6 10 13 10 18 0 49 34
40 43 -3 4 -1 7 5 7 38 0 38 178 0 202 -7 4 -9 8 -4 8 6 0 1 7 -10 15 -10 8
-15 15 -10 15 15 0 -46 60 -61 60 -7 0 -13 4 -13 9 0 15 -96 50 -151 55 -30 3
-70 1 -89 -5z"/>
</g>
</svg>
