<?xml version="1.0" encoding="utf-8"?>
<!-- Generator: Adobe Illustrator 16.0.0, SVG Export Plug-In . SVG Version: 6.00 Build 0)  -->
<!DOCTYPE svg PUBLIC "-//W3C//DTD SVG 1.1//EN" "http://www.w3.org/Graphics/SVG/1.1/DTD/svg11.dtd">
<svg version="1.1" id="Слой_1" xmlns="http://www.w3.org/2000/svg" xmlns:xlink="http://www.w3.org/1999/xlink" x="0px" y="0px"
	 width="15px" height="13px" viewBox="0 0 15 13" enable-background="new 0 0 15 13" xml:space="preserve">
<title>Briefcase</title>
<desc>Created with Sketch.</desc>
<g id="Page-1">
	<g id="Personal-details-2_x2F_2" transform="translate(-924.000000, -235.000000)">
		<g id="Fields" transform="translate(583.000000, 189.000000)">
			<g id="Account-type">
				<g id="Group-6" transform="translate(341.000000, 44.000000)">
					<g id="Briefcase" transform="translate(0.000000, 2.000000)">
						<path id="Fill-1348" fill="#FFFFFF" d="M13.711,2.401h-2.482h-0.994v-1.44c0-0.439-0.357-0.796-0.797-0.796H5.563
							c-0.439,0-0.796,0.357-0.796,0.796V2.4H3.773H1.29H0.794C0.382,2.401,0.046,2.737,0.046,3.149v8.938
							c0,0.412,0.336,0.748,0.748,0.748h13.413c0.412,0,0.746-0.336,0.746-0.748V3.149c0-0.413-0.334-0.749-0.746-0.749
							L13.711,2.401L13.711,2.401z M5.767,1.412c0-0.165,0.082-0.251,0.247-0.251h2.979c0.164,0,0.246,0.086,0.246,0.251v0.989
							H5.767V1.412z"/>
					</g>
				</g>
			</g>
		</g>
	</g>
</g>
</svg>
