<?xml version="1.0" encoding="utf-8"?>
<!-- Generator: Adobe Illustrator 16.0.0, SVG Export Plug-In . SVG Version: 6.00 Build 0)  -->
<!DOCTYPE svg PUBLIC "-//W3C//DTD SVG 1.1//EN" "http://www.w3.org/Graphics/SVG/1.1/DTD/svg11.dtd">
<svg version="1.1" id="Слой_1" xmlns="http://www.w3.org/2000/svg" xmlns:xlink="http://www.w3.org/1999/xlink" x="0px" y="0px"
	 width="12px" height="15px" viewBox="0 0 12 15" enable-background="new 0 0 12 15" xml:space="preserve">
<title>298 - User (Solid)</title>
<desc>Created with Sketch.</desc>
<g id="Page-1">
	<g id="Personal-details-2_x2F_2" transform="translate(-614.000000, -235.000000)">
		<g id="Fields" transform="translate(583.000000, 189.000000)">
			<g id="Account-type">
				<g id="Group-2" transform="translate(31.000000, 44.000000)">
					<g id="User" transform="translate(0.000000, 2.000000)">
						<path id="Fill-83" fill="#FFFFFF" d="M10.472,10.701L8.099,9.514C7.876,9.402,7.735,9.178,7.735,8.928v-0.84
							c0.059-0.07,0.119-0.147,0.18-0.235c0.307-0.436,0.555-0.918,0.734-1.44c0.35-0.161,0.576-0.507,0.576-0.898V4.521
							c0-0.239-0.088-0.472-0.246-0.652v-1.32c0.015-0.137,0.066-0.949-0.52-1.621c-0.512-0.58-1.338-0.876-2.461-0.876
							s-1.951,0.296-2.46,0.876C2.95,1.599,3.005,2.411,3.019,2.548v1.32C2.86,4.049,2.771,4.281,2.771,4.521v0.993
							c0,0.302,0.137,0.584,0.372,0.771c0.228,0.9,0.704,1.58,0.869,1.797v0.82c0,0.24-0.131,0.463-0.341,0.578l-2.215,1.207
							c-0.72,0.395-1.167,1.146-1.167,1.965v0.807c0,1.178,3.735,1.49,5.711,1.49c1.976,0,5.711-0.313,5.711-1.49v-0.756
							C11.71,11.85,11.235,11.084,10.472,10.701"/>
					</g>
				</g>
			</g>
		</g>
	</g>
</g>
</svg>
