<svg width="23" height="23" viewBox="0 0 23 23" fill="none" xmlns="http://www.w3.org/2000/svg">
<rect width="23" height="23" rx="2" fill="#34E834"/>
<mask id="mask0_249_287" style="mask-type:alpha" maskUnits="userSpaceOnUse" x="0" y="0" width="23" height="23">
<rect width="23" height="23" rx="2" fill="#34E834"/>
</mask>
<g mask="url(#mask0_249_287)">
<path d="M6.83621 10.5709C6.32307 10.1091 5.53271 10.1507 5.07088 10.6638C4.60906 11.1769 4.65066 11.9673 5.16379 12.4291L6.83621 10.5709ZM11 16L10.1638 16.9291C10.658 17.3739 11.4138 17.354 11.8839 16.8839L11 16ZM25.8839 2.88388C26.372 2.39573 26.372 1.60427 25.8839 1.11612C25.3957 0.627961 24.6043 0.627961 24.1161 1.11612L25.8839 2.88388ZM5.16379 12.4291L10.1638 16.9291L11.8362 15.0709L6.83621 10.5709L5.16379 12.4291ZM11.8839 16.8839L25.8839 2.88388L24.1161 1.11612L10.1161 15.1161L11.8839 16.8839Z" fill="black"/>
</g>
</svg>
