<svg width="52" height="51" viewBox="0 0 52 51" fill="none" xmlns="http://www.w3.org/2000/svg">
<path fill-rule="evenodd" clip-rule="evenodd" d="M25.9906 50.3905C39.8938 50.3905 51.1646 39.1197 51.1646 25.2164C51.1646 11.3132 39.8938 0.0424194 25.9906 0.0424194C12.0873 0.0424194 0.816528 11.3132 0.816528 25.2164C0.816528 39.1197 12.0873 50.3905 25.9906 50.3905Z" fill="#F3F3F3"/>
<path fill-rule="evenodd" clip-rule="evenodd" d="M26.174 50.3481C40.0773 50.3481 51.3481 39.0773 51.3481 25.174C51.3481 11.2708 40.0773 0 26.174 0C12.2708 0 1 11.2708 1 25.174C1 39.0773 12.2708 50.3481 26.174 50.3481Z" fill="white"/>
<path fill-rule="evenodd" clip-rule="evenodd" d="M24.5866 37.5412C18.436 37.5412 13.4327 32.5379 13.4327 26.3874C13.4327 20.2368 18.436 15.2335 24.5866 15.2335H25.3833V25.5907H35.7404V26.3874C35.7404 32.5379 30.7371 37.5412 24.5866 37.5412V37.5412Z" fill="black"/>
<path fill-rule="evenodd" clip-rule="evenodd" d="M38.9272 23.9973H26.9767V12.0467H27.7734C33.9239 12.0467 38.9272 17.05 38.9272 23.2005V23.9973Z" fill="black"/>
</svg>
