<svg width="52" height="51" viewBox="0 0 52 51" fill="none" xmlns="http://www.w3.org/2000/svg">
<path fill-rule="evenodd" clip-rule="evenodd" d="M26.1681 50.3905C40.0713 50.3905 51.3421 39.1197 51.3421 25.2164C51.3421 11.3132 40.0713 0.0424194 26.1681 0.0424194C12.2649 0.0424194 0.99408 11.3132 0.99408 25.2164C0.99408 39.1197 12.2649 50.3905 26.1681 50.3905Z" fill="white"/>
<path fill-rule="evenodd" clip-rule="evenodd" d="M33.0769 19.4993L26.2226 16.7576L19.3684 19.4993V27.2503C19.3684 29.5751 20.6433 31.6999 22.695 32.7955L26.2226 34.6758L29.7503 32.7955C31.802 31.6999 33.0769 29.5751 33.0769 27.2503V19.4993ZM36.5041 17.179V27.2503C36.5041 30.8431 34.5335 34.1274 31.3634 35.8181L26.2227 38.561L21.0819 35.8181C17.9118 34.1274 15.9412 30.8431 15.9412 27.2503V17.179L26.2227 13.0665L36.5041 17.179ZM25.0802 25.675L29.5801 21.1751L32.0042 23.5981L25.0802 30.521L20.441 25.8829L22.8651 23.4599L25.0802 25.675Z" fill="black"/>
</svg>
