<?xml version="1.0" encoding="utf-8"?>
<!-- Generator: Adobe Illustrator 25.2.3, SVG Export Plug-In . SVG Version: 6.00 Build 0)  -->
<svg version="1.1" id="Layer_1" xmlns="http://www.w3.org/2000/svg" xmlns:xlink="http://www.w3.org/1999/xlink" x="0px" y="0px"
	 viewBox="0 0 172 43" style="enable-background:new 0 0 172 43;" xml:space="preserve">
<style type="text/css">
	.st0{fill:#34E834;}
	.st1{fill:#FFFFFF;}
</style>
<g>
	<path class="st0" d="M29.3,9.9v23h-5v-23C24.3,9.9,29.3,9.9,29.3,9.9z"/>
	<path class="st1" d="M6.4,25.3v7.5H1.3v-7.5C1.3,25.3,6.4,25.3,6.4,25.3z"/>
	<path class="st1" d="M14,16.4v16.4h-5V16.4H14z"/>
	<path class="st1" d="M21.5,21.5v11.4h-5V21.5H21.5z"/>
	<path class="st0" d="M52.5,24.1c-0.5,5.6-4,9.4-10.2,9.4c-6.7,0-11.1-4.8-11.1-12c0-6.7,4.3-12,11.2-12c5.5,0,9.5,3.4,9.9,8.2h-4.8
		c-0.5-2.5-2.4-4-5.1-4c-4.4,0-6.1,4-6.1,7.8c0,4.7,2.3,7.7,6.1,7.7c3,0,4.8-1.8,5.2-5.1h4.9V24.1z"/>
	<path class="st1" d="M57.2,32.7v-23h7.1l5.3,15.8l5.2-15.8h7v23h-4.7V16.4l-5.6,16.3h-3.9L62,16.6v16.1H57.2z"/>
	<path class="st1" d="M99.2,32.8c0-1.8,0-3.1,0-4.1v-7.6c0-4.6-3.8-5.4-7.1-5.4H92c-4.8,0-7.4,1.9-7.6,5.6h4.3
		c0.3-1.9,1.1-2.5,3.2-2.5c2,0,3,0.7,3,2.2c0,1.4-1,1.6-4,2l-0.7,0.1c-3.1,0.4-6.6,1.1-6.6,5.2c0,3.1,2.2,5,5.9,5c2,0,4-0.6,5.3-2.1
		v1.6H99.2z M94.8,24.7v1.9c0,2.4-1.7,3.7-4.1,3.7c-1.6,0-2.5-0.8-2.5-2.2c0-2,1.8-2.2,3.3-2.5C92.7,25.4,93.8,25.4,94.8,24.7z"/>
	<path class="st1" d="M105.2,32.8V22.4c0-1,0.8-2,2-2h4.2V16h-4.2c-3.5,0-6.4,2.9-6.4,6.5v10.3C100.9,32.8,105.2,32.8,105.2,32.8z"
		/>
	<path class="st1" d="M149.5,9.8V16h5v4.5h-5v5.8c0,1,0.8,2,2,2h3.1v4.5h-3.1c-3.5,0-6.4-2.9-6.4-6.5V9.8H149.5z"/>
	<path class="st1" d="M128.1,16.1l-6.3,6.2l7,10.4h-5.5l-4.6-7.4l-1.9,1.8v5.6h-4.5v-23h4.5V22l5.8-5.9H128.1z"/>
	<path class="st1" d="M143.4,27.6h-4.4c-0.6,1.7-1.7,2.4-3.3,2.4c-2.4,0-3.9-1.6-3.9-4.4h11.9v-0.4c0-5.8-3.1-9.5-8.1-9.5
		c-4.8,0-8.3,3.8-8.3,8.9c0,5.2,3.3,8.7,8.5,8.7C139.5,33.2,142.4,31.1,143.4,27.6z M139.1,22.6h-7.2c0.2-2.3,1.7-3.8,3.7-3.8
		C137.8,18.9,138.9,20.7,139.1,22.6z"/>
	<path class="st1" d="M170.1,20.9h-4.3c-0.2-1.8-1.4-2.3-3.1-2.3c-1.6,0-2.6,0.6-2.6,1.7c0,1.1,1,1.5,3,1.9l1.6,0.3
		c2.8,0.6,5.9,1.5,5.9,5c0,3.4-2.8,5.6-7.5,5.6c-4.2,0-7.7-1.7-7.7-5.8h4.3c0.2,2,1.5,2.8,3.5,2.8c1.9,0,3-0.8,3-2.1
		c0-1.4-1.3-1.7-3.5-2.2l-0.4-0.1c-2.9-0.6-6.6-1.1-6.6-5c0-3.2,2.6-5.1,7.2-5.1C166.8,15.7,170,17,170.1,20.9z"/>
</g>
</svg>
