<svg width="358" height="82" viewBox="0 0 358 82" fill="none" xmlns="http://www.w3.org/2000/svg">
<path d="M28.7655 68.3652C26.0447 68.3652 20.9055 67.6108 20.9055 60.5196C21.0566 56.8986 21.6613 53.4284 22.7193 49.9582C25.5913 41.8109 30.8816 40.1512 34.3582 40.1512H50.5316L52.799 27.3267H33.149C25.1378 27.1758 17.2778 30.0424 11.0805 35.1723C4.42972 41.2073 0.650879 52.0705 0.650879 60.2179C0.650879 69.1196 4.42972 81.6424 22.2659 81.6424H42.067L44.7878 68.0635L28.7655 68.3652Z" fill="#ED2224"/>
<path d="M40.1008 0.77182L36.7754 17.3683H64.4365L51.8908 81.9437H75.1685L87.5631 17.3683H114.62L117.945 0.77182H40.1008Z" fill="black"/>
<path d="M351.629 30.0411C348.304 28.0797 345.432 27.6271 338.781 27.6271H258.821L256.1 41.5078C255.496 39.5464 254.74 37.585 253.531 35.9254C252.17 33.9639 250.356 32.3043 248.24 31.0973C246.275 29.8903 244.159 28.985 241.892 28.5324C239.776 28.0797 237.508 27.778 235.392 27.6271H205.615L196.697 72.5885L189.593 27.4762H162.234L135.782 75.6061L135.631 65.6482C135.631 63.2341 134.724 60.8201 133.061 59.0096C131.398 57.3499 129.282 56.4447 126.864 56.1429V55.992C129.887 55.5394 132.759 54.4833 135.177 52.8236C139.561 50.1078 142.13 45.4306 142.13 40.3008C142.281 35.9254 139.712 31.8517 135.782 29.8903C133.212 28.5324 130.189 27.778 127.317 27.6271H92.4006L89.831 40.3008H114.167C115.527 40.3008 120.969 40.3008 120.969 44.8271C120.969 46.7885 120.062 48.7499 118.248 49.8061C115.981 50.8622 113.562 51.3148 110.993 51.0131H87.866L81.8198 81.792H101.47L105.249 62.6306H109.783C111.295 62.4797 112.958 62.9324 114.016 63.9885C114.923 65.1955 115.225 66.7043 115.074 68.0622L114.469 81.6412H153.013L157.85 71.3815H175.535L176.291 81.6412H224.358C232.369 81.792 240.229 78.9254 246.426 73.6447C247.938 72.2868 249.147 70.778 250.356 69.2692L247.938 81.6412H291.168L293.889 67.6096H270.762L272.274 60.2166H291.621L294.04 47.6938H274.692L276.204 39.8482H329.259C332.584 39.8482 336.212 40.6025 336.212 44.2236C336.212 48.2973 332.886 50.5604 328.956 50.5604H302.202L296.156 81.3394H316.562L320.341 62.178H324.875C326.387 62.0271 328.049 62.4797 329.259 63.5359C330.014 64.7429 330.468 66.2517 330.317 67.6096L329.712 81.1885H350.874L350.723 65.3464C350.874 62.6306 349.816 59.9148 347.851 57.9534C346.188 56.5955 344.223 55.6903 342.107 55.3885V55.2376C345.734 54.785 349.06 53.2762 351.932 51.0131C355.408 48.1464 357.524 43.9218 357.524 39.3955C357.524 35.9253 355.257 32.0025 351.629 30.0411ZM164.652 57.6517L172.814 39.999H173.117L174.477 57.6517H164.652ZM233.578 58.8587C230.706 67.1569 225.416 67.9113 222.091 67.9113H218.312L223.753 40.1499H227.683C230.404 40.1499 235.543 40.7534 235.543 47.8447C235.392 51.7675 234.788 55.3885 233.578 58.8587Z" fill="black"/>
</svg>
