<?xml version="1.0" encoding="utf-8"?>
<!-- Generator: Adobe Illustrator 16.0.0, SVG Export Plug-In . SVG Version: 6.00 Build 0)  -->
<!DOCTYPE svg PUBLIC "-//W3C//DTD SVG 1.1//EN" "http://www.w3.org/Graphics/SVG/1.1/DTD/svg11.dtd">
<svg version="1.1" id="Слой_1" xmlns="http://www.w3.org/2000/svg" xmlns:xlink="http://www.w3.org/1999/xlink" x="0px" y="0px"
	 width="20px" height="20px" viewBox="0 0 20 20" enable-background="new 0 0 20 20" xml:space="preserve">
<title>Help</title>
<desc>Created with Sketch.</desc>
<g id="Page-1">
	<g id="Account-Configuration" transform="translate(-696.000000, -959.000000)">
		<g id="Help_1_" transform="translate(554.000000, 955.000000)">
			<g id="Group-4" transform="translate(143.000000, 0.000000)">
				<g id="Help" transform="translate(0.000000, 5.000000)">
					<path id="Fill-107" fill="#FFFFFF" d="M8.956,18.375c-5.178,0-9.375-4.197-9.375-9.375s4.197-9.375,9.375-9.375
						c5.177,0,9.375,4.197,9.375,9.375S14.133,18.375,8.956,18.375z"/>
					<path id="Stroke-108" fill="none" stroke="#C8C8C8" stroke-linecap="round" stroke-linejoin="round" d="M18.331,9
						c0,5.178-4.198,9.375-9.375,9.375c-5.178,0-9.375-4.197-9.375-9.375s4.197-9.375,9.375-9.375
						C14.133-0.375,18.331,3.822,18.331,9L18.331,9z"/>
					<path id="Stroke-110" fill="none" stroke="#C8C8C8" stroke-linecap="round" stroke-linejoin="round" d="M4.081,9
						c0-2.692,2.183-4.875,4.875-4.875c2.691,0,4.875,2.183,4.875,4.875s-2.184,4.875-4.875,4.875
						C6.264,13.875,4.081,11.692,4.081,9L4.081,9z"/>
					<path id="Stroke-111" fill="none" stroke="#C8C8C8" stroke-linecap="round" stroke-linejoin="round" d="M6.418-0.025
						l1.092,4.368 M10.401,4.343l1.092-4.368 M11.493,18.024l-1.092-4.367 M7.511,13.657l-1.092,4.367 M17.98,6.462l-4.367,1.092
						 M13.613,10.445l4.367,1.092 M-0.069,11.537l4.368-1.092 M4.299,7.555l-4.368-1.092"/>
					<path id="Stroke-112" fill="none" stroke="#C8C8C8" stroke-linecap="round" stroke-linejoin="round" d="M5.322,0.358
						c0.051-0.022,0.104-0.043,0.155-0.064H5.31"/>
					<path id="Stroke-114" fill="none" stroke="#C8C8C8" stroke-linecap="round" stroke-linejoin="round" d="M0.25,5.354v0.167
						c0.021-0.051,0.042-0.103,0.063-0.155"/>
					
						<path id="Stroke-115" fill="none" stroke="#C8C8C8" stroke-linecap="round" stroke-linejoin="round" stroke-dasharray="0.903,3.613" d="
						M0.854,4.285C1.772,2.71,3.135,1.429,4.771,0.611"/>
					<path id="Stroke-116" fill="none" stroke="#C8C8C8" stroke-linecap="round" stroke-linejoin="round" d="M17.598,5.366
						c0.021,0.052,0.042,0.104,0.063,0.155V5.354"/>
					<path id="Stroke-118" fill="none" stroke="#C8C8C8" stroke-linecap="round" stroke-linejoin="round" d="M12.603,0.294h-0.167
						c0.051,0.021,0.103,0.042,0.154,0.064"/>
					
						<path id="Stroke-119" fill="none" stroke="#C8C8C8" stroke-linecap="round" stroke-linejoin="round" stroke-dasharray="0.903,3.613" d="
						M13.671,0.898c1.574,0.918,2.856,2.281,3.674,3.917"/>
					<path id="Stroke-120" fill="none" stroke="#C8C8C8" stroke-linecap="round" stroke-linejoin="round" d="M12.59,17.642
						c-0.052,0.021-0.104,0.043-0.154,0.063h0.167"/>
					<path id="Stroke-122" fill="none" stroke="#C8C8C8" stroke-linecap="round" stroke-linejoin="round" d="M17.661,12.646v-0.167
						c-0.021,0.051-0.042,0.103-0.063,0.154"/>
					
						<path id="Stroke-123" fill="none" stroke="#C8C8C8" stroke-linecap="round" stroke-linejoin="round" stroke-dasharray="0.903,3.613" d="
						M17.057,13.716c-0.917,1.573-2.28,2.855-3.917,3.673"/>
					<path id="Stroke-124" fill="none" stroke="#C8C8C8" stroke-linecap="round" stroke-linejoin="round" d="M0.314,12.634
						c-0.022-0.052-0.043-0.104-0.063-0.154v0.167"/>
					<path id="Stroke-126" fill="none" stroke="#C8C8C8" stroke-linecap="round" stroke-linejoin="round" d="M5.31,17.705h0.167
						c-0.051-0.021-0.104-0.042-0.155-0.063"/>
					
						<path id="Stroke-127" fill="none" stroke="#C8C8C8" stroke-linecap="round" stroke-linejoin="round" stroke-dasharray="0.903,3.613" d="
						M4.24,17.101c-1.573-0.917-2.855-2.28-3.673-3.916"/>
					<polygon id="Path-2" fill="#C8C8C8" points="0.13,6.529 -0.494,8.45 -0.116,11.351 0.827,11.336 4.356,10.384 4.027,7.415 
											"/>
					<polygon id="Path-2-Copy" fill="#C8C8C8" points="17.869,6.656 18.494,8.578 18.116,11.478 17.173,11.463 13.644,10.511 
						13.972,7.542 					"/>
					<polygon id="Path-3" fill="#C8C8C8" points="7.509,13.725 6.46,17.976 8.244,18.309 10.753,18.265 11.578,17.935 
						10.351,13.603 9.145,13.875 					"/>
					<polygon id="Path-3-Copy" fill="#C8C8C8" points="7.66,4.208 6.612,-0.042 8.396,-0.375 10.904,-0.332 11.73,0 10.503,4.331 
						9.297,4.058 					"/>
				</g>
			</g>
		</g>
	</g>
</g>
</svg>
