<?xml version="1.0" encoding="utf-8"?>
<!-- Generator: Adobe Illustrator 16.0.0, SVG Export Plug-In . SVG Version: 6.00 Build 0)  -->
<!DOCTYPE svg PUBLIC "-//W3C//DTD SVG 1.1//EN" "http://www.w3.org/Graphics/SVG/1.1/DTD/svg11.dtd">
<svg version="1.1" id="Слой_1" xmlns="http://www.w3.org/2000/svg" xmlns:xlink="http://www.w3.org/1999/xlink" x="0px" y="0px"
	 width="17px" height="14px" viewBox="0 0 17 14" enable-background="new 0 0 17 14" xml:space="preserve">
<title>300 - Users (Solid)</title>
<desc>Created with Sketch.</desc>
<g id="Page-1">
	<g id="Personal-details-2_x2F_2" transform="translate(-782.000000, -235.000000)">
		<g id="Fields" transform="translate(583.000000, 189.000000)">
			<g id="Account-type">
				<g id="Group-5" transform="translate(200.000000, 44.000000)">
					<g id="Users" transform="translate(0.000000, 2.000000)">
						<path id="Fill-3" fill="#FFFFFF" d="M14.121,10.917l-2.432-1.216c-0.229-0.114-0.371-0.346-0.371-0.602v-0.86
							c0.059-0.072,0.119-0.152,0.183-0.242c0.315-0.446,0.567-0.942,0.752-1.477c0.358-0.165,0.593-0.52,0.593-0.921V4.582
							c0-0.245-0.092-0.482-0.255-0.668V2.56c0.015-0.14,0.07-0.974-0.532-1.661C11.535,0.302,10.688,0,9.536,0
							S7.537,0.302,7.015,0.898C6.412,1.586,6.467,2.419,6.482,2.56v1.354C6.319,4.099,6.228,4.336,6.228,4.582V5.6
							c0,0.31,0.141,0.599,0.381,0.792C6.841,7.314,7.33,8.011,7.5,8.232v0.843c0,0.247-0.134,0.473-0.35,0.592l-2.271,1.237
							c-0.738,0.402-1.196,1.176-1.196,2.017V14h11.708v-1.029C15.391,12.096,14.904,11.309,14.121,10.917"/>
						<path id="Fill-4" fill="#FFFFFF" d="M4.188,10.568l2.271-1.237C6.551,9.279,6.61,9.182,6.61,9.075V8.359
							C6.384,8.046,5.986,7.415,5.76,6.601C5.489,6.338,5.336,5.98,5.336,5.6V4.582c0-0.286,0.089-0.564,0.254-0.799V2.577
							C5.582,2.48,5.572,2.254,5.615,1.968c-0.35-0.122-0.74-0.186-1.17-0.186c-2.646,0-2.798,2.254-2.8,2.291v1.166
							C1.48,5.419,1.392,5.626,1.392,5.832V6.71c0,0.274,0.123,0.531,0.333,0.704c0.21,0.792,0.727,1.391,0.928,1.6v0.698
							c0,0.2-0.109,0.386-0.298,0.487l-1.693,1.063c-0.648,0.354-1.052,1.033-1.052,1.771V14h3.182v-1.079
							C2.791,11.939,3.326,11.039,4.188,10.568"/>
					</g>
				</g>
			</g>
		</g>
	</g>
</g>
</svg>
