<?xml version="1.0" encoding="utf-8"?>
<!-- Generator: Adobe Illustrator 25.2.3, SVG Export Plug-In . SVG Version: 6.00 Build 0)  -->
<svg version="1.1" id="Слой_1" xmlns="http://www.w3.org/2000/svg" xmlns:xlink="http://www.w3.org/1999/xlink" x="0px" y="0px"
	 viewBox="0 0 109.2 29" style="enable-background:new 0 0 109.2 29;" xml:space="preserve">
<style type="text/css">
	.st0{fill:#34E834;}
</style>
<g>
	<path class="st0" d="M18,7v14.8h-3.2V7H18z"/>
	<path d="M3.3,16.9v4.8H0v-4.8C0,16.9,3.3,16.9,3.3,16.9z"/>
	<path d="M8.1,11.2v10.6H4.9V11.2H8.1z"/>
	<path d="M13,14.5v7.3H9.8v-7.3C9.8,14.5,13,14.5,13,14.5z"/>
	<path class="st0" d="M33,16.2c-0.3,3.6-2.6,6.1-6.6,6.1c-4.3,0-7.1-3.1-7.1-7.7c0-4.3,2.8-7.7,7.2-7.7c3.6,0,6.1,2.2,6.4,5.3h-3.1
		c-0.3-1.6-1.5-2.6-3.3-2.6c-2.8,0-3.9,2.6-3.9,5c0,3,1.5,5,3.9,5c2,0,3.1-1.1,3.4-3.3L33,16.2L33,16.2z"/>
	<path d="M36,21.7V6.9h4.6L44,17.1l3.4-10.2h4.5v14.8h-3V11.2l-3.6,10.5h-2.5l-3.6-10.4v10.4H36z"/>
	<path d="M63.1,21.8c0-1.1,0-2,0-2.6v-4.9c0-3-2.4-3.5-4.6-3.5h-0.1c-3.1,0-4.8,1.2-4.9,3.6h2.8c0.2-1.2,0.7-1.6,2.1-1.6
		c1.3,0,2,0.5,2,1.4s-0.7,1-2.6,1.3l-0.5,0.1c-2,0.3-4.2,0.7-4.2,3.4c0,2,1.4,3.2,3.8,3.2c1.3,0,2.6-0.4,3.4-1.3v1h2.8V21.8z
		 M60.3,16.6v1.2c0,1.5-1.1,2.4-2.6,2.4c-1,0-1.6-0.5-1.6-1.4c0-1.3,1.1-1.4,2.2-1.6C59,17,59.6,17,60.3,16.6z"/>
	<path d="M67,21.8v-6.7c0-0.7,0.5-1.3,1.3-1.3H71v-2.9h-2.7c-2.3,0-4.1,1.9-4.1,4.2v6.7C64.2,21.8,67,21.8,67,21.8z"/>
	<path d="M95.6,7v4h3.2v2.9h-3.2v3.8c0,0.7,0.5,1.3,1.3,1.3h2v2.9h-2c-2.3,0-4.1-1.9-4.1-4.2V7H95.6z"/>
	<path d="M81.8,11l-4,4l4.5,6.7h-3.6l-3-4.8L74.5,18v3.6h-2.9V6.9h2.9v7.9l3.8-3.8H81.8z"/>
	<path d="M91.7,18.4h-2.8c-0.4,1.1-1.1,1.5-2.2,1.5c-1.5,0-2.5-1-2.5-2.8h7.7v-0.3c0-3.8-2-6.1-5.2-6.1c-3.1,0-5.4,2.4-5.4,5.7
		c0,3.4,2.2,5.6,5.5,5.6C89.1,22,91,20.7,91.7,18.4z M88.8,15.2h-4.6c0.1-1.5,1.1-2.4,2.4-2.4C88,12.8,88.8,14,88.8,15.2z"/>
	<path d="M108.9,14.1h-2.8c-0.1-1.1-0.9-1.5-2-1.5c-1,0-1.7,0.4-1.7,1.1c0,0.7,0.7,0.9,2,1.2l1,0.2c1.8,0.4,3.8,0.9,3.8,3.2
		c0,2.2-1.8,3.6-4.8,3.6c-2.7,0-5-1.1-5-3.8h2.8c0.1,1.3,0.9,1.8,2.3,1.8c1.2,0,2-0.5,2-1.3c0-0.9-0.8-1.1-2.3-1.4l-0.3-0.1
		c-1.9-0.4-4.2-0.7-4.2-3.2c0-2.1,1.7-3.3,4.6-3.3C106.7,10.7,108.8,11.6,108.9,14.1z"/>
</g>
</svg>
