<?xml version="1.0" encoding="UTF-8"?>
<svg width="350px" height="423px" viewBox="0 0 350 423" version="1.1" xmlns="http://www.w3.org/2000/svg" xmlns:xlink="http://www.w3.org/1999/xlink">
    <!-- Generator: Sketch 46 (44423) - http://www.bohemiancoding.com/sketch -->
    <title>Img--TrueECN</title>
    <desc>Created with Sketch.</desc>
    <defs>
        <linearGradient x1="0%" y1="100%" x2="100%" y2="100%" id="linearGradient-1">
            <stop stop-color="#1B5C37" offset="0%"></stop>
            <stop stop-color="#34E834" offset="100%"></stop>
        </linearGradient>
        <linearGradient x1="50%" y1="100%" x2="50%" y2="6.1953125%" id="linearGradient-2">
            <stop stop-color="#1B5C37" offset="0%"></stop>
            <stop stop-color="#1EDD53" offset="79.0789474%"></stop>
            <stop stop-color="#1EDD53" offset="79.0789474%"></stop>
            <stop stop-color="#34E834" offset="100%"></stop>
        </linearGradient>
    </defs>
    <g id="Templates" stroke="none" stroke-width="1" fill="none" fill-rule="evenodd">
        <g id="Img--TrueECN">
            <g id="Group-87" transform="translate(0.000000, 6.000000)">
                <rect id="Rectangle-44" stroke="#FFFFFF" stroke-width="6" opacity="0.05" x="24.0015592" y="-3" width="302" height="417" rx="16"></rect>
                <g id="Group-143" opacity="0.5" transform="translate(134.000000, 123.000000)" stroke-linecap="round" stroke-width="2" stroke="#34E834" stroke-dasharray="1,6">
                    <g id="Group-146">
                        <polyline id="Path-36" points="0.62621267 204.897697 25.5806215 179.943288 25.5806215 0"></polyline>
                        <polyline id="Path-36-Copy" points="2.67699392 227.846916 34.5806215 195.943288 34.5806215 16"></polyline>
                    </g>
                    <g id="Group-146" transform="translate(65.500000, 114.000000) scale(-1, 1) translate(-65.500000, -114.000000) translate(48.000000, 0.000000)">
                        <polyline id="Path-36" points="0.62621267 204.897697 25.5806215 179.943288 25.5806215 0"></polyline>
                        <polyline id="Path-36-Copy" points="2.67699392 227.846916 34.5806215 195.943288 34.5806215 16"></polyline>
                    </g>
                </g>
                <g id="Group-147" transform="translate(7.000000, 287.000000)">
                    <g id="Group-141">
                        <rect id="Rectangle-47" fill="#000000" x="0" y="0" width="140" height="46" rx="4"></rect>
                        <g id="Group-137" transform="translate(14.000000, 12.000000)">
                            <g id="Group-101" opacity="0.5" transform="translate(92.000000, 7.000000)" stroke="#34E834" stroke-width="2">
                                <circle id="Oval-19-Copy-2" cx="15" cy="3" r="3"></circle>
                                <circle id="Oval-19-Copy-3" fill="#34E834" cx="3" cy="3" r="3"></circle>
                            </g>
                            <rect id="Rectangle-47" fill="url(#linearGradient-1)" opacity="0.300000012" x="0" y="29" width="112" height="5" rx="1"></rect>
                            <path d="M1.52734375,15 L1.52734375,3.625 L5.42578125,3.625 C6.71224602,3.625 7.69140289,3.88280992 8.36328125,4.3984375 C9.03515961,4.91406508 9.37109375,5.68228656 9.37109375,6.703125 C9.37109375,7.22396094 9.23047016,7.69270625 8.94921875,8.109375 C8.66796734,8.52604375 8.25651313,8.84895719 7.71484375,9.078125 C8.32943016,9.2447925 8.80468582,9.55859145 9.140625,10.0195312 C9.47656418,10.4804711 9.64453125,11.0338509 9.64453125,11.6796875 C9.64453125,12.7474012 9.30208676,13.5677055 8.6171875,14.140625 C7.93228824,14.7135445 6.9518293,15 5.67578125,15 L1.52734375,15 Z M3.50390625,9.8671875 L3.50390625,13.421875 L5.69921875,13.421875 C6.31901352,13.421875 6.80338367,13.2682307 7.15234375,12.9609375 C7.50130383,12.6536443 7.67578125,12.2265652 7.67578125,11.6796875 C7.67578125,10.4973899 7.07162063,9.8932293 5.86328125,9.8671875 L3.50390625,9.8671875 Z M3.50390625,8.4140625 L5.44140625,8.4140625 C6.05599266,8.4140625 6.5364566,8.27474098 6.8828125,7.99609375 C7.2291684,7.71744652 7.40234375,7.32291922 7.40234375,6.8125 C7.40234375,6.24999719 7.2421891,5.84375125 6.921875,5.59375 C6.6015609,5.34374875 6.10286797,5.21875 5.42578125,5.21875 L3.50390625,5.21875 L3.50390625,8.4140625 Z M16.4882812,15 C16.4049475,14.8385409 16.3320316,14.5755227 16.2695312,14.2109375 C15.6653616,14.841149 14.9257856,15.15625 14.0507812,15.15625 C13.2018187,15.15625 12.5091173,14.9140649 11.9726562,14.4296875 C11.4361952,13.9453101 11.1679688,13.3463577 11.1679688,12.6328125 C11.1679688,11.7317663 11.5026008,11.040367 12.171875,10.5585938 C12.8411492,10.0768205 13.7981709,9.8359375 15.0429688,9.8359375 L16.2070312,9.8359375 L16.2070312,9.28125 C16.2070312,8.84374781 16.0846366,8.4934909 15.8398438,8.23046875 C15.5950509,7.9674466 15.2226588,7.8359375 14.7226562,7.8359375 C14.2903624,7.8359375 13.9361993,7.94400934 13.6601562,8.16015625 C13.3841132,8.37630316 13.2460938,8.65104 13.2460938,8.984375 L11.3476562,8.984375 C11.3476562,8.52083102 11.5013005,8.0872416 11.8085938,7.68359375 C12.115887,7.2799459 12.5338515,6.96354281 13.0625,6.734375 C13.5911485,6.50520719 14.1809863,6.390625 14.8320312,6.390625 C15.8216195,6.390625 16.6106741,6.63932043 17.1992188,7.13671875 C17.7877634,7.63411707 18.0898437,8.33332883 18.1054688,9.234375 L18.1054688,13.046875 C18.1054688,13.8072955 18.2122385,14.4140602 18.4257812,14.8671875 L18.4257812,15 L16.4882812,15 Z M14.4023438,13.6328125 C14.7773456,13.6328125 15.1302067,13.5416676 15.4609375,13.359375 C15.7916683,13.1770824 16.0403638,12.9322932 16.2070312,12.625 L16.2070312,11.03125 L15.1835938,11.03125 C14.4804652,11.03125 13.9518247,11.1536446 13.5976562,11.3984375 C13.2434878,11.6432304 13.0664062,11.9895811 13.0664062,12.4375 C13.0664062,12.8020852 13.1874988,13.0924468 13.4296875,13.3085938 C13.6718762,13.5247407 13.9960917,13.6328125 14.4023438,13.6328125 Z M21.8554688,6.546875 L21.9101562,7.5234375 C22.5351594,6.76822539 23.3554637,6.390625 24.3710938,6.390625 C26.1315192,6.390625 27.0273436,7.39842742 27.0585938,9.4140625 L27.0585938,15 L25.1601562,15 L25.1601562,9.5234375 C25.1601562,8.98697648 25.044272,8.58984504 24.8125,8.33203125 C24.580728,8.07421746 24.2018255,7.9453125 23.6757812,7.9453125 C22.9101524,7.9453125 22.3398456,8.2916632 21.9648438,8.984375 L21.9648438,15 L20.0664062,15 L20.0664062,6.546875 L21.8554688,6.546875 Z M31.7382812,11.375 L30.8945312,12.2421875 L30.8945312,15 L28.9960938,15 L28.9960938,3 L30.8945312,3 L30.8945312,9.921875 L31.4882812,9.1796875 L33.8242188,6.546875 L36.1054688,6.546875 L32.9648438,10.0703125 L36.4414062,15 L34.2460938,15 L31.7382812,11.375 Z M42.0820312,12.703125 C42.0820312,12.3645816 41.9427097,12.1067717 41.6640625,11.9296875 C41.3854153,11.7526033 40.9231803,11.5963548 40.2773438,11.4609375 C39.6315072,11.3255202 39.0924501,11.1536469 38.6601562,10.9453125 C37.7122348,10.4869769 37.2382812,9.82292102 37.2382812,8.953125 C37.2382812,8.22395469 37.5455698,7.61458578 38.1601562,7.125 C38.7747427,6.63541422 39.5559848,6.390625 40.5039062,6.390625 C41.514328,6.390625 42.3307261,6.6406225 42.953125,7.140625 C43.5755239,7.6406275 43.8867188,8.28905852 43.8867188,9.0859375 L41.9882812,9.0859375 C41.9882812,8.72135234 41.8528659,8.41796996 41.5820312,8.17578125 C41.3111966,7.93359254 40.9518252,7.8125 40.5039062,7.8125 C40.0872375,7.8125 39.7473971,7.9088532 39.484375,8.1015625 C39.2213529,8.2942718 39.0898438,8.55208172 39.0898438,8.875 C39.0898438,9.16666813 39.2122384,9.39322836 39.4570312,9.5546875 C39.7018241,9.71614664 40.1966109,9.87890543 40.9414062,10.0429688 C41.6862016,10.2070321 42.2708312,10.4023426 42.6953125,10.6289062 C43.1197938,10.8554699 43.4348948,11.1276026 43.640625,11.4453125 C43.8463552,11.7630224 43.9492188,12.1484352 43.9492188,12.6015625 C43.9492188,13.361983 43.6341177,13.9778622 43.0039062,14.4492188 C42.3736948,14.9205753 41.5481822,15.15625 40.5273438,15.15625 C39.834632,15.15625 39.2174506,15.0312513 38.6757812,14.78125 C38.1341119,14.5312487 37.7122411,14.1875022 37.4101562,13.75 C37.1080714,13.3124978 36.9570312,12.8411484 36.9570312,12.3359375 L38.8007812,12.3359375 C38.826823,12.7838564 38.9960922,13.128905 39.3085938,13.3710938 C39.6210953,13.6132825 40.0351537,13.734375 40.5507812,13.734375 C41.0507838,13.734375 41.4309883,13.6393239 41.6914062,13.4492188 C41.9518242,13.2591136 42.0820312,13.0104182 42.0820312,12.703125 Z" id="Banks" fill="#FFFFFF"></path>
                        </g>
                    </g>
                    <g id="Group-141-Copy-2" transform="translate(0.000000, 54.000000)">
                        <rect id="Rectangle-47" fill="#000000" x="0" y="0" width="140" height="46" rx="4"></rect>
                        <g id="Group-137" transform="translate(14.000000, 12.000000)">
                            <g id="Group-135" opacity="0.5" transform="translate(92.000000, 7.000000)" stroke="#34E834" stroke-width="2">
                                <circle id="Oval-19-Copy-2" cx="15" cy="3" r="3"></circle>
                                <circle id="Oval-19-Copy-4" fill="#34E834" cx="3" cy="3" r="3"></circle>
                            </g>
                            <rect id="Rectangle-47" fill="url(#linearGradient-1)" opacity="0.300000012" x="0" y="29" width="112" height="5" rx="1"></rect>
                            <path d="M10.1796875,15 L8.203125,15 L3.1328125,6.9296875 L3.1328125,15 L1.15625,15 L1.15625,3.625 L3.1328125,3.625 L8.21875,11.7265625 L8.21875,3.625 L10.1796875,3.625 L10.1796875,15 Z M11.9765625,10.6953125 C11.9765625,9.86718336 12.1406234,9.12109707 12.46875,8.45703125 C12.7968766,7.79296543 13.2578095,7.28255387 13.8515625,6.92578125 C14.4453155,6.56900863 15.1276003,6.390625 15.8984375,6.390625 C17.0390682,6.390625 17.9648402,6.75780883 18.6757812,7.4921875 C19.3867223,8.22656617 19.770833,9.20051477 19.828125,10.4140625 L19.8359375,10.859375 C19.8359375,11.6927125 19.6757829,12.4374967 19.3554688,13.09375 C19.0351546,13.7500033 18.5768259,14.2578107 17.9804688,14.6171875 C17.3841116,14.9765643 16.6953164,15.15625 15.9140625,15.15625 C14.7213482,15.15625 13.7669307,14.7591186 13.0507812,13.9648438 C12.3346318,13.1705689 11.9765625,12.1119858 11.9765625,10.7890625 L11.9765625,10.6953125 Z M13.875,10.859375 C13.875,11.729171 14.0546857,12.4101538 14.4140625,12.9023438 C14.7734393,13.3945337 15.2734343,13.640625 15.9140625,13.640625 C16.5546907,13.640625 17.0533836,13.3906275 17.4101562,12.890625 C17.7669289,12.3906225 17.9453125,11.658859 17.9453125,10.6953125 C17.9453125,9.84114156 17.7617206,9.164065 17.3945312,8.6640625 C17.0273419,8.16406 16.528649,7.9140625 15.8984375,7.9140625 C15.2786427,7.9140625 14.7864602,8.16015379 14.421875,8.65234375 C14.0572898,9.14453371 13.875,9.88020344 13.875,10.859375 Z M23.203125,6.546875 L23.2578125,7.5234375 C23.8828156,6.76822539 24.7031199,6.390625 25.71875,6.390625 C27.4791755,6.390625 28.3749998,7.39842742 28.40625,9.4140625 L28.40625,15 L26.5078125,15 L26.5078125,9.5234375 C26.5078125,8.98697648 26.3919282,8.58984504 26.1601562,8.33203125 C25.9283843,8.07421746 25.5494818,7.9453125 25.0234375,7.9453125 C24.2578087,7.9453125 23.6875019,8.2916632 23.3125,8.984375 L23.3125,15 L21.4140625,15 L21.4140625,6.546875 L23.203125,6.546875 Z M34.5078125,15 L34.5078125,3.625 L38.40625,3.625 C39.6927148,3.625 40.6718716,3.88280992 41.34375,4.3984375 C42.0156284,4.91406508 42.3515625,5.68228656 42.3515625,6.703125 C42.3515625,7.22396094 42.2109389,7.69270625 41.9296875,8.109375 C41.6484361,8.52604375 41.2369819,8.84895719 40.6953125,9.078125 C41.3098989,9.2447925 41.7851546,9.55859145 42.1210938,10.0195312 C42.4570329,10.4804711 42.625,11.0338509 42.625,11.6796875 C42.625,12.7474012 42.2825555,13.5677055 41.5976562,14.140625 C40.912757,14.7135445 39.932298,15 38.65625,15 L34.5078125,15 Z M36.484375,9.8671875 L36.484375,13.421875 L38.6796875,13.421875 C39.2994823,13.421875 39.7838524,13.2682307 40.1328125,12.9609375 C40.4817726,12.6536443 40.65625,12.2265652 40.65625,11.6796875 C40.65625,10.4973899 40.0520894,9.8932293 38.84375,9.8671875 L36.484375,9.8671875 Z M36.484375,8.4140625 L38.421875,8.4140625 C39.0364614,8.4140625 39.5169254,8.27474098 39.8632812,7.99609375 C40.2096371,7.71744652 40.3828125,7.32291922 40.3828125,6.8125 C40.3828125,6.24999719 40.2226579,5.84375125 39.9023438,5.59375 C39.5820296,5.34374875 39.0833367,5.21875 38.40625,5.21875 L36.484375,5.21875 L36.484375,8.4140625 Z M49.46875,15 C49.3854162,14.8385409 49.3125003,14.5755227 49.25,14.2109375 C48.6458303,14.841149 47.9062544,15.15625 47.03125,15.15625 C46.1822874,15.15625 45.489586,14.9140649 44.953125,14.4296875 C44.416664,13.9453101 44.1484375,13.3463577 44.1484375,12.6328125 C44.1484375,11.7317663 44.4830696,11.040367 45.1523438,10.5585938 C45.8216179,10.0768205 46.7786396,9.8359375 48.0234375,9.8359375 L49.1875,9.8359375 L49.1875,9.28125 C49.1875,8.84374781 49.0651054,8.4934909 48.8203125,8.23046875 C48.5755196,7.9674466 48.2031275,7.8359375 47.703125,7.8359375 C47.2708312,7.8359375 46.916668,7.94400934 46.640625,8.16015625 C46.364582,8.37630316 46.2265625,8.65104 46.2265625,8.984375 L44.328125,8.984375 C44.328125,8.52083102 44.4817693,8.0872416 44.7890625,7.68359375 C45.0963557,7.2799459 45.5143203,6.96354281 46.0429688,6.734375 C46.5716172,6.50520719 47.1614551,6.390625 47.8125,6.390625 C48.8020883,6.390625 49.5911429,6.63932043 50.1796875,7.13671875 C50.7682321,7.63411707 51.0703124,8.33332883 51.0859375,9.234375 L51.0859375,13.046875 C51.0859375,13.8072955 51.1927073,14.4140602 51.40625,14.8671875 L51.40625,15 L49.46875,15 Z M47.3828125,13.6328125 C47.7578144,13.6328125 48.1106754,13.5416676 48.4414062,13.359375 C48.7721371,13.1770824 49.0208325,12.9322932 49.1875,12.625 L49.1875,11.03125 L48.1640625,11.03125 C47.460934,11.03125 46.9322934,11.1536446 46.578125,11.3984375 C46.2239566,11.6432304 46.046875,11.9895811 46.046875,12.4375 C46.046875,12.8020852 46.1679675,13.0924468 46.4101562,13.3085938 C46.652345,13.5247407 46.9765605,13.6328125 47.3828125,13.6328125 Z M54.8359375,6.546875 L54.890625,7.5234375 C55.5156281,6.76822539 56.3359324,6.390625 57.3515625,6.390625 C59.111988,6.390625 60.0078123,7.39842742 60.0390625,9.4140625 L60.0390625,15 L58.140625,15 L58.140625,9.5234375 C58.140625,8.98697648 58.0247407,8.58984504 57.7929688,8.33203125 C57.5611968,8.07421746 57.1822943,7.9453125 56.65625,7.9453125 C55.8906212,7.9453125 55.3203144,8.2916632 54.9453125,8.984375 L54.9453125,15 L53.046875,15 L53.046875,6.546875 L54.8359375,6.546875 Z M64.71875,11.375 L63.875,12.2421875 L63.875,15 L61.9765625,15 L61.9765625,3 L63.875,3 L63.875,9.921875 L64.46875,9.1796875 L66.8046875,6.546875 L69.0859375,6.546875 L65.9453125,10.0703125 L69.421875,15 L67.2265625,15 L64.71875,11.375 Z M75.0625,12.703125 C75.0625,12.3645816 74.9231785,12.1067717 74.6445312,11.9296875 C74.365884,11.7526033 73.9036491,11.5963548 73.2578125,11.4609375 C72.6119759,11.3255202 72.0729188,11.1536469 71.640625,10.9453125 C70.6927036,10.4869769 70.21875,9.82292102 70.21875,8.953125 C70.21875,8.22395469 70.5260386,7.61458578 71.140625,7.125 C71.7552114,6.63541422 72.5364536,6.390625 73.484375,6.390625 C74.4947967,6.390625 75.3111948,6.6406225 75.9335938,7.140625 C76.5559927,7.6406275 76.8671875,8.28905852 76.8671875,9.0859375 L74.96875,9.0859375 C74.96875,8.72135234 74.8333347,8.41796996 74.5625,8.17578125 C74.2916653,7.93359254 73.9322939,7.8125 73.484375,7.8125 C73.0677063,7.8125 72.7278659,7.9088532 72.4648438,8.1015625 C72.2018216,8.2942718 72.0703125,8.55208172 72.0703125,8.875 C72.0703125,9.16666813 72.1927071,9.39322836 72.4375,9.5546875 C72.6822929,9.71614664 73.1770796,9.87890543 73.921875,10.0429688 C74.6666704,10.2070321 75.2513,10.4023426 75.6757812,10.6289062 C76.1002625,10.8554699 76.4153636,11.1276026 76.6210938,11.4453125 C76.8268239,11.7630224 76.9296875,12.1484352 76.9296875,12.6015625 C76.9296875,13.361983 76.6145865,13.9778622 75.984375,14.4492188 C75.3541635,14.9205753 74.5286509,15.15625 73.5078125,15.15625 C72.8151007,15.15625 72.1979194,15.0312513 71.65625,14.78125 C71.1145806,14.5312487 70.6927098,14.1875022 70.390625,13.75 C70.0885402,13.3124978 69.9375,12.8411484 69.9375,12.3359375 L71.78125,12.3359375 C71.8072918,12.7838564 71.9765609,13.128905 72.2890625,13.3710938 C72.6015641,13.6132825 73.0156224,13.734375 73.53125,13.734375 C74.0312525,13.734375 74.411457,13.6393239 74.671875,13.4492188 C74.932293,13.2591136 75.0625,13.0104182 75.0625,12.703125 Z" id="Non-Banks" fill="#FFFFFF"></path>
                        </g>
                    </g>
                </g>
                <g id="Group-147-Copy" transform="translate(203.000000, 287.000000)">
                    <g id="Group-141">
                        <rect id="Rectangle-47" fill="#000000" x="0" y="0" width="140" height="46" rx="4"></rect>
                        <g id="Group-137" transform="translate(14.000000, 12.000000)">
                            <g id="Group-136" opacity="0.5" transform="translate(92.000000, 7.000000)" stroke="#34E834" stroke-width="2">
                                <circle id="Oval-19-Copy-2" cx="15" cy="3" r="3"></circle>
                                <circle id="Oval-19-Copy-5" fill="#34E834" cx="3" cy="3" r="3"></circle>
                            </g>
                            <rect id="Rectangle-47" fill="url(#linearGradient-1)" opacity="0.300000012" x="0" y="29" width="112" height="5" rx="1"></rect>
                            <path d="M1.15625,15 L1.15625,3.625 L4.515625,3.625 C5.52083836,3.625 6.41275652,3.84895609 7.19140625,4.296875 C7.97005598,4.74479391 8.57291453,5.38020422 9,6.203125 C9.42708547,7.02604578 9.640625,7.96874469 9.640625,9.03125 L9.640625,9.6015625 C9.640625,10.6796929 9.4257834,11.6276001 8.99609375,12.4453125 C8.5664041,13.2630249 7.95443105,13.893227 7.16015625,14.3359375 C6.36588145,14.778648 5.4557343,15 4.4296875,15 L1.15625,15 Z M3.1328125,5.21875 L3.1328125,13.421875 L4.421875,13.421875 C5.45833852,13.421875 6.25390348,13.0976595 6.80859375,12.4492188 C7.36328402,11.800778 7.64583328,10.8697977 7.65625,9.65625 L7.65625,9.0234375 C7.65625,7.78905633 7.38802352,6.84635742 6.8515625,6.1953125 C6.31510148,5.54426758 5.53646344,5.21875 4.515625,5.21875 L3.1328125,5.21875 Z M16.4765625,15 C16.3932287,14.8385409 16.3203128,14.5755227 16.2578125,14.2109375 C15.6536428,14.841149 14.9140669,15.15625 14.0390625,15.15625 C13.1900999,15.15625 12.4973985,14.9140649 11.9609375,14.4296875 C11.4244765,13.9453101 11.15625,13.3463577 11.15625,12.6328125 C11.15625,11.7317663 11.4908821,11.040367 12.1601562,10.5585938 C12.8294304,10.0768205 13.7864521,9.8359375 15.03125,9.8359375 L16.1953125,9.8359375 L16.1953125,9.28125 C16.1953125,8.84374781 16.0729179,8.4934909 15.828125,8.23046875 C15.5833321,7.9674466 15.21094,7.8359375 14.7109375,7.8359375 C14.2786437,7.8359375 13.9244805,7.94400934 13.6484375,8.16015625 C13.3723945,8.37630316 13.234375,8.65104 13.234375,8.984375 L11.3359375,8.984375 C11.3359375,8.52083102 11.4895818,8.0872416 11.796875,7.68359375 C12.1041682,7.2799459 12.5221328,6.96354281 13.0507812,6.734375 C13.5794297,6.50520719 14.1692676,6.390625 14.8203125,6.390625 C15.8099008,6.390625 16.5989554,6.63932043 17.1875,7.13671875 C17.7760446,7.63411707 18.0781249,8.33332883 18.09375,9.234375 L18.09375,13.046875 C18.09375,13.8072955 18.2005198,14.4140602 18.4140625,14.8671875 L18.4140625,15 L16.4765625,15 Z M14.390625,13.6328125 C14.7656269,13.6328125 15.1184879,13.5416676 15.4492188,13.359375 C15.7799496,13.1770824 16.028645,12.9322932 16.1953125,12.625 L16.1953125,11.03125 L15.171875,11.03125 C14.4687465,11.03125 13.9401059,11.1536446 13.5859375,11.3984375 C13.2317691,11.6432304 13.0546875,11.9895811 13.0546875,12.4375 C13.0546875,12.8020852 13.17578,13.0924468 13.4179688,13.3085938 C13.6601575,13.5247407 13.984373,13.6328125 14.390625,13.6328125 Z M24.5078125,8.28125 C24.2578112,8.23958312 24.0000013,8.21875 23.734375,8.21875 C22.864579,8.21875 22.2786473,8.55208 21.9765625,9.21875 L21.9765625,15 L20.078125,15 L20.078125,6.546875 L21.890625,6.546875 L21.9375,7.4921875 C22.3958356,6.75780883 23.0312459,6.390625 23.84375,6.390625 C24.1145847,6.390625 24.3385408,6.42708297 24.515625,6.5 L24.5078125,8.28125 Z M28.453125,11.375 L27.609375,12.2421875 L27.609375,15 L25.7109375,15 L25.7109375,3 L27.609375,3 L27.609375,9.921875 L28.203125,9.1796875 L30.5390625,6.546875 L32.8203125,6.546875 L29.6796875,10.0703125 L33.15625,15 L30.9609375,15 L28.453125,11.375 Z M40.203125,10.7734375 L40.203125,15 L38.2265625,15 L38.2265625,3.625 L42.578125,3.625 C43.8489647,3.625 44.8580692,3.95572586 45.6054688,4.6171875 C46.3528683,5.27864914 46.7265625,6.15364039 46.7265625,7.2421875 C46.7265625,8.35677641 46.3606807,9.22395523 45.6289062,9.84375 C44.8971318,10.4635448 43.8724024,10.7734375 42.5546875,10.7734375 L40.203125,10.7734375 Z M40.203125,9.1875 L42.578125,9.1875 C43.2812535,9.1875 43.8177065,9.02213707 44.1875,8.69140625 C44.5572935,8.36067543 44.7421875,7.88281562 44.7421875,7.2578125 C44.7421875,6.64322609 44.5546894,6.15234559 44.1796875,5.78515625 C43.8046856,5.41796691 43.2890658,5.22916672 42.6328125,5.21875 L40.203125,5.21875 L40.203125,9.1875 Z M47.8125,10.6953125 C47.8125,9.86718336 47.9765609,9.12109707 48.3046875,8.45703125 C48.6328141,7.79296543 49.093747,7.28255387 49.6875,6.92578125 C50.281253,6.56900863 50.9635378,6.390625 51.734375,6.390625 C52.8750057,6.390625 53.8007777,6.75780883 54.5117188,7.4921875 C55.2226598,8.22656617 55.6067705,9.20051477 55.6640625,10.4140625 L55.671875,10.859375 C55.671875,11.6927125 55.5117204,12.4374967 55.1914062,13.09375 C54.8710921,13.7500033 54.4127634,14.2578107 53.8164062,14.6171875 C53.2200491,14.9765643 52.5312539,15.15625 51.75,15.15625 C50.5572857,15.15625 49.6028682,14.7591186 48.8867188,13.9648438 C48.1705693,13.1705689 47.8125,12.1119858 47.8125,10.7890625 L47.8125,10.6953125 Z M49.7109375,10.859375 C49.7109375,11.729171 49.8906232,12.4101538 50.25,12.9023438 C50.6093768,13.3945337 51.1093718,13.640625 51.75,13.640625 C52.3906282,13.640625 52.8893211,13.3906275 53.2460938,12.890625 C53.6028664,12.3906225 53.78125,11.658859 53.78125,10.6953125 C53.78125,9.84114156 53.5976581,9.164065 53.2304688,8.6640625 C52.8632794,8.16406 52.3645865,7.9140625 51.734375,7.9140625 C51.1145802,7.9140625 50.6223977,8.16015379 50.2578125,8.65234375 C49.8932273,9.14453371 49.7109375,9.88020344 49.7109375,10.859375 Z M56.921875,10.6953125 C56.921875,9.86718336 57.0859359,9.12109707 57.4140625,8.45703125 C57.7421891,7.79296543 58.203122,7.28255387 58.796875,6.92578125 C59.390628,6.56900863 60.0729128,6.390625 60.84375,6.390625 C61.9843807,6.390625 62.9101527,6.75780883 63.6210938,7.4921875 C64.3320348,8.22656617 64.7161455,9.20051477 64.7734375,10.4140625 L64.78125,10.859375 C64.78125,11.6927125 64.6210954,12.4374967 64.3007812,13.09375 C63.9804671,13.7500033 63.5221384,14.2578107 62.9257812,14.6171875 C62.3294241,14.9765643 61.6406289,15.15625 60.859375,15.15625 C59.6666607,15.15625 58.7122432,14.7591186 57.9960938,13.9648438 C57.2799443,13.1705689 56.921875,12.1119858 56.921875,10.7890625 L56.921875,10.6953125 Z M58.8203125,10.859375 C58.8203125,11.729171 58.9999982,12.4101538 59.359375,12.9023438 C59.7187518,13.3945337 60.2187468,13.640625 60.859375,13.640625 C61.5000032,13.640625 61.9986961,13.3906275 62.3554688,12.890625 C62.7122414,12.3906225 62.890625,11.658859 62.890625,10.6953125 C62.890625,9.84114156 62.7070331,9.164065 62.3398438,8.6640625 C61.9726544,8.16406 61.4739615,7.9140625 60.84375,7.9140625 C60.2239552,7.9140625 59.7317727,8.16015379 59.3671875,8.65234375 C59.0026023,9.14453371 58.8203125,9.88020344 58.8203125,10.859375 Z M68.40625,15 L66.5078125,15 L66.5078125,3 L68.40625,3 L68.40625,15 Z M75.2109375,12.703125 C75.2109375,12.3645816 75.071616,12.1067717 74.7929688,11.9296875 C74.5143215,11.7526033 74.0520866,11.5963548 73.40625,11.4609375 C72.7604134,11.3255202 72.2213563,11.1536469 71.7890625,10.9453125 C70.8411411,10.4869769 70.3671875,9.82292102 70.3671875,8.953125 C70.3671875,8.22395469 70.6744761,7.61458578 71.2890625,7.125 C71.9036489,6.63541422 72.6848911,6.390625 73.6328125,6.390625 C74.6432342,6.390625 75.4596323,6.6406225 76.0820312,7.140625 C76.7044302,7.6406275 77.015625,8.28905852 77.015625,9.0859375 L75.1171875,9.0859375 C75.1171875,8.72135234 74.9817722,8.41796996 74.7109375,8.17578125 C74.4401028,7.93359254 74.0807314,7.8125 73.6328125,7.8125 C73.2161438,7.8125 72.8763034,7.9088532 72.6132812,8.1015625 C72.3502591,8.2942718 72.21875,8.55208172 72.21875,8.875 C72.21875,9.16666813 72.3411446,9.39322836 72.5859375,9.5546875 C72.8307304,9.71614664 73.3255171,9.87890543 74.0703125,10.0429688 C74.8151079,10.2070321 75.3997375,10.4023426 75.8242188,10.6289062 C76.2487,10.8554699 76.5638011,11.1276026 76.7695312,11.4453125 C76.9752614,11.7630224 77.078125,12.1484352 77.078125,12.6015625 C77.078125,13.361983 76.763024,13.9778622 76.1328125,14.4492188 C75.502601,14.9205753 74.6770884,15.15625 73.65625,15.15625 C72.9635382,15.15625 72.3463569,15.0312513 71.8046875,14.78125 C71.2630181,14.5312487 70.8411473,14.1875022 70.5390625,13.75 C70.2369777,13.3124978 70.0859375,12.8411484 70.0859375,12.3359375 L71.9296875,12.3359375 C71.9557293,12.7838564 72.1249984,13.128905 72.4375,13.3710938 C72.7500016,13.6132825 73.1640599,13.734375 73.6796875,13.734375 C74.17969,13.734375 74.5598945,13.6393239 74.8203125,13.4492188 C75.0807305,13.2591136 75.2109375,13.0104182 75.2109375,12.703125 Z" id="Dark-Pools" fill="#FFFFFF"></path>
                        </g>
                    </g>
                    <g id="Group-141-Copy-2" transform="translate(0.000000, 54.000000)">
                        <rect id="Rectangle-47" fill="#000000" x="0" y="0" width="140" height="46" rx="4"></rect>
                        <g id="Group-137" transform="translate(14.000000, 12.000000)">
                            <g id="Group-148" opacity="0.5" transform="translate(92.000000, 7.000000)" stroke="#34E834" stroke-width="2">
                                <circle id="Oval-19-Copy-2" cx="15" cy="3" r="3"></circle>
                                <circle id="Oval-19-Copy-6" fill="#34E834" cx="3" cy="3" r="3"></circle>
                            </g>
                            <rect id="Rectangle-47" fill="url(#linearGradient-1)" opacity="0.300000012" x="0" y="29" width="112" height="5" rx="1"></rect>
                            <path d="M10.1875,15 L8.21875,15 L8.21875,9.9453125 L3.1328125,9.9453125 L3.1328125,15 L1.15625,15 L1.15625,3.625 L3.1328125,3.625 L3.1328125,8.359375 L8.21875,8.359375 L8.21875,3.625 L10.1875,3.625 L10.1875,15 Z M19.078125,10.1796875 L14.5,10.1796875 L14.5,15 L12.5234375,15 L12.5234375,3.625 L19.75,3.625 L19.75,5.21875 L14.5,5.21875 L14.5,8.6015625 L19.078125,8.6015625 L19.078125,10.1796875 Z M29.6875,5.21875 L26.140625,5.21875 L26.140625,15 L24.1796875,15 L24.1796875,5.21875 L20.6640625,5.21875 L20.6640625,3.625 L29.6875,3.625 L29.6875,5.21875 Z M35.140625,12.703125 C35.140625,12.3645816 35.0013035,12.1067717 34.7226562,11.9296875 C34.444009,11.7526033 33.9817741,11.5963548 33.3359375,11.4609375 C32.6901009,11.3255202 32.1510438,11.1536469 31.71875,10.9453125 C30.7708286,10.4869769 30.296875,9.82292102 30.296875,8.953125 C30.296875,8.22395469 30.6041636,7.61458578 31.21875,7.125 C31.8333364,6.63541422 32.6145786,6.390625 33.5625,6.390625 C34.5729217,6.390625 35.3893198,6.6406225 36.0117188,7.140625 C36.6341177,7.6406275 36.9453125,8.28905852 36.9453125,9.0859375 L35.046875,9.0859375 C35.046875,8.72135234 34.9114597,8.41796996 34.640625,8.17578125 C34.3697903,7.93359254 34.0104189,7.8125 33.5625,7.8125 C33.1458313,7.8125 32.8059909,7.9088532 32.5429688,8.1015625 C32.2799466,8.2942718 32.1484375,8.55208172 32.1484375,8.875 C32.1484375,9.16666813 32.2708321,9.39322836 32.515625,9.5546875 C32.7604179,9.71614664 33.2552046,9.87890543 34,10.0429688 C34.7447954,10.2070321 35.329425,10.4023426 35.7539062,10.6289062 C36.1783875,10.8554699 36.4934886,11.1276026 36.6992188,11.4453125 C36.9049489,11.7630224 37.0078125,12.1484352 37.0078125,12.6015625 C37.0078125,13.361983 36.6927115,13.9778622 36.0625,14.4492188 C35.4322885,14.9205753 34.6067759,15.15625 33.5859375,15.15625 C32.8932257,15.15625 32.2760444,15.0312513 31.734375,14.78125 C31.1927056,14.5312487 30.7708348,14.1875022 30.46875,13.75 C30.1666652,13.3124978 30.015625,12.8411484 30.015625,12.3359375 L31.859375,12.3359375 C31.8854168,12.7838564 32.0546859,13.128905 32.3671875,13.3710938 C32.6796891,13.6132825 33.0937474,13.734375 33.609375,13.734375 C34.1093775,13.734375 34.489582,13.6393239 34.75,13.4492188 C35.010418,13.2591136 35.140625,13.0104182 35.140625,12.703125 Z" id="HFTs" fill="#FFFFFF"></path>
                        </g>
                    </g>
                </g>
                <rect id="Rectangle-44" fill="#000000" x="75" y="48" width="200" height="200" rx="17"></rect>
                <path d="M75,148 L275,148 L275,232 L275,232 C275,240.836556 267.836556,248 259,248 L91,248 L91,248 C82.163444,248 75,240.836556 75,232 L75,148 Z" id="Rectangle-44" fill="url(#linearGradient-2)"></path>
                <rect id="Rectangle-45" fill="#34E834" x="75" y="147" width="200" height="2"></rect>
                <g id="Group-85" transform="translate(145.000000, 104.000000)">
                    <g id="Group-46">
                        <g id="Group-45">
                            <g id="Group-20" transform="translate(0.000000, 12.752464)" fill-rule="nonzero" fill="#34E834">
                                <path d="M19.1996127,2.61878286 L33.5499896,16.9691598 C34.1685403,17.5877105 34.1685403,18.5773917 33.5499896,19.1340873 L19.1996127,33.5463193 C18.2099315,34.5360005 16.5398446,33.8555947 16.5398446,32.432928 L16.5398446,23.5257975 L-0.645315167,23.5257975 C-1.51128619,23.5257975 -2.19169199,22.7835366 -2.19169199,21.9794207 L-2.19169199,14.4949569 C-2.19169199,13.6289858 -1.51128619,12.94858 -0.645315167,12.94858 L16.5398446,12.94858 L16.5398446,3.73217417 C16.5398446,2.37136257 18.2099315,1.69095677 19.1996127,2.61878286 Z" id="Shape" transform="translate(15.911105, 18.102797) rotate(-90.000000) translate(-15.911105, -18.102797) "></path>
                            </g>
                            <g id="Group-20" transform="translate(43.834783, 37.607537) scale(1, -1) translate(-43.834783, -37.607537) translate(27.834783, 0.607537)" fill="#000000">
                                <path d="M31.6996127,15.1187829 L46.0499896,29.4691598 C46.6685403,30.0877105 46.6685403,31.0773917 46.0499896,31.6340873 L31.6996127,46.0463193 C30.7099315,47.0360005 29.0398446,46.3555947 29.0398446,44.932928 L29.0398446,36.0257975 L-13.1453152,36.0257975 C-14.0112862,36.0257975 -14.691692,35.2835366 -14.691692,34.4794207 L-14.691692,26.9949569 C-14.691692,26.1289858 -14.0112862,25.44858 -13.1453152,25.44858 L29.0398446,25.44858 L29.0398446,16.2321742 C29.0398446,14.8713626 30.7099315,14.1909568 31.6996127,15.1187829 Z" id="Shape" fill-rule="nonzero" transform="translate(15.911105, 30.602797) rotate(-90.000000) translate(-15.911105, -30.602797) "></path>
                                <rect id="Rectangle-46" x="5.56695656" y="31.5460872" width="21.6492755" height="42.0614496"></rect>
                            </g>
                        </g>
                    </g>
                    <g id="Group-140-Copy" transform="translate(42.000000, 6.000000)" fill="#34E834">
                        <circle id="Oval-19" cx="2" cy="30" r="2"></circle>
                        <circle id="Oval-19-Copy" cx="2" cy="16" r="2"></circle>
                        <circle id="Oval-19-Copy-2" cx="2" cy="2" r="2"></circle>
                    </g>
                    <g id="Group-140-Copy-2" transform="translate(14.000000, 48.000000)" fill="#000000">
                        <circle id="Oval-19" cx="2" cy="30" r="2"></circle>
                        <circle id="Oval-19-Copy" cx="2" cy="16" r="2"></circle>
                        <circle id="Oval-19-Copy-2" cx="2" cy="2" r="2"></circle>
                    </g>
                </g>
                <path d="M147.367188,79.7851562 L142.140625,79.7851562 L142.140625,94 L138.625,94 L138.625,79.7851562 L133.46875,79.7851562 L133.46875,76.9375 L147.367188,76.9375 L147.367188,79.7851562 Z M155.511719,84.4960938 C155.050779,84.4335934 154.644533,84.4023438 154.292969,84.4023438 C153.011712,84.4023438 152.171877,84.8359332 151.773438,85.703125 L151.773438,94 L148.386719,94 L148.386719,81.3203125 L151.585938,81.3203125 L151.679688,82.8320312 C152.359378,81.6679629 153.300775,81.0859375 154.503906,81.0859375 C154.878908,81.0859375 155.230467,81.1367182 155.558594,81.2382812 L155.511719,84.4960938 Z M164.136719,94 C163.980468,93.695311 163.867188,93.3164085 163.796875,92.8632812 C162.976558,93.7773483 161.910163,94.234375 160.597656,94.234375 C159.355463,94.234375 158.326176,93.8750036 157.509766,93.15625 C156.693355,92.4374964 156.285156,91.5312555 156.285156,90.4375 C156.285156,89.0937433 156.783198,88.0625036 157.779297,87.34375 C158.775396,86.6249964 160.214834,86.2617188 162.097656,86.2539062 L163.65625,86.2539062 L163.65625,85.5273438 C163.65625,84.9414033 163.505861,84.472658 163.205078,84.1210938 C162.904295,83.7695295 162.429691,83.59375 161.78125,83.59375 C161.210935,83.59375 160.763673,83.7304674 160.439453,84.0039062 C160.115233,84.2773451 159.953125,84.6523414 159.953125,85.1289062 L156.566406,85.1289062 C156.566406,84.3945276 156.792966,83.7148469 157.246094,83.0898438 C157.699221,82.4648406 158.33984,81.9746112 159.167969,81.6191406 C159.996098,81.2636701 160.925776,81.0859375 161.957031,81.0859375 C163.519539,81.0859375 164.759761,81.4785117 165.677734,82.2636719 C166.595708,83.0488321 167.054688,84.1523366 167.054688,85.5742188 L167.054688,91.0703125 C167.0625,92.2734435 167.230467,93.1835907 167.558594,93.8007812 L167.558594,94 L164.136719,94 Z M161.335938,91.6445312 C161.83594,91.6445312 162.296873,91.5332042 162.71875,91.3105469 C163.140627,91.0878895 163.453124,90.7890644 163.65625,90.4140625 L163.65625,88.234375 L162.390625,88.234375 C160.695304,88.234375 159.792969,88.8203066 159.683594,89.9921875 L159.671875,90.1914062 C159.671875,90.6132834 159.820311,90.9609361 160.117188,91.234375 C160.414064,91.5078139 160.82031,91.6445312 161.335938,91.6445312 Z M169.128906,87.5664062 C169.128906,85.5898339 169.572261,84.0156309 170.458984,82.84375 C171.345708,81.6718691 172.558586,81.0859375 174.097656,81.0859375 C175.332037,81.0859375 176.351558,81.5468704 177.15625,82.46875 L177.15625,76 L180.554688,76 L180.554688,94 L177.496094,94 L177.332031,92.6523438 C176.488277,93.7070365 175.40235,94.234375 174.074219,94.234375 C172.582024,94.234375 171.38477,93.6464903 170.482422,92.4707031 C169.580074,91.294916 169.128906,89.6601667 169.128906,87.5664062 Z M172.515625,87.8125 C172.515625,89.0000059 172.722654,89.9101531 173.136719,90.5429688 C173.550783,91.1757844 174.15234,91.4921875 174.941406,91.4921875 C175.988286,91.4921875 176.72656,91.0507857 177.15625,90.1679688 L177.15625,85.1640625 C176.734373,84.2812456 176.003911,83.8398438 174.964844,83.8398438 C173.332023,83.8398438 172.515625,85.1640493 172.515625,87.8125 Z M189.015625,94.234375 C187.156241,94.234375 185.642584,93.6640682 184.474609,92.5234375 C183.306635,91.3828068 182.722656,89.8632907 182.722656,87.9648438 L182.722656,87.6367188 C182.722656,86.3632749 182.968748,85.2246144 183.460938,84.2207031 C183.953127,83.2167919 184.650386,82.4433621 185.552734,81.9003906 C186.455083,81.3574192 187.484369,81.0859375 188.640625,81.0859375 C190.375009,81.0859375 191.740229,81.632807 192.736328,82.7265625 C193.732427,83.820318 194.230469,85.3710837 194.230469,87.3789062 L194.230469,88.7617188 L186.15625,88.7617188 C186.265626,89.5898479 186.5957,90.2539038 187.146484,90.7539062 C187.697268,91.2539087 188.394527,91.5039062 189.238281,91.5039062 C190.542975,91.5039062 191.562496,91.0312547 192.296875,90.0859375 L193.960938,91.9492188 C193.453122,92.6679723 192.765629,93.2285136 191.898438,93.6308594 C191.031246,94.0332051 190.070318,94.234375 189.015625,94.234375 Z M188.628906,83.828125 C187.957028,83.828125 187.412111,84.0546852 186.994141,84.5078125 C186.57617,84.9609398 186.308594,85.6093708 186.191406,86.453125 L190.902344,86.453125 L190.902344,86.1835938 C190.886719,85.43359 190.683596,84.8535177 190.292969,84.4433594 C189.902342,84.0332011 189.34766,83.828125 188.628906,83.828125 Z M203.277344,84.4960938 C202.816404,84.4335934 202.410158,84.4023438 202.058594,84.4023438 C200.777337,84.4023438 199.937502,84.8359332 199.539062,85.703125 L199.539062,94 L196.152344,94 L196.152344,81.3203125 L199.351562,81.3203125 L199.445312,82.8320312 C200.125003,81.6679629 201.0664,81.0859375 202.269531,81.0859375 C202.644533,81.0859375 202.996092,81.1367182 203.324219,81.2382812 L203.277344,84.4960938 Z M211.773438,90.4960938 C211.773438,90.0820292 211.568361,89.7558606 211.158203,89.5175781 C210.748045,89.2792957 210.089848,89.0664072 209.183594,88.8789062 C206.167954,88.2460906 204.660156,86.9648534 204.660156,85.0351562 C204.660156,83.9101506 205.126948,82.9707069 206.060547,82.2167969 C206.994145,81.4628869 208.214836,81.0859375 209.722656,81.0859375 C211.332039,81.0859375 212.619136,81.46484 213.583984,82.2226562 C214.548833,82.9804725 215.03125,83.9648377 215.03125,85.1757812 L211.644531,85.1757812 C211.644531,84.6914038 211.488283,84.2910172 211.175781,83.9746094 C210.86328,83.6582015 210.375003,83.5 209.710938,83.5 C209.140622,83.5 208.69922,83.628905 208.386719,83.8867188 C208.074217,84.1445325 207.917969,84.4726543 207.917969,84.8710938 C207.917969,85.2460956 208.095701,85.548827 208.451172,85.7792969 C208.806642,86.0097668 209.406246,86.2089835 210.25,86.3769531 C211.093754,86.5449227 211.804685,86.7343739 212.382812,86.9453125 C214.171884,87.6015658 215.066406,88.7382732 215.066406,90.3554688 C215.066406,91.5117245 214.570317,92.4472621 213.578125,93.1621094 C212.585933,93.8769567 211.304695,94.234375 209.734375,94.234375 C208.67187,94.234375 207.72852,94.0449238 206.904297,93.6660156 C206.080074,93.2871075 205.433596,92.7675814 204.964844,92.1074219 C204.496091,91.4472623 204.261719,90.7343788 204.261719,89.96875 L207.472656,89.96875 C207.503906,90.5703155 207.72656,91.0312484 208.140625,91.3515625 C208.55469,91.6718766 209.109372,91.8320312 209.804688,91.8320312 C210.453128,91.8320312 210.943358,91.7089856 211.275391,91.4628906 C211.607424,91.2167956 211.773438,90.8945332 211.773438,90.4960938 Z" id="Traders" fill="#FFFFFF"></path>
                <path d="M138.367188,203.785156 L133.140625,203.785156 L133.140625,218 L129.625,218 L129.625,203.785156 L124.46875,203.785156 L124.46875,200.9375 L138.367188,200.9375 L138.367188,203.785156 Z M146.511719,208.496094 C146.050779,208.433593 145.644533,208.402344 145.292969,208.402344 C144.011712,208.402344 143.171877,208.835933 142.773438,209.703125 L142.773438,218 L139.386719,218 L139.386719,205.320312 L142.585938,205.320312 L142.679688,206.832031 C143.359378,205.667963 144.300775,205.085938 145.503906,205.085938 C145.878908,205.085938 146.230467,205.136718 146.558594,205.238281 L146.511719,208.496094 Z M155.734375,216.710938 C154.898433,217.726568 153.742195,218.234375 152.265625,218.234375 C150.906243,218.234375 149.869144,217.843754 149.154297,217.0625 C148.43945,216.281246 148.074219,215.136726 148.058594,213.628906 L148.058594,205.320312 L151.445312,205.320312 L151.445312,213.511719 C151.445312,214.832038 152.046869,215.492188 153.25,215.492188 C154.398443,215.492188 155.187498,215.093754 155.617188,214.296875 L155.617188,205.320312 L159.015625,205.320312 L159.015625,218 L155.828125,218 L155.734375,216.710938 Z M167.40625,218.234375 C165.546866,218.234375 164.033209,217.664068 162.865234,216.523438 C161.69726,215.382807 161.113281,213.863291 161.113281,211.964844 L161.113281,211.636719 C161.113281,210.363275 161.359373,209.224614 161.851562,208.220703 C162.343752,207.216792 163.041011,206.443362 163.943359,205.900391 C164.845708,205.357419 165.874994,205.085938 167.03125,205.085938 C168.765634,205.085938 170.130854,205.632807 171.126953,206.726562 C172.123052,207.820318 172.621094,209.371084 172.621094,211.378906 L172.621094,212.761719 L164.546875,212.761719 C164.656251,213.589848 164.986325,214.253904 165.537109,214.753906 C166.087893,215.253909 166.785152,215.503906 167.628906,215.503906 C168.9336,215.503906 169.953121,215.031255 170.6875,214.085938 L172.351562,215.949219 C171.843747,216.667972 171.156254,217.228514 170.289062,217.630859 C169.421871,218.033205 168.460943,218.234375 167.40625,218.234375 Z M167.019531,207.828125 C166.347653,207.828125 165.802736,208.054685 165.384766,208.507812 C164.966795,208.96094 164.699219,209.609371 164.582031,210.453125 L169.292969,210.453125 L169.292969,210.183594 C169.277344,209.43359 169.074221,208.853518 168.683594,208.443359 C168.292967,208.033201 167.738285,207.828125 167.019531,207.828125 Z M191.007812,210.605469 L184.257812,210.605469 L184.257812,215.175781 L192.179688,215.175781 L192.179688,218 L180.742188,218 L180.742188,200.9375 L192.15625,200.9375 L192.15625,203.785156 L184.257812,203.785156 L184.257812,207.851562 L191.007812,207.851562 L191.007812,210.605469 Z M207.636719,212.316406 C207.503906,214.152353 206.826178,215.597651 205.603516,216.652344 C204.380853,217.707037 202.769541,218.234375 200.769531,218.234375 C198.58202,218.234375 196.861334,217.498054 195.607422,216.025391 C194.353509,214.552727 193.726562,212.531263 193.726562,209.960938 L193.726562,208.917969 C193.726562,207.277336 194.015622,205.832038 194.59375,204.582031 C195.171878,203.332025 195.998042,202.37305 197.072266,201.705078 C198.14649,201.037106 199.394524,200.703125 200.816406,200.703125 C202.785166,200.703125 204.371088,201.230463 205.574219,202.285156 C206.77735,203.339849 207.472655,204.820303 207.660156,206.726562 L204.144531,206.726562 C204.058593,205.624994 203.751956,204.826174 203.224609,204.330078 C202.697263,203.833982 201.894537,203.585938 200.816406,203.585938 C199.644525,203.585938 198.767581,204.005855 198.185547,204.845703 C197.603513,205.685551 197.304688,206.988272 197.289062,208.753906 L197.289062,210.042969 C197.289062,211.886728 197.568357,213.234371 198.126953,214.085938 C198.68555,214.937504 199.5664,215.363281 200.769531,215.363281 C201.855474,215.363281 202.666013,215.115237 203.201172,214.619141 C203.736331,214.123044 204.042968,213.355474 204.121094,212.316406 L207.636719,212.316406 Z M223.820312,218 L220.304688,218 L213.460938,206.773438 L213.460938,218 L209.945312,218 L209.945312,200.9375 L213.460938,200.9375 L220.316406,212.1875 L220.316406,200.9375 L223.820312,200.9375 L223.820312,218 Z" id="True-ECN" fill="#000000"></path>
                <g id="Group-99" transform="translate(302.000000, 118.000000)">
                    <g id="Group-128">
                        <path d="M47.9846833,8.29576256 L47.9854349,7.8824024 C47.9854349,6.7971441 47.2804679,5.83739697 46.2440613,5.51347292 C46.0674437,5.45785719 24.7027362,0 23.9985208,0 C23.8301705,0 23.6618201,0.0172859702 23.4972276,0.0511063466 C23.3717165,0.0774110838 2.14153883,5.39247113 1.75448341,5.51272136 C0.717325196,5.83589385 0.0108551108,6.79639254 0.0108551108,7.8824024 L0.0116066747,8.30853914 C0.0221285696,14.5194634 0.0341535923,25.855302 0.000333215863,31.9993371 C-0.0319840327,38.1320986 2.28659066,43.7222311 6.88916811,48.6141607 C10.9408492,52.922125 16.0154088,56.38458 22.4006959,59.1954291 C22.7404028,59.3622763 23.3273742,59.5900002 23.9977692,59.5900002 C24.472006,59.5900002 24.994343,59.4637374 25.5347174,59.2224854 C31.9470608,56.4078785 37.0411611,52.9379079 41.1063703,48.6149122 C45.7104509,43.7214795 48.0290256,38.1320986 47.9967083,31.9993371 C47.9636395,25.8455317 47.974913,14.5066868 47.9846833,8.29576256 Z" id="Path-Copy-16" fill="#3B3B3B"></path>
                        <path d="M42.9915651,12.5681168 L42.9921602,12.2408415 C42.9921602,11.3815952 42.4340071,10.6217216 41.6134388,10.3652568 C41.473603,10.3212234 24.5582329,6 24.0006749,6 C23.8673846,6 23.7340943,6.01368606 23.6037792,6.04046312 C23.5044066,6.06128973 6.69554963,10.2694544 6.38910098,10.3646618 C5.56793762,10.6205315 5.00859446,11.3810002 5.00859446,12.2408415 L5.00918951,12.5782326 C5.01752015,17.495692 5.02704089,26.4707695 5.00026382,31.3352698 C4.97467685,36.1908445 6.81039349,40.616796 10.4544547,44.4899498 C13.6623472,47.900753 17.6800972,50.6421295 22.7356072,52.8676012 C23.004568,52.9997014 23.4692989,53.1800003 24.0000798,53.1800003 C24.3755538,53.1800003 24.7891107,53.0800326 25.2169487,52.8890229 C30.2938804,50.6605759 34.3271016,47.9132489 37.545705,44.4905448 C41.1909562,40.6162009 43.0266729,36.1908445 43.0010859,31.3352698 C42.9749039,26.4630339 42.9838296,17.4855762 42.9915651,12.5681168 Z" id="Path-Copy-16" stroke="#000000" stroke-width="2" opacity="0.15"></path>
                    </g>
                    <path d="M22.2554517,16.2630359 L17.0270865,29.9795824 C16.925459,30.2464864 17.1223842,30.5323796 17.4079258,30.5323796 L20.8776783,30.5323796 C21.1456373,30.5323796 21.3408042,30.7866242 21.2715288,31.0454402 L18.1298678,42.7748 C18.0155809,43.2017058 18.5673232,43.4798627 18.8426669,43.1341886 L30.9110194,27.9730548 C31.1170876,27.7142388 30.9454813,27.3309378 30.6149282,27.3119486 L25.1048896,27.0003847 C24.819348,26.9842087 24.6385988,26.686711 24.7560506,26.425785 L29.1939016,16.575303 C29.3155733,16.3055858 29.1179447,16 28.8222052,16 L22.6366427,16 C22.467498,16.0007033 22.3159359,16.105144 22.2554517,16.2630359 Z" id="Shape" fill="#000000" fill-rule="nonzero"></path>
                </g>
                <g id="Group-144" transform="translate(0.000000, 118.000000)">
                    <g id="Group-128-Copy">
                        <path d="M47.9846833,8.29576256 L47.9854349,7.8824024 C47.9854349,6.7971441 47.2804679,5.83739697 46.2440613,5.51347292 C46.0674437,5.45785719 24.7027362,0 23.9985208,0 C23.8301705,0 23.6618201,0.0172859702 23.4972276,0.0511063466 C23.3717165,0.0774110838 2.14153883,5.39247113 1.75448341,5.51272136 C0.717325196,5.83589385 0.0108551108,6.79639254 0.0108551108,7.8824024 L0.0116066747,8.30853914 C0.0221285696,14.5194634 0.0341535923,25.855302 0.000333215863,31.9993371 C-0.0319840327,38.1320986 2.28659066,43.7222311 6.88916811,48.6141607 C10.9408492,52.922125 16.0154088,56.38458 22.4006959,59.1954291 C22.7404028,59.3622763 23.3273742,59.5900002 23.9977692,59.5900002 C24.472006,59.5900002 24.994343,59.4637374 25.5347174,59.2224854 C31.9470608,56.4078785 37.0411611,52.9379079 41.1063703,48.6149122 C45.7104509,43.7214795 48.0290256,38.1320986 47.9967083,31.9993371 C47.9636395,25.8455317 47.974913,14.5066868 47.9846833,8.29576256 Z" id="Path-Copy-16" fill="#3B3B3B"></path>
                        <path d="M42.9915651,12.5681168 L42.9921602,12.2408415 C42.9921602,11.3815952 42.4340071,10.6217216 41.6134388,10.3652568 C41.473603,10.3212234 24.5582329,6 24.0006749,6 C23.8673846,6 23.7340943,6.01368606 23.6037792,6.04046312 C23.5044066,6.06128973 6.69554963,10.2694544 6.38910098,10.3646618 C5.56793762,10.6205315 5.00859446,11.3810002 5.00859446,12.2408415 L5.00918951,12.5782326 C5.01752015,17.495692 5.02704089,26.4707695 5.00026382,31.3352698 C4.97467685,36.1908445 6.81039349,40.616796 10.4544547,44.4899498 C13.6623472,47.900753 17.6800972,50.6421295 22.7356072,52.8676012 C23.004568,52.9997014 23.4692989,53.1800003 24.0000798,53.1800003 C24.3755538,53.1800003 24.7891107,53.0800326 25.2169487,52.8890229 C30.2938804,50.6605759 34.3271016,47.9132489 37.545705,44.4905448 C41.1909562,40.6162009 43.0266729,36.1908445 43.0010859,31.3352698 C42.9749039,26.4630339 42.9838296,17.4855762 42.9915651,12.5681168 Z" id="Path-Copy-16" stroke="#000000" stroke-width="2" opacity="0.15"></path>
                    </g>
                    <g id="lock-00" transform="translate(15.000000, 16.000000)" fill-rule="nonzero" fill="#000000">
                        <path d="M12.4288311,7.63921867 L12.4288311,6.00478119 C12.4288311,4.17326691 10.9440954,2.68853122 9.11258116,2.68853122 L8.89702491,2.68853122 C7.06551063,2.68853122 5.58077494,4.17326691 5.58077494,6.00478119 L5.58077494,7.63921867 C4.74539579,7.70554367 3.91159579,7.79476659 3.07937497,7.90688742 L3.07937497,6.01188744 C3.08067101,2.80012199 5.68053125,0.194964562 8.89228741,0.187131248 L9.10784366,0.187131248 C12.3186777,0.193654968 14.9192158,2.79631165 14.9231248,6.00714994 L14.9231248,7.90214992 C14.0972207,7.79318742 13.2657894,7.70554367 12.4288311,7.63921867 Z M1.26964999,10.2448436 C6.37873709,9.27828162 11.6237627,9.27828162 16.7328498,10.2448436 L16.8489186,10.2661624 C17.4648784,10.3824112 17.910735,10.9208228 17.9101186,11.5476561 L17.9101186,20.454156 C17.910735,21.0809893 17.4648784,21.6194009 16.8489186,21.7356498 L16.0577561,21.884881 C13.7315757,22.327186 11.3691065,22.5508236 9.00124991,22.5528685 C6.63440732,22.5530186 4.27273992,22.3317609 1.94711248,21.8919873 L1.15594999,21.742756 C0.539990122,21.6265072 0.094133553,21.0880956 0.094749999,20.4612623 L0.094749999,11.5547624 C0.094133553,10.9279291 0.539990122,10.3895175 1.15594999,10.2732686 L1.26964999,10.2448436 Z M5.44812495,16.1406623 L7.72212492,18.7699748 C7.83271352,18.8945978 7.99135943,18.9659204 8.15797492,18.9659204 C8.32459041,18.9659204 8.48323632,18.8945978 8.59382491,18.7699748 L12.2843374,14.7336249 C12.4944906,14.5033253 12.4861397,14.1484105 12.2653874,13.9282499 L11.6068749,13.2815811 C11.388878,13.0639204 11.0391256,13.053542 10.8086061,13.2578936 L8.13902492,15.6337498 L6.89543118,14.6601936 C6.66316238,14.478181 6.33149653,14.4985286 6.12321869,14.7075686 L5.47654994,15.3566061 C5.26728598,15.5719439 5.25500347,15.9107365 5.44812495,16.1406623 Z" id="Shape"></path>
                    </g>
                </g>
            </g>
        </g>
    </g>
</svg>