<?xml version="1.0" encoding="UTF-8"?>
<svg width="322px" height="385px" viewBox="0 0 322 385" version="1.1" xmlns="http://www.w3.org/2000/svg" xmlns:xlink="http://www.w3.org/1999/xlink">
    <!-- Generator: Sketch 46 (44423) - http://www.bohemiancoding.com/sketch -->
    <title>Img--0pips</title>
    <desc>Created with Sketch.</desc>
    <defs>
        <linearGradient x1="100%" y1="100%" x2="0%" y2="50%" id="linearGradient-1">
            <stop stop-color="#1B5C37" offset="0%"></stop>
            <stop stop-color="#34E834" offset="100%"></stop>
        </linearGradient>
    </defs>
    <g id="Templates" stroke="none" stroke-width="1" fill="none" fill-rule="evenodd">
        <g id="Img--0pips">
            <g id="Group-21">
                <g id="Group-52" transform="translate(32.000000, 120.000000)">
                    <g id="Group-47" transform="translate(0.000000, 182.000000)">
                        <ellipse id="Oval" fill="#000000" opacity="0.200000003" cx="127.627007" cy="47.7700958" rx="123.627007" ry="34.7700958"></ellipse>
                        <ellipse id="Oval" fill="#181818" cx="127.823498" cy="35.9503589" rx="127.823498" ry="35.9503589"></ellipse>
                        <path d="M35.8098408,11.5366892 C13.6373845,18.0022696 0,26.7987078 0,36.4909784 C0,56.3458133 57.2285295,72.4413372 127.823498,72.4413372 L127.823498,72.4413372 C198.418467,72.4413372 255.646996,56.3458133 255.646996,36.4909784 C255.646996,26.5277863 241.236563,17.5112077 217.957946,11" id="Oval" stroke="#0D0D0D" stroke-width="3" stroke-linecap="round"></path>
                    </g>
                    <g id="Group" transform="translate(72.000000, 0.000000)">
                        <rect id="Rectangle" fill="url(#linearGradient-1)" x="0" y="0" width="110.628603" height="221.257205" rx="55.3143013"></rect>
                        <rect id="Path" fill="#181818" x="24.3495777" y="24.3495777" width="62.1522974" height="172.790692" rx="31.0761487"></rect>
                    </g>
                </g>
                <g id="currency-2-1" opacity="0.300000012" transform="translate(140.000000, 0.000000)" fill-rule="nonzero" fill="#FFFFFF">
                    <path d="M38.9966667,9.82333333 C38.1522222,5.29 34.5933333,1.82444444 30.1461111,0.978888889 C26.7661111,0.313888889 23.3405556,0.00222222222 20.0055556,0.00222222222 C16.5805556,0.00222222222 13.1555556,0.313888889 9.77611111,0.978888889 C5.23944444,1.82388889 1.815,5.33444444 0.969444444,9.77888889 C-0.32,16.5333333 -0.32,23.4216667 0.969444444,30.1316667 C1.81444444,34.7094444 5.32777778,38.1316667 9.77611111,38.9761111 C13.1555556,39.6866667 16.5805556,39.9983333 20.0055556,39.9983333 C23.43,39.9983333 26.8094444,39.6866667 30.19,39.0205556 C34.7272222,38.1316667 38.1522222,34.665 38.9966667,30.1772222 C40.3311111,23.4211111 40.3311111,16.5333333 38.9966667,9.82333333 Z M21.7588889,29.2261111 L21.11,29.2261111 L21.11,31.515 C21.11,32.1283333 20.6122222,32.6261111 19.9988889,32.6261111 C19.3855556,32.6261111 18.8877778,32.1283333 18.8877778,31.515 L18.8877778,29.2261111 L15.1116667,29.2261111 C14.4983333,29.2261111 14.0005556,28.7283333 14.0005556,28.115 C14.0005556,27.5016667 14.4983333,27.0038889 15.1116667,27.0038889 L21.7588889,27.0038889 C23.3833333,27.0038889 24.705,25.6822222 24.705,24.0572222 C24.705,22.4322222 23.3833333,21.1111111 21.7588889,21.1111111 L18.165,21.1111111 C18.1427778,21.1111111 18.1211111,21.1105556 18.0994444,21.1088889 C15.315,21.0333333 13.0727778,18.745 13.0727778,15.9422222 C13.0727778,13.0922222 15.3911111,10.7733333 18.2411111,10.7733333 L18.8877778,10.7733333 L18.8877778,8.48444444 C18.8877778,7.87111111 19.3855556,7.37333333 19.9988889,7.37333333 C20.6122222,7.37333333 21.11,7.87111111 21.11,8.48444444 L21.11,10.7733333 L24.6277778,10.7733333 C25.2411111,10.7733333 25.7388889,11.2711111 25.7388889,11.8844444 C25.7388889,12.4977778 25.2411111,12.9955556 24.6277778,12.9955556 L18.2411111,12.9955556 C16.6166667,12.9955556 15.295,14.3172222 15.295,15.9422222 C15.295,17.5672222 16.6166667,18.8888889 18.2411111,18.8888889 L21.7588889,18.8888889 C24.6088889,18.8888889 26.9272222,21.2077778 26.9272222,24.0577778 C26.9272222,26.9077778 24.6088889,29.2261111 21.7588889,29.2261111 Z" id="Shape"></path>
                </g>
                <g id="currency-2-2" opacity="0.300000012" transform="translate(40.000000, 40.000000)" fill-rule="nonzero" fill="#FFFFFF">
                    <path d="M38.9966667,9.82333333 C38.1522222,5.29 34.5933333,1.82444444 30.1461111,0.978888889 C26.7661111,0.313888889 23.3405556,0.00222222222 20.0055556,0.00222222222 C16.5805556,0.00222222222 13.1555556,0.313888889 9.77611111,0.978888889 C5.23944444,1.82388889 1.815,5.33444444 0.969444444,9.77888889 C-0.32,16.5333333 -0.32,23.4216667 0.969444444,30.1316667 C1.81444444,34.7094444 5.32777778,38.1316667 9.77611111,38.9761111 C13.1555556,39.6866667 16.5805556,39.9983333 20.0055556,39.9983333 C23.43,39.9983333 26.8094444,39.6866667 30.19,39.0205556 C34.7272222,38.1316667 38.1522222,34.665 38.9966667,30.1772222 C40.3311111,23.4211111 40.3311111,16.5333333 38.9966667,9.82333333 Z M27.4327778,14.1111111 C27.0888889,14.6188889 26.3983333,14.7522222 25.89,14.4083333 C25.4594444,14.1172222 24.9972222,13.8727778 24.5155556,13.6827778 C23.6833333,13.355 22.8005556,13.1883333 21.8922222,13.1883333 C19.2194444,13.1883333 16.8944444,14.6555556 15.7161111,16.805 L22.5138889,16.805 C23.1272222,16.805 23.625,17.3027778 23.625,17.9161111 C23.625,18.5294444 23.1272222,19.0272222 22.5138889,19.0272222 L14.9744444,19.0272222 C14.9272222,19.3455556 14.8944444,19.6683333 14.8944444,19.9994444 C14.8944444,20.3305556 14.9272222,20.6533333 14.9744444,20.9716667 L22.5138889,20.9716667 C23.1272222,20.9716667 23.625,21.4694444 23.625,22.0827778 C23.625,22.6961111 23.1272222,23.1938889 22.5138889,23.1938889 L15.7161111,23.1938889 C16.8944444,25.3433333 19.22,26.8105556 21.8922222,26.8105556 C23.0372222,26.8105556 24.1716667,26.5361111 25.1733333,26.0166667 C25.7183333,25.7366667 26.3888889,25.9483333 26.6711111,26.4922222 C26.9533333,27.0366667 26.74,27.7077778 26.1955556,27.99 C24.8788889,28.6722222 23.3905556,29.0322222 21.8922222,29.0322222 C17.9572222,29.0322222 14.6,26.6 13.2788889,23.1933333 L11.265,23.1933333 C10.6516667,23.1933333 10.1538889,22.6955556 10.1538889,22.0822222 C10.1538889,21.4688889 10.6516667,20.9711111 11.265,20.9711111 L12.7277778,20.9711111 C12.6927778,20.6516667 12.6722222,20.3277778 12.6722222,19.9988889 C12.6722222,19.67 12.6927778,19.3461111 12.7277778,19.0266667 L11.265,19.0266667 C10.6516667,19.0266667 10.1538889,18.5288889 10.1538889,17.9155556 C10.1538889,17.3022222 10.6516667,16.8044444 11.265,16.8044444 L13.2788889,16.8044444 C14.6,13.3977778 17.9572222,10.9655556 21.8922222,10.9655556 C23.0811111,10.9655556 24.2377778,11.1844444 25.33,11.615 C25.9627778,11.8638889 26.5694444,12.1844444 27.135,12.5672222 C27.6438889,12.9122222 27.7766667,13.6027778 27.4327778,14.1111111 Z" id="Shape"></path>
                </g>
                <g id="currency-2-3" opacity="0.25" transform="translate(0.000000, 130.000000)" fill-rule="nonzero" fill="#FFFFFF">
                    <path d="M39.002347,9.82606603 C38.1578205,5.29229192 34.5985856,1.8263994 30.1509309,0.98076163 C26.7706023,0.315696971 23.3447137,0.004 20.0093894,0.004 C16.5840564,0.004 13.1587234,0.315696971 9.77895032,0.98076163 C5.24184254,1.82584379 1.81706513,5.33674068 0.971427364,9.78161727 C-0.318142455,16.5367185 -0.318142455,23.4257216 0.971427364,30.136374 C1.81650953,34.7145969 5.33018447,38.1371518 9.77895032,38.9816784 C13.1587234,39.692303 16.5840564,40.004 20.0093894,40.004 C23.4341668,40.004 26.8139398,39.692303 30.1948241,39.0261272 C34.7324875,38.1371518 38.1578205,34.6701481 39.002347,30.181934 C40.3369212,23.4251659 40.3369212,16.5367185 39.002347,9.82606603 Z M27.3106548,31.7493086 L13.9599124,31.7493086 C13.4876442,31.7493086 13.0676034,31.4509462 12.9109215,31.005903 C12.7553508,30.5603041 12.8975869,30.065256 13.265956,29.7696717 C17.3780225,26.4821298 17.2152288,22.7362101 16.873529,21.0588248 L12.6964562,21.0588248 C12.0830632,21.0588248 11.585237,20.5609986 11.585237,19.9476056 C11.585237,19.3342127 12.0830632,18.8363865 12.6964562,18.8363865 L16.0873414,18.8363865 C15.5111743,17.046768 15.0183486,13.9020179 17.2324527,11.0472959 C20.2899722,7.10302352 25.5982661,8.4720455 25.8227324,8.53260695 C26.4155678,8.69151129 26.7672686,9.30101499 26.6083643,9.89329479 C26.4500156,10.4844634 25.8421787,10.8367198 25.2510101,10.6800379 C25.0826604,10.6361448 21.1344988,9.64382609 18.9887346,12.4090949 C17.0535465,14.9054488 18.0075281,17.8029527 18.4514601,18.8358309 L22.7113187,18.8358309 C23.3247117,18.8358309 23.8225379,19.333657 23.8225379,19.94705 C23.8225379,20.560443 23.3247117,21.0582692 22.7113187,21.0582692 L19.1070794,21.0582692 C19.396552,23.00957 19.338213,26.3343377 16.6879554,29.5257591 L27.3112104,29.5257591 C27.9246034,29.5257591 28.4224295,30.0235852 28.4224295,30.6369782 C28.4224295,31.2503712 27.9246034,31.7493086 27.3106548,31.7493086 Z" id="Shape"></path>
                </g>
                <g id="currency-2-4" opacity="0.200000003" transform="translate(272.000000, 230.000000)" fill-rule="nonzero" fill="#FFFFFF">
                    <path d="M24.3788889,13.7533333 L14.7688889,13.7533333 L14.7688889,20.0683333 L24.3788889,20.0683333 C26.1205556,20.0683333 27.5377778,18.6516667 27.5377778,16.9105556 C27.5377778,15.1694444 26.1205556,13.7533333 24.3788889,13.7533333 Z M24.3788889,22.2905556 L14.7688889,22.2905556 L14.7688889,28.6066667 L24.3788889,28.6066667 C26.1205556,28.6066667 27.5377778,27.1894444 27.5377778,25.4477778 C27.5372222,23.7072222 26.1205556,22.2905556 24.3788889,22.2905556 Z M38.9966667,9.82333333 C38.1522222,5.29 34.5933333,1.82444444 30.1461111,0.978888889 C26.7661111,0.313888889 23.3405556,0.00222222222 20.0055556,0.00222222222 C16.5805556,0.00222222222 13.1555556,0.313888889 9.77611111,0.978888889 C5.23944444,1.82388889 1.815,5.33444444 0.969444444,9.77888889 C-0.32,16.5333333 -0.32,23.4216667 0.969444444,30.1316667 C1.81444444,34.7094444 5.32777778,38.1316667 9.77611111,38.9761111 C13.1555556,39.6866667 16.5805556,39.9983333 20.0055556,39.9983333 C23.43,39.9983333 26.8094444,39.6866667 30.19,39.0205556 C34.7272222,38.1316667 38.1522222,34.665 38.9966667,30.1772222 C40.3311111,23.4211111 40.3311111,16.5333333 38.9966667,9.82333333 Z M29.7594444,25.4483333 C29.7594444,28.4155556 27.3455556,30.8294444 24.3783333,30.8294444 L23.2816667,30.8294444 L23.2816667,33.3166667 C23.2816667,33.93 22.7838889,34.4277778 22.1705556,34.4277778 C21.5572222,34.4277778 21.0594444,33.93 21.0594444,33.3166667 L21.0594444,30.8294444 L18.7677778,30.8294444 L18.7677778,33.3166667 C18.7677778,33.93 18.27,34.4277778 17.6566667,34.4277778 C17.0433333,34.4277778 16.5455556,33.93 16.5455556,33.3166667 L16.5455556,30.8294444 L13.6572222,30.8294444 C13.0438889,30.8294444 12.5461111,30.3316667 12.5461111,29.7183333 L12.5461111,12.6422222 C12.5461111,12.0288889 13.0438889,11.5311111 13.6572222,11.5311111 L16.5455556,11.5311111 L16.5455556,9.05722222 C16.5455556,8.44388889 17.0433333,7.94611111 17.6566667,7.94611111 C18.27,7.94611111 18.7677778,8.44388889 18.7677778,9.05722222 L18.7677778,11.5311111 L21.0594444,11.5311111 L21.0594444,9.05722222 C21.0594444,8.44388889 21.5572222,7.94611111 22.1705556,7.94611111 C22.7838889,7.94611111 23.2816667,8.44388889 23.2816667,9.05722222 L23.2816667,11.5311111 L24.3783333,11.5311111 C27.3455556,11.5311111 29.7594444,13.9444444 29.7594444,16.9111111 C29.7594444,18.6511111 28.9255556,20.1955556 27.6405556,21.18 C28.9255556,22.1638889 29.7594444,23.7083333 29.7594444,25.4483333 Z" id="Shape"></path>
                </g>
                <g id="currency-2-5" opacity="0.300000012" transform="translate(240.000000, 40.000000)" fill-rule="nonzero" fill="#FFFFFF">
                    <path d="M38.9966667,9.82333333 C38.1522222,5.29 34.5933333,1.82444444 30.1461111,0.978888889 C26.7661111,0.313888889 23.3405556,0.00222222222 20.0055556,0.00222222222 C16.5805556,0.00222222222 13.1555556,0.313888889 9.77611111,0.978888889 C5.23944444,1.82388889 1.815,5.33444444 0.969444444,9.77888889 C-0.32,16.5333333 -0.32,23.4216667 0.969444444,30.1316667 C1.81444444,34.7094444 5.32777778,38.1316667 9.77611111,38.9761111 C13.1555556,39.6866667 16.5805556,39.9983333 20.0055556,39.9983333 C23.43,39.9983333 26.8094444,39.6866667 30.19,39.0205556 C34.7272222,38.1316667 38.1522222,34.665 38.9966667,30.1772222 C40.3311111,23.4211111 40.3311111,16.5333333 38.9966667,9.82333333 Z M25.6533333,23.6916667 C26.2666667,23.6916667 26.7644444,24.1894444 26.7644444,24.8027778 C26.7644444,25.4161111 26.2666667,25.9138889 25.6533333,25.9138889 L21.1111111,25.9138889 L21.1111111,28.2816667 C21.1111111,28.895 20.6133333,29.3927778 20,29.3927778 C19.3866667,29.3927778 18.8888889,28.895 18.8888889,28.2816667 L18.8888889,25.9138889 L14.3466667,25.9138889 C13.7333333,25.9138889 13.2355556,25.4161111 13.2355556,24.8027778 C13.2355556,24.1894444 13.7333333,23.6916667 14.3466667,23.6916667 L18.8888889,23.6916667 L18.8888889,22.1983333 L14.3466667,22.1983333 C13.7333333,22.1983333 13.2355556,21.7005556 13.2355556,21.0872222 C13.2355556,20.4738889 13.7333333,19.9761111 14.3466667,19.9761111 L18.8888889,19.9761111 L18.8888889,19.3666667 L13.47,12.4011111 C13.0927778,11.9166667 13.1805556,11.2183333 13.6644444,10.8416667 C14.1483333,10.4644444 14.8466667,10.5511111 15.2238889,11.0361111 L20,17.1761111 L24.7766667,11.0361111 C25.1533333,10.5522222 25.8516667,10.465 26.3361111,10.8416667 C26.82,11.2183333 26.9072222,11.9166667 26.5305556,12.4011111 L21.1111111,19.3666667 L21.1111111,19.9761111 L25.6533333,19.9761111 C26.2666667,19.9761111 26.7644444,20.4738889 26.7644444,21.0872222 C26.7644444,21.7005556 26.2666667,22.1983333 25.6533333,22.1983333 L21.1111111,22.1983333 L21.1111111,23.6916667 L25.6533333,23.6916667 Z" id="Shape"></path>
                </g>
                <g id="currency-2-6" opacity="0.25" transform="translate(282.000000, 130.000000)" fill-rule="nonzero" fill="#FFFFFF">
                    <path d="M38.9966667,9.82333333 C38.1522222,5.29 34.5933333,1.82444444 30.1461111,0.978888889 C26.7661111,0.313888889 23.3405556,0.00222222222 20.0055556,0.00222222222 C16.5805556,0.00222222222 13.1555556,0.313888889 9.77611111,0.978888889 C5.23944444,1.82388889 1.815,5.33444444 0.969444444,9.77888889 C-0.32,16.5333333 -0.32,23.4216667 0.969444444,30.1316667 C1.81444444,34.7094444 5.32777778,38.1316667 9.77611111,38.9761111 C13.1555556,39.6866667 16.5805556,39.9983333 20.0055556,39.9983333 C23.43,39.9983333 26.8094444,39.6866667 30.19,39.0205556 C34.7272222,38.1316667 38.1522222,34.665 38.9966667,30.1772222 C40.3311111,23.4211111 40.3311111,16.5333333 38.9966667,9.82333333 Z M19.8338889,23.3983333 L19.8338889,26.7977778 C19.8338889,27.4111111 19.3361111,27.9088889 18.7227778,27.9088889 C18.1094444,27.9088889 17.6116667,27.4111111 17.6116667,26.7977778 L17.6116667,23.3983333 C17.6116667,22.1366667 16.585,21.1111111 15.3238889,21.1111111 L9.56611111,21.1111111 L9.56611111,26.7977778 C9.56611111,27.4111111 9.06833333,27.9088889 8.455,27.9088889 C7.84166667,27.9088889 7.34388889,27.4111111 7.34388889,26.7977778 L7.34388889,13.2033333 C7.34388889,12.59 7.84166667,12.0922222 8.455,12.0922222 L15.3238889,12.0922222 C17.8111111,12.0922222 19.8338889,14.1155556 19.8338889,16.6016667 C19.8338889,17.9572222 19.2294444,19.1727778 18.2788889,20 C19.2294444,20.8272222 19.8338889,22.0427778 19.8338889,23.3983333 Z M28.1488889,27.905 L27.7866667,27.905 L27.7866667,29.6411111 C27.7866667,30.2544444 27.2888889,30.7522222 26.6755556,30.7522222 C26.0622222,30.7522222 25.5644444,30.2544444 25.5644444,29.6411111 L25.5644444,27.905 L22.5833333,27.905 C21.97,27.905 21.4722222,27.4072222 21.4722222,26.7938889 C21.4722222,26.1805556 21.97,25.6827778 22.5833333,25.6827778 L28.1488889,25.6827778 C29.4094444,25.6827778 30.4338889,24.6577778 30.4338889,23.3977778 C30.4338889,22.1366667 29.4088889,21.1116667 28.1488889,21.1116667 L25.14,21.1116667 C25.1188889,21.1116667 25.0977778,21.1111111 25.0766667,21.11 C22.65,21.0422222 20.6966667,19.0466667 20.6966667,16.6033333 C20.6966667,14.1177778 22.7188889,12.0961111 25.2038889,12.0961111 L25.5638889,12.0961111 L25.5638889,10.36 C25.5638889,9.74666667 26.0616667,9.24888889 26.675,9.24888889 C27.2883333,9.24888889 27.7861111,9.74666667 27.7861111,10.36 L27.7861111,12.0961111 L30.5511111,12.0961111 C31.1644444,12.0961111 31.6622222,12.5938889 31.6622222,13.2072222 C31.6622222,13.8205556 31.1644444,14.3183333 30.5511111,14.3183333 L25.2038889,14.3183333 C23.9433333,14.3183333 22.9188889,15.3433333 22.9188889,16.6033333 C22.9188889,17.8644444 23.9438889,18.8894444 25.2038889,18.8894444 L28.1488889,18.8894444 C30.6344444,18.8894444 32.6561111,20.9122222 32.6561111,23.3977778 C32.6561111,25.8827778 30.6344444,27.905 28.1488889,27.905 Z M15.3238889,14.3144444 L9.56611111,14.3144444 L9.56611111,18.8888889 L15.3238889,18.8888889 C16.5855556,18.8888889 17.6116667,17.8627778 17.6116667,16.6016667 C17.6116667,15.3405556 16.5855556,14.3144444 15.3238889,14.3144444 Z" id="Shape"></path>
                </g>
                <path d="M32.0243056,240.842333 L25.4848611,240.842333 L25.4848611,250.390111 L32.0243056,250.390111 C34.6570833,250.390111 36.7998611,248.248444 36.7998611,245.615667 C36.7998611,242.983444 34.6576389,240.842333 32.0243056,240.842333 Z M48.9943056,240.825111 C48.1498611,236.291778 44.5909722,232.826222 40.14375,231.980667 C36.76375,231.315667 33.3381944,231.004 30.0031944,231.004 C26.5781944,231.004 23.1531944,231.315667 19.77375,231.980667 C15.2370833,232.825667 11.8126389,236.336222 10.9670833,240.780667 C9.67763889,247.535111 9.67763889,254.423444 10.9670833,261.133444 C11.8120833,265.711222 15.3254167,269.133444 19.77375,269.977889 C23.1531944,270.688444 26.5781944,271.000111 30.0031944,271.000111 C33.4276389,271.000111 36.8070833,270.688444 40.1876389,270.022333 C44.7248611,269.133444 48.1498611,265.666778 48.9943056,261.179 C50.32875,254.422889 50.32875,247.535111 48.9943056,240.825111 Z M32.0243056,252.611778 L25.4848611,252.611778 L25.4848611,255.067333 L32.5009722,255.067333 C33.1143056,255.067333 33.6120833,255.565111 33.6120833,256.178444 C33.6120833,256.791778 33.1143056,257.289556 32.5009722,257.289556 L25.4848611,257.289556 L25.4848611,262.272333 C25.4848611,262.885667 24.9870833,263.383444 24.37375,263.383444 C23.7604167,263.383444 23.2626389,262.885667 23.2626389,262.272333 L23.2626389,257.289556 L22.0843056,257.289556 C21.4709722,257.289556 20.9731944,256.791778 20.9731944,256.178444 C20.9731944,255.565111 21.4709722,255.067333 22.0843056,255.067333 L23.2626389,255.067333 L23.2626389,252.611778 L22.0843056,252.611778 C21.4709722,252.611778 20.9731944,252.114 20.9731944,251.500667 C20.9731944,250.887333 21.4709722,250.389556 22.0843056,250.389556 L23.2626389,250.389556 L23.2626389,239.731222 C23.2626389,239.117889 23.7604167,238.620111 24.37375,238.620111 L32.0243056,238.620111 C35.8826389,238.620111 39.0220833,241.757889 39.0220833,245.615667 C39.0220833,249.473444 35.8831944,252.611778 32.0243056,252.611778 Z" id="Shape" fill="#FFFFFF" fill-rule="nonzero" opacity="0.2"></path>
                <path d="M190.5,86.5 L212.246776,30.5797197" id="Line-10" stroke="#979797" opacity="0.100000001" stroke-linecap="square"></path>
                <path d="M241.078648,195.14758 L300.339948,204.533648" id="Line-11" stroke="#979797" opacity="0.100000001" stroke-linecap="square"></path>
                <path d="M233.5,128.5 L287.018205,101.374334" id="Line-11" stroke="#979797" opacity="0.100000001" stroke-linecap="square"></path>
                <g id="Group-100" transform="translate(19.000000, 30.000000)" stroke="#979797" stroke-linecap="square" opacity="0.100000001">
                    <path d="M88.7532243,56.5 L110.5,0.579719708" id="Line-10" transform="translate(99.626612, 28.539860) scale(-1, 1) translate(-99.626612, -28.539860) "></path>
                    <path d="M59.921352,165.14758 L0.660051572,174.533648" id="Line-11"></path>
                    <path d="M13.981795,98.5 L67.5,71.3743344" id="Line-11" transform="translate(40.740897, 84.937167) scale(-1, 1) translate(-40.740897, -84.937167) "></path>
                </g>
            </g>
        </g>
    </g>
</svg>