<?xml version="1.0" encoding="UTF-8"?>
<svg width="448px" height="480px" viewBox="0 0 448 480" version="1.1" xmlns="http://www.w3.org/2000/svg" xmlns:xlink="http://www.w3.org/1999/xlink">
    <!-- Generator: Sketch 46 (44423) - http://www.bohemiancoding.com/sketch -->
    <title>Img--Markets</title>
    <desc>Created with Sketch.</desc>
    <defs></defs>
    <g id="Templates" stroke="none" stroke-width="1" fill="none" fill-rule="evenodd">
        <g id="Img--Markets">
            <g id="Group-187" transform="translate(-49.000000, -40.000000)">
                <path d="M272.109744,213 C268.528738,213 264.947732,214.023145 261.878299,215.813648 L222.231446,238.578615 C215.836792,242.159621 212,249.065847 212,256.227859 L212,302.013579 C212,309.175591 215.836792,316.081817 222.231446,319.662823 L261.878299,342.683576 C268.272952,346.264582 275.946537,346.264582 282.34119,342.683576 L321.988043,319.918609 C328.382697,316.337603 332.219489,309.431377 332.219489,302.269365 L332.219489,256.483645 C332.219489,249.321633 328.382697,242.415407 321.988043,238.834401 L282.34119,215.813648 C279.271757,214.023145 275.690751,213 272.109744,213 Z" id="Path-Copy-3" stroke="#34E834" stroke-width="6"></path>
                <path d="M272,226 C269.140426,226 266.280851,226.817021 263.829787,228.246809 L232.170213,246.425532 C227.06383,249.285106 224,254.8 224,260.519149 L224,297.080851 C224,302.8 227.06383,308.314894 232.170213,311.174468 L263.829787,329.557447 C268.93617,332.417021 275.06383,332.417021 280.170213,329.557447 L311.829787,311.378723 C316.93617,308.519149 320,303.004255 320,297.285106 L320,260.723404 C320,255.004255 316.93617,249.489362 311.829787,246.629787 L280.170213,228.246809 C277.719149,226.817021 274.859574,226 272,226 Z" id="2" stroke="#34E834" stroke-width="2" opacity="0.196727808"></path>
                <path d="M244.550821,289.506651 C244.489262,289.506651 244.427703,289.56821 244.366144,289.56821 C244.119909,289.56821 243.873673,289.383533 243.812114,289.137298 C239.872348,278.24138 242.45782,266.298962 250.583588,258.050076 C256.185444,252.325102 263.634066,249.124042 271.636717,249.000924 C279.639368,248.939365 287.211107,251.955749 292.936081,257.557605 L293.982581,258.604105 L293.921023,253.925632 C293.921023,253.556279 294.167258,253.310044 294.536611,253.310044 C294.844405,253.248485 295.1522,253.556279 295.1522,253.925632 L295.213759,260.081518 C295.213759,260.450871 294.967523,260.697106 294.59817,260.697106 L288.442285,260.758665 C288.442285,260.758665 288.442285,260.758665 288.442285,260.758665 C288.13449,260.758665 287.826696,260.51243 287.826696,260.143077 C287.826696,259.773724 288.072931,259.527488 288.442285,259.527488 L293.120758,259.465929 L292.074257,258.419429 C280.747428,247.338835 262.526006,247.523511 251.445412,258.9119 C243.688997,266.852992 241.226642,278.24138 244.981733,288.706386 C245.043291,289.01418 244.920174,289.383533 244.550821,289.506651 Z M299.46132,268.453522 C299.153525,268.57664 298.968849,268.945993 299.091966,269.253787 C302.847057,279.718793 300.384702,291.107181 292.566728,299.048273 C281.486134,310.375103 263.264713,310.621338 251.937883,299.540744 L250.891383,298.494244 L255.569856,298.432685 C255.939209,298.432685 256.185444,298.12489 256.185444,297.817096 C256.185444,297.447743 255.87765,297.201508 255.569856,297.201508 L249.41397,297.263066 C249.044617,297.263066 248.798382,297.570861 248.798382,297.878655 L248.859941,304.034541 C248.859941,304.342335 249.167735,304.650129 249.475529,304.650129 C249.475529,304.650129 249.475529,304.650129 249.475529,304.650129 C249.844882,304.650129 250.091118,304.342335 250.091118,304.034541 L250.029559,299.356068 L251.076059,300.402568 C256.924151,306.065983 264.434331,308.89769 272.00607,308.89769 C279.824045,308.89769 287.580461,305.881306 293.428552,299.910097 C301.492762,291.661211 304.139793,279.718793 300.200026,268.822875 C300.076908,268.515081 299.769114,268.330404 299.46132,268.453522 Z M288.503843,272.147053 C288.503843,272.147053 288.503843,272.147053 288.503843,272.147053 C292.258934,281.257764 287.949814,291.72277 278.839103,295.539419 C276.992337,296.339684 275.022454,296.770596 272.991012,296.893713 C272.929453,296.893713 272.929453,296.893713 272.867894,296.893713 C272.806335,296.893713 272.806335,296.893713 272.744776,296.893713 C272.621659,296.893713 272.498541,296.893713 272.375423,296.893713 C272.375423,296.893713 272.375423,296.893713 272.375423,296.893713 C272.313864,296.893713 272.252306,296.893713 272.190747,296.893713 C272.067629,296.893713 272.00607,296.893713 271.882952,296.893713 C264.619007,296.893713 258.155328,292.584593 255.32362,285.874678 C251.56853,276.763968 255.87765,266.298962 264.988361,262.482313 C267.204479,261.55893 269.482157,261.128018 271.821394,261.128018 C271.944511,261.128018 272.067629,261.128018 272.190747,261.128018 C272.252306,261.128018 272.252306,261.128018 272.313864,261.128018 C272.313864,261.128018 272.313864,261.128018 272.313864,261.128018 C272.5601,261.128018 272.744776,261.128018 272.991012,261.189577 C279.947162,261.55893 285.918371,265.806491 288.503843,272.147053 C288.503843,272.147053 288.503843,272.147053 288.503843,272.147053 Z M277.669485,263.282578 C279.639368,265.129344 281.239898,268.084169 282.101722,271.716142 L287.026431,271.716142 C285.056547,267.776375 281.732369,264.759991 277.669485,263.282578 Z M281.116781,273.008877 L273.11413,273.008877 L273.11413,284.951295 L281.055222,284.951295 C281.486134,283.10453 281.67081,281.073088 281.67081,278.980086 C281.67081,276.825527 281.486134,274.855643 281.116781,273.008877 Z M263.880301,284.951295 L271.821394,284.951295 L271.821394,273.008877 L263.818742,273.008877 C263.449389,274.855643 263.203154,276.887085 263.203154,278.980086 C263.203154,281.073088 263.449389,283.10453 263.880301,284.951295 Z M264.126537,271.7777 L271.882952,271.7777 L271.882952,262.359195 C268.374098,262.790107 265.480831,266.42208 264.126537,271.7777 Z M264.188095,286.182473 C265.603949,291.414975 268.497215,295.170065 271.882952,295.600977 L271.882952,286.182473 L264.188095,286.182473 Z M280.747428,286.182473 L273.052571,286.182473 L273.052571,295.600977 C276.376749,295.170065 279.331574,291.414975 280.747428,286.182473 Z M280.808986,271.7777 C279.393133,266.42208 276.561425,262.728549 273.052571,262.359195 L273.052571,271.7777 L280.808986,271.7777 Z M256.985709,271.7777 L262.833801,271.7777 C263.818742,267.837934 265.54239,264.698432 267.758509,262.913225 C267.019803,263.097902 266.342655,263.344137 265.665508,263.651931 C261.725741,265.252462 258.709357,268.207287 256.985709,271.7777 Z M256.493239,285.012854 C256.554797,285.012854 256.616356,284.951295 256.677915,284.951295 L262.649124,284.951295 C262.279771,283.10453 262.033536,281.073088 262.033536,278.980086 C262.033536,276.887085 262.218212,274.855643 262.587565,273.008877 L256.677915,273.008877 C256.616356,273.008877 256.554797,273.008877 256.493239,272.947319 C255.015826,276.702409 254.954267,281.011529 256.493239,285.012854 Z M267.943186,295.108507 C265.665508,293.261741 263.880301,290.06068 262.833801,286.182473 L256.924151,286.182473 C259.201828,290.737828 263.203154,293.938888 267.943186,295.108507 Z M287.026431,286.182473 L282.040164,286.182473 C281.116781,289.814445 279.454692,292.830829 277.423249,294.739153 C277.731044,294.616036 278.100397,294.492918 278.408191,294.3698 C282.286399,292.707711 285.302783,289.752886 287.026431,286.182473 Z M287.518902,273.008877 L282.347958,273.008877 C282.717311,274.855643 282.901988,276.887085 282.901988,278.980086 C282.901988,281.073088 282.717311,283.10453 282.286399,284.951295 L287.395784,284.951295 C287.395784,284.951295 287.457343,284.951295 287.457343,284.951295 C288.996314,281.257764 289.057873,277.010203 287.518902,273.008877 Z" id="Shape" fill="#34E834" fill-rule="nonzero"></path>
                <path d="M204.110001,93 C200.528979,93 196.947958,94.0231489 193.878511,95.8136596 L154.231489,118.578724 C147.836809,122.159745 144,129.066 144,136.228043 L144,182.013958 C144,189.176001 147.836809,196.082256 154.231489,199.663278 L193.878511,222.684129 C200.273192,226.26515 207.946809,226.26515 214.34149,222.684129 L253.988512,199.919065 C260.383193,196.338044 264.220001,189.431788 264.220001,182.269746 L264.220001,136.48383 C264.220001,129.321788 260.383193,122.415532 253.988512,118.834511 L214.34149,95.8136596 C211.272043,94.0231489 207.691022,93 204.110001,93 Z" id="Path" stroke="#000000" stroke-width="5"></path>
                <path d="M204.109744,332 C200.528738,332 196.947732,333.023145 193.878299,334.813648 L154.231446,357.578615 C147.836792,361.159621 144,368.065847 144,375.227859 L144,421.013579 C144,428.175591 147.836792,435.081817 154.231446,438.662823 L193.878299,461.683576 C200.272952,465.264582 207.946537,465.264582 214.34119,461.683576 L253.988043,438.918609 C260.382697,435.337603 264.219489,428.431377 264.219489,421.269365 L264.219489,375.483645 C264.219489,368.321633 260.382697,361.415407 253.988043,357.834401 L214.34119,334.813648 C211.271757,333.023145 207.690751,332 204.109744,332 Z" id="Path-Copy-6" stroke="#000000" stroke-width="5"></path>
                <path d="M341.109744,93 C337.528738,93 333.947732,94.0231446 330.878299,95.8136476 L291.231446,118.578615 C284.836792,122.159621 281,129.065847 281,136.227859 L281,182.013579 C281,189.175591 284.836792,196.081817 291.231446,199.662823 L330.878299,222.683576 C337.272952,226.264582 344.946537,226.264582 351.34119,222.683576 L390.988043,199.918609 C397.382697,196.337603 401.219489,189.431377 401.219489,182.269365 L401.219489,136.483645 C401.219489,129.321633 397.382697,122.415407 390.988043,118.834401 L351.34119,95.8136476 C348.271757,94.0231446 344.690751,93 341.109744,93 Z" id="Path-Copy-2" stroke="#000000" stroke-width="5"></path>
                <path d="M341.109744,332 C337.528738,332 333.947732,333.023145 330.878299,334.813648 L291.231446,357.578615 C284.836792,361.159621 281,368.065847 281,375.227859 L281,421.013579 C281,428.175591 284.836792,435.081817 291.231446,438.662823 L330.878299,461.683576 C337.272952,465.264582 344.946537,465.264582 351.34119,461.683576 L390.988043,438.918609 C397.382697,435.337603 401.219489,428.431377 401.219489,421.269365 L401.219489,375.483645 C401.219489,368.321633 397.382697,361.415407 390.988043,357.834401 L351.34119,334.813648 C348.271757,333.023145 344.690751,332 341.109744,332 Z" id="Path-Copy-7" stroke="#000000" stroke-width="5"></path>
                <path d="M134.109744,213 C130.528738,213 126.947732,214.023145 123.878299,215.813648 L84.2314459,238.578615 C77.8367922,242.159621 74,249.065847 74,256.227859 L74,302.013579 C74,309.175591 77.8367922,316.081817 84.2314459,319.662823 L123.878299,342.683576 C130.272952,346.264582 137.946537,346.264582 144.34119,342.683576 L183.988043,319.918609 C190.382697,316.337603 194.219489,309.431377 194.219489,302.269365 L194.219489,256.483645 C194.219489,249.321633 190.382697,242.415407 183.988043,238.834401 L144.34119,215.813648 C141.271757,214.023145 137.690751,213 134.109744,213 Z" id="Path-Copy-10" stroke="#000000" stroke-width="5"></path>
                <path d="M411.109744,213 C407.528738,213 403.947732,214.023145 400.878299,215.813648 L361.231446,238.578615 C354.836792,242.159621 351,249.065847 351,256.227859 L351,302.013579 C351,309.175591 354.836792,316.081817 361.231446,319.662823 L400.878299,342.683576 C407.272952,346.264582 414.946537,346.264582 421.34119,342.683576 L460.988043,319.918609 C467.382697,316.337603 471.219489,309.431377 471.219489,302.269365 L471.219489,256.483645 C471.219489,249.321633 467.382697,242.415407 460.988043,238.834401 L421.34119,215.813648 C418.271757,214.023145 414.690751,213 411.109744,213 Z" id="Path-Copy-9" stroke="#000000" stroke-width="5"></path>
                <g id="Group-114" opacity="0.200000003" stroke="#000000" stroke-width="4" stroke-linecap="round">
                    <path d="M212,63.1821854 C212,70.3445384 215.836975,77.2510931 222.231933,80.8322696 L261.880673,103.854119 C268.275631,107.435295 275.94958,107.435295 282.344538,103.854119 L321.993278,81.0880679 C328.388236,77.5068914 332.225211,70.6003367 332.225211,63.4379837" id="Path-Copy-4"></path>
                    <path d="M212,515.182185 C212,522.344538 215.836975,529.251093 222.231933,532.83227 L261.880673,555.854119 C268.275631,559.435295 275.94958,559.435295 282.344538,555.854119 L321.993278,533.088068 C328.388236,529.506891 332.225211,522.600337 332.225211,515.437984" id="Path-Copy-8" transform="translate(272.112606, 505.270000) scale(1, -1) translate(-272.112606, -505.270000) "></path>
                    <path d="M408.114624,175.961692 C408.114624,183.124045 411.951599,190.030599 418.346557,193.611776 L457.995297,216.633625 C464.390255,220.214801 472.064204,220.214801 478.459162,216.633625 L518.107902,193.867574 C524.50286,190.286398 528.339835,183.379843 528.339835,176.21749" id="Path-Copy-4" transform="translate(468.227229, 166.049507) rotate(-300.000000) translate(-468.227229, -166.049507) "></path>
                    <path d="M16.6711414,401.961692 C16.6711414,409.124045 20.5081162,416.030599 26.9030743,419.611776 L66.5518141,442.633625 C72.9467721,446.214801 80.6207218,446.214801 87.0156798,442.633625 L126.66442,419.867574 C133.059378,416.286398 136.896353,409.379843 136.896353,402.21749" id="Path-Copy-8" transform="translate(76.783747, 392.049507) scale(1, -1) rotate(300.000000) translate(-76.783747, -392.049507) "></path>
                    <path d="M16.2727705,176.632679 C16.2727705,183.795032 20.1097453,190.701586 26.5047034,194.282763 L66.1534432,217.304612 C72.5484013,220.885788 80.2223509,220.885788 86.6173089,217.304612 L126.266049,194.538561 C132.661007,190.957385 136.497982,184.05083 136.497982,176.888477" id="Path-Copy-4" transform="translate(76.385376, 166.720494) rotate(-60.000000) translate(-76.385376, -166.720494) "></path>
                    <path d="M407.716253,402.632679 C407.716253,409.795032 411.553228,416.701586 417.948186,420.282763 L457.596926,443.304612 C463.991884,446.885788 471.665833,446.885788 478.060791,443.304612 L517.709531,420.538561 C524.104489,416.957385 527.941464,410.05083 527.941464,402.888477" id="Path-Copy-8" transform="translate(467.828859, 392.720494) scale(1, -1) rotate(60.000000) translate(-467.828859, -392.720494) "></path>
                </g>
                <path d="M190.674805,160.577148 L185.524414,160.577148 L185.524414,166 L183.300781,166 L183.300781,153.203125 L191.430664,153.203125 L191.430664,154.996094 L185.524414,154.996094 L185.524414,158.801758 L190.674805,158.801758 L190.674805,160.577148 Z M192.397461,161.157227 C192.397461,160.225581 192.582029,159.386234 192.951172,158.63916 C193.320314,157.892086 193.838864,157.317873 194.506836,156.916504 C195.174808,156.515135 195.942378,156.314453 196.80957,156.314453 C198.09278,156.314453 199.134273,156.727535 199.934082,157.553711 C200.733891,158.379887 201.166015,159.475579 201.230469,160.84082 L201.239258,161.341797 C201.239258,162.279302 201.059084,163.117184 200.69873,163.855469 C200.338377,164.593754 199.822757,165.165037 199.151855,165.569336 C198.480954,165.973635 197.706059,166.175781 196.827148,166.175781 C195.485345,166.175781 194.411625,165.729008 193.605957,164.835449 C192.800289,163.94189 192.397461,162.750984 192.397461,161.262695 L192.397461,161.157227 Z M194.533203,161.341797 C194.533203,162.320317 194.73535,163.086423 195.139648,163.640137 C195.543947,164.19385 196.106442,164.470703 196.827148,164.470703 C197.547855,164.470703 198.108885,164.189456 198.510254,163.626953 C198.911623,163.06445 199.112305,162.241216 199.112305,161.157227 C199.112305,160.196284 198.905764,159.434573 198.492676,158.87207 C198.079588,158.309568 197.518558,158.02832 196.80957,158.02832 C196.112301,158.02832 195.558596,158.305173 195.148438,158.858887 C194.738279,159.4126 194.533203,160.240229 194.533203,161.341797 Z M208.024414,158.441406 C207.743163,158.394531 207.453126,158.371094 207.154297,158.371094 C206.175776,158.371094 205.516603,158.74609 205.176758,159.496094 L205.176758,166 L203.041016,166 L203.041016,156.490234 L205.080078,156.490234 L205.132812,157.553711 C205.64844,156.727535 206.363277,156.314453 207.277344,156.314453 C207.582033,156.314453 207.833983,156.355468 208.033203,156.4375 L208.024414,158.441406 Z M213.394531,166.175781 C212.041009,166.175781 210.943852,165.749516 210.103027,164.896973 C209.262203,164.044429 208.841797,162.909187 208.841797,161.491211 L208.841797,161.227539 C208.841797,160.278316 209.024901,159.43018 209.391113,158.683105 C209.757326,157.936031 210.271481,157.354494 210.933594,156.938477 C211.595706,156.522459 212.33398,156.314453 213.148438,156.314453 C214.443366,156.314453 215.443844,156.727535 216.149902,157.553711 C216.855961,158.379887 217.208984,159.548821 217.208984,161.060547 L217.208984,161.921875 L210.995117,161.921875 C211.059571,162.707035 211.321775,163.328123 211.781738,163.785156 C212.241702,164.24219 212.820309,164.470703 213.517578,164.470703 C214.496099,164.470703 215.292966,164.075199 215.908203,163.28418 L217.05957,164.382812 C216.678709,164.951175 216.170413,165.392088 215.534668,165.705566 C214.898923,166.019045 214.185551,166.175781 213.394531,166.175781 Z M213.139648,158.02832 C212.553708,158.02832 212.080568,158.233396 211.720215,158.643555 C211.359861,159.053713 211.129883,159.624996 211.030273,160.357422 L215.099609,160.357422 L215.099609,160.199219 C215.052734,159.484371 214.862306,158.943849 214.52832,158.577637 C214.194334,158.211424 213.731448,158.02832 213.139648,158.02832 Z M222.280273,159.619141 L224.09082,156.490234 L226.463867,156.490234 L223.554688,161.174805 L226.560547,166 L224.205078,166 L222.306641,162.748047 L220.416992,166 L218.043945,166 L221.049805,161.174805 L218.149414,156.490234 L220.504883,156.490234 L222.280273,159.619141 Z" id="Forex" fill="#FFFFFF"></path>
                <path d="M314.780273,160.287109 L309.524414,160.287109 L309.524414,164.224609 L315.667969,164.224609 L315.667969,166 L307.300781,166 L307.300781,153.203125 L315.606445,153.203125 L315.606445,154.996094 L309.524414,154.996094 L309.524414,158.529297 L314.780273,158.529297 L314.780273,160.287109 Z M319.253906,156.490234 L319.31543,157.588867 C320.018558,156.739254 320.941401,156.314453 322.083984,156.314453 C324.064463,156.314453 325.072265,157.448231 325.107422,159.71582 L325.107422,166 L322.97168,166 L322.97168,159.838867 C322.97168,159.235349 322.84131,158.788576 322.580566,158.498535 C322.319823,158.208495 321.893558,158.063477 321.301758,158.063477 C320.440425,158.063477 319.79883,158.453121 319.376953,159.232422 L319.376953,166 L317.241211,166 L317.241211,156.490234 L319.253906,156.490234 Z M331.470703,166.175781 C330.117181,166.175781 329.020024,165.749516 328.179199,164.896973 C327.338375,164.044429 326.917969,162.909187 326.917969,161.491211 L326.917969,161.227539 C326.917969,160.278316 327.101072,159.43018 327.467285,158.683105 C327.833498,157.936031 328.347653,157.354494 329.009766,156.938477 C329.671878,156.522459 330.410152,156.314453 331.224609,156.314453 C332.519538,156.314453 333.520016,156.727535 334.226074,157.553711 C334.932132,158.379887 335.285156,159.548821 335.285156,161.060547 L335.285156,161.921875 L329.071289,161.921875 C329.135743,162.707035 329.397947,163.328123 329.85791,163.785156 C330.317873,164.24219 330.896481,164.470703 331.59375,164.470703 C332.572271,164.470703 333.369138,164.075199 333.984375,163.28418 L335.135742,164.382812 C334.754881,164.951175 334.246585,165.392088 333.61084,165.705566 C332.975094,166.019045 332.261723,166.175781 331.470703,166.175781 Z M331.21582,158.02832 C330.62988,158.02832 330.15674,158.233396 329.796387,158.643555 C329.436033,159.053713 329.206055,159.624996 329.106445,160.357422 L333.175781,160.357422 L333.175781,160.199219 C333.128906,159.484371 332.938478,158.943849 332.604492,158.577637 C332.270506,158.211424 331.80762,158.02832 331.21582,158.02832 Z M341.920898,158.441406 C341.639647,158.394531 341.349611,158.371094 341.050781,158.371094 C340.072261,158.371094 339.413088,158.74609 339.073242,159.496094 L339.073242,166 L336.9375,166 L336.9375,156.490234 L338.976562,156.490234 L339.029297,157.553711 C339.544924,156.727535 340.259761,156.314453 341.173828,156.314453 C341.478517,156.314453 341.730468,156.355468 341.929688,156.4375 L341.920898,158.441406 Z M342.729492,161.174805 C342.729492,159.698235 343.076657,158.519047 343.770996,157.637207 C344.465336,156.755367 345.386713,156.314453 346.535156,156.314453 C347.619146,156.314453 348.471677,156.692379 349.092773,157.448242 L349.189453,156.490234 L351.114258,156.490234 L351.114258,165.709961 C351.114258,166.958014 350.726078,167.942379 349.949707,168.663086 C349.173336,169.383793 348.125983,169.744141 346.807617,169.744141 C346.110348,169.744141 345.429203,169.599123 344.76416,169.309082 C344.099118,169.019042 343.593752,168.639651 343.248047,168.170898 L344.258789,166.887695 C344.915042,167.666996 345.723628,168.056641 346.68457,168.056641 C347.393558,168.056641 347.953123,167.864748 348.363281,167.480957 C348.77344,167.097166 348.978516,166.533207 348.978516,165.789062 L348.978516,165.147461 C348.363278,165.833011 347.542974,166.175781 346.517578,166.175781 C345.404291,166.175781 344.494632,165.733403 343.788574,164.848633 C343.082516,163.963863 342.729492,162.739266 342.729492,161.174805 Z M344.856445,161.359375 C344.856445,162.314458 345.051268,163.065915 345.440918,163.61377 C345.830568,164.161624 346.37109,164.435547 347.0625,164.435547 C347.923832,164.435547 348.562498,164.06641 348.978516,163.328125 L348.978516,159.144531 C348.574217,158.423825 347.941411,158.063477 347.080078,158.063477 C346.37695,158.063477 345.830568,158.341794 345.440918,158.898438 C345.051268,159.455081 344.856445,160.275385 344.856445,161.359375 Z M355.579102,166 L353.443359,166 L353.443359,156.490234 L355.579102,156.490234 L355.579102,166 Z M353.311523,154.020508 C353.311523,153.692381 353.415526,153.419923 353.623535,153.203125 C353.831544,152.986327 354.128904,152.87793 354.515625,152.87793 C354.902346,152.87793 355.201171,152.986327 355.412109,153.203125 C355.623048,153.419923 355.728516,153.692381 355.728516,154.020508 C355.728516,154.342775 355.623048,154.610839 355.412109,154.824707 C355.201171,155.038575 354.902346,155.145508 354.515625,155.145508 C354.128904,155.145508 353.831544,155.038575 353.623535,154.824707 C353.415526,154.610839 353.311523,154.342775 353.311523,154.020508 Z M362.091797,166.175781 C360.738274,166.175781 359.641117,165.749516 358.800293,164.896973 C357.959468,164.044429 357.539062,162.909187 357.539062,161.491211 L357.539062,161.227539 C357.539062,160.278316 357.722166,159.43018 358.088379,158.683105 C358.454592,157.936031 358.968747,157.354494 359.630859,156.938477 C360.292972,156.522459 361.031246,156.314453 361.845703,156.314453 C363.140631,156.314453 364.14111,156.727535 364.847168,157.553711 C365.553226,158.379887 365.90625,159.548821 365.90625,161.060547 L365.90625,161.921875 L359.692383,161.921875 C359.756836,162.707035 360.019041,163.328123 360.479004,163.785156 C360.938967,164.24219 361.517575,164.470703 362.214844,164.470703 C363.193364,164.470703 363.990231,164.075199 364.605469,163.28418 L365.756836,164.382812 C365.375975,164.951175 364.867679,165.392088 364.231934,165.705566 C363.596188,166.019045 362.882816,166.175781 362.091797,166.175781 Z M361.836914,158.02832 C361.250974,158.02832 360.777834,158.233396 360.41748,158.643555 C360.057127,159.053713 359.827149,159.624996 359.727539,160.357422 L363.796875,160.357422 L363.796875,160.199219 C363.75,159.484371 363.559572,158.943849 363.225586,158.577637 C362.8916,158.211424 362.428714,158.02832 361.836914,158.02832 Z M372.893555,163.416016 C372.893555,163.035154 372.736818,162.745118 372.42334,162.545898 C372.109862,162.346679 371.589847,162.170899 370.863281,162.018555 C370.136715,161.86621 369.530276,161.672853 369.043945,161.438477 C367.977534,160.922849 367.444336,160.175786 367.444336,159.197266 C367.444336,158.376949 367.790036,157.691409 368.481445,157.140625 C369.172855,156.589841 370.051752,156.314453 371.118164,156.314453 C372.254888,156.314453 373.173336,156.5957 373.873535,157.158203 C374.573734,157.720706 374.923828,158.450191 374.923828,159.34668 L372.788086,159.34668 C372.788086,158.936521 372.635744,158.595216 372.331055,158.322754 C372.026366,158.050292 371.622073,157.914062 371.118164,157.914062 C370.649412,157.914062 370.267091,158.02246 369.971191,158.239258 C369.675291,158.456056 369.527344,158.746092 369.527344,159.109375 C369.527344,159.437502 369.665038,159.692382 369.94043,159.874023 C370.215822,160.055665 370.772457,160.238769 371.610352,160.42334 C372.448246,160.607911 373.105955,160.827635 373.583496,161.08252 C374.061038,161.337404 374.415526,161.643553 374.646973,162.000977 C374.878419,162.3584 374.994141,162.79199 374.994141,163.301758 C374.994141,164.157231 374.639652,164.850095 373.930664,165.380371 C373.221676,165.910647 372.292974,166.175781 371.144531,166.175781 C370.36523,166.175781 369.670901,166.035158 369.061523,165.753906 C368.452145,165.472655 367.977541,165.08594 367.637695,164.59375 C367.29785,164.10156 367.12793,163.571292 367.12793,163.00293 L369.202148,163.00293 C369.231445,163.506838 369.421873,163.895018 369.773438,164.16748 C370.125002,164.439943 370.590817,164.576172 371.170898,164.576172 C371.733401,164.576172 372.161131,164.469239 372.454102,164.255371 C372.747072,164.041503 372.893555,163.76172 372.893555,163.416016 Z" id="Energies" fill="#FFFFFF"></path>
                <path d="M387.183594,273.203125 L390.875,283.011719 L394.557617,273.203125 L397.431641,273.203125 L397.431641,286 L395.216797,286 L395.216797,281.78125 L395.436523,276.138672 L391.657227,286 L390.066406,286 L386.295898,276.147461 L386.515625,281.78125 L386.515625,286 L384.300781,286 L384.300781,273.203125 L387.183594,273.203125 Z M404.041016,286.175781 C402.687493,286.175781 401.590336,285.749516 400.749512,284.896973 C399.908687,284.044429 399.488281,282.909187 399.488281,281.491211 L399.488281,281.227539 C399.488281,280.278316 399.671385,279.43018 400.037598,278.683105 C400.40381,277.936031 400.917965,277.354494 401.580078,276.938477 C402.242191,276.522459 402.980465,276.314453 403.794922,276.314453 C405.08985,276.314453 406.090329,276.727535 406.796387,277.553711 C407.502445,278.379887 407.855469,279.548821 407.855469,281.060547 L407.855469,281.921875 L401.641602,281.921875 C401.706055,282.707035 401.968259,283.328123 402.428223,283.785156 C402.888186,284.24219 403.466793,284.470703 404.164062,284.470703 C405.142583,284.470703 405.93945,284.075199 406.554688,283.28418 L407.706055,284.382812 C407.325193,284.951175 406.816898,285.392088 406.181152,285.705566 C405.545407,286.019045 404.832035,286.175781 404.041016,286.175781 Z M403.786133,278.02832 C403.200192,278.02832 402.727053,278.233396 402.366699,278.643555 C402.006346,279.053713 401.776368,279.624996 401.676758,280.357422 L405.746094,280.357422 L405.746094,280.199219 C405.699219,279.484371 405.508791,278.943849 405.174805,278.577637 C404.840819,278.211424 404.377933,278.02832 403.786133,278.02832 Z M412.188477,274.178711 L412.188477,276.490234 L413.867188,276.490234 L413.867188,278.072266 L412.188477,278.072266 L412.188477,283.380859 C412.188477,283.744142 412.260253,284.006347 412.403809,284.16748 C412.547364,284.328614 412.803709,284.40918 413.172852,284.40918 C413.418947,284.40918 413.667967,284.379883 413.919922,284.321289 L413.919922,285.973633 C413.433591,286.108399 412.964846,286.175781 412.513672,286.175781 C410.873039,286.175781 410.052734,285.270517 410.052734,283.459961 L410.052734,278.072266 L408.488281,278.072266 L408.488281,276.490234 L410.052734,276.490234 L410.052734,274.178711 L412.188477,274.178711 Z M421.179688,286 C421.085937,285.818358 421.003907,285.522463 420.933594,285.112305 C420.253903,285.821293 419.42188,286.175781 418.4375,286.175781 C417.482417,286.175781 416.703128,285.903323 416.099609,285.358398 C415.496091,284.813474 415.194336,284.139652 415.194336,283.336914 C415.194336,282.323237 415.570797,281.545413 416.32373,281.003418 C417.076664,280.461423 418.153313,280.19043 419.553711,280.19043 L420.863281,280.19043 L420.863281,279.566406 C420.863281,279.074216 420.725587,278.680177 420.450195,278.384277 C420.174803,278.088377 419.755862,277.94043 419.193359,277.94043 C418.707029,277.94043 418.308595,278.062011 417.998047,278.305176 C417.687498,278.548341 417.532227,278.85742 417.532227,279.232422 L415.396484,279.232422 C415.396484,278.710935 415.569334,278.223147 415.915039,277.769043 C416.260744,277.314939 416.730954,276.958986 417.325684,276.701172 C417.920413,276.443358 418.583981,276.314453 419.316406,276.314453 C420.429693,276.314453 421.31738,276.594235 421.979492,277.153809 C422.641605,277.713382 422.981445,278.499995 422.999023,279.513672 L422.999023,283.802734 C422.999023,284.658207 423.119139,285.340818 423.359375,285.850586 L423.359375,286 L421.179688,286 Z M418.833008,284.461914 C419.254885,284.461914 419.651854,284.359376 420.023926,284.154297 C420.395998,283.949218 420.67578,283.67383 420.863281,283.328125 L420.863281,281.535156 L419.711914,281.535156 C418.920894,281.535156 418.326174,281.67285 417.927734,281.948242 C417.529295,282.223634 417.330078,282.613279 417.330078,283.117188 C417.330078,283.527346 417.466307,283.854003 417.73877,284.097168 C418.011232,284.340333 418.375974,284.461914 418.833008,284.461914 Z M427.507812,286 L425.37207,286 L425.37207,272.5 L427.507812,272.5 L427.507812,286 Z M435.163086,283.416016 C435.163086,283.035154 435.006349,282.745118 434.692871,282.545898 C434.379393,282.346679 433.859379,282.170899 433.132812,282.018555 C432.406246,281.86621 431.799807,281.672853 431.313477,281.438477 C430.247065,280.922849 429.713867,280.175786 429.713867,279.197266 C429.713867,278.376949 430.059567,277.691409 430.750977,277.140625 C431.442386,276.589841 432.321284,276.314453 433.387695,276.314453 C434.52442,276.314453 435.442868,276.5957 436.143066,277.158203 C436.843265,277.720706 437.193359,278.450191 437.193359,279.34668 L435.057617,279.34668 C435.057617,278.936521 434.905275,278.595216 434.600586,278.322754 C434.295897,278.050292 433.891604,277.914062 433.387695,277.914062 C432.918943,277.914062 432.536623,278.02246 432.240723,278.239258 C431.944823,278.456056 431.796875,278.746092 431.796875,279.109375 C431.796875,279.437502 431.934569,279.692382 432.209961,279.874023 C432.485353,280.055665 433.041988,280.238769 433.879883,280.42334 C434.717778,280.607911 435.375486,280.827635 435.853027,281.08252 C436.330569,281.337404 436.685057,281.643553 436.916504,282.000977 C437.14795,282.3584 437.263672,282.79199 437.263672,283.301758 C437.263672,284.157231 436.909183,284.850095 436.200195,285.380371 C435.491207,285.910647 434.562506,286.175781 433.414062,286.175781 C432.634762,286.175781 431.940433,286.035158 431.331055,285.753906 C430.721677,285.472655 430.247072,285.08594 429.907227,284.59375 C429.567381,284.10156 429.397461,283.571292 429.397461,283.00293 L431.47168,283.00293 C431.500977,283.506838 431.691404,283.895018 432.042969,284.16748 C432.394533,284.439943 432.860349,284.576172 433.44043,284.576172 C434.002932,284.576172 434.430663,284.469239 434.723633,284.255371 C435.016603,284.041503 435.163086,283.76172 435.163086,283.416016 Z" id="Metals" fill="#FFFFFF"></path>
                <path d="M316.300781,405 L316.300781,392.203125 L320.686523,392.203125 C322.133796,392.203125 323.235348,392.493161 323.991211,393.073242 C324.747074,393.653323 325.125,394.517572 325.125,395.666016 C325.125,396.251956 324.966798,396.779295 324.650391,397.248047 C324.333983,397.716799 323.871097,398.080077 323.261719,398.337891 C323.953128,398.525392 324.487791,398.878415 324.865723,399.396973 C325.243654,399.91553 325.432617,400.538082 325.432617,401.264648 C325.432617,402.465826 325.047367,403.388669 324.276855,404.033203 C323.506344,404.677738 322.403327,405 320.967773,405 L316.300781,405 Z M318.524414,399.225586 L318.524414,403.224609 L320.994141,403.224609 C321.69141,403.224609 322.236326,403.05176 322.628906,402.706055 C323.021486,402.36035 323.217773,401.879886 323.217773,401.264648 C323.217773,399.934564 322.538093,399.254883 321.178711,399.225586 L318.524414,399.225586 Z M318.524414,397.59082 L320.704102,397.59082 C321.395511,397.59082 321.936033,397.434084 322.325684,397.120605 C322.715334,396.807127 322.910156,396.363284 322.910156,395.789062 C322.910156,395.156247 322.729982,394.69922 322.369629,394.417969 C322.009276,394.136717 321.448246,393.996094 320.686523,393.996094 L318.524414,393.996094 L318.524414,397.59082 Z M327.049805,400.157227 C327.049805,399.225581 327.234373,398.386234 327.603516,397.63916 C327.972658,396.892086 328.491208,396.317873 329.15918,395.916504 C329.827152,395.515135 330.594722,395.314453 331.461914,395.314453 C332.745124,395.314453 333.786617,395.727535 334.586426,396.553711 C335.386234,397.379887 335.818359,398.475579 335.882812,399.84082 L335.891602,400.341797 C335.891602,401.279302 335.711428,402.117184 335.351074,402.855469 C334.990721,403.593754 334.475101,404.165037 333.804199,404.569336 C333.133297,404.973635 332.358403,405.175781 331.479492,405.175781 C330.137689,405.175781 329.063969,404.729008 328.258301,403.835449 C327.452633,402.94189 327.049805,401.750984 327.049805,400.262695 L327.049805,400.157227 Z M329.185547,400.341797 C329.185547,401.320317 329.387693,402.086423 329.791992,402.640137 C330.196291,403.19385 330.758785,403.470703 331.479492,403.470703 C332.200199,403.470703 332.761228,403.189456 333.162598,402.626953 C333.563967,402.06445 333.764648,401.241216 333.764648,400.157227 C333.764648,399.196284 333.558108,398.434573 333.14502,397.87207 C332.731932,397.309568 332.170902,397.02832 331.461914,397.02832 C330.764645,397.02832 330.21094,397.305173 329.800781,397.858887 C329.390623,398.4126 329.185547,399.240229 329.185547,400.341797 Z M339.679688,395.490234 L339.741211,396.588867 C340.444339,395.739254 341.367182,395.314453 342.509766,395.314453 C344.490244,395.314453 345.498047,396.448231 345.533203,398.71582 L345.533203,405 L343.397461,405 L343.397461,398.838867 C343.397461,398.235349 343.267091,397.788576 343.006348,397.498535 C342.745604,397.208495 342.319339,397.063477 341.727539,397.063477 C340.866207,397.063477 340.224611,397.453121 339.802734,398.232422 L339.802734,405 L337.666992,405 L337.666992,395.490234 L339.679688,395.490234 Z M347.308594,400.174805 C347.308594,398.709954 347.648434,397.533696 348.328125,396.645996 C349.007816,395.758296 349.91894,395.314453 351.061523,395.314453 C352.069341,395.314453 352.883786,395.666012 353.504883,396.369141 L353.504883,391.5 L355.640625,391.5 L355.640625,405 L353.707031,405 L353.601562,404.015625 C352.962887,404.789066 352.110357,405.175781 351.043945,405.175781 C349.930658,405.175781 349.029789,404.727544 348.341309,403.831055 C347.652829,402.934566 347.308594,401.715828 347.308594,400.174805 Z M349.444336,400.359375 C349.444336,401.326177 349.630369,402.080564 350.002441,402.622559 C350.374514,403.164553 350.903317,403.435547 351.588867,403.435547 C352.461918,403.435547 353.100584,403.045902 353.504883,402.266602 L353.504883,398.206055 C353.112303,397.444332 352.479497,397.063477 351.606445,397.063477 C350.915036,397.063477 350.381838,397.3374 350.006836,397.885254 C349.631834,398.433108 349.444336,399.257807 349.444336,400.359375 Z M363.199219,402.416016 C363.199219,402.035154 363.042482,401.745118 362.729004,401.545898 C362.415526,401.346679 361.895511,401.170899 361.168945,401.018555 C360.442379,400.86621 359.83594,400.672853 359.349609,400.438477 C358.283198,399.922849 357.75,399.175786 357.75,398.197266 C357.75,397.376949 358.0957,396.691409 358.787109,396.140625 C359.478519,395.589841 360.357417,395.314453 361.423828,395.314453 C362.560553,395.314453 363.479,395.5957 364.179199,396.158203 C364.879398,396.720706 365.229492,397.450191 365.229492,398.34668 L363.09375,398.34668 C363.09375,397.936521 362.941408,397.595216 362.636719,397.322754 C362.33203,397.050292 361.927737,396.914062 361.423828,396.914062 C360.955076,396.914062 360.572755,397.02246 360.276855,397.239258 C359.980956,397.456056 359.833008,397.746092 359.833008,398.109375 C359.833008,398.437502 359.970702,398.692382 360.246094,398.874023 C360.521486,399.055665 361.078121,399.238769 361.916016,399.42334 C362.75391,399.607911 363.411619,399.827635 363.88916,400.08252 C364.366702,400.337404 364.72119,400.643553 364.952637,401.000977 C365.184083,401.3584 365.299805,401.79199 365.299805,402.301758 C365.299805,403.157231 364.945316,403.850095 364.236328,404.380371 C363.52734,404.910647 362.598639,405.175781 361.450195,405.175781 C360.670895,405.175781 359.976566,405.035158 359.367188,404.753906 C358.757809,404.472655 358.283205,404.08594 357.943359,403.59375 C357.603514,403.10156 357.433594,402.571292 357.433594,402.00293 L359.507812,402.00293 C359.53711,402.506838 359.727537,402.895018 360.079102,403.16748 C360.430666,403.439943 360.896481,403.576172 361.476562,403.576172 C362.039065,403.576172 362.466795,403.469239 362.759766,403.255371 C363.052736,403.041503 363.199219,402.76172 363.199219,402.416016 Z" id="Bonds" fill="#FFFFFF"></path>
                <path d="M184.989258,401.704102 C184.989258,401.141599 184.791506,400.708009 184.395996,400.40332 C184.000486,400.098631 183.287115,399.791017 182.255859,399.480469 C181.224604,399.16992 180.4043,398.824221 179.794922,398.443359 C178.6289,397.710934 178.045898,396.755865 178.045898,395.578125 C178.045898,394.54687 178.466304,393.697269 179.307129,393.029297 C180.147953,392.361325 181.239251,392.027344 182.581055,392.027344 C183.471684,392.027344 184.265622,392.191405 184.962891,392.519531 C185.66016,392.847658 186.208006,393.314938 186.606445,393.921387 C187.004885,394.527835 187.204102,395.200192 187.204102,395.938477 L184.989258,395.938477 C184.989258,395.270504 184.779787,394.74756 184.36084,394.369629 C183.941892,393.991697 183.342777,393.802734 182.563477,393.802734 C181.83691,393.802734 181.272951,393.958006 180.871582,394.268555 C180.470213,394.579103 180.269531,395.012693 180.269531,395.569336 C180.269531,396.038088 180.486326,396.429198 180.919922,396.742676 C181.353518,397.056154 182.068354,397.360838 183.064453,397.656738 C184.060552,397.952638 184.860349,398.289549 185.463867,398.66748 C186.067386,399.045412 186.509764,399.479001 186.791016,399.968262 C187.072267,400.457522 187.212891,401.03027 187.212891,401.686523 C187.212891,402.752935 186.804203,403.601071 185.986816,404.230957 C185.16943,404.860843 184.060554,405.175781 182.660156,405.175781 C181.73437,405.175781 180.883305,405.004396 180.106934,404.661621 C179.330563,404.318846 178.727053,403.845706 178.296387,403.242188 C177.865721,402.638669 177.650391,401.935551 177.650391,401.132812 L179.874023,401.132812 C179.874023,401.859379 180.114255,402.421873 180.594727,402.820312 C181.075198,403.218752 181.763667,403.417969 182.660156,403.417969 C183.433598,403.417969 184.015135,403.261232 184.404785,402.947754 C184.794436,402.634276 184.989258,402.219729 184.989258,401.704102 Z M191.633789,393.178711 L191.633789,395.490234 L193.3125,395.490234 L193.3125,397.072266 L191.633789,397.072266 L191.633789,402.380859 C191.633789,402.744142 191.705566,403.006347 191.849121,403.16748 C191.992676,403.328614 192.249022,403.40918 192.618164,403.40918 C192.864259,403.40918 193.11328,403.379883 193.365234,403.321289 L193.365234,404.973633 C192.878904,405.108399 192.410159,405.175781 191.958984,405.175781 C190.318351,405.175781 189.498047,404.270517 189.498047,402.459961 L189.498047,397.072266 L187.933594,397.072266 L187.933594,395.490234 L189.498047,395.490234 L189.498047,393.178711 L191.633789,393.178711 Z M194.279297,400.157227 C194.279297,399.225581 194.463865,398.386234 194.833008,397.63916 C195.20215,396.892086 195.7207,396.317873 196.388672,395.916504 C197.056644,395.515135 197.824214,395.314453 198.691406,395.314453 C199.974616,395.314453 201.016109,395.727535 201.815918,396.553711 C202.615727,397.379887 203.047851,398.475579 203.112305,399.84082 L203.121094,400.341797 C203.121094,401.279302 202.94092,402.117184 202.580566,402.855469 C202.220213,403.593754 201.704593,404.165037 201.033691,404.569336 C200.36279,404.973635 199.587895,405.175781 198.708984,405.175781 C197.367181,405.175781 196.293461,404.729008 195.487793,403.835449 C194.682125,402.94189 194.279297,401.750984 194.279297,400.262695 L194.279297,400.157227 Z M196.415039,400.341797 C196.415039,401.320317 196.617185,402.086423 197.021484,402.640137 C197.425783,403.19385 197.988278,403.470703 198.708984,403.470703 C199.429691,403.470703 199.990721,403.189456 200.39209,402.626953 C200.793459,402.06445 200.994141,401.241216 200.994141,400.157227 C200.994141,399.196284 200.7876,398.434573 200.374512,397.87207 C199.961424,397.309568 199.400394,397.02832 198.691406,397.02832 C197.994137,397.02832 197.440432,397.305173 197.030273,397.858887 C196.620115,398.4126 196.415039,399.240229 196.415039,400.341797 Z M208.833984,403.470703 C209.36719,403.470703 209.809569,403.315431 210.161133,403.004883 C210.512697,402.694334 210.700195,402.310549 210.723633,401.853516 L212.736328,401.853516 C212.712891,402.445315 212.528322,402.997556 212.182617,403.510254 C211.836912,404.022952 211.368167,404.428709 210.776367,404.727539 C210.184567,405.026369 209.545902,405.175781 208.860352,405.175781 C207.530267,405.175781 206.47559,404.745121 205.696289,403.883789 C204.916988,403.022457 204.527344,401.833015 204.527344,400.31543 L204.527344,400.095703 C204.527344,398.64843 204.914059,397.48975 205.6875,396.619629 C206.460941,395.749507 207.515618,395.314453 208.851562,395.314453 C209.982428,395.314453 210.903805,395.64404 211.615723,396.303223 C212.32764,396.962406 212.701172,397.82812 212.736328,398.900391 L210.723633,398.900391 C210.700195,398.355466 210.514162,397.907228 210.165527,397.555664 C209.816893,397.2041 209.37305,397.02832 208.833984,397.02832 C208.142575,397.02832 207.609377,397.278806 207.234375,397.779785 C206.859373,398.280764 206.668945,399.041011 206.663086,400.060547 L206.663086,400.40332 C206.663086,401.434575 206.849119,402.203611 207.221191,402.710449 C207.593264,403.217288 208.130856,403.470703 208.833984,403.470703 Z M217.438477,400.921875 L216.489258,401.897461 L216.489258,405 L214.353516,405 L214.353516,391.5 L216.489258,391.5 L216.489258,399.287109 L217.157227,398.452148 L219.785156,395.490234 L222.351562,395.490234 L218.818359,399.454102 L222.729492,405 L220.259766,405 L217.438477,400.921875 Z M229.075195,402.416016 C229.075195,402.035154 228.918459,401.745118 228.60498,401.545898 C228.291502,401.346679 227.771488,401.170899 227.044922,401.018555 C226.318356,400.86621 225.711916,400.672853 225.225586,400.438477 C224.159174,399.922849 223.625977,399.175786 223.625977,398.197266 C223.625977,397.376949 223.971676,396.691409 224.663086,396.140625 C225.354496,395.589841 226.233393,395.314453 227.299805,395.314453 C228.436529,395.314453 229.354977,395.5957 230.055176,396.158203 C230.755375,396.720706 231.105469,397.450191 231.105469,398.34668 L228.969727,398.34668 C228.969727,397.936521 228.817384,397.595216 228.512695,397.322754 C228.208006,397.050292 227.803713,396.914062 227.299805,396.914062 C226.831052,396.914062 226.448732,397.02246 226.152832,397.239258 C225.856932,397.456056 225.708984,397.746092 225.708984,398.109375 C225.708984,398.437502 225.846678,398.692382 226.12207,398.874023 C226.397462,399.055665 226.954097,399.238769 227.791992,399.42334 C228.629887,399.607911 229.287595,399.827635 229.765137,400.08252 C230.242678,400.337404 230.597167,400.643553 230.828613,401.000977 C231.06006,401.3584 231.175781,401.79199 231.175781,402.301758 C231.175781,403.157231 230.821293,403.850095 230.112305,404.380371 C229.403317,404.910647 228.474615,405.175781 227.326172,405.175781 C226.546871,405.175781 225.852542,405.035158 225.243164,404.753906 C224.633786,404.472655 224.159181,404.08594 223.819336,403.59375 C223.47949,403.10156 223.30957,402.571292 223.30957,402.00293 L225.383789,402.00293 C225.413086,402.506838 225.603514,402.895018 225.955078,403.16748 C226.306642,403.439943 226.772458,403.576172 227.352539,403.576172 C227.915042,403.576172 228.342772,403.469239 228.635742,403.255371 C228.928712,403.041503 229.075195,402.76172 229.075195,402.416016 Z" id="Stocks" fill="#FFFFFF"></path>
                <path d="M108.647461,286 L106.432617,286 L106.432617,273.203125 L108.647461,273.203125 L108.647461,286 Z M113.15625,276.490234 L113.217773,277.588867 C113.920902,276.739254 114.843744,276.314453 115.986328,276.314453 C117.966807,276.314453 118.974609,277.448231 119.009766,279.71582 L119.009766,286 L116.874023,286 L116.874023,279.838867 C116.874023,279.235349 116.743654,278.788576 116.48291,278.498535 C116.222167,278.208495 115.795901,278.063477 115.204102,278.063477 C114.342769,278.063477 113.701174,278.453121 113.279297,279.232422 L113.279297,286 L111.143555,286 L111.143555,276.490234 L113.15625,276.490234 Z M120.785156,281.174805 C120.785156,279.709954 121.124997,278.533696 121.804688,277.645996 C122.484378,276.758296 123.395502,276.314453 124.538086,276.314453 C125.545903,276.314453 126.360348,276.666012 126.981445,277.369141 L126.981445,272.5 L129.117188,272.5 L129.117188,286 L127.183594,286 L127.078125,285.015625 C126.43945,285.789066 125.586919,286.175781 124.520508,286.175781 C123.407221,286.175781 122.506351,285.727544 121.817871,284.831055 C121.129391,283.934566 120.785156,282.715828 120.785156,281.174805 Z M122.920898,281.359375 C122.920898,282.326177 123.106932,283.080564 123.479004,283.622559 C123.851076,284.164553 124.379879,284.435547 125.06543,284.435547 C125.938481,284.435547 126.577146,284.045902 126.981445,283.266602 L126.981445,279.206055 C126.588865,278.444332 125.956059,278.063477 125.083008,278.063477 C124.391598,278.063477 123.8584,278.3374 123.483398,278.885254 C123.108397,279.433108 122.920898,280.257807 122.920898,281.359375 Z M133.617188,286 L131.481445,286 L131.481445,276.490234 L133.617188,276.490234 L133.617188,286 Z M131.349609,274.020508 C131.349609,273.692381 131.453612,273.419923 131.661621,273.203125 C131.86963,272.986327 132.16699,272.87793 132.553711,272.87793 C132.940432,272.87793 133.239257,272.986327 133.450195,273.203125 C133.661134,273.419923 133.766602,273.692381 133.766602,274.020508 C133.766602,274.342775 133.661134,274.610839 133.450195,274.824707 C133.239257,275.038575 132.940432,275.145508 132.553711,275.145508 C132.16699,275.145508 131.86963,275.038575 131.661621,274.824707 C131.453612,274.610839 131.349609,274.342775 131.349609,274.020508 Z M139.848633,284.470703 C140.381839,284.470703 140.824217,284.315431 141.175781,284.004883 C141.527346,283.694334 141.714844,283.310549 141.738281,282.853516 L143.750977,282.853516 C143.727539,283.445315 143.54297,283.997556 143.197266,284.510254 C142.851561,285.022952 142.382815,285.428709 141.791016,285.727539 C141.199216,286.026369 140.56055,286.175781 139.875,286.175781 C138.544915,286.175781 137.490238,285.745121 136.710938,284.883789 C135.931637,284.022457 135.541992,282.833015 135.541992,281.31543 L135.541992,281.095703 C135.541992,279.64843 135.928707,278.48975 136.702148,277.619629 C137.47559,276.749507 138.530267,276.314453 139.866211,276.314453 C140.997076,276.314453 141.918453,276.64404 142.630371,277.303223 C143.342289,277.962406 143.71582,278.82812 143.750977,279.900391 L141.738281,279.900391 C141.714844,279.355466 141.52881,278.907228 141.180176,278.555664 C140.831541,278.2041 140.387698,278.02832 139.848633,278.02832 C139.157223,278.02832 138.624025,278.278806 138.249023,278.779785 C137.874022,279.280764 137.683594,280.041011 137.677734,281.060547 L137.677734,281.40332 C137.677734,282.434575 137.863768,283.203611 138.23584,283.710449 C138.607912,284.217288 139.145504,284.470703 139.848633,284.470703 Z M149.551758,286.175781 C148.198235,286.175781 147.101078,285.749516 146.260254,284.896973 C145.419429,284.044429 144.999023,282.909187 144.999023,281.491211 L144.999023,281.227539 C144.999023,280.278316 145.182127,279.43018 145.54834,278.683105 C145.914553,277.936031 146.428708,277.354494 147.09082,276.938477 C147.752933,276.522459 148.491207,276.314453 149.305664,276.314453 C150.600592,276.314453 151.601071,276.727535 152.307129,277.553711 C153.013187,278.379887 153.366211,279.548821 153.366211,281.060547 L153.366211,281.921875 L147.152344,281.921875 C147.216797,282.707035 147.479002,283.328123 147.938965,283.785156 C148.398928,284.24219 148.977536,284.470703 149.674805,284.470703 C150.653325,284.470703 151.450192,284.075199 152.06543,283.28418 L153.216797,284.382812 C152.835936,284.951175 152.32764,285.392088 151.691895,285.705566 C151.056149,286.019045 150.342777,286.175781 149.551758,286.175781 Z M149.296875,278.02832 C148.710935,278.02832 148.237795,278.233396 147.877441,278.643555 C147.517088,279.053713 147.28711,279.624996 147.1875,280.357422 L151.256836,280.357422 L151.256836,280.199219 C151.209961,279.484371 151.019533,278.943849 150.685547,278.577637 C150.351561,278.211424 149.888675,278.02832 149.296875,278.02832 Z M160.353516,283.416016 C160.353516,283.035154 160.196779,282.745118 159.883301,282.545898 C159.569823,282.346679 159.049808,282.170899 158.323242,282.018555 C157.596676,281.86621 156.990237,281.672853 156.503906,281.438477 C155.437495,280.922849 154.904297,280.175786 154.904297,279.197266 C154.904297,278.376949 155.249997,277.691409 155.941406,277.140625 C156.632816,276.589841 157.511713,276.314453 158.578125,276.314453 C159.714849,276.314453 160.633297,276.5957 161.333496,277.158203 C162.033695,277.720706 162.383789,278.450191 162.383789,279.34668 L160.248047,279.34668 C160.248047,278.936521 160.095705,278.595216 159.791016,278.322754 C159.486327,278.050292 159.082034,277.914062 158.578125,277.914062 C158.109373,277.914062 157.727052,278.02246 157.431152,278.239258 C157.135252,278.456056 156.987305,278.746092 156.987305,279.109375 C156.987305,279.437502 157.124999,279.692382 157.400391,279.874023 C157.675783,280.055665 158.232418,280.238769 159.070312,280.42334 C159.908207,280.607911 160.565916,280.827635 161.043457,281.08252 C161.520998,281.337404 161.875487,281.643553 162.106934,282.000977 C162.33838,282.3584 162.454102,282.79199 162.454102,283.301758 C162.454102,284.157231 162.099613,284.850095 161.390625,285.380371 C160.681637,285.910647 159.752935,286.175781 158.604492,286.175781 C157.825191,286.175781 157.130862,286.035158 156.521484,285.753906 C155.912106,285.472655 155.437502,285.08594 155.097656,284.59375 C154.757811,284.10156 154.587891,283.571292 154.587891,283.00293 L156.662109,283.00293 C156.691406,283.506838 156.881834,283.895018 157.233398,284.16748 C157.584963,284.439943 158.050778,284.576172 158.630859,284.576172 C159.193362,284.576172 159.621092,284.469239 159.914062,284.255371 C160.207033,284.041503 160.353516,283.76172 160.353516,283.416016 Z" id="Indices" fill="#FFFFFF"></path>
            </g>
        </g>
    </g>
</svg>