<?xml version="1.0" encoding="UTF-8"?>
<svg width="379px" height="392px" viewBox="0 0 379 392" version="1.1" xmlns="http://www.w3.org/2000/svg" xmlns:xlink="http://www.w3.org/1999/xlink">
    <!-- Generator: Sketch 46 (44423) - http://www.bohemiancoding.com/sketch -->
    <title>Img--40ms</title>
    <desc>Created with Sketch.</desc>
    <defs></defs>
    <g id="Templates" stroke="none" stroke-width="1" fill="none" fill-rule="evenodd">
        <g id="Img--40ms">
            <g id="Group">
                <g id="boom" opacity="0.1" transform="translate(189.418536, 196.144425) scale(1, -1) rotate(-360.000000) translate(-189.418536, -196.144425) translate(0.418536, 0.144425)" fill-rule="nonzero" fill="#FFFFFF">
                    <path d="M188.942388,163.632289 C188.108138,163.632289 187.404922,162.887267 187.404922,162.028967 L187.404922,1.80125458 C187.404922,0.986522635 188.10377,0.267641504 188.942388,0.267641504 C189.829052,0.267641504 190.475487,0.986522635 190.475487,1.80125458 L190.475487,162.028967 C190.475487,162.887267 189.829052,163.632289 188.942388,163.632289 Z" id="Shape"></path>
                    <path d="M202.010852,132.938243 C201.919128,132.938243 201.823037,132.938243 201.735681,132.938243 C200.849017,132.70733 200.342352,131.918739 200.482121,131.104007 L208.95129,87.3916777 C209.13037,86.5813026 209.903471,86.0671937 210.737721,86.1630445 C211.576339,86.3503893 212.135418,87.112839 211.973809,87.9754963 L203.504641,131.692183 C203.364871,132.406707 202.735907,132.938243 202.010852,132.938243 Z" id="Shape"></path>
                    <path d="M202.757746,162.817557 C202.574299,162.817557 202.386483,162.791416 202.246714,162.699922 C201.456141,162.373158 201.036832,161.562783 201.338211,160.774192 L257.446998,12.8023143 C257.722169,12.0355078 258.613201,11.5954654 259.447451,11.939657 C260.242391,12.1967114 260.591816,13.0550119 260.312276,13.8218185 L204.199121,161.841622 C203.989467,162.447225 203.404181,162.817557 202.757746,162.817557 Z" id="Shape"></path>
                    <path d="M240.434408,112.975132 C240.13303,112.975132 239.87533,112.931564 239.665675,112.744219 C238.923149,112.352102 238.687287,111.445876 239.110964,110.726995 L254.472525,84.6076471 C254.891834,83.8669817 255.865854,83.6578527 256.564702,84.0761108 C257.307228,84.5379375 257.538722,85.4441634 257.14562,86.1630445 L241.76222,112.234467 C241.434635,112.722435 240.971648,112.975132 240.434408,112.975132 Z" id="Shape"></path>
                    <path d="M233.288684,144.196358 C232.869375,144.196358 232.524319,144.056938 232.22294,143.782456 C231.572138,143.176853 231.550299,142.200918 232.148688,141.621456 L314.652103,54.4494945 C315.189343,53.8656759 316.167731,53.8221073 316.818533,54.4015691 C317.399451,54.9592466 317.447497,55.9351822 316.866579,56.5799968 L234.385002,143.734531 C234.083624,144.01337 233.664315,144.196358 233.288684,144.196358 Z" id="Shape"></path>
                    <path d="M219.678612,176.999121 C219.163212,176.999121 218.678386,176.768208 218.442524,176.302025 C217.931491,175.652853 218.119307,174.724843 218.818155,174.215091 L221.329641,172.450564 C221.980444,172.032306 222.958832,172.219651 223.443658,172.868823 C223.932852,173.539778 223.745036,174.541855 223.00251,175.003682 L220.534701,176.768208 C220.25953,176.933769 219.979991,176.999121 219.678612,176.999121 Z" id="Shape"></path>
                    <path d="M229.65904,167.435824 C229.213524,167.435824 228.772376,167.252836 228.475366,166.856362 C227.942494,166.207191 228.02985,165.253039 228.68502,164.721503 L291.712406,113.301896 C292.358841,112.813929 293.337229,112.931564 293.900675,113.602519 C294.411708,114.208122 294.293777,115.184058 293.660446,115.741735 L230.641796,167.065491 C230.357889,167.296405 230.008464,167.435824 229.65904,167.435824 Z" id="Shape"></path>
                    <path d="M231.982711,182.780668 C231.428,182.780668 230.916967,182.453904 230.637428,182.013862 C230.213751,181.273197 230.471451,180.340829 231.192139,179.926928 L308.323158,135.212522 C309.017639,134.750695 309.996026,134.981609 310.415335,135.748415 C310.839012,136.471653 310.581312,137.399663 309.856257,137.86149 L232.733973,182.506187 C232.524319,182.7371 232.270986,182.780668 231.982711,182.780668 Z" id="Shape"></path>
                    <path d="M324.986324,126.834289 C324.470923,126.834289 323.938051,126.55545 323.680351,126.045698 C323.217364,125.326817 323.448857,124.398807 324.191384,123.958765 L361.055634,101.717018 C361.754483,101.276976 362.73287,101.53403 363.195857,102.22677 C363.615166,102.945651 363.383673,103.899803 362.632411,104.361629 L325.772528,126.581591 C325.519195,126.716654 325.265863,126.834289 324.986324,126.834289 Z" id="Shape"></path>
                    <path d="M273.7389,178.419456 C273.088098,178.419456 272.533387,178.001198 272.297525,177.421736 C272.022354,176.633146 272.389249,175.748704 273.184189,175.448081 L332.616874,152.975421 C333.407446,152.653014 334.29411,153.093056 334.599856,153.881647 C334.896867,154.670238 334.503765,155.48497 333.713192,155.829161 L274.297979,178.280037 C274.066485,178.371531 273.900509,178.419456 273.7389,178.419456 Z" id="Shape"></path>
                    <path d="M344.955915,150.579151 C344.305113,150.579151 343.789712,150.165249 343.514541,149.559647 C343.186955,148.771056 343.606264,147.912755 344.401204,147.585991 L348.214296,146.078519 C349.009236,145.751755 349.891532,146.122088 350.214749,146.893251 C350.542334,147.72541 350.171071,148.631636 349.376131,148.910475 L345.519362,150.465872 C345.327178,150.535582 345.143731,150.579151 344.955915,150.579151 Z" id="Shape"></path>
                    <path d="M307.528218,183.49955 C306.833738,183.49955 306.134889,182.968013 306.043165,182.222991 C305.903396,181.4344 306.458107,180.619668 307.296725,180.43668 L376.20754,168.943296 C377.019951,168.830018 377.810523,169.33977 377.954661,170.245996 C378.133741,171.034586 377.557191,171.871103 376.692366,172.006165 L307.807757,183.49955 C307.716034,183.49955 307.628678,183.49955 307.528218,183.49955 Z" id="Shape"></path>
                    <path d="M374.137202,197.267212 L229.65904,197.267212 C228.82479,197.267212 228.125942,196.618041 228.125942,195.803309 C228.125942,194.923224 228.820422,194.274053 229.65904,194.274053 L374.137202,194.274053 C375.023866,194.274053 375.679036,194.923224 375.679036,195.803309 C375.679036,196.613684 375.023866,197.267212 374.137202,197.267212 Z" id="Shape"></path>
                    <path d="M176.376221,132.938243 C175.655534,132.938243 175.02657,132.40235 174.886801,131.687826 L166.417632,87.9711395 C166.277862,87.112839 166.788895,86.3460324 167.65372,86.1586876 C168.470499,86.0671937 169.304749,86.5769458 169.444519,87.3873209 L177.939894,131.09965 C178.053457,131.914382 177.520585,132.702973 176.681967,132.933887 C176.564037,132.938243 176.467945,132.938243 176.376221,132.938243 Z" id="Shape"></path>
                    <path d="M175.908866,165.906568 C175.262432,165.906568 174.698985,165.558019 174.419446,164.887064 L118.122843,13.8261753 C117.821465,13.0593688 118.192728,12.2010683 118.9833,11.9440138 C119.773872,11.5998222 120.704214,12.0355078 120.961914,12.8066712 L177.306563,163.863203 C177.586102,164.651793 177.214839,165.510094 176.424267,165.836858 C176.236451,165.858642 176.053004,165.906568 175.908866,165.906568 Z" id="Shape"></path>
                    <path d="M137.974504,112.975132 C137.463471,112.975132 136.952438,112.722435 136.624853,112.234467 L121.263293,86.1630445 C120.843984,85.4441634 121.079845,84.5379375 121.774326,84.0761108 C122.543059,83.6578527 123.49524,83.9105503 123.940756,84.6076471 L139.324155,110.726995 C139.743464,111.445876 139.463925,112.352102 138.765076,112.744219 C138.533583,112.927207 138.258411,112.975132 137.974504,112.975132 Z" id="Shape"></path>
                    <path d="M145.190113,144.196358 C144.770804,144.196358 144.351495,144.01337 144.02391,143.734531 L61.546701,56.5843536 C60.9657833,55.9351822 60.9876223,54.9592466 61.5947468,54.4059259 C62.2018713,53.8264642 63.1977302,53.8700327 63.7830157,54.4538513 L146.216547,141.625813 C146.823671,142.205275 146.823671,143.176853 146.216547,143.786813 C145.937007,144.056938 145.517698,144.196358 145.190113,144.196358 Z" id="Shape"></path>
                    <path d="M158.69099,176.999121 C158.411451,176.999121 158.088233,176.929412 157.804326,176.768208 L155.340886,175.003682 C154.642037,174.541855 154.502268,173.539778 154.969622,172.868823 C155.454448,172.171726 156.432836,172.032306 157.109846,172.450564 L159.577654,174.215091 C160.32018,174.724843 160.464318,175.652853 159.975124,176.302025 C159.669378,176.768208 159.245701,176.999121 158.69099,176.999121 Z" id="Shape"></path>
                    <path d="M148.728033,167.435824 C148.400448,167.435824 148.029185,167.296405 147.749645,167.065491 L84.7528341,115.741735 C84.1020316,115.184058 83.9622619,114.208122 84.5213406,113.602519 C85.0585803,112.931564 86.0326002,112.813929 86.6834027,113.301896 L149.706421,164.721503 C150.357223,165.257396 150.448947,166.207191 149.937914,166.856362 C149.614697,167.252836 149.195388,167.435824 148.728033,167.435824 Z" id="Shape"></path>
                    <path d="M130.785102,175.888123 C130.531769,175.888123 130.247862,175.796629 130.016368,175.652853 L68.5308167,137.79178 C67.7620835,137.347381 67.552429,136.397587 67.993577,135.704847 C68.4609319,134.981609 69.4174805,134.750695 70.1119611,135.216879 L131.597513,173.034383 C132.344407,173.430857 132.554062,174.402436 132.112913,175.121317 C131.807167,175.583143 131.322341,175.888123 130.785102,175.888123 Z" id="Shape"></path>
                    <path d="M53.4007498,126.834289 C53.1692563,126.834289 52.889717,126.721011 52.6101776,126.581591 L15.724088,104.361629 C14.9990328,103.899803 14.7937461,102.945651 15.2348941,102.22677 C15.6542031,101.529673 16.584545,101.276976 17.3314392,101.717018 L54.2437357,123.958765 C54.942584,124.398807 55.1740775,125.326817 54.7067227,126.045698 C54.4752292,126.55545 53.9598285,126.834289 53.4007498,126.834289 Z" id="Shape"></path>
                    <path d="M104.67438,178.419456 C104.490932,178.419456 104.27691,178.371531 104.115301,178.280037 L44.6564098,155.829161 C43.8876766,155.480613 43.5164134,154.670238 43.8177918,153.881647 C44.0973311,153.093056 44.983995,152.653014 45.8182452,152.975421 L105.21162,175.448081 C106.002192,175.748704 106.395294,176.628789 106.093916,177.421736 C105.858054,177.996841 105.298976,178.419456 104.67438,178.419456 Z" id="Shape"></path>
                    <path d="M33.4355259,150.579151 C33.2477104,150.579151 33.0642627,150.535582 32.8764472,150.465872 L29.0589881,148.910475 C28.2640481,148.631636 27.8491069,147.72541 28.1985311,146.893251 C28.5261162,146.126445 29.3603665,145.756112 30.1290997,146.078519 L34.0164436,147.585991 C34.8070158,147.912755 35.15644,148.771056 34.8769007,149.559647 C34.6454071,150.165249 34.0382826,150.579151 33.4355259,150.579151 Z" id="Shape"></path>
                    <path d="M70.8108094,183.49955 C70.7889704,183.49955 70.6710398,183.49955 70.622994,183.49955 L1.66850044,172.006165 C0.851721431,171.866746 0.29701055,171.034586 0.432412419,170.245996 C0.57218209,169.33977 1.36275429,168.830018 2.20137231,168.943296 L71.0903488,180.43668 C71.924599,180.619668 72.5317235,181.4344 72.3919538,182.222991 C72.2521842,182.968013 71.5795426,183.49955 70.8108094,183.49955 Z" id="Shape"></path>
                    <path d="M188.942388,391.295408 C188.108138,391.295408 187.404922,390.624452 187.404922,389.718227 L187.404922,232.575168 C187.404922,231.743009 188.10377,231.067696 188.942388,231.067696 C189.829052,231.067696 190.475487,231.738652 190.475487,232.575168 L190.475487,389.71387 C190.475487,390.624452 189.829052,391.295408 188.942388,391.295408 Z" id="Shape"></path>
                    <path d="M210.46255,305.400005 C209.741862,305.400005 209.09106,304.890253 208.95129,304.171372 L200.482121,260.411117 C200.342352,259.618169 200.849017,258.833935 201.735681,258.672732 C202.530621,258.581238 203.364871,259.047421 203.504641,259.94929 L211.973809,303.570126 C212.135418,304.428426 211.576339,305.243158 210.737721,305.356437 C210.645997,305.400005 210.576112,305.400005 210.46255,305.400005 Z" id="Shape"></path>
                    <path d="M258.888373,379.828165 C258.23757,379.828165 257.656652,379.383766 257.398952,378.78252 L206.714975,240.025391 C206.435436,239.2368 206.850377,238.356715 207.645317,238.056092 C208.435889,237.755469 209.274507,238.147586 209.593357,238.984102 L260.334115,377.741231 C260.591816,378.481897 260.242391,379.388122 259.399406,379.662604 C259.264004,379.758455 259.03251,379.828165 258.888373,379.828165 Z" id="Shape"></path>
                    <path d="M315.748422,337.575382 C315.35532,337.575382 314.931643,337.462104 314.652103,337.130983 L232.148688,250.011303 C231.545931,249.362132 231.56777,248.455906 232.22294,247.824162 C232.825697,247.222916 233.799717,247.270841 234.385002,247.898228 L316.866579,335.048406 C317.447497,335.627867 317.399451,336.625587 316.818533,337.157124 C316.512787,337.462104 316.119685,337.575382 315.748422,337.575382 Z" id="Shape"></path>
                    <path d="M222.190098,219.36954 C221.88872,219.36954 221.561135,219.251905 221.329641,219.06456 L218.818155,217.347959 C218.119307,216.90356 217.931491,215.931981 218.442524,215.234884 C218.905511,214.516003 219.835853,214.38094 220.534701,214.842767 L223.00251,216.576795 C223.745036,217.021195 223.932852,217.992773 223.443658,218.663729 C223.190325,219.129913 222.657453,219.36954 222.190098,219.36954 Z" id="Shape"></path>
                    <path d="M292.682058,278.614059 C292.358841,278.614059 291.961371,278.452855 291.708038,278.243726 L228.680653,226.915613 C228.02985,226.37972 227.938126,225.382 228.470998,224.732829 C229.008238,224.101085 229.986625,224.013947 230.637428,224.523699 L293.656078,275.873597 C294.28941,276.383349 294.40734,277.359284 293.896307,278.03024 C293.568722,278.404929 293.145045,278.614059 292.682058,278.614059 Z" id="Shape"></path>
                    <path d="M309.11373,256.629366 C308.834191,256.629366 308.506606,256.559657 308.275112,256.372312 L246.789561,218.554808 C246.090712,218.110408 245.833012,217.160614 246.278528,216.467874 C246.741515,215.722852 247.671857,215.561648 248.444958,215.979906 L309.878096,253.771269 C310.629358,254.189527 310.839012,255.165463 310.371657,255.86256 C310.08775,256.346171 309.581085,256.629366 309.11373,256.629366 Z" id="Shape"></path>
                    <path d="M361.850574,290.103086 C361.575403,290.103086 361.317702,290.011592 361.060002,289.867816 L324.195751,267.647854 C323.453225,267.233952 323.217364,266.231876 323.684718,265.512995 C324.108395,264.794113 325.038737,264.5632 325.776896,264.981458 L362.636779,287.240632 C363.388041,287.65889 363.619534,288.591257 363.200225,289.353707 C362.877008,289.850388 362.361607,290.103086 361.850574,290.103086 Z" id="Shape"></path>
                    <path d="M333.18032,238.722691 C332.992505,238.722691 332.804689,238.631197 332.616874,238.61377 L273.184189,216.14111 C272.384881,215.862271 272.017986,214.912477 272.297525,214.14567 C272.620743,213.378864 273.4812,212.978033 274.302347,213.265585 L333.713192,235.755673 C334.503765,236.060652 334.896867,236.988663 334.599856,237.755469 C334.390202,238.356715 333.783077,238.722691 333.18032,238.722691 Z" id="Shape"></path>
                    <path d="M348.773374,245.62395 C348.585559,245.62395 348.402111,245.576024 348.214296,245.484531 L344.401204,243.977059 C343.606264,243.650294 343.186955,242.765853 343.514541,241.977262 C343.837758,241.206099 344.724422,240.796554 345.519362,241.140746 L349.376131,242.678716 C350.175439,243.001123 350.546702,243.859423 350.214749,244.652371 C349.983256,245.231833 349.424177,245.62395 348.773374,245.62395 Z" id="Shape"></path>
                    <path d="M376.46524,222.641538 C376.369149,222.641538 376.325471,222.641538 376.20754,222.641538 L307.296725,211.078444 C306.458107,210.969523 305.903396,210.176575 306.043165,209.318274 C306.178567,208.486115 306.973507,207.928438 307.807757,208.041716 L376.692366,219.60481 C377.557191,219.713731 378.133741,220.480538 377.954661,221.360623 C377.814891,222.057719 377.207767,222.641538 376.46524,222.641538 Z" id="Shape"></path>
                    <path d="M167.976937,305.400005 C167.810961,305.400005 167.745444,305.400005 167.649352,305.35208 C166.784527,305.238801 166.277862,304.42407 166.413264,303.565769 L174.882433,259.944933 C175.022202,259.043064 175.86082,258.576881 176.677599,258.668375 C177.51185,258.829578 178.049089,259.618169 177.935526,260.40676 L169.440151,304.167015 C169.326588,304.890253 168.649579,305.400005 167.976937,305.400005 Z" id="Shape"></path>
                    <path d="M119.546747,379.828165 C119.358931,379.828165 119.175483,379.754098 118.987668,379.662604 C118.197096,379.344554 117.777787,378.481897 118.127211,377.741231 L160.59972,265.286438 C160.901098,264.497847 161.809601,264.057805 162.600173,264.332287 C163.395113,264.654694 163.810054,265.56092 163.486837,266.353868 L120.966282,378.804304 C120.75226,379.388122 120.149503,379.828165 119.546747,379.828165 Z" id="Shape"></path>
                    <path d="M62.6168125,337.575382 C62.2673883,337.575382 61.8262403,337.462104 61.5947468,337.157124 C60.9657833,336.599446 60.9657833,335.553801 61.546701,335.048406 L164.788442,229.237817 C165.417405,228.606073 166.369586,228.606073 166.972343,229.211676 C167.579467,229.769353 167.623145,230.767073 166.994182,231.320394 L63.7349699,337.157124 C63.4335915,337.462104 63.0623283,337.575382 62.6168125,337.575382 Z" id="Shape"></path>
                    <path d="M156.223182,219.36954 C155.707781,219.36954 155.266633,219.129913 154.965255,218.668086 C154.4979,217.99713 154.637669,217.021195 155.336518,216.581152 L157.804326,214.842767 C158.55122,214.38094 159.481562,214.516003 159.970756,215.234884 C160.45995,215.931981 160.315812,216.907916 159.573286,217.347959 L157.105478,219.06456 C156.825938,219.251905 156.502721,219.36954 156.223182,219.36954 Z" id="Shape"></path>
                    <path d="M85.7530608,278.614059 C85.2900738,278.614059 84.844558,278.404929 84.5213406,278.03024 C83.9622619,277.359284 84.1020316,276.383349 84.7528341,275.873597 L147.749645,224.523699 C148.400448,224.013947 149.378836,224.101085 149.937914,224.732829 C150.448947,225.382 150.357223,226.37972 149.706421,226.915613 L86.6834027,278.243726 C86.3558175,278.452855 86.0544392,278.614059 85.7530608,278.614059 Z" id="Shape"></path>
                    <path d="M69.3213889,256.629366 C68.810356,256.629366 68.2993232,256.350528 67.993577,255.86256 C67.552429,255.165463 67.7620835,254.185171 68.5308167,253.771269 L130.016368,215.979906 C130.715217,215.561648 131.649926,215.722852 132.112913,216.467874 C132.554062,217.160614 132.344407,218.114765 131.597513,218.554808 L70.1119611,256.372312 C69.8804676,256.559657 69.6009282,256.629366 69.3213889,256.629366 Z" id="Shape"></path>
                    <path d="M16.540867,290.103086 C16.0254663,290.103086 15.5624793,289.846032 15.2348941,289.358064 C14.7937461,288.591257 15.0034006,287.65889 15.724088,287.244989 L52.6101776,264.985815 C53.374543,264.567557 54.2830459,264.79847 54.7023549,265.517351 C55.1653419,266.236232 54.9338484,267.242666 54.2393679,267.65221 L17.3270714,289.872173 C17.047532,290.011592 16.8160385,290.103086 16.540867,290.103086 Z" id="Shape"></path>
                    <path d="M45.2547987,238.722691 C44.6039962,238.722691 44.0449175,238.356715 43.8090562,237.751112 C43.5076778,236.984306 43.878941,236.056296 44.6476742,235.751316 L104.106566,213.261228 C104.875299,212.978033 105.761963,213.374507 106.08518,214.141313 C106.386558,214.90812 105.993456,215.857914 105.202884,216.136753 L45.8095096,238.609413 C45.5823839,238.635554 45.4426142,238.722691 45.2547987,238.722691 Z" id="Shape"></path>
                    <path d="M29.59186,245.62395 C28.9628965,245.62395 28.4518636,245.227476 28.1985311,244.648014 C27.8491069,243.855067 28.2684159,242.996766 29.0589881,242.674359 L32.8764472,241.136389 C33.6670194,240.792197 34.5536833,241.206099 34.8769007,241.972905 C35.15644,242.761496 34.8070158,243.645938 34.0164436,243.972702 L30.1290997,245.480174 C29.98933,245.580381 29.8058823,245.62395 29.59186,245.62395 Z" id="Shape"></path>
                    <path d="M1.92183297,222.641538 C1.17493879,222.641538 0.57218209,222.057719 0.432412419,221.360623 C0.292642748,220.480538 0.851721431,219.713731 1.66850044,219.60481 L70.622994,208.041716 C71.439773,207.928438 72.256552,208.486115 72.3919538,209.318274 C72.5317235,210.176575 71.9289668,210.969523 71.0903488,211.078444 L2.20137231,222.641538 C2.10964847,222.641538 2.06160264,222.641538 1.92183297,222.641538 Z" id="Shape"></path>
                    <path d="M148.728033,197.267212 L4.24987155,197.267212 C3.41562133,197.267212 2.71677298,196.618041 2.71677298,195.803309 C2.71677298,194.923224 3.41562133,194.274053 4.24987155,194.274053 L148.732401,194.274053 C149.566651,194.274053 150.265499,194.923224 150.265499,195.803309 C150.261132,196.613684 149.566651,197.267212 148.728033,197.267212 Z" id="Shape"></path>
                </g>
                <rect id="Rectangle-6" stroke="#000000" stroke-width="6" fill="#181818" transform="translate(111.320508, 115.239676) rotate(-40.000000) translate(-111.320508, -115.239676) " x="91.3205081" y="89.3048393" width="40" height="51.8696742" rx="6"></rect>
                <rect id="Rectangle-6" stroke="#000000" stroke-width="6" fill="#181818" transform="translate(268.033367, 115.495281) scale(-1, 1) rotate(-40.000000) translate(-268.033367, -115.495281) " x="248.033367" y="89.5604443" width="40" height="51.8696742" rx="6"></rect>
                <g id="Group-90" transform="translate(165.000000, 40.909774)">
                    <g id="Group-88">
                        <rect id="Rectangle-6" stroke="#000000" stroke-width="6" fill="#181818" transform="translate(25.000000, 7.979950) rotate(-90.000000) translate(-25.000000, -7.979950) " x="17" y="-16.9573935" width="16" height="49.8746867" rx="6"></rect>
                        <rect id="Rectangle-8" fill="#181818" x="12" y="18.952381" width="25" height="18.952381"></rect>
                        <path d="M13,0 L37,0 L37,45.8696742 L37,45.8696742 C37,49.1833827 34.3137085,51.8696742 31,51.8696742 L19,51.8696742 L19,51.8696742 C15.6862915,51.8696742 13,49.1833827 13,45.8696742 L13,0 Z" id="Rectangle-6" stroke="#000000" stroke-width="6"></path>
                        <rect id="Rectangle-40" fill="#000000" x="22" y="0" width="6" height="18.952381"></rect>
                    </g>
                </g>
                <ellipse id="Oval-13" stroke="#000000" stroke-width="6" fill="#181818" cx="189.609375" cy="203.111607" rx="129.609375" ry="129.284539"></ellipse>
                <ellipse id="Oval-13" stroke="#34E834" stroke-width="2" opacity="0.400000006" stroke-dasharray="1,2" cx="189.167969" cy="203.891859" rx="110.167969" ry="109.891859"></ellipse>
                <g id="Group-57" transform="translate(107.000000, 136.666667)" fill="#34E834">
                    <path d="M40.5117188,108.269933 L40.5507812,109.207433 C41.170576,108.478262 42.0065052,108.113683 43.0585938,108.113683 C44.2408913,108.113683 45.0455708,108.566803 45.4726562,109.473058 C45.7539077,109.066806 46.1197894,108.738684 46.5703125,108.488683 C47.0208356,108.238681 47.5533823,108.113683 48.1679688,108.113683 C50.0221447,108.113683 50.9648436,109.095444 50.9960938,111.058995 L50.9960938,116.723058 L49.5507812,116.723058 L49.5507812,111.144933 C49.5507812,110.540763 49.4127618,110.088945 49.1367188,109.789464 C48.8606757,109.489983 48.3971387,109.340245 47.7460938,109.340245 C47.2096327,109.340245 46.7643247,109.5004 46.4101562,109.820714 C46.0559878,110.141028 45.8502607,110.572013 45.7929688,111.113683 L45.7929688,116.723058 L44.3398438,116.723058 L44.3398438,111.183995 C44.3398438,109.954822 43.7382873,109.340245 42.5351562,109.340245 C41.5872348,109.340245 40.9388038,109.743887 40.5898438,110.551183 L40.5898438,116.723058 L39.1445312,116.723058 L39.1445312,108.269933 L40.5117188,108.269933 Z M54.7460938,116.723058 L53.3007812,116.723058 L53.3007812,108.269933 L54.7460938,108.269933 L54.7460938,116.723058 Z M53.1835938,106.027745 C53.1835938,105.793369 53.2552076,105.595454 53.3984375,105.433995 C53.5416674,105.272536 53.7539048,105.191808 54.0351562,105.191808 C54.3164077,105.191808 54.5299472,105.272536 54.6757812,105.433995 C54.8216153,105.595454 54.8945312,105.793369 54.8945312,106.027745 C54.8945312,106.262121 54.8216153,106.457432 54.6757812,106.613683 C54.5299472,106.769933 54.3164077,106.848058 54.0351562,106.848058 C53.7539048,106.848058 53.5416674,106.769933 53.3984375,106.613683 C53.2552076,106.457432 53.1835938,106.262121 53.1835938,106.027745 Z M58.6289062,116.723058 L57.1835938,116.723058 L57.1835938,104.723058 L58.6289062,104.723058 L58.6289062,116.723058 Z M62.5117188,116.723058 L61.0664062,116.723058 L61.0664062,104.723058 L62.5117188,104.723058 L62.5117188,116.723058 Z M66.3945312,116.723058 L64.9492188,116.723058 L64.9492188,108.269933 L66.3945312,108.269933 L66.3945312,116.723058 Z M64.8320312,106.027745 C64.8320312,105.793369 64.9036451,105.595454 65.046875,105.433995 C65.1901049,105.272536 65.4023423,105.191808 65.6835938,105.191808 C65.9648452,105.191808 66.1783847,105.272536 66.3242188,105.433995 C66.4700528,105.595454 66.5429688,105.793369 66.5429688,106.027745 C66.5429688,106.262121 66.4700528,106.457432 66.3242188,106.613683 C66.1783847,106.769933 65.9648452,106.848058 65.6835938,106.848058 C65.4023423,106.848058 65.1901049,106.769933 65.046875,106.613683 C64.9036451,106.457432 64.8320312,106.262121 64.8320312,106.027745 Z M73.6289062,114.48087 C73.6289062,114.090243 73.4817723,113.786861 73.1875,113.570714 C72.8932277,113.354567 72.380212,113.168371 71.6484375,113.01212 C70.916663,112.855869 70.3359396,112.668371 69.90625,112.44962 C69.4765604,112.230869 69.1588552,111.970455 68.953125,111.66837 C68.7473948,111.366285 68.6445312,111.006914 68.6445312,110.590245 C68.6445312,109.897533 68.9374971,109.311602 69.5234375,108.832433 C70.1093779,108.353264 70.8580684,108.113683 71.7695312,108.113683 C72.7278694,108.113683 73.5052054,108.361076 74.1015625,108.85587 C74.6979196,109.350664 74.9960938,109.98347 74.9960938,110.754308 L73.5429688,110.754308 C73.5429688,110.358472 73.3750017,110.01733 73.0390625,109.73087 C72.7031233,109.44441 72.2799505,109.301183 71.7695312,109.301183 C71.243487,109.301183 70.8320327,109.415765 70.5351562,109.644933 C70.2382798,109.8741 70.0898438,110.173577 70.0898438,110.54337 C70.0898438,110.89233 70.2278632,111.155348 70.5039062,111.332433 C70.7799493,111.509517 71.2786422,111.678786 72,111.840245 C72.7213578,112.001704 73.3059873,112.194411 73.7539062,112.41837 C74.2018252,112.64233 74.5338531,112.911858 74.75,113.226964 C74.9661469,113.54207 75.0742188,113.92618 75.0742188,114.379308 C75.0742188,115.13452 74.7721384,115.739982 74.1679688,116.195714 C73.5637991,116.651445 72.7799527,116.879308 71.8164062,116.879308 C71.1393195,116.879308 70.5403672,116.759517 70.0195312,116.519933 C69.4986953,116.280348 69.0911473,115.945716 68.796875,115.516026 C68.5026027,115.086337 68.3554688,114.621498 68.3554688,114.121495 L69.8007812,114.121495 C69.826823,114.605873 70.0208315,114.989983 70.3828125,115.273839 C70.7447935,115.557694 71.2226533,115.69962 71.8164062,115.69962 C72.363284,115.69962 72.8020817,115.588944 73.1328125,115.367589 C73.4635433,115.146234 73.6289062,114.850664 73.6289062,114.48087 Z M80.4648438,116.879308 C79.3190047,116.879308 78.3867223,116.503009 77.6679688,115.750401 C76.9492152,114.997793 76.5898438,113.991293 76.5898438,112.73087 L76.5898438,112.465245 C76.5898438,111.626699 76.7499984,110.878009 77.0703125,110.219151 C77.3906266,109.560294 77.8385388,109.044674 78.4140625,108.672276 C78.9895862,108.299879 79.6132779,108.113683 80.2851562,108.113683 C81.3841201,108.113683 82.2382782,108.475658 82.8476562,109.19962 C83.4570343,109.923582 83.7617188,110.96003 83.7617188,112.308995 L83.7617188,112.910558 L78.0351562,112.910558 C78.0559897,113.743895 78.2994768,114.417065 78.765625,114.930089 C79.2317732,115.443112 79.8242152,115.69962 80.5429688,115.69962 C81.053388,115.69962 81.4856753,115.595455 81.8398438,115.38712 C82.1940122,115.178786 82.5039049,114.902747 82.7695312,114.558995 L83.6523438,115.246495 C82.9440069,116.335042 81.8815175,116.879308 80.4648438,116.879308 Z M80.2851562,109.301183 C79.70182,109.301183 79.2122416,109.51342 78.8164062,109.937901 C78.4205709,110.362383 78.1757817,110.957429 78.0820312,111.723058 L82.3164062,111.723058 L82.3164062,111.613683 C82.2747394,110.879304 82.0768247,110.310299 81.7226562,109.906651 C81.3684878,109.503004 80.8893259,109.301183 80.2851562,109.301183 Z M88.8242188,115.69962 C89.3398463,115.69962 89.7903627,115.543372 90.1757812,115.23087 C90.5611998,114.918369 90.7747394,114.527747 90.8164062,114.058995 L92.1835938,114.058995 C92.157552,114.543373 91.990887,115.004305 91.6835938,115.441808 C91.3763005,115.87931 90.9661484,116.228265 90.453125,116.488683 C89.9401016,116.749101 89.3971383,116.879308 88.8242188,116.879308 C87.6731713,116.879308 86.7578159,116.495197 86.078125,115.726964 C85.3984341,114.958731 85.0585938,113.90796 85.0585938,112.57462 L85.0585938,112.332433 C85.0585938,111.509512 85.2096339,110.777748 85.5117188,110.13712 C85.8138036,109.496492 86.247393,108.999101 86.8125,108.644933 C87.377607,108.290764 88.0455691,108.113683 88.8164062,108.113683 C89.7643277,108.113683 90.5520802,108.397534 91.1796875,108.965245 C91.8072948,109.532956 92.1419269,110.269928 92.1835938,111.176183 L90.8164062,111.176183 C90.7747394,110.629305 90.5677102,110.180091 90.1953125,109.828526 C89.8229148,109.476962 89.363284,109.301183 88.8164062,109.301183 C88.0820276,109.301183 87.5130229,109.565503 87.109375,110.094151 C86.7057271,110.6228 86.5039062,111.387115 86.5039062,112.38712 L86.5039062,112.660558 C86.5039062,113.634521 86.7044251,114.384513 87.1054688,114.910558 C87.5065124,115.436602 88.0794234,115.69962 88.8242188,115.69962 Z M93.4257812,112.41837 C93.4257812,111.590241 93.58854,110.845457 93.9140625,110.183995 C94.239585,109.522534 94.6927054,109.012122 95.2734375,108.652745 C95.8541696,108.293368 96.5169234,108.113683 97.2617188,108.113683 C98.4127662,108.113683 99.3437464,108.512116 100.054688,109.308995 C100.765629,110.105874 101.121094,111.165759 101.121094,112.488683 L101.121094,112.590245 C101.121094,113.413166 100.963543,114.15144 100.648438,114.805089 C100.333332,115.458738 99.8828154,115.967847 99.296875,116.332433 C98.7109346,116.697018 98.0377642,116.879308 97.2773438,116.879308 C96.1315047,116.879308 95.2031286,116.480874 94.4921875,115.683995 C93.7812464,114.887116 93.4257812,113.832439 93.4257812,112.519933 L93.4257812,112.41837 Z M94.8789062,112.590245 C94.8789062,113.52775 95.096352,114.280346 95.53125,114.848058 C95.966148,115.415769 96.5481734,115.69962 97.2773438,115.69962 C98.0117224,115.69962 98.5950499,115.411863 99.0273438,114.836339 C99.4596376,114.260815 99.6757812,113.454834 99.6757812,112.41837 C99.6757812,111.491282 99.4557314,110.739988 99.015625,110.164464 C98.5755186,109.58894 97.9908891,109.301183 97.2617188,109.301183 C96.5481735,109.301183 95.9726584,109.585034 95.5351562,110.152745 C95.0976541,110.720456 94.8789062,111.532948 94.8789062,112.590245 Z M104.300781,108.269933 L104.347656,109.332433 C104.993493,108.519929 105.837234,108.113683 106.878906,108.113683 C108.665374,108.113683 109.566406,109.121485 109.582031,111.13712 L109.582031,116.723058 L108.136719,116.723058 L108.136719,111.129308 C108.13151,110.51993 107.992189,110.069413 107.71875,109.777745 C107.445311,109.486077 107.019534,109.340245 106.441406,109.340245 C105.972654,109.340245 105.5612,109.465244 105.207031,109.715245 C104.852863,109.965246 104.576824,110.293368 104.378906,110.69962 L104.378906,116.723058 L102.933594,116.723058 L102.933594,108.269933 L104.300781,108.269933 Z M111.410156,112.426183 C111.410156,111.129301 111.717445,110.086343 112.332031,109.297276 C112.946618,108.50821 113.751297,108.113683 114.746094,108.113683 C115.735682,108.113683 116.519528,108.452221 117.097656,109.129308 L117.097656,104.723058 L118.542969,104.723058 L118.542969,116.723058 L117.214844,116.723058 L117.144531,115.816808 C116.566403,116.525145 115.761724,116.879308 114.730469,116.879308 C113.751297,116.879308 112.953128,116.47827 112.335938,115.676183 C111.718747,114.874095 111.410156,113.827231 111.410156,112.535558 L111.410156,112.426183 Z M112.855469,112.590245 C112.855469,113.548583 113.053383,114.298576 113.449219,114.840245 C113.845054,115.381915 114.391924,115.652745 115.089844,115.652745 C116.006515,115.652745 116.675779,115.241291 117.097656,114.41837 L117.097656,110.535558 C116.665362,109.738679 116.001307,109.340245 115.105469,109.340245 C114.397132,109.340245 113.845054,109.61368 113.449219,110.160558 C113.053383,110.707435 112.855469,111.517323 112.855469,112.590245 Z M125.707031,114.48087 C125.707031,114.090243 125.559897,113.786861 125.265625,113.570714 C124.971353,113.354567 124.458337,113.168371 123.726562,113.01212 C122.994788,112.855869 122.414065,112.668371 121.984375,112.44962 C121.554685,112.230869 121.23698,111.970455 121.03125,111.66837 C120.82552,111.366285 120.722656,111.006914 120.722656,110.590245 C120.722656,109.897533 121.015622,109.311602 121.601562,108.832433 C122.187503,108.353264 122.936193,108.113683 123.847656,108.113683 C124.805994,108.113683 125.58333,108.361076 126.179688,108.85587 C126.776045,109.350664 127.074219,109.98347 127.074219,110.754308 L125.621094,110.754308 C125.621094,110.358472 125.453127,110.01733 125.117188,109.73087 C124.781248,109.44441 124.358075,109.301183 123.847656,109.301183 C123.321612,109.301183 122.910158,109.415765 122.613281,109.644933 C122.316405,109.8741 122.167969,110.173577 122.167969,110.54337 C122.167969,110.89233 122.305988,111.155348 122.582031,111.332433 C122.858074,111.509517 123.356767,111.678786 124.078125,111.840245 C124.799483,112.001704 125.384112,112.194411 125.832031,112.41837 C126.27995,112.64233 126.611978,112.911858 126.828125,113.226964 C127.044272,113.54207 127.152344,113.92618 127.152344,114.379308 C127.152344,115.13452 126.850263,115.739982 126.246094,116.195714 C125.641924,116.651445 124.858078,116.879308 123.894531,116.879308 C123.217445,116.879308 122.618492,116.759517 122.097656,116.519933 C121.57682,116.280348 121.169272,115.945716 120.875,115.516026 C120.580728,115.086337 120.433594,114.621498 120.433594,114.121495 L121.878906,114.121495 C121.904948,114.605873 122.098957,114.989983 122.460938,115.273839 C122.822918,115.557694 123.300778,115.69962 123.894531,115.69962 C124.441409,115.69962 124.880207,115.588944 125.210938,115.367589 C125.541668,115.146234 125.707031,114.850664 125.707031,114.48087 Z" id="milliseconds"></path>
                    <path d="M68.8769531,71.8318991 L81.1816406,71.8318991 L81.1816406,74.4686178 L68.8769531,74.4686178 L68.8769531,93.8533835 L66.2402344,93.8533835 L66.2402344,74.4686178 L31.7675781,74.4686178 L31.7675781,73.0037741 L65.703125,22.7596335 L68.8769531,22.7596335 L68.8769531,71.8318991 Z M35.8691406,71.8318991 L66.2402344,71.8318991 L66.2402344,25.9334616 L62.1386719,32.6717428 L35.8691406,71.8318991 Z M131.132812,64.8494772 C131.132812,74.3872853 129.277362,81.7683964 125.566406,86.9930319 C121.85545,92.2176674 116.647169,94.829946 109.941406,94.829946 C103.268196,94.829946 98.0436387,92.1932536 94.2675781,86.9197897 C90.4915176,81.6463258 88.6035156,74.2245251 88.6035156,64.6541647 L88.6035156,51.7635397 C88.6035156,42.3233883 90.4671038,34.9585531 94.1943359,29.6688131 C97.9215681,24.3790732 103.137987,21.7342428 109.84375,21.7342428 C116.582065,21.7342428 121.81476,24.3790732 125.541992,29.6688131 C129.269224,34.9585531 131.132812,42.3884919 131.132812,51.9588522 L131.132812,64.8494772 Z M128.496094,51.7635397 C128.496094,43.1371945 126.876644,36.4152565 123.637695,31.5975241 C120.398747,26.7797917 115.800811,24.3709616 109.84375,24.3709616 C103.854137,24.3709616 99.2562009,26.7879296 96.0498047,31.6219381 C92.8434084,36.4559467 91.2402344,43.2511261 91.2402344,52.0076803 L91.2402344,64.751821 C91.2402344,73.3456139 92.8840981,80.0675519 96.171875,84.9178366 C99.4596519,89.7681213 104.04945,92.1932272 109.941406,92.1932272 C115.865915,92.1932272 120.439437,89.7681213 123.662109,84.9178366 C126.884782,80.0675519 128.496094,73.2642345 128.496094,64.5076803 L128.496094,51.7635397 Z" id="40"></path>
                </g>
                <g id="Group-212" transform="translate(189.500000, 204.000000) rotate(-90.000000) translate(-189.500000, -204.000000) translate(87.000000, 102.000000)">
                    <polygon id="Path" fill="#2BC150" points="91.0978781 0 114.783948 0 113.80487 17.7675411 92.0769567 17.7675411"></polygon>
                    <polygon id="Path" fill="#2CCA52" transform="translate(124.296117, 11.379836) rotate(13.000000) translate(-124.296117, -11.379836) " points="112.453082 2.49606532 136.139152 2.49606532 135.160073 20.2636065 113.43216 20.2636065"></polygon>
                    <polygon id="Path" fill="#2ED355" transform="translate(144.500056, 18.733468) rotate(27.000000) translate(-144.500056, -18.733468) " points="132.657021 9.84969774 156.343091 9.84969774 155.364012 27.6172389 133.636099 27.6172389"></polygon>
                    <polygon id="Path" fill="#30DB58" transform="translate(162.463531, 30.548232) rotate(40.000000) translate(-162.463531, -30.548232) " points="150.620496 21.664461 174.306566 21.664461 173.327487 39.4320022 151.599574 39.4320022"></polygon>
                    <polygon id="Path" fill="#31E45B" transform="translate(177.218126, 46.187189) rotate(53.000000) translate(-177.218126, -46.187189) " points="165.375091 37.3034183 189.061161 37.3034183 188.082082 55.0709594 166.354169 55.0709594"></polygon>
                    <polygon id="Path" fill="#32ED5E" transform="translate(187.968417, 64.807240) rotate(67.000000) translate(-187.968417, -64.807240) " points="176.125382 55.9234692 199.811452 55.9234692 198.832374 73.6910103 177.104461 73.6910103"></polygon>
                    <polygon id="Path" fill="#34F661" transform="translate(194.134854, 85.404573) rotate(80.000000) translate(-194.134854, -85.404573) " points="182.291819 76.5208021 205.977889 76.5208021 204.99881 94.2883432 183.270897 94.2883432"></polygon>
                    <polygon id="Path" fill="#181918" transform="translate(194.886371, 106.842648) rotate(93.000000) translate(-194.886371, -106.842648) " points="183.043336 97.4595625 206.729406 97.4595625 205.750328 115.227104 184.074751 116.225733"></polygon>
                    <polygon id="Path" fill="#18221B" transform="translate(191.651465, 128.042721) rotate(107.000000) translate(-191.651465, -128.042721) " points="179.80843 119.15895 203.4945 119.15895 202.515421 136.926491 180.787508 136.926491"></polygon>
                    <polygon id="Path" fill="#182B1D" transform="translate(183.135519, 147.784902) rotate(120.000000) translate(-183.135519, -147.784902) " points="171.292484 138.901131 194.978554 138.901131 193.999475 156.668673 172.271562 156.668673"></polygon>
                    <polygon id="Path" fill="#193320" transform="translate(170.296261, 165.031018) rotate(133.000000) translate(-170.296261, -165.031018) " points="158.453226 156.147248 182.139296 156.147248 181.160217 173.914789 159.432305 173.914789"></polygon>
                    <polygon id="Path" fill="#1A3D23" transform="translate(153.825859, 178.851326) rotate(147.000000) translate(-153.825859, -178.851326) " points="141.982824 169.967556 165.668894 169.967556 164.689815 187.735097 142.961903 187.735097"></polygon>
                    <polygon id="Path" fill="#1B4426" transform="translate(134.612236, 188.500770) rotate(160.000000) translate(-134.612236, -188.500770) " points="122.769201 179.617 146.455271 179.617 145.476193 197.384541 123.74828 197.384541"></polygon>
                    <polygon id="Path" fill="#1B4D29" transform="translate(113.691205, 193.459146) rotate(173.000000) translate(-113.691205, -193.459146) " points="101.84817 184.575375 125.53424 184.575375 124.555161 202.342917 102.827248 202.342917"></polygon>
                    <polygon id="Path" fill="#1C552B" transform="translate(92.190622, 193.459146) rotate(187.000000) translate(-92.190622, -193.459146) " points="80.3475867 184.575375 104.033657 184.575375 103.054578 202.342917 81.3266653 202.342917"></polygon>
                    <polygon id="Path" fill="#1E5E2E" transform="translate(71.269590, 188.500770) rotate(200.000000) translate(-71.269590, -188.500770) " points="59.4265548 179.617 83.1126249 179.617 82.1335463 197.384541 60.4056334 197.384541"></polygon>
                    <polygon id="Path" fill="#1E6731" transform="translate(52.055967, 178.851326) rotate(213.000000) translate(-52.055967, -178.851326) " points="40.2129322 169.967556 63.8990023 169.967556 62.9199237 187.735097 41.1920108 187.735097"></polygon>
                    <polygon id="Path" fill="#1F6F34" transform="translate(35.585565, 165.031018) rotate(227.000000) translate(-35.585565, -165.031018) " points="23.7425302 156.147248 47.4286002 156.147248 46.4495217 173.914789 24.7216088 173.914789"></polygon>
                    <polygon id="Path" fill="#207836" transform="translate(22.746307, 147.784902) rotate(240.000000) translate(-22.746307, -147.784902) " points="10.9032725 138.901131 34.5893425 138.901131 33.6102639 156.668673 11.8823511 156.668673"></polygon>
                    <polygon id="Path" fill="#22803A" transform="translate(14.230362, 128.042721) rotate(253.000000) translate(-14.230362, -128.042721) " points="2.38732664 119.15895 26.0733967 119.15895 25.0943181 136.926491 3.36640523 136.926491"></polygon>
                    <polygon id="Path" fill="#22883C" transform="translate(10.496825, 106.868780) rotate(267.000000) translate(-10.496825, -106.868780) " points="-1.34621039 97.9850093 22.3398596 97.9850093 21.360781 115.75255 -0.367131796 115.75255"></polygon>
                    <polygon id="Path" fill="#24913F" transform="translate(11.746972, 85.404573) rotate(280.000000) translate(-11.746972, -85.404573) " points="-0.0960626773 76.5208021 23.5900073 76.5208021 22.6109288 94.2883432 0.883015914 94.2883432"></polygon>
                    <polygon id="Path" fill="#259A42" transform="translate(17.913409, 64.807240) rotate(293.000000) translate(-17.913409, -64.807240) " points="6.07037399 55.9234692 29.756444 55.9234692 28.7773654 73.6910103 7.04945258 73.6910103"></polygon>
                    <polygon id="Path" fill="#27A345" transform="translate(28.663700, 46.187189) rotate(307.000000) translate(-28.663700, -46.187189) " points="16.8206654 37.3034183 40.5067354 37.3034183 39.5276568 55.0709594 17.799744 55.0709594"></polygon>
                    <polygon id="Path" fill="#27AB47" transform="translate(43.418296, 30.548232) rotate(320.000000) translate(-43.418296, -30.548232) " points="31.5752606 21.664461 55.2613306 21.664461 54.282252 39.4320022 32.5543392 39.4320022"></polygon>
                    <polygon id="Path" fill="#29B24A" transform="translate(61.381770, 18.733468) rotate(333.000000) translate(-61.381770, -18.733468) " points="49.5387355 9.84969774 73.2248055 9.84969774 72.2457269 27.6172389 50.5178141 27.6172389"></polygon>
                    <polygon id="Path" fill="#2ABA4D" transform="translate(81.585710, 11.379836) rotate(347.000000) translate(-81.585710, -11.379836) " points="69.7426745 2.49606532 93.4287445 2.49606532 92.449666 20.2636065 70.7217531 20.2636065"></polygon>
                </g>
            </g>
        </g>
    </g>
</svg>