<?xml version="1.0" encoding="UTF-8"?>
<svg width="422px" height="422px" viewBox="0 0 422 422" version="1.1" xmlns="http://www.w3.org/2000/svg" xmlns:xlink="http://www.w3.org/1999/xlink">
    <!-- Generator: Sketch 46 (44423) - http://www.bohemiancoding.com/sketch -->
    <title>Img--SCFunds</title>
    <desc>Created with Sketch.</desc>
    <defs>
        <rect id="path-1" x="0" y="0" width="3.45679993" height="8.64199982" rx="1"></rect>
        <rect id="path-2" x="0" y="60.4939987" width="3.45679993" height="8.64199982" rx="1"></rect>
        <rect id="path-3" x="0" y="0" width="3.45679993" height="8.64199982" rx="1"></rect>
        <rect id="path-4" x="0" y="60.4939987" width="3.45679993" height="8.64199982" rx="1"></rect>
        <rect id="path-5" x="0" y="0" width="3.45679993" height="8.64199982" rx="1"></rect>
        <rect id="path-6" x="0" y="60.4939987" width="3.45679993" height="8.64199982" rx="1"></rect>
        <rect id="path-7" x="0" y="0" width="3.45679993" height="8.64199982" rx="1"></rect>
        <rect id="path-8" x="0" y="60.4939987" width="3.45679993" height="8.64199982" rx="1"></rect>
        <linearGradient x1="100%" y1="100%" x2="0%" y2="0%" id="linearGradient-9">
            <stop stop-color="#1B5C37" offset="0%"></stop>
            <stop stop-color="#34E834" offset="100%"></stop>
        </linearGradient>
        <path d="M0,19 C0,34.7883237 3.21167626,38 19,38 C34.7883237,38 38,34.7883237 38,19 C38,3.21167626 34.7883237,0 19,0 C3.21167626,0 0,3.21167626 0,19 Z" id="path-10"></path>
        <path d="M19,0 L19,0 C3.21167626,0 0,3.21167626 0,19 C0,34.7883237 3.21167626,38 19,38 C34.7883237,38 38,34.7883237 38,19 C38,3.21167626 34.7883237,0 19,0 L19,0 Z" id="path-11"></path>
    </defs>
    <g id="Templates" stroke="none" stroke-width="1" fill="none" fill-rule="evenodd">
        <g id="Img--SCFunds">
            <g id="Group-120" transform="translate(1.000000, 1.000000)">
                <g id="Group-117">
                    <g id="Group-40-Copy" transform="translate(141.000000, 124.000000)">
                        <g id="Group-39" transform="translate(0.358029, 0.000000)">
                            <path d="M138.232513,23.8981281 L138.234678,22.7073353 C138.234678,19.5809631 136.203835,16.8161588 133.218193,15.8830103 C132.7094,15.7227945 71.1627351,0 69.1340572,0 C68.6490798,0 68.1641024,0.049796788 67.6899504,0.147225286 C67.3283824,0.223003007 6.1692664,15.5344328 5.05425136,15.8808452 C2.06644408,16.8118286 0.0312710044,19.578798 0.0312710044,22.7073353 L0.0334360821,23.9349344 C0.0637471705,41.8271369 0.0983884143,74.4830044 0.00095991602,92.1825149 C-0.0921384268,109.849549 6.5871264,125.953398 19.8460625,140.045889 C31.5179966,152.456114 46.1366015,162.430627 64.531102,170.528018 C65.5097171,171.008665 67.2006428,171.664684 69.1318921,171.664684 C70.4980562,171.664684 72.0027852,171.300951 73.5594761,170.605961 C92.0319194,162.497745 106.706816,152.501581 118.417722,140.048054 C131.680988,125.951232 138.360253,109.849549 138.267155,92.1825149 C138.171891,74.4548584 138.204367,41.7903305 138.232513,23.8981281 Z" id="Path-Copy-16" fill="#000000"></path>
                            <g id="Group-38" transform="translate(22.469200, 34.567999)">
                                <path d="M44.9348223,96.7832444 L44.9348223,96.7832444 C68.319786,96.7832444 87.2770446,77.8259858 87.2770446,54.4410221 C87.2770446,31.0560584 68.319786,12.0987997 44.9348223,12.0987997" id="Oval-Copy-4" fill="#999999" opacity="0.199784873" transform="translate(66.105933, 54.441022) rotate(22.000000) translate(-66.105933, -54.441022) "></path>
                                <path d="M48.0200572,3.43884958 C47.7077205,2.98759288 47.216062,2.72839996 46.6712597,2.72839996 C46.1264573,2.72839996 45.6347988,2.98759288 45.3227729,3.43884952 C45.3227729,3.43884952 45.3227729,3.43884952 45.3224621,3.43884952 L38.3264295,13.5560743 C37.9652999,14.078811 37.9261413,14.7271041 38.2213849,15.2908641 C38.5119669,15.8446791 39.0552153,16.175352 39.6752271,16.175352 L53.6672922,16.175352 C54.287304,16.175352 54.8305524,15.8446791 55.1211344,15.2908641 C55.4163781,14.727104 55.3772195,14.078811 55.0160898,13.5560743 L48.0200572,3.43884958 Z" id="Shape-Copy-10" fill="#999999" fill-rule="nonzero" transform="translate(46.671260, 9.451876) rotate(180.000000) translate(-46.671260, -9.451876) "></path>
                                <g id="Group-37">
                                    <circle id="Oval-Copy-4" stroke="#999999" stroke-width="3" cx="46.6632222" cy="46.6632222" r="42.9780224"></circle>
                                    <g id="knob" transform="translate(47.005113, 46.044351) rotate(-20.000000) translate(-47.005113, -46.044351) translate(25.005113, 24.044351)" stroke="#999999" fill="#000000">
                                        <path d="M22.212412,39.5112242 C13.2299555,39.5112242 5.91359985,32.1948685 5.91359985,23.212412 C5.91359985,14.2299555 13.2299555,6.91359985 22.212412,6.91359985 C31.1948685,6.91359985 38.5112242,14.2299555 38.5112242,23.212412 C38.5112242,32.1948685 31.1948685,39.5112242 22.212412,39.5112242 Z" id="Path" stroke-width="2.5"></path>
                                        <path d="M22.2124112,32.5976227 C17.0401169,32.5976227 12.8271997,28.3847056 12.8271997,23.2124112 C12.8271997,18.0401169 17.0401169,13.8271997 22.2124112,13.8271997 C27.3847056,13.8271997 31.5976227,18.0401169 31.5976227,23.2124112 C31.5976227,28.3847056 27.3847056,32.5976227 22.2124112,32.5976227 Z" id="Path" stroke-width="1.5" opacity="0.60399683"></path>
                                    </g>
                                    <g id="Group-18">
                                        <g id="Group-33-Copy" transform="translate(46.666799, 46.666799) rotate(22.000000) translate(-46.666799, -46.666799) translate(12.098800, 12.098800)">
                                            <g id="Group-32" transform="translate(32.839599, 0.000000)">
                                                <g id="Rectangle-8">
                                                    <use fill="#666666" fill-rule="evenodd" xlink:href="#path-1"></use>
                                                    <rect stroke="#666666" stroke-width="1" x="0.5" y="0.5" width="2.45679993" height="7.64199982" rx="1"></rect>
                                                </g>
                                                <g id="Rectangle-8-Copy">
                                                    <use fill="#666666" fill-rule="evenodd" xlink:href="#path-2"></use>
                                                    <rect stroke="#666666" stroke-width="1" x="0.5" y="60.9939987" width="2.45679993" height="7.64199982" rx="1"></rect>
                                                </g>
                                            </g>
                                            <g id="Group-32" transform="translate(34.567999, 34.567999) rotate(90.000000) translate(-34.567999, -34.567999) translate(32.839599, 0.000000)">
                                                <g id="Rectangle-8">
                                                    <use fill="#666666" fill-rule="evenodd" xlink:href="#path-3"></use>
                                                    <rect stroke="#666666" stroke-width="1" x="0.5" y="0.5" width="2.45679993" height="7.64199982" rx="1"></rect>
                                                </g>
                                                <g id="Rectangle-8-Copy">
                                                    <use fill="#666666" fill-rule="evenodd" xlink:href="#path-4"></use>
                                                    <rect stroke="#666666" stroke-width="1" x="0.5" y="60.9939987" width="2.45679993" height="7.64199982" rx="1"></rect>
                                                </g>
                                            </g>
                                        </g>
                                        <g id="Group-33-Copy-2" transform="translate(46.666799, 46.666799) rotate(67.000000) translate(-46.666799, -46.666799) translate(12.098800, 12.098800)">
                                            <g id="Group-32" transform="translate(32.839599, 0.000000)">
                                                <g id="Rectangle-8">
                                                    <use fill="#666666" fill-rule="evenodd" xlink:href="#path-5"></use>
                                                    <rect stroke="#666666" stroke-width="1" x="0.5" y="0.5" width="2.45679993" height="7.64199982" rx="1"></rect>
                                                </g>
                                                <g id="Rectangle-8-Copy">
                                                    <use fill="#666666" fill-rule="evenodd" xlink:href="#path-6"></use>
                                                    <rect stroke="#666666" stroke-width="1" x="0.5" y="60.9939987" width="2.45679993" height="7.64199982" rx="1"></rect>
                                                </g>
                                            </g>
                                            <g id="Group-32" transform="translate(34.567999, 34.567999) rotate(90.000000) translate(-34.567999, -34.567999) translate(32.839599, 0.000000)">
                                                <g id="Rectangle-8">
                                                    <use fill="#666666" fill-rule="evenodd" xlink:href="#path-7"></use>
                                                    <rect stroke="#666666" stroke-width="1" x="0.5" y="0.5" width="2.45679993" height="7.64199982" rx="1"></rect>
                                                </g>
                                                <g id="Rectangle-8-Copy">
                                                    <use fill="#666666" fill-rule="evenodd" xlink:href="#path-8"></use>
                                                    <rect stroke="#666666" stroke-width="1" x="0.5" y="60.9939987" width="2.45679993" height="7.64199982" rx="1"></rect>
                                                </g>
                                            </g>
                                        </g>
                                    </g>
                                </g>
                            </g>
                        </g>
                    </g>
                    <g id="Group-116">
                        <circle id="Oval-16" stroke="#000000" stroke-width="2" opacity="0.400000006" cx="210" cy="210" r="210"></circle>
                        <circle id="Oval-16" stroke="#000000" stroke-width="6" cx="210" cy="210" r="200"></circle>
                        <path d="M350,70 C272.680135,70 210,132.680135 210,210 C210,287.319865 272.680135,350 350,350 L350,350" id="Oval-16" stroke="#34E834" stroke-width="6" stroke-linecap="round" stroke-dasharray="4,20" transform="translate(280.000000, 210.000000) scale(-1, 1) translate(-280.000000, -210.000000) "></path>
                        <path d="M210,70 C132.680135,70 70,132.680135 70,210 C70,287.319865 132.680135,350 210,350 L210,350" id="Oval-16" stroke="#34E834" stroke-width="6" stroke-linecap="round" stroke-dasharray="4,20"></path>
                        <rect id="Rectangle-9-Copy" fill="#181818" x="131" y="310" width="157.660156" height="68"></rect>
                        <path d="M163.862793,330.97168 C163.862793,330.284176 163.621096,329.754234 163.137695,329.381836 C162.654294,329.009438 161.782396,328.633465 160.521973,328.253906 C159.26155,327.874347 158.258956,327.451825 157.51416,326.986328 C156.089023,326.091141 155.376465,324.923835 155.376465,323.484375 C155.376465,322.223952 155.890294,321.185551 156.917969,320.369141 C157.945643,319.55273 159.279451,319.144531 160.919434,319.144531 C162.007981,319.144531 162.978349,319.34505 163.830566,319.746094 C164.682784,320.147137 165.352374,320.718258 165.839355,321.459473 C166.326337,322.200687 166.569824,323.022456 166.569824,323.924805 L163.862793,323.924805 C163.862793,323.108394 163.606773,322.469241 163.094727,322.007324 C162.58268,321.545408 161.850428,321.314453 160.897949,321.314453 C160.009924,321.314453 159.32064,321.50423 158.830078,321.883789 C158.339516,322.263348 158.094238,322.793291 158.094238,323.473633 C158.094238,324.046552 158.35921,324.524575 158.88916,324.907715 C159.419111,325.290855 160.2928,325.663247 161.510254,326.024902 C162.727708,326.386558 163.705237,326.798338 164.442871,327.260254 C165.180505,327.72217 165.72119,328.252113 166.064941,328.850098 C166.408693,329.448082 166.580566,330.148108 166.580566,330.950195 C166.580566,332.253587 166.08106,333.290198 165.082031,334.060059 C164.083003,334.829919 162.72771,335.214844 161.016113,335.214844 C159.884597,335.214844 158.844406,335.005373 157.895508,334.586426 C156.94661,334.167478 156.208987,333.589196 155.682617,332.851562 C155.156247,332.113929 154.893066,331.254562 154.893066,330.273438 L157.61084,330.273438 C157.61084,331.161463 157.904457,331.848956 158.491699,332.335938 C159.078942,332.822919 159.920405,333.066406 161.016113,333.066406 C161.961431,333.066406 162.672198,332.874839 163.148438,332.491699 C163.624677,332.108559 163.862793,331.601891 163.862793,330.97168 Z M173.831543,335.214844 C172.177238,335.214844 170.836268,334.693853 169.808594,333.651855 C168.780919,332.609858 168.26709,331.222339 168.26709,329.489258 L168.26709,329.166992 C168.26709,328.00683 168.490883,326.970219 168.938477,326.057129 C169.38607,325.144038 170.014482,324.433271 170.82373,323.924805 C171.632979,323.416339 172.535314,323.162109 173.530762,323.162109 C175.113452,323.162109 176.336259,323.666987 177.199219,324.676758 C178.062179,325.686528 178.493652,327.115225 178.493652,328.962891 L178.493652,330.015625 L170.898926,330.015625 C170.977702,330.975265 171.298174,331.734372 171.860352,332.292969 C172.422529,332.851565 173.129716,333.130859 173.981934,333.130859 C175.177903,333.130859 176.151852,332.647466 176.903809,331.680664 L178.311035,333.023438 C177.845538,333.718102 177.224288,334.256997 176.447266,334.640137 C175.670244,335.023277 174.798345,335.214844 173.831543,335.214844 Z M173.52002,325.256836 C172.80387,325.256836 172.225588,325.507484 171.785156,326.008789 C171.344724,326.510094 171.06364,327.208329 170.941895,328.103516 L175.915527,328.103516 L175.915527,327.910156 C175.858235,327.036454 175.62549,326.375816 175.217285,325.928223 C174.80908,325.480629 174.24333,325.256836 173.52002,325.256836 Z M180.062012,329.102539 C180.062012,327.297843 180.486324,325.856613 181.334961,324.778809 C182.183598,323.701004 183.309726,323.162109 184.713379,323.162109 C186.038255,323.162109 187.080237,323.624019 187.839355,324.547852 L187.95752,323.376953 L190.310059,323.376953 L190.310059,334.645508 C190.310059,336.170906 189.835617,337.374019 188.886719,338.254883 C187.937821,339.135747 186.657723,339.576172 185.046387,339.576172 C184.194169,339.576172 183.361658,339.398928 182.548828,339.044434 C181.735999,338.68994 181.118329,338.22624 180.695801,337.65332 L181.931152,336.084961 C182.73324,337.03744 183.721511,337.513672 184.895996,337.513672 C185.762537,337.513672 186.446449,337.279136 186.947754,336.810059 C187.449058,336.340981 187.699707,335.651697 187.699707,334.742188 L187.699707,333.958008 C186.94775,334.795903 185.945156,335.214844 184.691895,335.214844 C183.331211,335.214844 182.219405,334.674159 181.356445,333.592773 C180.493485,332.511388 180.062012,331.014658 180.062012,329.102539 Z M182.661621,329.328125 C182.661621,330.495449 182.899737,331.413896 183.375977,332.083496 C183.852216,332.753096 184.512854,333.087891 185.35791,333.087891 C186.41065,333.087891 187.191241,332.636723 187.699707,331.734375 L187.699707,326.621094 C187.205564,325.74023 186.432134,325.299805 185.379395,325.299805 C184.520015,325.299805 183.852216,325.639971 183.375977,326.320312 C182.899737,327.000654 182.661621,328.003249 182.661621,329.328125 Z M199.075684,325.761719 C198.731932,325.704427 198.377443,325.675781 198.012207,325.675781 C196.816238,325.675781 196.010582,326.13411 195.595215,327.050781 L195.595215,335 L192.984863,335 L192.984863,323.376953 L195.477051,323.376953 L195.541504,324.676758 C196.171715,323.666987 197.045405,323.162109 198.162598,323.162109 C198.534995,323.162109 198.842935,323.212239 199.086426,323.3125 L199.075684,325.761719 Z M205.63916,335.214844 C203.984855,335.214844 202.643885,334.693853 201.616211,333.651855 C200.588537,332.609858 200.074707,331.222339 200.074707,329.489258 L200.074707,329.166992 C200.074707,328.00683 200.2985,326.970219 200.746094,326.057129 C201.193687,325.144038 201.822099,324.433271 202.631348,323.924805 C203.440596,323.416339 204.342931,323.162109 205.338379,323.162109 C206.921069,323.162109 208.143876,323.666987 209.006836,324.676758 C209.869796,325.686528 210.30127,327.115225 210.30127,328.962891 L210.30127,330.015625 L202.706543,330.015625 C202.785319,330.975265 203.105791,331.734372 203.667969,332.292969 C204.230146,332.851565 204.937333,333.130859 205.789551,333.130859 C206.98552,333.130859 207.959469,332.647466 208.711426,331.680664 L210.118652,333.023438 C209.653155,333.718102 209.031905,334.256997 208.254883,334.640137 C207.477861,335.023277 206.605962,335.214844 205.63916,335.214844 Z M205.327637,325.256836 C204.611487,325.256836 204.033205,325.507484 203.592773,326.008789 C203.152342,326.510094 202.871257,327.208329 202.749512,328.103516 L207.723145,328.103516 L207.723145,327.910156 C207.665853,327.036454 207.433108,326.375816 207.024902,325.928223 C206.616697,325.480629 206.050948,325.256836 205.327637,325.256836 Z M211.869629,329.102539 C211.869629,327.297843 212.293941,325.856613 213.142578,324.778809 C213.991215,323.701004 215.117343,323.162109 216.520996,323.162109 C217.845873,323.162109 218.887854,323.624019 219.646973,324.547852 L219.765137,323.376953 L222.117676,323.376953 L222.117676,334.645508 C222.117676,336.170906 221.643234,337.374019 220.694336,338.254883 C219.745438,339.135747 218.46534,339.576172 216.854004,339.576172 C216.001786,339.576172 215.169275,339.398928 214.356445,339.044434 C213.543616,338.68994 212.925946,338.22624 212.503418,337.65332 L213.73877,336.084961 C214.540857,337.03744 215.529128,337.513672 216.703613,337.513672 C217.570154,337.513672 218.254067,337.279136 218.755371,336.810059 C219.256676,336.340981 219.507324,335.651697 219.507324,334.742188 L219.507324,333.958008 C218.755367,334.795903 217.752773,335.214844 216.499512,335.214844 C215.138828,335.214844 214.027023,334.674159 213.164062,333.592773 C212.301102,332.511388 211.869629,331.014658 211.869629,329.102539 Z M214.469238,329.328125 C214.469238,330.495449 214.707354,331.413896 215.183594,332.083496 C215.659833,332.753096 216.320471,333.087891 217.165527,333.087891 C218.218267,333.087891 218.998858,332.636723 219.507324,331.734375 L219.507324,326.621094 C219.013181,325.74023 218.239751,325.299805 217.187012,325.299805 C216.327632,325.299805 215.659833,325.639971 215.183594,326.320312 C214.707354,327.000654 214.469238,328.003249 214.469238,329.328125 Z M231.742676,335 C231.628092,334.777994 231.527832,334.416344 231.441895,333.915039 C230.611161,334.78158 229.594244,335.214844 228.391113,335.214844 C227.22379,335.214844 226.271325,334.881839 225.533691,334.21582 C224.796058,333.549801 224.427246,332.726242 224.427246,331.745117 C224.427246,330.506179 224.887365,329.555505 225.807617,328.893066 C226.727869,328.230628 228.043774,327.899414 229.755371,327.899414 L231.355957,327.899414 L231.355957,327.136719 C231.355957,326.535153 231.187664,326.05355 230.851074,325.691895 C230.514484,325.330239 230.002445,325.149414 229.314941,325.149414 C228.720537,325.149414 228.233563,325.298013 227.854004,325.595215 C227.474445,325.892417 227.284668,326.27018 227.284668,326.728516 L224.674316,326.728516 C224.674316,326.091143 224.885577,325.494957 225.308105,324.939941 C225.730634,324.384926 226.305335,323.949871 227.032227,323.634766 C227.759118,323.31966 228.570145,323.162109 229.465332,323.162109 C230.826016,323.162109 231.910966,323.504066 232.720215,324.187988 C233.529464,324.871911 233.944824,325.833327 233.966309,327.072266 L233.966309,332.314453 C233.966309,333.360031 234.113117,334.194333 234.406738,334.817383 L234.406738,335 L231.742676,335 Z M228.874512,333.120117 C229.390139,333.120117 229.875323,332.994793 230.330078,332.744141 C230.784833,332.493488 231.126789,332.156903 231.355957,331.734375 L231.355957,329.542969 L229.94873,329.542969 C228.981929,329.542969 228.255048,329.711261 227.768066,330.047852 C227.281085,330.384442 227.037598,330.860674 227.037598,331.476562 C227.037598,331.977867 227.2041,332.377114 227.537109,332.674316 C227.870119,332.971518 228.315915,333.120117 228.874512,333.120117 Z M239.971191,320.551758 L239.971191,323.376953 L242.022949,323.376953 L242.022949,325.310547 L239.971191,325.310547 L239.971191,331.798828 C239.971191,332.242841 240.058918,332.563313 240.234375,332.760254 C240.409832,332.957195 240.723142,333.055664 241.174316,333.055664 C241.475099,333.055664 241.779458,333.019857 242.087402,332.948242 L242.087402,334.967773 C241.492998,335.132488 240.920087,335.214844 240.368652,335.214844 C238.363434,335.214844 237.36084,334.10841 237.36084,331.895508 L237.36084,325.310547 L235.44873,325.310547 L235.44873,323.376953 L237.36084,323.376953 L237.36084,320.551758 L239.971191,320.551758 Z M249.134277,335.214844 C247.479972,335.214844 246.139003,334.693853 245.111328,333.651855 C244.083654,332.609858 243.569824,331.222339 243.569824,329.489258 L243.569824,329.166992 C243.569824,328.00683 243.793618,326.970219 244.241211,326.057129 C244.688804,325.144038 245.317216,324.433271 246.126465,323.924805 C246.935714,323.416339 247.838048,323.162109 248.833496,323.162109 C250.416186,323.162109 251.638993,323.666987 252.501953,324.676758 C253.364913,325.686528 253.796387,327.115225 253.796387,328.962891 L253.796387,330.015625 L246.20166,330.015625 C246.280437,330.975265 246.600909,331.734372 247.163086,332.292969 C247.725263,332.851565 248.43245,333.130859 249.284668,333.130859 C250.480637,333.130859 251.454586,332.647466 252.206543,331.680664 L253.61377,333.023438 C253.148272,333.718102 252.527022,334.256997 251.75,334.640137 C250.972978,335.023277 250.101079,335.214844 249.134277,335.214844 Z M248.822754,325.256836 C248.106604,325.256836 247.528323,325.507484 247.087891,326.008789 C246.647459,326.510094 246.366374,327.208329 246.244629,328.103516 L251.218262,328.103516 L251.218262,327.910156 C251.16097,327.036454 250.928225,326.375816 250.52002,325.928223 C250.111814,325.480629 249.546065,325.256836 248.822754,325.256836 Z M255.33252,329.102539 C255.33252,327.312166 255.74788,325.874517 256.578613,324.789551 C257.409347,323.704584 258.522942,323.162109 259.919434,323.162109 C261.151211,323.162109 262.146643,323.591793 262.905762,324.451172 L262.905762,318.5 L265.516113,318.5 L265.516113,335 L263.152832,335 L263.023926,333.796875 C262.243323,334.742192 261.201341,335.214844 259.897949,335.214844 C258.537265,335.214844 257.436202,334.666998 256.594727,333.571289 C255.753251,332.47558 255.33252,330.986012 255.33252,329.102539 Z M257.942871,329.328125 C257.942871,330.509772 258.170245,331.4318 258.625,332.094238 C259.079755,332.756676 259.72607,333.087891 260.563965,333.087891 C261.631027,333.087891 262.411619,332.611658 262.905762,331.65918 L262.905762,326.696289 C262.425942,325.765295 261.652512,325.299805 260.585449,325.299805 C259.740393,325.299805 259.088707,325.6346 258.630371,326.304199 C258.172035,326.973799 257.942871,327.981764 257.942871,329.328125 Z M162.76709,354.908203 C162.609537,356.576831 161.993658,357.878413 160.919434,358.812988 C159.845209,359.747563 158.416513,360.214844 156.633301,360.214844 C155.387201,360.214844 154.289718,359.919437 153.34082,359.328613 C152.391922,358.73779 151.659671,357.898117 151.144043,356.80957 C150.628415,355.721023 150.359863,354.457038 150.338379,353.017578 L150.338379,351.556641 C150.338379,350.081373 150.59977,348.781581 151.122559,347.657227 C151.645348,346.532872 152.395503,345.666344 153.373047,345.057617 C154.350591,344.44889 155.4803,344.144531 156.762207,344.144531 C158.488127,344.144531 159.877436,344.613602 160.930176,345.551758 C161.982915,346.489914 162.595214,347.81477 162.76709,349.526367 L160.060059,349.526367 C159.931152,348.402013 159.603518,347.590986 159.077148,347.093262 C158.550779,346.595538 157.779139,346.34668 156.762207,346.34668 C155.58056,346.34668 154.672855,346.778153 154.039062,347.641113 C153.40527,348.504073 153.081218,349.769848 153.066895,351.438477 L153.066895,352.824219 C153.066895,354.514331 153.369463,355.803381 153.974609,356.691406 C154.579756,357.579432 155.465977,358.023438 156.633301,358.023438 C157.700363,358.023438 158.502439,357.783531 159.039551,357.303711 C159.576663,356.823891 159.916829,356.025396 160.060059,354.908203 L162.76709,354.908203 Z M167.719238,360 L165.108887,360 L165.108887,343.5 L167.719238,343.5 L167.719238,360 Z M173.337402,360 L170.727051,360 L170.727051,348.376953 L173.337402,348.376953 L173.337402,360 Z M170.565918,345.358398 C170.565918,344.957355 170.693033,344.62435 170.947266,344.359375 C171.201499,344.0944 171.564939,343.961914 172.037598,343.961914 C172.510256,343.961914 172.875487,344.0944 173.133301,344.359375 C173.391115,344.62435 173.52002,344.957355 173.52002,345.358398 C173.52002,345.752281 173.391115,346.079914 173.133301,346.341309 C172.875487,346.602703 172.510256,346.733398 172.037598,346.733398 C171.564939,346.733398 171.201499,346.602703 170.947266,346.341309 C170.693033,346.079914 170.565918,345.752281 170.565918,345.358398 Z M181.297363,360.214844 C179.643058,360.214844 178.302088,359.693853 177.274414,358.651855 C176.24674,357.609858 175.73291,356.222339 175.73291,354.489258 L175.73291,354.166992 C175.73291,353.00683 175.956703,351.970219 176.404297,351.057129 C176.85189,350.144038 177.480302,349.433271 178.289551,348.924805 C179.0988,348.416339 180.001134,348.162109 180.996582,348.162109 C182.579272,348.162109 183.802079,348.666987 184.665039,349.676758 C185.527999,350.686528 185.959473,352.115225 185.959473,353.962891 L185.959473,355.015625 L178.364746,355.015625 C178.443523,355.975265 178.763995,356.734372 179.326172,357.292969 C179.888349,357.851565 180.595536,358.130859 181.447754,358.130859 C182.643723,358.130859 183.617672,357.647466 184.369629,356.680664 L185.776855,358.023438 C185.311358,358.718102 184.690108,359.256997 183.913086,359.640137 C183.136064,360.023277 182.264165,360.214844 181.297363,360.214844 Z M180.98584,350.256836 C180.26969,350.256836 179.691408,350.507484 179.250977,351.008789 C178.810545,351.510094 178.52946,352.208329 178.407715,353.103516 L183.381348,353.103516 L183.381348,352.910156 C183.324056,352.036454 183.091311,351.375816 182.683105,350.928223 C182.2749,350.480629 181.709151,350.256836 180.98584,350.256836 Z M190.406738,348.376953 L190.481934,349.719727 C191.341313,348.68131 192.469231,348.162109 193.865723,348.162109 C196.286308,348.162109 197.518066,349.547838 197.561035,352.319336 L197.561035,360 L194.950684,360 L194.950684,352.469727 C194.950684,351.732093 194.791343,351.186037 194.472656,350.831543 C194.15397,350.477049 193.632979,350.299805 192.909668,350.299805 C191.856928,350.299805 191.072756,350.776037 190.557129,351.728516 L190.557129,360 L187.946777,360 L187.946777,348.376953 L190.406738,348.376953 Z M203.490723,345.551758 L203.490723,348.376953 L205.54248,348.376953 L205.54248,350.310547 L203.490723,350.310547 L203.490723,356.798828 C203.490723,357.242841 203.57845,357.563313 203.753906,357.760254 C203.929363,357.957195 204.242674,358.055664 204.693848,358.055664 C204.99463,358.055664 205.298989,358.019857 205.606934,357.948242 L205.606934,359.967773 C205.01253,360.132488 204.439619,360.214844 203.888184,360.214844 C201.882965,360.214844 200.880371,359.10841 200.880371,356.895508 L200.880371,350.310547 L198.968262,350.310547 L198.968262,348.376953 L200.880371,348.376953 L200.880371,345.551758 L203.490723,345.551758 Z M222.278809,353.37207 L215.983887,353.37207 L215.983887,360 L213.266113,360 L213.266113,344.359375 L223.202637,344.359375 L223.202637,346.550781 L215.983887,346.550781 L215.983887,351.202148 L222.278809,351.202148 L222.278809,353.37207 Z M231.903809,358.861328 C231.137529,359.763676 230.048998,360.214844 228.638184,360.214844 C227.377761,360.214844 226.423506,359.846032 225.775391,359.108398 C225.127275,358.370765 224.803223,357.303718 224.803223,355.907227 L224.803223,348.376953 L227.413574,348.376953 L227.413574,355.875 C227.413574,357.350268 228.025873,358.087891 229.250488,358.087891 C230.518073,358.087891 231.373858,357.633143 231.817871,356.723633 L231.817871,348.376953 L234.428223,348.376953 L234.428223,360 L231.968262,360 L231.903809,358.861328 Z M239.509277,348.376953 L239.584473,349.719727 C240.443852,348.68131 241.57177,348.162109 242.968262,348.162109 C245.388847,348.162109 246.620605,349.547838 246.663574,352.319336 L246.663574,360 L244.053223,360 L244.053223,352.469727 C244.053223,351.732093 243.893882,351.186037 243.575195,350.831543 C243.256509,350.477049 242.735518,350.299805 242.012207,350.299805 C240.959467,350.299805 240.175296,350.776037 239.659668,351.728516 L239.659668,360 L237.049316,360 L237.049316,348.376953 L239.509277,348.376953 Z M248.833496,354.102539 C248.833496,352.312166 249.248857,350.874517 250.07959,349.789551 C250.910323,348.704584 252.023919,348.162109 253.42041,348.162109 C254.652187,348.162109 255.64762,348.591793 256.406738,349.451172 L256.406738,343.5 L259.01709,343.5 L259.01709,360 L256.653809,360 L256.524902,358.796875 C255.744299,359.742192 254.702318,360.214844 253.398926,360.214844 C252.038242,360.214844 250.937179,359.666998 250.095703,358.571289 C249.254228,357.47558 248.833496,355.986012 248.833496,354.102539 Z M251.443848,354.328125 C251.443848,355.509772 251.671222,356.4318 252.125977,357.094238 C252.580731,357.756676 253.227047,358.087891 254.064941,358.087891 C255.132004,358.087891 255.912595,357.611658 256.406738,356.65918 L256.406738,351.696289 C255.926918,350.765295 255.153488,350.299805 254.086426,350.299805 C253.241369,350.299805 252.589683,350.6346 252.131348,351.304199 C251.673012,351.973799 251.443848,352.981764 251.443848,354.328125 Z M268.255371,356.841797 C268.255371,356.3763 268.063804,356.021811 267.680664,355.77832 C267.297524,355.53483 266.661951,355.319988 265.773926,355.133789 C264.885901,354.94759 264.144697,354.711264 263.550293,354.424805 C262.246901,353.794593 261.595215,352.881516 261.595215,351.685547 C261.595215,350.682938 262.017737,349.845055 262.862793,349.171875 C263.707849,348.498695 264.782057,348.162109 266.085449,348.162109 C267.474779,348.162109 268.597326,348.505856 269.453125,349.193359 C270.308924,349.880863 270.736816,350.772455 270.736816,351.868164 L268.126465,351.868164 C268.126465,351.366859 267.940269,350.949709 267.567871,350.616699 C267.195473,350.28369 266.701338,350.117188 266.085449,350.117188 C265.51253,350.117188 265.045249,350.249673 264.683594,350.514648 C264.321938,350.779624 264.141113,351.134112 264.141113,351.578125 C264.141113,351.979169 264.309406,352.290689 264.645996,352.512695 C264.982586,352.734702 265.662918,352.958495 266.687012,353.184082 C267.711105,353.409669 268.514971,353.678221 269.098633,353.989746 C269.682295,354.301271 270.115558,354.675454 270.398438,355.112305 C270.681317,355.549156 270.822754,356.079098 270.822754,356.702148 C270.822754,357.747727 270.38949,358.594561 269.522949,359.242676 C268.656408,359.890791 267.521329,360.214844 266.117676,360.214844 C265.165197,360.214844 264.316573,360.04297 263.571777,359.699219 C262.826982,359.355467 262.24691,358.882816 261.831543,358.28125 C261.416176,357.679684 261.208496,357.031579 261.208496,356.336914 L263.743652,356.336914 C263.77946,356.952803 264.012205,357.427244 264.441895,357.760254 C264.871584,358.093263 265.440914,358.259766 266.149902,358.259766 C266.837406,358.259766 267.360187,358.12907 267.718262,357.867676 C268.076336,357.606281 268.255371,357.264325 268.255371,356.841797 Z" id="Segregated-Client-Fu" fill="#FFFFFF"></path>
                        <rect id="Rectangle-9" fill="#181818" x="133" y="40" width="157.660156" height="68"></rect>
                        <path d="M179.75,63.4375 L172.65625,63.4375 L172.65625,83 L168.734375,83 L168.734375,63.4375 L161.703125,63.4375 L161.703125,60.25 L179.75,60.25 L179.75,63.4375 Z M190.203125,69.5625 C189.703123,69.4791662 189.187503,69.4375 188.65625,69.4375 C186.916658,69.4375 185.744795,70.10416 185.140625,71.4375 L185.140625,83 L181.34375,83 L181.34375,66.09375 L184.96875,66.09375 L185.0625,67.984375 C185.979171,66.5156177 187.249992,65.78125 188.875,65.78125 C189.416669,65.78125 189.864582,65.8541659 190.21875,66 L190.203125,69.5625 Z M202.234375,83 C202.067707,82.6770817 201.921876,82.1510453 201.796875,81.421875 C200.588536,82.682298 199.109384,83.3125 197.359375,83.3125 C195.66145,83.3125 194.276047,82.8281298 193.203125,81.859375 C192.130203,80.8906202 191.59375,79.6927155 191.59375,78.265625 C191.59375,76.4635327 192.263014,75.080734 193.601562,74.1171875 C194.940111,73.153641 196.854154,72.671875 199.34375,72.671875 L201.671875,72.671875 L201.671875,71.5625 C201.671875,70.6874956 201.427086,69.9869818 200.9375,69.4609375 C200.447914,68.9348932 199.70313,68.671875 198.703125,68.671875 C197.838537,68.671875 197.130211,68.8880187 196.578125,69.3203125 C196.026039,69.7526063 195.75,70.30208 195.75,70.96875 L191.953125,70.96875 C191.953125,70.041662 192.260414,69.1744832 192.875,68.3671875 C193.489586,67.5598918 194.325516,66.9270856 195.382812,66.46875 C196.440109,66.0104144 197.619785,65.78125 198.921875,65.78125 C200.901052,65.78125 202.479161,66.2786409 203.65625,67.2734375 C204.833339,68.2682341 205.4375,69.6666577 205.46875,71.46875 L205.46875,79.09375 C205.46875,80.6145909 205.68229,81.8281205 206.109375,82.734375 L206.109375,83 L202.234375,83 Z M198.0625,80.265625 C198.812504,80.265625 199.518226,80.0833352 200.179688,79.71875 C200.841149,79.3541648 201.33854,78.8645864 201.671875,78.25 L201.671875,75.0625 L199.625,75.0625 C198.218743,75.0625 197.161462,75.3072892 196.453125,75.796875 C195.744788,76.2864608 195.390625,76.9791622 195.390625,77.875 C195.390625,78.6041703 195.63281,79.1848937 196.117188,79.6171875 C196.601565,80.0494813 197.249996,80.265625 198.0625,80.265625 Z M208.734375,74.421875 C208.734375,71.8176953 209.338536,69.7265704 210.546875,68.1484375 C211.755214,66.5703046 213.37499,65.78125 215.40625,65.78125 C217.197926,65.78125 218.645828,66.4062438 219.75,67.65625 L219.75,59 L223.546875,59 L223.546875,83 L220.109375,83 L219.921875,81.25 C218.786453,82.6250069 217.270843,83.3125 215.375,83.3125 C213.395823,83.3125 211.794277,82.515633 210.570312,80.921875 C209.346348,79.328117 208.734375,77.161472 208.734375,74.421875 Z M212.53125,74.75 C212.53125,76.4687586 212.861976,77.809891 213.523438,78.7734375 C214.184899,79.736984 215.124994,80.21875 216.34375,80.21875 C217.895841,80.21875 219.031246,79.5260486 219.75,78.140625 L219.75,70.921875 C219.05208,69.5677016 217.927091,68.890625 216.375,68.890625 C215.145827,68.890625 214.19792,69.3775993 213.53125,70.3515625 C212.86458,71.3255257 212.53125,72.7916569 212.53125,74.75 Z M234.953125,83.3125 C232.546863,83.3125 230.596362,82.5546951 229.101562,81.0390625 C227.606763,79.5234299 226.859375,77.5052209 226.859375,74.984375 L226.859375,74.515625 C226.859375,72.8281166 227.184893,71.3203191 227.835938,69.9921875 C228.486982,68.6640559 229.401036,67.630212 230.578125,66.890625 C231.755214,66.151038 233.067701,65.78125 234.515625,65.78125 C236.81772,65.78125 238.596348,66.5156177 239.851562,67.984375 C241.106777,69.4531323 241.734375,71.5312366 241.734375,74.21875 L241.734375,75.75 L230.6875,75.75 C230.802084,77.1458403 231.268225,78.2499959 232.085938,79.0625 C232.90365,79.8750041 233.932285,80.28125 235.171875,80.28125 C236.911467,80.28125 238.32812,79.578132 239.421875,78.171875 L241.46875,80.125 C240.791663,81.1354217 239.888026,81.919268 238.757812,82.4765625 C237.627599,83.033857 236.359382,83.3125 234.953125,83.3125 Z M234.5,68.828125 C233.458328,68.828125 232.617191,69.1927047 231.976562,69.921875 C231.335934,70.6510453 230.927084,71.6666602 230.75,72.96875 L237.984375,72.96875 L237.984375,72.6875 C237.901041,71.4166603 237.562503,70.4557324 236.96875,69.8046875 C236.374997,69.1536426 235.552089,68.828125 234.5,68.828125 Z M253.53125,69.5625 C253.031248,69.4791662 252.515628,69.4375 251.984375,69.4375 C250.244783,69.4375 249.07292,70.10416 248.46875,71.4375 L248.46875,83 L244.671875,83 L244.671875,66.09375 L248.296875,66.09375 L248.390625,67.984375 C249.307296,66.5156177 250.578117,65.78125 252.203125,65.78125 C252.744794,65.78125 253.192707,65.8541659 253.546875,66 L253.53125,69.5625 Z" id="Trader" fill="#FFFFFF"></path>
                        <path d="M124.472349,91.8468818 C124.038927,91.2206841 123.356665,90.8610086 122.600657,90.8610086 C121.844648,90.8610086 121.162386,91.2206841 120.729395,91.8468817 C120.729395,91.8468817 117.493178,96.5266885 111.020744,105.886302 C110.519613,106.611691 110.465274,107.511311 110.874976,108.293627 C111.27821,109.062142 112.032062,109.521008 112.892437,109.521008 L132.308876,109.521008 C133.169251,109.521008 133.923104,109.062142 134.326337,108.293627 C134.736039,107.511311 134.6817,106.611691 134.180569,105.886302 L124.472349,91.8468818 Z" id="Shape-Copy-10" fill="#34E834" fill-rule="nonzero" transform="translate(122.600657, 100.191009) rotate(408.000000) translate(-122.600657, -100.191009) "></path>
                        <path d="M303.953204,306.737384 C303.519782,306.111187 302.83752,305.751511 302.081511,305.751511 C301.325502,305.751511 300.64324,306.111187 300.21025,306.737384 C300.21025,306.737384 300.21025,306.737384 300.209818,306.737384 L290.501598,320.776805 C290.000468,321.502193 289.946128,322.401813 290.355831,323.184129 C290.759064,323.952644 291.512916,324.411511 292.373291,324.411511 L311.789731,324.411511 C312.650106,324.411511 313.403958,323.952644 313.807191,323.184129 C314.216894,322.401813 314.162554,321.502193 313.661423,320.776805 L303.953204,306.737384 Z" id="Shape-Copy-10" fill="#34E834" fill-rule="nonzero" transform="translate(302.081511, 315.081511) scale(-1, -1) rotate(45.000000) translate(-302.081511, -315.081511) "></path>
                    </g>
                </g>
                <g id="Group-119" transform="translate(332.000000, 187.000000)">
                    <g id="Shape" fill-rule="nonzero">
                        <use fill="url(#linearGradient-9)" fill-rule="evenodd" xlink:href="#path-10"></use>
                        <path stroke="#181818" stroke-width="16" d="M-8,19 C-8,-1.20660174 -1.20660174,-8 19,-8 C39.2066017,-8 46,-1.20660174 46,19 C46,39.2066017 39.2066017,46 19,46 C-1.20660174,46 -8,39.2066017 -8,19 Z"></path>
                    </g>
                    <path d="M14.0000122,15.7914013 C13.9949637,13.5767731 15.5609923,11.6695664 17.7342723,11.2435879 L17.7342723,10.2632815 C17.7342723,9.56559039 18.2998626,9 18.9975537,9 C19.6952448,9 20.2608352,9.56559039 20.2608352,10.2632815 L20.2608352,11.2739067 C21.7690417,11.6618056 23.0087672,12.7332426 23.6110577,14.1693479 C23.8555046,14.8068608 23.5491713,15.5232403 22.9193661,15.7869115 C22.2895609,16.0505826 21.5642194,15.766119 21.2815667,15.1446012 C20.8978204,14.2253767 19.9987158,13.6273027 19.0026069,13.6286634 C17.8100691,13.6286634 16.5316283,14.3057823 16.5316283,15.7914013 C16.5316283,16.180492 16.5316283,17.3528172 19.2855819,17.984458 L19.3260069,17.984458 C23.3685077,18.9293925 24.0001484,21.2993086 24.0001484,22.6282807 C24.0051969,24.8429089 22.4391683,26.7501156 20.2658884,27.1760941 L20.2658884,28.1867193 C20.2658884,28.8844104 19.700298,29.4500008 19.0026069,29.4500008 C18.3049158,29.4500008 17.7393254,28.8844104 17.7393254,28.1867193 L17.7393254,27.1760941 C16.231119,26.7881952 14.9913934,25.7167582 14.3891029,24.2806529 C14.1984794,23.8614958 14.2510213,23.3718198 14.5262322,23.0026464 C14.8014432,22.6334731 15.255725,22.4432857 15.7118634,22.5062759 C16.1680018,22.5692661 16.5537368,22.8754553 16.7185939,23.3053996 C17.1041436,24.2254185 18.0050703,24.8233787 19.0026069,24.8213374 C20.1951446,24.8213374 21.4735855,24.1442185 21.4735855,22.6585995 C21.4735855,22.2695088 21.4735855,21.0971835 18.7196318,20.4655428 L18.6792068,20.4655428 C14.6063873,19.4953426 14.0000122,17.1254265 14.0000122,15.7914013 Z" id="Path-Copy-7" stroke="#14191C" stroke-width="0.5" fill="#14191C"></path>
                </g>
                <g id="Group-118" transform="translate(51.000000, 187.000000)">
                    <g id="Shape" fill-rule="nonzero" transform="translate(19.000000, 19.000000) rotate(-360.000000) translate(-19.000000, -19.000000) ">
                        <use fill="url(#linearGradient-9)" fill-rule="evenodd" xlink:href="#path-11"></use>
                        <path stroke="#181818" stroke-width="16" d="M19,-8 C39.2066017,-8 46,-1.20660174 46,19 C46,39.2066017 39.2066017,46 19,46 C-1.20660174,46 -8,39.2066017 -8,19 C-8,-1.20660174 -1.20660174,-8 19,-8 Z"></path>
                    </g>
                    <path d="M14.0000122,15.7914013 C13.9949637,13.5767731 15.5609923,11.6695664 17.7342723,11.2435879 L17.7342723,10.2632815 C17.7342723,9.56559039 18.2998626,9 18.9975537,9 C19.6952448,9 20.2608352,9.56559039 20.2608352,10.2632815 L20.2608352,11.2739067 C21.7690417,11.6618056 23.0087672,12.7332426 23.6110577,14.1693479 C23.8555046,14.8068608 23.5491713,15.5232403 22.9193661,15.7869115 C22.2895609,16.0505826 21.5642194,15.766119 21.2815667,15.1446012 C20.8978204,14.2253767 19.9987158,13.6273027 19.0026069,13.6286634 C17.8100691,13.6286634 16.5316283,14.3057823 16.5316283,15.7914013 C16.5316283,16.180492 16.5316283,17.3528172 19.2855819,17.984458 L19.3260069,17.984458 C23.3685077,18.9293925 24.0001484,21.2993086 24.0001484,22.6282807 C24.0051969,24.8429089 22.4391683,26.7501156 20.2658884,27.1760941 L20.2658884,28.1867193 C20.2658884,28.8844104 19.700298,29.4500008 19.0026069,29.4500008 C18.3049158,29.4500008 17.7393254,28.8844104 17.7393254,28.1867193 L17.7393254,27.1760941 C16.231119,26.7881952 14.9913934,25.7167582 14.3891029,24.2806529 C14.1984794,23.8614958 14.2510213,23.3718198 14.5262322,23.0026464 C14.8014432,22.6334731 15.255725,22.4432857 15.7118634,22.5062759 C16.1680018,22.5692661 16.5537368,22.8754553 16.7185939,23.3053996 C17.1041436,24.2254185 18.0050703,24.8233787 19.0026069,24.8213374 C20.1951446,24.8213374 21.4735855,24.1442185 21.4735855,22.6585995 C21.4735855,22.2695088 21.4735855,21.0971835 18.7196318,20.4655428 L18.6792068,20.4655428 C14.6063873,19.4953426 14.0000122,17.1254265 14.0000122,15.7914013 Z" id="Path-Copy-7" stroke="#14191C" stroke-width="0.5" fill="#14191C" transform="translate(19.000080, 19.225000) rotate(-360.000000) translate(-19.000080, -19.225000) "></path>
                </g>
            </g>
        </g>
    </g>
</svg>