<svg width="252" height="70" viewBox="0 0 252 70" fill="none" xmlns="http://www.w3.org/2000/svg">
<path d="M13.6925 0.69397L9.90444 9.78793L0.698486 6.91552V69.3H238.45L251.28 63.0825V0.69397H13.6925Z" fill="white"/>
<path d="M238.61 70H0V5.97011L9.50357 8.93506L13.2248 0H251.978V63.5169L238.61 70ZM1.39699 68.606H238.298L250.591 62.65V1.38793H14.1602L10.3134 10.6408L1.39699 7.86092V68.606Z" fill="#161C4B"/>
<path d="M98.4108 58.7578C98.0934 58.8906 97.7657 58.9976 97.4309 59.0777C97.0989 59.1535 96.7592 59.1913 96.4186 59.1903C96.0384 59.1949 95.6606 59.1316 95.303 59.0032C94.9798 58.8868 94.6832 58.7077 94.4304 58.4762C94.1861 58.2502 93.9916 57.9762 93.8594 57.6716C93.721 57.3466 93.6521 56.9966 93.657 56.6437C93.6546 56.2924 93.7234 55.9442 93.8594 55.6199C93.9886 55.3162 94.1795 55.0423 94.4203 54.8153C94.6663 54.5841 94.957 54.4049 95.2747 54.2883C95.6261 54.1617 95.9982 54.101 96.372 54.1093C97.0506 54.1199 97.7158 54.2982 98.3075 54.6282L97.8216 55.5193C97.6087 55.4079 97.3873 55.3131 97.1596 55.2357C96.958 55.1681 96.7467 55.1335 96.534 55.1331C96.3188 55.1306 96.1051 55.1688 95.9043 55.2458C95.7214 55.3154 95.555 55.422 95.4156 55.5587C95.2762 55.6955 95.1669 55.8594 95.0945 56.0403C95.0174 56.2357 94.9789 56.444 94.9811 56.6538C94.9785 56.8676 95.017 57.0799 95.0945 57.2794C95.1659 57.4598 95.2751 57.6232 95.4146 57.7588C95.5542 57.8943 95.7211 57.999 95.9043 58.0659C96.1052 58.1422 96.3189 58.1797 96.534 58.1765C96.7549 58.1784 96.9743 58.141 97.1819 58.0659V57.211H96.1938V56.2374H98.4209L98.4108 58.7578Z" fill="#161C4B"/>
<path d="M99.3643 54.1857H100.711V58.0779H102.721V59.1018H99.3643V54.1857Z" fill="#161C4B"/>
<path d="M102.93 56.6437C102.927 56.2923 102.996 55.9441 103.132 55.6198C103.261 55.3167 103.45 55.0429 103.689 54.8152C103.934 54.5845 104.223 54.4053 104.539 54.2882C105.245 54.0415 106.014 54.0415 106.72 54.2882C107.037 54.4057 107.328 54.5849 107.574 54.8152C107.814 55.0423 108.005 55.3162 108.133 55.6198C108.398 56.2785 108.398 57.0129 108.133 57.6715C108.005 57.9751 107.814 58.249 107.574 58.4761C107.328 58.7065 107.037 58.8856 106.72 59.0031C106.015 59.2525 105.245 59.2525 104.539 59.0031C104.223 58.8861 103.934 58.7068 103.689 58.4761C103.45 58.2484 103.261 57.9746 103.132 57.6715C102.996 57.346 102.927 56.9963 102.93 56.6437ZM104.307 56.6437C104.304 56.8488 104.337 57.0529 104.404 57.2471C104.461 57.4237 104.553 57.5876 104.673 57.7299C104.787 57.8623 104.93 57.9681 105.09 58.0396C105.26 58.1127 105.443 58.1503 105.628 58.1503C105.813 58.1503 105.995 58.1127 106.165 58.0396C106.326 57.9678 106.469 57.8621 106.584 57.7299C106.705 57.5895 106.798 57.4278 106.858 57.2531C106.984 56.8607 106.984 56.4387 106.858 56.0462C106.798 55.872 106.705 55.7108 106.584 55.5715C106.469 55.4389 106.326 55.3325 106.165 55.2598C105.995 55.1881 105.812 55.1512 105.628 55.1512C105.443 55.1512 105.26 55.1881 105.09 55.2598C104.93 55.332 104.787 55.4385 104.673 55.5715C104.554 55.711 104.463 55.8723 104.406 56.0462C104.339 56.2384 104.306 56.4404 104.307 56.6437Z" fill="#161C4B"/>
<path d="M109.072 54.1857H111.379C111.608 54.1831 111.836 54.2163 112.055 54.2843C112.247 54.3426 112.427 54.436 112.585 54.5598C112.73 54.6736 112.847 54.8188 112.927 54.9843C113.009 55.153 113.051 55.3381 113.049 55.5253C113.053 55.739 112.993 55.9491 112.877 56.1288C112.768 56.2986 112.617 56.4373 112.437 56.5311C112.673 56.6198 112.876 56.7794 113.016 56.9877C113.139 57.176 113.21 57.3923 113.224 57.6159C113.239 57.8395 113.195 58.063 113.097 58.265C113.011 58.4361 112.889 58.587 112.739 58.7075C112.576 58.8367 112.39 58.9343 112.19 58.9952C111.966 59.0653 111.731 59.0999 111.496 59.0978H109.066L109.072 54.1857ZM110.368 56.1529H111.194C111.341 56.1599 111.486 56.1118 111.599 56.0182C111.65 55.9729 111.691 55.917 111.717 55.8543C111.744 55.7917 111.756 55.724 111.753 55.6561C111.756 55.5876 111.744 55.5193 111.717 55.4561C111.69 55.3928 111.65 55.3361 111.599 55.29C111.487 55.1944 111.342 55.1448 111.194 55.1512H110.368V56.1529ZM110.368 58.1363H111.281C111.447 58.1439 111.608 58.0893 111.735 57.9834C111.791 57.9326 111.836 57.8704 111.865 57.801C111.895 57.7315 111.909 57.6565 111.907 57.5811C111.91 57.5056 111.896 57.4303 111.866 57.3607C111.837 57.2912 111.792 57.229 111.735 57.1788C111.607 57.0757 111.446 57.0227 111.281 57.0299H110.368V58.1363Z" fill="#161C4B"/>
<path d="M115.353 54.1857H116.596L118.598 59.1018H117.252L116.883 58.1081H115.061L114.693 59.1018H113.338L115.353 54.1857ZM115.412 57.1406H116.529L115.97 55.642L115.412 57.1406Z" fill="#161C4B"/>
<path d="M119.048 54.1857H120.396V58.0779H122.406V59.1018H119.048V54.1857Z" fill="#161C4B"/>
<path d="M124.951 54.1856H127.146C127.399 54.1833 127.651 54.2255 127.889 54.3104C128.106 54.3869 128.305 54.5067 128.474 54.6624C128.638 54.8129 128.768 54.9959 128.857 55.1994C128.95 55.4154 128.997 55.6483 128.995 55.8833C128.997 56.1196 128.95 56.3538 128.857 56.5713C128.769 56.7754 128.639 56.9585 128.474 57.1083C128.303 57.2613 128.105 57.3808 127.889 57.4604C127.651 57.5468 127.399 57.5898 127.146 57.5871H126.255V59.1017H124.96L124.951 54.1856ZM126.247 56.5632H126.923C127.12 56.5717 127.313 56.5048 127.462 56.3762C127.527 56.3126 127.579 56.2368 127.615 56.153C127.65 56.0692 127.669 55.9793 127.669 55.8884C127.669 55.7975 127.65 55.7075 127.615 55.6237C127.579 55.54 127.527 55.4641 127.462 55.4006C127.314 55.27 127.121 55.2014 126.923 55.2095H126.247V56.5632Z" fill="#161C4B"/>
<path d="M130.744 54.1857H131.989L133.991 59.1018H132.645L132.277 58.1081H130.454L130.086 59.1018H128.729L130.744 54.1857ZM130.805 57.1406H131.922L131.364 55.642L130.805 57.1406Z" fill="#161C4B"/>
<path d="M134.435 54.1857H136.662C136.909 54.1826 137.154 54.2235 137.387 54.3064C137.595 54.3808 137.788 54.4941 137.954 54.6403C138.113 54.7808 138.24 54.9536 138.326 55.1472C138.415 55.3543 138.46 55.5777 138.458 55.803C138.466 56.1324 138.37 56.4561 138.182 56.7282C137.999 56.989 137.729 57.177 137.419 57.2593L138.687 59.1018H137.229L136.176 57.4705H135.718V59.1018H134.435V54.1857ZM135.731 56.4466H136.459C136.64 56.4543 136.816 56.3939 136.953 56.2777C137.014 56.219 137.061 56.1491 137.094 56.0719C137.127 55.9947 137.143 55.9118 137.143 55.8281C137.143 55.7444 137.127 55.6615 137.094 55.5843C137.061 55.5071 137.014 55.4371 136.953 55.3785C136.816 55.2623 136.64 55.2019 136.459 55.2096H135.731V56.4466Z" fill="#161C4B"/>
<path d="M140.341 55.2095H138.905V54.1857H143.119V55.2095H141.689V59.1018H140.341V55.2095Z" fill="#161C4B"/>
<path d="M143.663 54.1857H144.963L147.216 57.2814V54.1857H148.453V59.1018H147.158L144.91 56.0081V59.1018H143.667L143.663 54.1857Z" fill="#161C4B"/>
<path d="M149.496 54.1857H153.081V55.1814H150.844V56.1026H152.847V57.0681H150.844V58.1081H153.201V59.1018H149.496V54.1857Z" fill="#161C4B"/>
<path d="M154.039 54.1857H156.266C156.513 54.1826 156.759 54.2235 156.991 54.3064C157.2 54.3803 157.392 54.4937 157.558 54.6403C157.717 54.7808 157.844 54.9536 157.93 55.1472C158.021 55.3539 158.067 55.5774 158.064 55.803C158.072 56.1327 157.975 56.4564 157.787 56.7282C157.604 56.989 157.334 57.1771 157.025 57.2593L158.291 59.1018H156.833L155.78 57.4705H155.325V59.1018H154.029L154.039 54.1857ZM155.335 56.4466H156.064C156.243 56.454 156.419 56.3936 156.556 56.2777C156.617 56.2195 156.665 56.1497 156.698 56.0724C156.731 55.9952 156.748 55.9121 156.748 55.8281C156.748 55.7441 156.731 55.661 156.698 55.5838C156.665 55.5065 156.617 55.4367 156.556 55.3785C156.419 55.2626 156.243 55.2022 156.064 55.2096H155.335V56.4466Z" fill="#161C4B"/>
<path d="M126.691 10.2466V46.9121H125.294V10.2466H126.691ZM55.7762 31.5423C56.4581 31.5222 57.1403 31.5748 57.8109 31.6992V30.3374H53.0186V38.492H58.0923L58.7139 36.9713C57.8034 37.191 56.869 37.2971 55.9321 37.2871C55.5717 37.2871 55.2295 37.275 54.9036 37.2509V34.7446H57.4647V33.5377H54.9076V31.5543C55.1695 31.5463 55.459 31.5423 55.7762 31.5423ZM46.9063 16.619H45.5802V10.8903C46.0665 10.8322 46.5562 10.8066 47.046 10.8138C47.8842 10.8138 48.5361 10.9345 48.9431 11.1799C49.2422 11.3172 49.488 11.5478 49.6431 11.8367C49.7982 12.1255 49.8541 12.4568 49.8023 12.7801C49.7505 13.1034 49.5939 13.4011 49.3562 13.6278C49.1185 13.8546 48.8128 13.998 48.4855 14.0362L50.6255 16.619H49.0058L46.9124 14.0041L46.9063 16.619ZM46.9063 13.4509C47.0122 13.4664 47.1192 13.4738 47.2262 13.473C47.9733 13.473 48.5058 13.1512 48.5058 12.5558C48.5058 11.9262 47.9733 11.711 47.2262 11.711C47.1193 11.7112 47.0125 11.7172 46.9063 11.7291V13.4509ZM53.5086 16.8362C55.0615 16.8362 56.1183 15.9814 56.1183 14.2414V10.8903H54.772V14.2917C54.772 15.2029 54.3002 15.742 53.5248 15.742C52.7494 15.742 52.2776 15.1848 52.2776 14.2495V10.8903H50.9313V14.2816C50.9313 15.9733 51.9537 16.8362 53.5086 16.8362ZM60.2627 16.8362C61.1353 16.8362 61.9756 16.5084 62.4574 16.0316V13.7848H61.1941V15.6434C60.9224 15.7627 60.6286 15.8243 60.3316 15.8245C60.0594 15.8347 59.788 15.7886 59.5346 15.6893C59.2813 15.5899 59.0514 15.4394 58.8597 15.2472C58.4823 14.8413 58.2728 14.3091 58.2728 13.7566C58.2728 13.2041 58.4823 12.6719 58.8597 12.2661C59.0536 12.0698 59.2867 11.916 59.5441 11.8145C59.8014 11.713 60.0772 11.6661 60.3538 11.6768C60.9186 11.6635 61.4757 11.8085 61.9614 12.0951V11.0632C61.392 10.8197 60.7749 10.7056 60.1554 10.7293C59.2423 10.7293 58.4163 10.9747 57.8231 11.55C57.5346 11.83 57.3072 12.1658 57.155 12.5368C57.0028 12.9078 56.9291 13.3059 56.9383 13.7064C56.9383 14.6859 57.2278 15.388 57.7988 15.9029C58.474 16.5087 59.3529 16.8416 60.2627 16.8362ZM70.0275 16.619H71.3232V14.348L73.5503 10.8903H72.0804L70.6632 13.1431L69.246 10.8903H67.7761L70.0032 14.348L70.0275 16.619ZM73.2912 19.8112C74.0666 20.2839 74.4553 20.9296 74.4553 21.7564C74.4723 22.2636 74.312 22.7611 74.0018 23.1644C73.6784 23.5536 73.2195 23.8078 72.7162 23.8765L75.6256 27.5575H73.3114L70.5053 23.8342V27.5575H68.6163V19.4009C69.2878 19.3172 69.9643 19.2802 70.6409 19.2903C71.8355 19.2903 72.7182 19.4653 73.2912 19.8112ZM72.4813 21.8227C72.4813 20.99 71.9502 20.5736 70.8879 20.5736C70.7482 20.5736 70.6187 20.5736 70.4952 20.5877V23.0699C70.6187 23.0699 70.7482 23.0819 70.8879 23.0819C71.9502 23.0779 72.4847 22.6562 72.4914 21.8167L72.4813 21.8227ZM82.2279 26.1132C81.663 26.2762 80.6446 26.3586 79.4987 26.3586C79.1803 26.363 78.862 26.3503 78.5451 26.3204V19.4009H76.6581V27.5575H81.6407L82.2279 26.1132ZM70.9649 31.5443C71.6468 31.5242 72.329 31.5768 72.9996 31.7012V30.3394H68.2296V38.494H73.2912L73.9168 36.9733C73.0064 37.1933 72.0718 37.2994 71.135 37.2891C70.7766 37.2891 70.4324 37.277 70.1064 37.2529V34.7446H72.6676V33.5377H70.1064V31.5543C70.3683 31.5463 70.6578 31.5423 70.975 31.5423L70.9649 31.5443ZM59.3679 20.3362C60.2155 19.5585 61.3392 19.1696 62.7388 19.1696C64.1338 19.1696 65.2595 19.5578 66.1078 20.3362C66.5489 20.7312 66.898 21.2168 67.1308 21.7594C67.3637 22.3021 67.4747 22.8886 67.4562 23.4782C67.4739 24.0692 67.3625 24.6569 67.1298 25.201C66.897 25.7452 66.5484 26.2327 66.1078 26.6302C65.2595 27.4026 64.1338 27.7868 62.7388 27.7868C61.3439 27.7868 60.2162 27.4026 59.3679 26.6302C58.9269 26.2331 58.5779 25.7456 58.3451 25.2014C58.1123 24.6572 58.0012 24.0692 58.0195 23.4782C58.0005 22.8885 58.1114 22.3019 58.3443 21.7592C58.5772 21.2165 58.9265 20.7309 59.3679 20.3362ZM60.1534 23.4882C60.1204 24.2266 60.3545 24.9523 60.8134 25.5339C61.0431 25.8186 61.3372 26.0454 61.6718 26.1957C62.0064 26.346 62.372 26.4156 62.7388 26.3989C63.107 26.4145 63.4737 26.3444 63.8098 26.1943C64.1458 26.0441 64.4419 25.818 64.6744 25.5339C65.1248 24.9483 65.3547 24.2246 65.3243 23.4882C65.3537 22.7526 65.1239 22.0299 64.6744 21.4446C64.4326 21.1722 64.135 20.9544 63.8016 20.8055C63.4682 20.6566 63.1067 20.5802 62.7412 20.5814C62.3756 20.5825 62.0146 20.6612 61.6821 20.8121C61.3497 20.9631 61.0535 21.1828 60.8134 21.4566C60.3609 22.0362 60.1273 22.7552 60.1534 23.4882ZM47.9551 26.8897C48.1686 27.1742 48.4564 27.3954 48.7872 27.5293C48.9309 27.5937 49.267 27.7064 49.7873 27.8713L51.5893 22.5046L52.8425 26.1676C52.9366 26.4655 53.0729 26.7486 53.2474 27.0084C53.4606 27.2384 53.7237 27.4172 54.0168 27.5313C54.4581 27.6862 54.7922 27.7989 55.0291 27.8733L57.9041 19.4009H56.1062L54.3589 24.9989L52.389 19.4009H51.0527L49.1982 24.9828L47.2424 19.4009H45.2178L47.6068 26.0831C47.6902 26.3647 47.8071 26.6355 47.9551 26.8897ZM64.9356 16.7115C64.4413 16.7176 63.9471 16.6948 63.4556 16.6431V10.8359C64.0468 10.7837 64.5428 10.7977 64.9457 10.7977C65.7434 10.7977 66.4783 10.9305 66.8954 11.1759C67.0808 11.2927 67.2308 11.4573 67.3296 11.6521C67.4283 11.8469 67.4721 12.0647 67.4562 12.2822C67.4399 12.4794 67.3762 12.6697 67.2705 12.8374C67.1648 13.005 67.0202 13.1451 66.8488 13.2457L66.7415 13.3081C66.7076 13.3244 66.6724 13.3379 66.6362 13.3483C66.864 13.3973 67.0817 13.4843 67.2801 13.6058L67.3732 13.6681C67.5324 13.7876 67.6647 13.9387 67.7616 14.1119C67.8585 14.2851 67.9179 14.4765 67.936 14.6739C67.936 14.7181 67.936 14.7644 67.936 14.8107C67.936 15.6153 67.5534 16.0578 66.8812 16.3756C66.3953 16.611 65.7454 16.7115 64.9356 16.7115ZM64.7189 13.0546H65.1238C65.794 13.0546 66.2354 12.8213 66.2354 12.3365C66.2354 11.7954 65.7312 11.6184 65.0611 11.6184H64.7129L64.7189 13.0546ZM64.7189 15.8707C64.8222 15.8707 65.1441 15.8707 65.3101 15.8707C66.2799 15.8707 66.6788 15.4946 66.6788 14.877C66.6788 14.2193 66.1078 13.8914 65.2615 13.8914C65.0955 13.8914 64.8202 13.8914 64.7169 13.8914L64.7189 15.8707ZM85.3984 27.6581C84.648 27.6688 83.8979 27.6204 83.1551 27.5132V19.4351C83.8982 19.3309 84.648 19.2825 85.3984 19.2903C87.0478 19.2903 88.3348 19.651 89.2594 20.3724C89.7377 20.7352 90.1219 21.2064 90.3797 21.7467C90.6375 22.2869 90.7615 22.8806 90.7414 23.4782C90.7624 24.0739 90.6387 24.6659 90.3807 25.204C90.1228 25.7421 89.7381 26.2106 89.2594 26.5699C88.3321 27.2927 87.0451 27.6534 85.3984 27.652V27.6581ZM85.0441 26.3325C85.2466 26.3486 85.4348 26.3586 85.609 26.3586C87.6552 26.3533 88.6783 25.3945 88.6783 23.4822C88.6783 22.5227 88.4029 21.7966 87.8684 21.2997C87.3339 20.8029 86.597 20.5937 85.6272 20.5937C85.4531 20.5937 85.2668 20.5937 85.0623 20.6158L85.0441 26.3325ZM87.5526 37.2127C87.2281 37.3585 86.8739 37.4274 86.518 37.4138C85.5248 37.4188 84.5557 37.1103 83.7504 36.5328L84.0581 38.2204C84.8226 38.5777 85.6615 38.7493 86.5059 38.7213C87.4574 38.7213 88.241 38.5295 88.8565 38.146C89.2091 37.9365 89.4982 37.6361 89.6932 37.2767C89.8881 36.9173 89.9817 36.5122 89.9639 36.1043C89.9654 35.7863 89.8916 35.4724 89.7485 35.188C89.6054 34.9036 89.3969 34.6566 89.1399 34.467C88.6091 34.1038 88.0394 33.8003 87.4413 33.5618C87.095 33.413 86.7571 33.2458 86.4289 33.0609C86.024 32.7914 85.8216 32.5158 85.8216 32.2302C85.8216 31.7072 86.2609 31.4477 87.1376 31.4477C87.9227 31.4368 88.6921 31.6672 89.3403 32.1075V30.5747C88.6567 30.2507 87.9071 30.0875 87.1497 30.098C86.3908 30.0717 85.6388 30.2496 84.9732 30.613C84.6382 30.7813 84.3585 31.041 84.1666 31.3616C83.9748 31.6822 83.8789 32.0505 83.8901 32.4233C83.8901 33.1649 84.2552 33.7811 84.9854 34.2719C85.0745 34.3282 85.7493 34.6547 87.01 35.2515C87.7308 35.6035 88.0912 35.9776 88.0912 36.3779C88.0952 36.5545 88.0462 36.7283 87.9502 36.877C87.8543 37.0257 87.7158 37.1426 87.5526 37.2127ZM63.2086 36.0541L60.9228 30.3374H58.8698L61.6152 37.0538C61.7797 37.5071 62.0585 37.9108 62.425 38.2265C62.8341 38.4644 63.2751 38.6432 63.735 38.7575L67.1768 30.3374H65.4802L63.2086 36.0541ZM101.62 25.5943C100.848 26.1091 99.9369 26.3765 99.0079 26.3607C98.1171 26.3607 97.4206 26.1032 96.9165 25.5742C96.4123 25.0451 96.1532 24.3451 96.1532 23.448C96.1288 22.6954 96.4063 21.9639 96.9246 21.4144C97.1818 21.1475 97.4931 20.9377 97.8379 20.7991C98.1827 20.6604 98.5532 20.5959 98.9249 20.6098C99.8137 20.6098 100.522 20.7868 101.045 21.1469V19.5699C100.329 19.2954 99.5681 19.1588 98.8014 19.1676C97.4692 19.1676 96.3557 19.5457 95.4689 20.3121C95.0074 20.6967 94.64 21.1805 94.3945 21.7269C94.149 22.2733 94.0317 22.868 94.0516 23.4661C94.0516 24.7964 94.4971 25.8504 95.3879 26.6282C96.2382 27.3684 97.3443 27.7392 98.7062 27.7405C99.4461 27.7555 100.182 27.6355 100.879 27.3865L101.62 25.5943ZM108.641 44.277C108.641 45.7273 107.629 46.8518 106.147 46.8518C104.665 46.8518 103.642 45.7273 103.642 44.277C103.642 42.8268 104.655 41.7023 106.147 41.7023C107.639 41.7023 108.641 42.8288 108.641 44.2791V44.277ZM107.376 44.277C107.376 43.5147 107.068 42.5572 106.147 42.5572C105.226 42.5572 104.91 43.5227 104.91 44.277C104.91 45.0313 105.217 45.9888 106.147 45.9888C107.076 45.9888 107.376 45.0394 107.376 44.2791V44.277ZM101.186 45.9647C101.794 45.2687 102.972 43.9753 102.972 43.0239C102.972 42.0724 102.128 41.7023 101.298 41.7023C100.82 41.7008 100.347 41.8053 99.9149 42.0081L99.7388 42.9595C100.126 42.6941 100.584 42.5498 101.055 42.5451C101.444 42.5451 101.834 42.7121 101.834 43.1486C101.825 43.3406 101.77 43.5276 101.672 43.6937C101.473 44.0418 101.244 44.3722 100.988 44.6814C100.452 45.393 99.8703 46.0695 99.2468 46.7069H103.094L103.472 45.8641C102.996 45.9528 102.513 45.9946 102.029 45.9888C101.745 45.9969 101.466 45.9808 101.186 45.9667V45.9647ZM49.3824 37.2127C49.0586 37.3585 48.7051 37.4274 48.3499 37.4138C47.3561 37.4185 46.3864 37.11 45.5802 36.5328L45.8879 38.2204C46.6531 38.5776 47.4927 38.7493 48.3377 38.7213C49.2825 38.7213 50.0661 38.5295 50.6883 38.146C51.0407 37.9361 51.3295 37.6357 51.5244 37.2764C51.7193 36.9171 51.8131 36.5122 51.7958 36.1043C51.7974 35.7861 51.7234 35.472 51.5799 35.1875C51.4363 34.903 51.2273 34.6561 50.9697 34.467C50.4394 34.1042 49.8704 33.8006 49.2731 33.5618C48.9268 33.4132 48.5888 33.246 48.2608 33.0609C47.8559 32.7914 47.6534 32.5158 47.6534 32.2302C47.6534 31.7072 48.0927 31.4477 48.9694 31.4477C49.7552 31.4369 50.5252 31.6673 51.1742 32.1075V30.5747C50.4904 30.2511 49.7409 30.088 48.9836 30.098C48.224 30.072 47.4714 30.2499 46.8051 30.613C46.4704 30.7817 46.1909 31.0415 45.9991 31.362C45.8073 31.6825 45.7112 32.0506 45.7219 32.4233C45.7219 33.1649 46.087 33.7811 46.8172 34.2719C46.9077 34.3282 47.5825 34.6547 48.8418 35.2515C49.5626 35.6035 49.925 35.9776 49.925 36.3779C49.9288 36.555 49.8791 36.7291 49.7824 36.8779C49.6857 37.0266 49.5464 37.1432 49.3824 37.2127ZM95.3089 41.8391L97.3578 46.7109H96.1066L95.562 45.3431H93.8208L93.2863 46.715H92.189L94.2136 41.8431L95.3089 41.8391ZM95.2502 44.5546L94.6793 43.1245L94.1225 44.5546H95.2502ZM88.7492 44.275C88.7492 43.3015 89.4153 42.5632 90.4033 42.5632C90.8486 42.5355 91.2915 42.6482 91.6687 42.8851V41.9417C91.2439 41.771 90.7884 41.6889 90.3304 41.7003C88.7998 41.7003 87.4959 42.6658 87.4959 44.2831C87.4959 45.9003 88.7107 46.8497 90.2777 46.8497C90.7191 46.8572 91.1581 46.785 91.5735 46.6365L92.0189 45.5624C91.5636 45.8804 91.0162 46.0421 90.46 46.023C89.3788 46.027 88.7492 45.3391 88.7492 44.2791V44.275ZM114.715 45.9627C115.322 45.2667 116.501 43.9733 116.501 43.0219C116.501 42.0704 115.656 41.7003 114.826 41.7003C114.349 41.6986 113.877 41.8031 113.445 42.0061L113.267 42.9575C113.655 42.6921 114.113 42.5478 114.583 42.5431C114.974 42.5431 115.363 42.7101 115.363 43.1466C115.355 43.3387 115.299 43.526 115.201 43.6917C115.002 44.0397 114.773 44.3702 114.517 44.6793C113.98 45.3909 113.399 46.0675 112.775 46.7049H116.622L117.003 45.8621C116.526 45.9507 116.042 45.9925 115.557 45.9868C115.274 45.9969 114.998 45.9808 114.715 45.9667V45.9627ZM116.74 20.7707C116.959 21.1574 117.072 21.5942 117.07 22.038C117.084 22.3735 117.02 22.7079 116.885 23.0156C116.75 23.3233 116.545 23.5964 116.288 23.8141C115.768 24.248 115.104 24.4739 114.425 24.4477C113.952 24.461 113.485 24.3433 113.075 24.1078V27.5575H111.188V19.3868C111.922 19.3161 112.659 19.2839 113.397 19.2903C115.048 19.2903 116.159 19.7851 116.731 20.7747L116.74 20.7707ZM115.148 21.9776C115.159 21.7733 115.122 21.5693 115.038 21.3823C114.955 21.1952 114.828 21.0305 114.668 20.9015C114.34 20.6617 113.939 20.5416 113.533 20.5615C113.375 20.5615 113.223 20.5716 113.075 20.5736V23.5486C113.177 23.5647 113.28 23.5728 113.383 23.5727C114.557 23.5768 115.14 23.0437 115.14 21.9816L115.148 21.9776ZM109.72 19.4009H107.847V24.138C107.847 25.4052 107.193 26.1495 106.112 26.1495C105.031 26.1495 104.377 25.373 104.377 24.0736V19.4009H102.506V24.1178C102.506 26.4693 103.924 27.6681 106.09 27.6681C108.256 27.6681 109.72 26.4814 109.72 24.0615V19.4009ZM111.498 45.9969C111.218 45.9969 110.939 45.9808 110.66 45.9667C111.267 45.2707 112.445 43.9773 112.445 43.0259C112.445 42.0745 111.599 41.7043 110.769 41.7043C110.291 41.7029 109.82 41.8073 109.388 42.0101L109.212 42.9615C109.599 42.6961 110.058 42.5518 110.528 42.5472C110.917 42.5472 111.305 42.7141 111.305 43.1506C111.297 43.3428 111.242 43.53 111.143 43.6957C110.946 44.0442 110.717 44.3747 110.461 44.6834C109.925 45.3945 109.343 46.0711 108.72 46.7089H112.162L112.937 45.8661C112.463 45.9566 111.981 46.0004 111.498 45.9969ZM85.7689 46.715H86.8946V41.8391H85.7689V46.715ZM54.5472 42.4023C54.801 42.6462 55.0028 42.9383 55.1407 43.2612C55.2785 43.5841 55.3495 43.9313 55.3495 44.2821C55.3495 44.6328 55.2785 44.98 55.1407 45.303C55.0028 45.6259 54.801 45.918 54.5472 46.1618C53.973 46.6099 53.2639 46.8535 52.5337 46.8535C51.8035 46.8535 51.0945 46.6099 50.5203 46.1618C50.2665 45.918 50.0646 45.6259 49.9268 45.303C49.789 44.98 49.7179 44.6328 49.7179 44.2821C49.7179 43.9313 49.789 43.5841 49.9268 43.2612C50.0646 42.9383 50.2665 42.6462 50.5203 42.4023C51.093 41.9508 51.8026 41.7051 52.5337 41.7051C53.2649 41.7051 53.9745 41.9508 54.5472 42.4023ZM54.0775 44.2871C54.0775 43.3477 53.5511 42.5492 52.5348 42.5492C51.5184 42.5492 50.99 43.3538 50.99 44.2871C50.99 45.2204 51.5164 46.025 52.5348 46.025C53.5531 46.025 54.0775 45.2325 54.0775 44.2871ZM59.212 44.6894C59.212 45.4658 58.807 45.9245 58.1511 45.9245C57.4951 45.9245 57.0942 45.4598 57.0942 44.6552V41.8391H55.9503V44.6793C55.9503 46.1176 56.8209 46.8497 58.1409 46.8497C59.461 46.8497 60.368 46.1236 60.368 44.6371V41.8391H59.2241L59.212 44.6894ZM47.7809 43.7722C47.4732 43.6334 46.8152 43.3699 46.8152 42.9676C46.8152 42.5653 47.291 42.4989 47.5967 42.4989C48.0646 42.4957 48.5221 42.6362 48.9066 42.9012V41.99C48.5003 41.7974 48.055 41.6997 47.6048 41.7043C46.7342 41.7043 45.6652 42.0483 45.6652 43.0923C45.6652 44.6411 48.1676 44.5446 48.1676 45.4518C48.1676 45.9325 47.619 46.0552 47.2323 46.0552C46.6423 46.0546 46.0669 45.8734 45.5842 45.5362L45.7685 46.542C46.2231 46.7547 46.7219 46.8574 47.2242 46.8417C48.2122 46.8417 49.2812 46.4394 49.2812 45.2788C49.2771 44.3997 48.4653 44.0779 47.7809 43.7722ZM83.4143 44.5184L85.2364 46.715H83.8597L82.0801 44.4903V46.715H80.9544V41.8391C81.3676 41.7911 81.7835 41.7696 82.1995 41.7747C82.9122 41.7747 83.4649 41.8793 83.8192 42.0865C84.0296 42.1992 84.205 42.3669 84.3263 42.5715C84.4476 42.776 84.5103 43.0097 84.5076 43.2472C84.5316 43.5577 84.431 43.8651 84.2277 44.1022C84.0243 44.3393 83.7348 44.4867 83.4224 44.5124L83.4143 44.5184ZM83.4305 43.2592C83.4305 42.7262 82.979 42.5411 82.3453 42.5411C82.2539 42.5416 82.1627 42.547 82.072 42.5572V44.0216C82.1624 44.0347 82.2538 44.0408 82.3453 44.0397C82.9871 44.0397 83.4386 43.7661 83.4386 43.2592H83.4305ZM60.943 42.6135H62.3602V46.715H63.4799V42.6135H64.8849V41.8391H60.9511L60.943 42.6135ZM77.5773 46.715H78.7111V44.4822H80.1101V43.7561H78.7111V42.5693C78.8508 42.5693 78.9966 42.5693 79.1363 42.5693C79.5433 42.5602 79.9503 42.5919 80.351 42.6638V41.8592H77.5773V46.715ZM82.5214 38.7615V30.3374H80.8673V35.2917L76.733 30.3374H74.9817V38.492H76.6338V33.1153L80.3146 37.5164C80.5862 37.8587 80.9225 38.145 81.3046 38.3592C81.6968 38.5377 82.1076 38.6726 82.5295 38.7615H82.5214ZM68.6588 43.7561H66.6099V41.8391H65.4761V46.7109H66.6099V44.5486H68.6588V46.715H69.7947V41.8391H68.6588V43.7561ZM74.9959 41.8431L77.0468 46.715H75.8017L75.2611 45.3431H73.5179L72.9834 46.715H71.8861L73.9107 41.8431H74.9959ZM74.9372 44.5587L74.3662 43.1285L73.8115 44.5587H74.9372Z" fill="#161C4B"/>
<path d="M23.283 24.5563C21.8233 26.5175 21.3232 28.4828 21.1956 28.7805C21.0154 29.1828 20.5194 28.8951 20.0659 28.4828C20.0308 27.5146 20.0078 26.4961 19.997 25.4273C21.0984 23.1946 23.1838 20.4469 26.1863 20.8713C27.9457 21.173 30.0756 22.4141 28.9681 26.2118C28.3608 28.1971 26.7411 31.1038 26.1094 33.7308C26.0871 33.8293 26.077 34.0244 26.245 33.9842L29.8893 33.1796C29.803 34.176 29.7024 35.1281 29.5877 36.0359L24.0544 37.2549C22.9165 37.4943 22.1897 35.2434 26.3098 26.1454C26.658 25.2402 26.8868 24.0233 26.0527 23.4983C25.1882 22.9874 24.0281 23.5948 23.283 24.5563ZM14.5771 32.9885C15.5064 32.2463 15.3748 31.4175 15.1703 30.9348C14.8019 30.102 13.8604 29.7681 13.2996 29.3537C13.2076 29.2817 13.1437 29.18 13.1189 29.0662C13.0942 28.9524 13.1101 28.8336 13.1639 28.7302C13.2368 28.6296 13.5223 28.3279 14.2856 28.9152C14.5792 29.1164 15.2979 28.1569 15.061 27.9095C14.0487 26.9279 12.8339 27.0767 12.2265 27.6681C11.9776 27.9216 11.8051 28.2394 11.7289 28.5854C11.6527 28.9314 11.6757 29.2917 11.7953 29.6253C12.1172 30.3937 13.3158 30.8181 13.7653 31.2828C13.9677 31.498 13.9029 31.9365 13.1579 32.0874C12.8235 32.1252 12.4851 32.0731 12.178 31.9365C11.9031 31.8142 11.6395 31.6682 11.3904 31.5C11.4774 31.9969 11.5766 32.4836 11.686 32.9563C12.5768 33.3466 13.7065 33.592 14.5771 32.9885ZM36.4835 33.4331C36.1333 33.1937 37.5849 31.4739 36.5342 31.6931L34.1674 32.2221C33.975 33.2681 33.7483 34.2517 33.4972 35.173L36.2203 34.5696C37.3622 34.3141 37.012 33.7549 36.4775 33.423L36.4835 33.4331ZM16.2474 33.6201C16.4 34.3617 16.5721 35.0818 16.7637 35.7805L16.3264 40.2058C16.294 40.6282 15.0975 40.5075 15.14 40.1293C15.14 40.1293 15.2412 39.2181 15.3566 38.2586C15.1542 38.496 14.8383 38.3612 14.6844 38.2948C14.5751 38.2486 13.8462 37.8925 13.3259 37.6431C13.1235 37.2288 12.9372 36.8023 12.761 36.3678C13.5567 35.6397 15.4801 33.8836 15.6907 33.7106C15.7695 33.6549 15.8597 33.617 15.9548 33.5997C16.0499 33.5823 16.1478 33.5858 16.2414 33.6101L16.2474 33.6201ZM15.6401 35.5693L14.2593 36.7923C14.6642 36.9934 15.4113 37.3414 15.4113 37.3414L15.6401 35.5693ZM32.7825 37.4601C32.5801 38.0494 32.3553 38.6086 32.1326 39.1356C32.993 39.1392 33.85 39.2439 34.6857 39.4474C35.0019 39.5272 35.3097 39.637 35.6049 39.7753C35.9268 39.3026 36.2264 38.8178 36.5018 38.325C36.0634 38.0992 35.6 37.925 35.121 37.806C34.352 37.6098 33.5653 37.4905 32.7724 37.45L32.7825 37.4601ZM35.3498 29.1868C35.3356 29.1868 35.3194 29.1868 35.3295 29.1667L37.7752 24.8279C38.4677 23.4198 38.3381 22.577 37.5181 22.1486C36.6334 21.7161 35.5583 22.5348 34.7991 23.3092C34.8193 24.0112 34.8254 24.6971 34.8153 25.3629C35.6798 24.0494 36.4046 23.4279 36.5969 23.5787C36.7285 23.6874 36.5706 24.1581 35.9551 25.204C35.6129 25.7673 35.1453 26.6121 34.7403 27.3644C34.6715 28.5109 34.5601 29.5992 34.4164 30.6331L39.1641 29.4262C39.2114 29.0037 39.2498 28.582 39.2795 28.1609L35.3498 29.1868ZM30.1667 42.8931C29.7876 43.5041 29.3774 44.0956 28.9378 44.6652C29.4945 44.6552 30.0594 44.617 30.6202 44.5526L30.7437 44.5385C31.7772 43.8527 32.7372 43.0635 33.6086 42.1831C32.5799 42.5218 31.5177 42.7504 30.44 42.865L30.1667 42.8931ZM24.1678 41.7325C24.1435 41.5213 24.4836 41.0104 25.5222 40.4713C26.6342 39.9263 27.8236 39.5539 29.0491 39.367C29.1605 38.8038 29.2637 38.2144 29.3589 37.6029C27.5894 37.8463 25.9596 38.325 24.7266 38.9667C22.5946 40.079 22.3982 41.296 22.4691 41.9236C22.6594 43.5951 24.842 44.454 27.4962 44.6351L27.5327 44.5566C27.7459 44.0712 27.9484 43.5422 28.1401 42.9696C25.6052 42.8971 24.2245 42.1609 24.1759 41.7325H24.1678Z" fill="#51C1B1"/>
<path d="M29.6243 12.1756C29.8268 13.7466 29.9908 15.7279 30.1021 17.9003L22.2263 17.8742L20.062 19.6624C20.1228 17.7756 20.1997 16.1785 20.1997 16.1785C20.1997 16.1785 23.5282 14 29.6243 12.1756ZM36.6821 10.2466C34.3781 10.5704 33.0824 11.0814 33.0824 11.0814C33.6308 13.337 34.0586 15.6199 34.3639 17.9204H36.8623L39.0428 20.5937C38.6215 17.0723 37.8302 13.6043 36.6821 10.2466ZM11.012 23.1483L13.9699 24.6891L15.5107 23.4178C15.5714 21.7684 15.6909 20.2658 15.8083 18.9926L15.8387 18.6506C14.1578 19.73 12.5661 20.9407 11.0788 22.2713C11.0788 22.2713 11.0504 22.6072 11.012 23.1483Z" fill="#B2479A"/>
<path d="M19.9889 23.792C19.9889 22.6112 20.0172 21.0563 20.0617 19.6624L22.2261 17.8741L30.1018 17.9003C30.2253 20.2638 30.282 22.8526 30.2375 25.3851C30.2091 28.2012 30.0917 30.8161 29.8913 33.1655L26.247 33.9701C26.0789 34.0104 26.089 33.8152 26.1113 33.7167C26.745 31.0897 28.3586 28.1831 28.9701 26.1977C30.0775 22.4 27.9476 21.169 26.1882 20.8572C23.1857 20.4328 21.1004 23.1805 19.999 25.4132C19.9909 24.8902 19.9889 24.3491 19.9889 23.792ZM36.5907 23.5787C36.3984 23.4279 35.6736 24.0494 34.8091 25.3629C34.7983 26.0482 34.774 26.7153 34.7362 27.3644C35.1411 26.6141 35.6068 25.7672 35.951 25.204C36.5705 24.1581 36.7284 23.6874 36.5968 23.5787H36.5907ZM16.2413 33.6101C16.1765 33.2902 16.1137 32.9684 16.057 32.6405C15.4901 29.4362 15.4152 26.2158 15.5165 23.4178L13.9697 24.6891L11.0056 23.1483C10.9509 23.9127 10.8882 25.1055 10.9084 26.419C10.9282 28.1167 11.0826 29.8103 11.37 31.4839C11.6192 31.6521 11.8827 31.7981 12.1576 31.9204C12.4648 32.057 12.8032 32.1091 13.1375 32.0713C13.8887 31.9204 13.9616 31.4819 13.7449 31.2667C13.2955 30.802 12.0969 30.3776 11.775 29.6092C11.6553 29.2756 11.6323 28.9153 11.7086 28.5693C11.7848 28.2233 11.9572 27.9055 12.2062 27.652C12.8136 27.0606 14.0385 26.9118 15.0407 27.8934C15.2877 28.1468 14.5588 29.1104 14.2653 28.8991C13.502 28.3158 13.2165 28.6135 13.1436 28.7141C13.0897 28.8175 13.0738 28.9363 13.0986 29.0501C13.1233 29.1639 13.1872 29.2656 13.2793 29.3377C13.8401 29.752 14.7815 30.0859 15.15 30.9187C15.3525 31.4014 15.4861 32.2302 14.5568 32.9724C13.6923 33.5899 12.5625 33.3405 11.6575 32.9342C11.7871 33.4854 11.9329 34.0224 12.0928 34.5434C12.2872 35.1696 12.5032 35.7731 12.7407 36.3537C13.5364 35.6256 15.4598 33.8695 15.6703 33.6966C15.7527 33.6402 15.8469 33.6032 15.9458 33.5882C16.0447 33.5732 16.1457 33.5807 16.2413 33.6101ZM39.0426 20.5957L36.8621 17.9224H34.3637C34.6 19.7123 34.7453 21.5128 34.799 23.3172C35.5582 22.5428 36.6333 21.7241 37.518 22.1566C38.338 22.5851 38.4676 23.4379 37.7752 24.8359L35.3294 29.1667C35.3193 29.1848 35.3294 29.1908 35.3497 29.1868L39.2774 28.1609C39.4368 25.6374 39.3582 23.1046 39.0426 20.5957ZM15.6298 35.5592L14.2491 36.7822C14.654 36.9833 15.4011 37.3313 15.4011 37.3313L15.6298 35.5592ZM24.1758 41.7325C24.2244 42.1609 25.6052 42.8971 28.142 42.9695C28.5225 41.7888 28.8281 40.5856 29.0571 39.367C27.8316 39.5538 26.6422 39.9263 25.5302 40.4713C24.4977 41.0104 24.1515 41.5213 24.1758 41.7325ZM16.7576 35.7704L16.3202 40.1957C16.2878 40.6181 15.0913 40.4974 15.1338 40.1193C15.1338 40.1193 15.235 39.2081 15.3504 38.2486C15.148 38.4859 14.8321 38.3512 14.6783 38.2848C14.5689 38.2385 13.8401 37.8825 13.3198 37.6331C14.0394 39.1423 14.9556 40.5511 16.0449 41.823C19.0049 45.2566 22.0884 46.2101 22.218 46.2483L22.8537 46.4394L22.384 45.9747C19.8006 43.4201 17.9156 39.9945 16.7576 35.7704ZM34.1693 32.2121L36.5361 31.6831C37.5869 31.4638 36.1312 33.1836 36.4855 33.423C37.02 33.7549 37.3702 34.3141 36.2223 34.5635L33.4992 35.167C33.2764 35.9716 33.0369 36.7339 32.7804 37.454C33.5695 37.4919 34.3529 37.6078 35.1189 37.8C35.5979 37.919 36.0613 38.0931 36.4996 38.319C38.0343 35.5612 38.8381 32.4977 39.1742 29.4362L34.4264 30.6431C34.3441 31.1768 34.2557 31.6998 34.1612 32.2121H34.1693ZM32.1305 39.1256C31.5768 40.4309 30.9201 41.6906 30.1666 42.8931L30.4278 42.865C31.5095 42.7513 32.5758 42.5227 33.6085 42.1831C34.3416 41.4378 35.0076 40.6301 35.5987 39.7693C35.3036 39.631 34.9958 39.5212 34.6795 39.4414C33.8427 39.2361 32.9843 39.1301 32.1224 39.1256H32.1305ZM22.4731 41.9236C22.4022 41.296 22.5986 40.079 24.7305 38.9667C25.9635 38.325 27.5933 37.8463 29.3629 37.6029C29.4411 37.092 29.5154 36.5649 29.5856 36.0218L24.0523 37.2408C22.9144 37.4802 22.1876 35.2293 26.3077 26.1313C26.6559 25.2262 26.8847 24.0092 26.0506 23.4842C25.184 22.9874 24.026 23.5948 23.2789 24.5563C21.8191 26.5175 21.319 28.4828 21.1915 28.7805C21.0113 29.1828 20.5153 28.8951 20.0617 28.4828C20.3796 37.4218 21.6207 42.1308 22.6937 44.5747C23.6939 46.6948 25.0605 46.9181 25.1233 46.9262C25.1861 46.9342 26.5122 46.7009 27.5103 44.6491C24.85 44.454 22.6755 43.5951 22.4731 41.9236ZM28.9519 44.6652C28.5098 45.2585 28.0166 45.8124 27.4779 46.3207C28.6242 45.8271 29.7227 45.2305 30.7598 44.5385L30.6343 44.5526C30.0674 44.617 29.5026 44.6552 28.9519 44.6652Z" fill="#161C4B"/>
<path d="M152.796 21.4204V35.5652H149.589V21.4204H152.796Z" fill="#34E834"/>
<path d="M138.559 30.7758V35.3579H135.352V30.7758H138.559Z" fill="black"/>
<path d="M143.372 25.4052V35.5652H140.165V25.4052H143.372Z" fill="black"/>
<path d="M147.984 28.5913V35.5652H144.777V28.5913H147.984Z" fill="black"/>
<path d="M167.234 30.2186C166.916 33.7146 164.729 36.0922 160.797 36.0922C156.613 36.0922 153.853 33.0991 153.853 28.5632C153.853 24.3913 156.517 21.0684 160.923 21.0684C164.379 21.0684 166.9 23.2408 167.139 26.2017H164.049C163.731 24.6267 162.559 23.6974 160.862 23.6974C158.105 23.6974 157.026 26.1695 157.026 28.5632C157.026 31.5241 158.5 33.4149 160.816 33.4149C162.717 33.4149 163.853 32.2804 164.112 30.1865H167.234V30.2186Z" fill="#34E834"/>
<path d="M170.042 35.366V21.2212H174.103L177.496 30.9367L180.811 21.2212H185.283V35.366H182.275V25.3085L178.687 35.366H176.612L173.05 25.4172V35.366H170.042Z" fill="black"/>
<path d="M196.311 35.5652V28.2856C196.311 25.5097 193.993 25.0209 191.966 25.0068H191.904C188.986 25.0068 187.389 26.1514 187.237 28.3922H189.505C189.707 27.2155 190.264 26.8071 191.602 26.8071C192.892 26.8071 193.505 27.2476 193.505 28.189C193.505 29.0218 192.829 29.1948 190.989 29.4281L190.537 29.4925C188.537 29.758 186.285 30.1824 186.285 32.741C186.285 34.6861 187.721 35.8629 190.061 35.8629C191.336 35.8922 192.571 35.4251 193.503 34.5614V35.5672L196.311 35.5652ZM193.503 30.5063V31.6548C193.503 33.1292 192.473 33.9379 191.003 33.9379C190.035 33.9379 189.456 33.4249 189.456 32.5721C189.456 31.3129 190.551 31.2042 191.519 31.0494C192.222 30.9247 192.847 30.8784 193.503 30.5063Z" fill="black"/>
<path d="M199.921 35.5653V29.1909C199.92 29.033 199.95 28.8763 200.009 28.7299C200.069 28.5836 200.157 28.4504 200.269 28.3382C200.381 28.226 200.514 28.1369 200.661 28.0761C200.807 28.0153 200.965 27.984 201.124 27.984H203.732V25.2061H201.142C200.079 25.2008 199.058 25.615 198.302 26.3577C197.547 27.1004 197.119 28.1108 197.113 29.1667V35.5653H199.921Z" fill="black"/>
<path d="M227.393 21.4204V25.206H230.604V27.994H227.398V31.5805C227.398 31.8974 227.524 32.2013 227.75 32.4253C227.975 32.6494 228.281 32.7753 228.6 32.7753H230.604V35.5652H228.618C227.556 35.5711 226.536 35.1579 225.78 34.4164C225.025 33.6749 224.596 32.6657 224.589 31.6106V21.4204H227.393Z" fill="black"/>
<path d="M214.158 25.22L210.253 28.9775L214.61 35.366H211.117L208.283 30.818L207.127 31.8881V35.366H204.321V21.2212H207.127V28.8548L210.795 25.206H214.146L214.158 25.22Z" fill="black"/>
<path d="M223.632 32.1839H221C220.595 33.1897 219.987 33.6362 218.959 33.6362C217.483 33.6362 216.645 32.715 216.614 30.9891H223.788V30.7175C223.788 27.2216 221.868 25.0129 218.837 25.0129C215.928 25.0129 213.812 27.2517 213.812 30.3535C213.812 33.4552 215.853 35.5733 218.928 35.5733C221.21 35.5673 223.006 34.3422 223.632 32.1839ZM220.951 29.1968H216.45C216.608 27.7687 217.483 26.8977 218.732 26.8977C220.17 26.8776 220.842 27.9316 220.951 29.1908V29.1968Z" fill="black"/>
<path d="M240.322 28.1931H237.66C237.5 27.1069 236.836 26.7609 235.678 26.7609C234.666 26.7609 234.058 27.1391 234.058 27.7848C234.058 28.525 234.724 28.7302 235.961 28.9916L236.927 29.1928C238.719 29.571 240.638 30.1221 240.638 32.3428C240.638 34.5152 238.847 35.8689 235.866 35.8689C233.267 35.8689 231.007 34.8451 230.983 32.1839H233.71C233.805 33.429 234.613 33.9178 235.937 33.9178C237.111 33.9178 237.84 33.4129 237.84 32.6264C237.84 31.7756 237.047 31.5865 235.635 31.2707L235.382 31.2083C233.544 30.806 231.214 30.4842 231.214 28.0583C231.214 26.0267 232.862 24.8761 235.779 24.8761C238.174 24.8701 240.235 25.7692 240.322 28.1931Z" fill="black"/>
</svg>
