<?xml version="1.0" encoding="utf-8"?>
<!-- Generator: Adobe Illustrator 25.2.3, SVG Export Plug-In . SVG Version: 6.00 Build 0)  -->
<svg version="1.1" id="Layer_1" xmlns="http://www.w3.org/2000/svg" xmlns:xlink="http://www.w3.org/1999/xlink" x="0px" y="0px"
	 viewBox="0 0 172 43" style="enable-background:new 0 0 172 43;" xml:space="preserve">
<style type="text/css">
	.st0{fill:#34E834;}
	.st1{fill:#FFFFFF;}
	.st2{display:none;}
	.st3{display:inline;}
</style>
<rect width="173.2" height="43"/>
<g>
	<path class="st0" d="M29.8,10v22.8h-5V10C24.8,10,29.8,10,29.8,10z"/>
	<path class="st1" d="M7.1,25.2v7.4H2.1v-7.4C2.1,25.2,7.1,25.2,7.1,25.2z"/>
	<path class="st1" d="M14.6,16.4v16.2h-5V16.4H14.6z"/>
	<path class="st1" d="M22,21.5v11.3h-5V21.5H22z"/>
	<path class="st0" d="M52.7,24.1c-0.5,5.6-3.9,9.3-10.1,9.3c-6.6,0-11-4.8-11-11.9c0-6.6,4.2-11.9,11.1-11.9c5.5,0,9.4,3.4,9.8,8.2
		h-4.8c-0.5-2.5-2.4-3.9-5.1-3.9c-4.3,0-6,3.9-6,7.8c0,4.7,2.3,7.7,6,7.7c3,0,4.8-1.8,5.2-5.1h4.9V24.1z"/>
	<path class="st1" d="M57.4,32.6V9.8h7l5.3,15.6l5.2-15.6h6.9v22.8h-4.7V16.4l-5.6,16.1h-3.8l-5.6-15.9v15.9H57.4z"/>
	<path class="st1" d="M99.1,32.7c0-1.8,0-3.1,0-4v-7.6c0-4.6-3.7-5.4-7-5.4h-0.1c-4.8,0-7.3,1.9-7.6,5.6h4.2
		c0.3-1.9,1.1-2.5,3.2-2.5c2,0,3,0.7,3,2.2c0,1.3-1,1.6-3.9,2l-0.7,0.1c-3.1,0.4-6.5,1.1-6.5,5.2c0,3.1,2.2,5,5.9,5
		c2,0,3.9-0.6,5.3-2.1v1.6H99.1z M94.7,24.7v1.9c0,2.4-1.7,3.6-4,3.6c-1.6,0-2.5-0.8-2.5-2.2c0-2,1.8-2.2,3.3-2.5
		C92.7,25.3,93.7,25.3,94.7,24.7z"/>
	<path class="st1" d="M105.1,32.7V22.4c0-1,0.8-2,2-2h4.1V16H107c-3.5,0-6.3,2.9-6.3,6.4v10.2C100.7,32.7,105.1,32.7,105.1,32.7z"/>
	<path class="st1" d="M148.9,9.9V16h5v4.4h-5v5.8c0,1,0.8,2,2,2h3.1v4.4h-3.1c-3.5,0-6.3-2.9-6.3-6.4V9.9H148.9z"/>
	<path class="st1" d="M127.7,16.1l-6.2,6.1l6.9,10.3H123l-4.6-7.3l-1.9,1.8v5.6h-4.4V9.8h4.4V22l5.8-5.9H127.7z"/>
	<path class="st1" d="M142.9,27.5h-4.3c-0.6,1.7-1.7,2.4-3.3,2.4c-2.4,0-3.8-1.6-3.8-4.3h11.8v-0.4c0-5.8-3.1-9.4-8.1-9.4
		c-4.8,0-8.3,3.7-8.3,8.8c0,5.2,3.3,8.6,8.4,8.6C139,33.1,141.9,31,142.9,27.5z M138.6,22.6h-7.1c0.2-2.3,1.7-3.7,3.6-3.7
		C137.4,18.9,138.5,20.7,138.6,22.6z"/>
	<path class="st1" d="M169.4,20.9h-4.2c-0.2-1.8-1.3-2.3-3.1-2.3c-1.6,0-2.6,0.6-2.6,1.7c0,1.1,1,1.4,3,1.9l1.6,0.3
		c2.8,0.6,5.9,1.4,5.9,5c0,3.4-2.8,5.6-7.4,5.6c-4.1,0-7.7-1.7-7.7-5.8h4.2c0.2,2,1.4,2.8,3.5,2.8c1.9,0,3-0.8,3-2.1
		c0-1.3-1.2-1.7-3.5-2.2l-0.4-0.1c-2.9-0.6-6.5-1.1-6.5-5c0-3.2,2.6-5.1,7.1-5.1C166.1,15.7,169.3,17.1,169.4,20.9z"/>
</g>
<g id="Layer_1_copy" class="st2">
	<g class="st3">
		<path class="st0" d="M29,9.8v23h-5v-23C24,9.8,29,9.8,29,9.8z"/>
		<path d="M6.1,25.3v7.6H1v-7.6C1,25.3,6.1,25.3,6.1,25.3z"/>
		<path d="M13.6,16.4v16.4h-5V16.4H13.6z"/>
		<path d="M21.2,21.5v11.4h-5.1V21.5H21.2z"/>
		<path class="st0" d="M52.3,24.1c-0.5,5.6-4,9.4-10.3,9.4c-6.7,0-11.1-4.8-11.1-12.1c0-6.7,4.2-12,11.3-12c5.5,0,9.5,3.5,9.9,8.2
			h-4.9c-0.5-2.5-2.4-4-5.1-4c-4.4,0-6.1,4-6.1,7.8c0,4.7,2.3,7.8,6,7.8c3,0,4.8-1.8,5.2-5.2h5.1V24.1z"/>
		<path d="M57,32.7v-23h7.2l5.3,15.8l5.2-15.8h7v23H77V16.4l-5.6,16.3h-3.9l-5.7-16.2v16.2C61.8,32.7,57,32.7,57,32.7z"/>
		<path d="M99.2,32.8c0-1.8,0-3.1,0-4.1V21c0-4.6-3.8-5.4-7.1-5.4H92c-4.8,0-7.4,1.9-7.7,5.6h4.3c0.3-1.9,1.2-2.6,3.3-2.6
			c2,0,3,0.7,3,2.2c0,1.3-1.1,1.6-3.9,2L90.2,23c-3.1,0.4-6.6,1.1-6.6,5.2c0,3.1,2.3,5,5.9,5c2,0,4-0.7,5.4-2.1v1.6L99.2,32.8
			L99.2,32.8z M94.8,24.7v1.9c0,2.4-1.7,3.7-4.1,3.7c-1.6,0-2.5-0.8-2.5-2.2c0-2,1.8-2.2,3.3-2.5C92.7,25.4,93.7,25.3,94.8,24.7z"/>
		<path d="M105.3,32.8V22.4c0-1.1,0.9-2,1.9-2h4.2V16h-4.2c-3.5,0-6.4,2.9-6.4,6.5v10.4h4.5V32.8z"/>
		<path d="M149.6,9.8V16h5v4.5h-5v5.9c0,1.1,0.9,2,1.9,2h3.1v4.5h-3.1c-3.5,0-6.4-2.9-6.4-6.5V9.8H149.6z"/>
		<path d="M128.2,16.1l-6.2,6.2l7,10.5h-5.5l-4.6-7.4l-1.9,1.7v5.7h-4.5v-23h4.5V22l5.9-6h5.3V16.1z"/>
		<path d="M143.6,27.6h-4.4c-0.7,1.7-1.7,2.4-3.4,2.4c-2.4,0-3.8-1.6-3.9-4.4h11.9v-0.5c0-5.8-3.2-9.5-8.2-9.5
			c-4.8,0-8.3,3.7-8.3,8.9s3.4,8.7,8.5,8.7C139.6,33.2,142.6,31.2,143.6,27.6z M139.3,22.7H132c0.3-2.3,1.7-3.7,3.7-3.7
			C138,18.9,139.1,20.6,139.3,22.7z"/>
		<path d="M170.5,20.9h-4.2c-0.3-1.7-1.3-2.3-3.2-2.3c-1.6,0-2.6,0.6-2.6,1.6c0,1.2,1.1,1.5,3,1.9l1.6,0.3c2.9,0.6,5.9,1.5,5.9,5.1
			c0,3.5-2.9,5.7-7.6,5.7c-4.1,0-7.7-1.6-7.8-5.9h4.3c0.2,2,1.4,2.8,3.5,2.8c1.9,0,3-0.8,3-2.1c0-1.4-1.3-1.7-3.5-2.2l-0.4-0.1
			c-2.9-0.7-6.6-1.2-6.6-5.1c0-3.3,2.6-5.1,7.3-5.1C167,15.6,170.3,17,170.5,20.9z"/>
	</g>
</g>
</svg>
