<?xml version="1.0" encoding="utf-8"?>
<!-- Generator: Adobe Illustrator 25.2.3, SVG Export Plug-In . SVG Version: 6.00 Build 0)  -->
<svg version="1.1" id="Layer_1" xmlns="http://www.w3.org/2000/svg" xmlns:xlink="http://www.w3.org/1999/xlink" x="0px" y="0px"
	 viewBox="0 0 140 35" style="enable-background:new 0 0 140 35;" xml:space="preserve">
<style type="text/css">
	.st0{fill:#999999;}
	.st1{fill:#FFFFFF;}
</style>
<g>
	<path class="st0" d="M24.8,8.3v18.3h-4V8.3C20.8,8.3,24.8,8.3,24.8,8.3z"/>
	<path class="st1" d="M6.5,20.5v6H2.5v-6C2.5,20.5,6.5,20.5,6.5,20.5z"/>
	<path class="st1" d="M12.5,13.4v13.1h-4V13.4H12.5z"/>
	<path class="st1" d="M18.5,17.5v9.1h-4v-9.1H18.5z"/>
	<path class="st0" d="M43.2,19.6c-0.4,4.5-3.2,7.5-8.2,7.5c-5.3,0-8.8-3.8-8.8-9.6c0-5.3,3.4-9.6,8.9-9.6c4.4,0,7.6,2.7,7.9,6.6
		h-3.8c-0.4-2-1.9-3.2-4.1-3.2c-3.5,0-4.8,3.2-4.8,6.2c0,3.7,1.8,6.2,4.8,6.2c2.4,0,3.8-1.4,4.2-4.1L43.2,19.6L43.2,19.6z"/>
	<path class="st1" d="M47,26.4V8.1h5.7l4.2,12.6l4.2-12.6h5.6v18.3h-3.7v-13l-4.5,13h-3.1l-4.5-12.8v12.8H47z"/>
	<path class="st1" d="M80.5,26.5c0-1.4,0-2.5,0-3.2v-6.1c0-3.7-3-4.3-5.7-4.3h-0.1c-3.8,0-5.9,1.5-6.1,4.5h3.4c0.2-1.5,0.9-2,2.6-2
		c1.6,0,2.4,0.6,2.4,1.7c0,1.1-0.8,1.2-3.2,1.6l-0.6,0.1c-2.5,0.3-5.2,0.9-5.2,4.2c0,2.5,1.7,4,4.7,4c1.6,0,3.2-0.5,4.2-1.7v1.2
		H80.5z M77,20.1v1.5c0,1.9-1.3,2.9-3.2,2.9c-1.2,0-2-0.7-2-1.7c0-1.6,1.4-1.7,2.7-2C75.4,20.6,76.2,20.6,77,20.1z"/>
	<path class="st1" d="M85.4,26.5v-8.2c0-0.8,0.7-1.6,1.6-1.6h3.3v-3.6h-3.3c-2.8,0-5.1,2.3-5.1,5.2v8.2
		C81.9,26.5,85.4,26.5,85.4,26.5z"/>
	<path class="st1" d="M120.6,8.2v4.9h4v3.6h-4v4.7c0,0.8,0.7,1.6,1.6,1.6h2.5v3.6h-2.5c-2.8,0-5.1-2.3-5.1-5.2V8.2H120.6z"/>
	<path class="st1" d="M103.6,13.2l-5,4.9l5.6,8.3h-4.4l-3.7-5.9l-1.5,1.4v4.5H91V8.1h3.6v9.8l4.7-4.7H103.6z"/>
	<path class="st1" d="M115.8,22.3h-3.5c-0.5,1.3-1.3,1.9-2.7,1.9c-1.9,0-3.1-1.2-3.1-3.5h9.5v-0.3c0-4.7-2.5-7.6-6.5-7.6
		c-3.8,0-6.7,3-6.7,7.1c0,4.2,2.7,6.9,6.7,6.9C112.7,26.8,115,25.2,115.8,22.3z M112.3,18.4h-5.7c0.2-1.8,1.3-3,2.9-3
		C111.3,15.4,112.2,16.8,112.3,18.4z"/>
	<path class="st1" d="M137.1,17h-3.4c-0.2-1.4-1.1-1.8-2.5-1.8c-1.2,0-2.1,0.5-2.1,1.3c0,0.9,0.8,1.2,2.4,1.5l1.2,0.2
		c2.2,0.5,4.7,1.2,4.7,4c0,2.7-2.2,4.5-6,4.5c-3.3,0-6.2-1.3-6.2-4.7h3.4c0.2,1.6,1.2,2.2,2.8,2.2c1.5,0,2.4-0.7,2.4-1.7
		c0-1.1-1-1.3-2.8-1.7l-0.3-0.1c-2.3-0.5-5.2-0.9-5.2-4c0-2.6,2.1-4.1,5.7-4.1C134.5,12.8,137,13.9,137.1,17z"/>
</g>
</svg>
