<?xml version="1.0" encoding="UTF-8"?>
<svg width="40px" height="40px" viewBox="0 0 40 40" version="1.1" xmlns="http://www.w3.org/2000/svg" xmlns:xlink="http://www.w3.org/1999/xlink">
    <!-- Generator: Sketch 45.2 (43514) - http://www.bohemiancoding.com/sketch -->
    <title>Device--Mac</title>
    <desc>Created with Sketch.</desc>
    <defs></defs>
    <g id="Templates" stroke="none" stroke-width="1" fill="none" fill-rule="evenodd">
        <g id="ICM-landing-page-v3-4" transform="translate(-1001.000000, -7068.000000)" fill-rule="nonzero">
            <g id="Group-193" transform="translate(506.000000, 6718.000000)">
                <g id="Group-192" transform="translate(472.000000, 0.000000)">
                    <g id="Group-122" transform="translate(0.000000, 253.000000)">
                        <g id="Group-121" transform="translate(24.000000, 24.000000)">
                            <g id="Device--Mac" transform="translate(0.000000, 74.000000)">
                                <path d="M19,0 L19,0 C3.21167626,0 0,3.21167626 0,19 C0,34.7883237 3.21167626,38 19,38 C34.7883237,38 38,34.7883237 38,19 C38,3.21167626 34.7883237,0 19,0 L19,0 Z" id="Shape" stroke="#34E834" stroke-width="2"></path>
                                <path d="M25.1946629,22.4688577 C24.9526949,23.0278532 24.6662838,23.5424055 24.334442,24.0154776 C23.88211,24.6603964 23.5117508,25.1068027 23.2263274,25.3546964 C22.7838716,25.7615977 22.3098119,25.9699865 21.8021729,25.981838 C21.4377395,25.981838 20.9982466,25.8781374 20.4866571,25.6677734 C19.9733886,25.458397 19.5016992,25.3546964 19.0704036,25.3546964 C18.6180716,25.3546964 18.1329504,25.458397 17.6140525,25.6677734 C17.0943645,25.8781374 16.6757105,25.9877637 16.3556214,25.9986276 C15.8688213,26.0193677 15.3836014,25.8050532 14.8992704,25.3546964 C14.5901439,25.0850749 14.203489,24.6228667 13.7402931,23.9680717 C13.2433204,23.2688335 12.8347402,22.4579938 12.5146511,21.5335773 C12.1718467,20.535089 12,19.5682046 12,18.6321342 C12,17.5598703 12.2316967,16.6350587 12.6957814,15.8600698 C13.0605112,15.2375701 13.5457311,14.7465232 14.1530213,14.3860403 C14.7603116,14.0255573 15.4164893,13.8418592 16.1231346,13.8301065 C16.5097896,13.8301065 17.016836,13.9497078 17.6469404,14.1847624 C18.2752671,14.4206071 18.6787117,14.5402085 18.8555953,14.5402085 C18.9878382,14.5402085 19.4360222,14.4003608 20.1958017,14.1215544 C20.9142985,13.8629944 21.5206999,13.7559359 22.017475,13.7981074 C23.3636072,13.9067461 24.3749346,14.4373968 25.0475069,15.3934172 C23.8435927,16.1228767 23.2480551,17.1445742 23.2599066,18.4552506 C23.2707705,19.476158 23.6411296,20.3257126 24.3690089,21.0002601 C24.6988755,21.3133371 25.0672594,21.5553051 25.4771235,21.7271517 C25.3882373,21.9849217 25.294413,22.2318278 25.1946629,22.4688577 L25.1946629,22.4688577 Z M22.1073488,10.3200891 C22.1073488,11.1202723 21.815012,11.8674004 21.2323136,12.558935 C20.5291249,13.3810336 19.6785827,13.856081 18.7562402,13.7811203 C18.7444875,13.6851232 18.7376729,13.5840892 18.7376729,13.4779196 C18.7376729,12.7097453 19.0720826,11.8876467 19.6659411,11.2154694 C19.962426,10.875134 20.339501,10.59215 20.7967712,10.3664087 C21.2530537,10.1440352 21.6846456,10.0210562 22.0905592,10 C22.1024107,10.1069696 22.1073488,10.2139491 22.1073488,10.3200792 L22.1073488,10.3200891 Z" id="Shape" fill="#34E834"></path>
                            </g>
                        </g>
                    </g>
                </g>
            </g>
        </g>
    </g>
</svg>