<?xml version="1.0" encoding="UTF-8"?>
<svg width="40px" height="40px" viewBox="0 0 40 40" version="1.1" xmlns="http://www.w3.org/2000/svg" xmlns:xlink="http://www.w3.org/1999/xlink">
    <!-- Generator: Sketch 45.2 (43514) - http://www.bohemiancoding.com/sketch -->
    <title>Device--Android</title>
    <desc>Created with Sketch.</desc>
    <defs></defs>
    <g id="Templates" stroke="none" stroke-width="1" fill="none" fill-rule="evenodd">
        <g id="ICM-landing-page-v3-4" transform="translate(-1001.000000, -7143.000000)" fill-rule="nonzero">
            <g id="Group-193" transform="translate(506.000000, 6718.000000)">
                <g id="Group-192" transform="translate(472.000000, 0.000000)">
                    <g id="Group-122" transform="translate(0.000000, 253.000000)">
                        <g id="Group-121" transform="translate(24.000000, 24.000000)">
                            <g id="Device--Android" transform="translate(0.000000, 149.000000)">
                                <path d="M19,0 L19,0 C3.21167626,0 0,3.21167626 0,19 C0,34.7883237 3.21167626,38 19,38 C34.7883237,38 38,34.7883237 38,19 C38,3.21167626 34.7883237,0 19,0 L19,0 Z" id="Shape" stroke="#34E834" stroke-width="2"></path>
                                <g id="android" transform="translate(11.000000, 10.000000)" fill="#34E834">
                                    <path d="M1.12984116,5.8204657 C0.820234657,5.8204657 0.557545126,5.92843321 0.341610108,6.14436823 C0.12567509,6.36030325 0.0176750903,6.61941877 0.0176750903,6.92184477 L0.0176750903,11.5652599 C0.0176750903,11.8752563 0.125642599,12.1377184 0.341610108,12.3536859 C0.557545126,12.5696209 0.820234657,12.6776209 1.12984116,12.6776209 C1.43922022,12.6776209 1.70031769,12.5696534 1.91290614,12.3536859 C2.1250722,12.1377509 2.23144765,11.8752563 2.23144765,11.5652599 L2.23144765,6.92184477 C2.23144765,6.61938628 2.12348014,6.36030325 1.90751264,6.14436823 C1.69154513,5.92843321 1.43226715,5.8204657 1.12984116,5.8204657 Z" id="Shape"></path>
                                    <path d="M10.0712924,1.65206859 L10.8380144,0.23767148 C10.888343,0.144032491 10.8704404,0.0722274367 10.7841444,0.021736462 C10.6904729,-0.0218014441 10.6185054,0.000259927717 10.5682094,0.0863610107 L9.79076534,1.51206498 C9.10666787,1.2096065 8.38312635,1.05810108 7.62014079,1.05810108 C6.85699278,1.05810108 6.13338628,1.20963899 5.44954874,1.51206498 L4.6720722,0.0863610107 C4.62154874,0.000259927717 4.54958123,-0.0216064983 4.45613718,0.021736462 C4.36964621,0.0724548736 4.35174368,0.144032491 4.40226715,0.23767148 L5.16902166,1.65206859 C4.39154513,2.04855596 3.77233213,2.60074007 3.31161011,3.3098231 C2.85088809,4.01929603 2.6204296,4.79459567 2.6204296,5.63708664 L12.609,5.63708664 C12.609,4.79479061 12.378509,4.01945848 11.9178195,3.3098231 C11.457065,2.60074007 10.841426,2.04855596 10.0712924,1.65206859 Z M5.63845126,3.70933213 C5.5555343,3.79244404 5.45650181,3.83380505 5.34138628,3.83380505 C5.22604332,3.83380505 5.12902527,3.79244404 5.04987726,3.70933213 C4.97072924,3.62661011 4.93115523,3.52796751 4.93115523,3.41246209 C4.93115523,3.29734657 4.97072924,3.19850903 5.04987726,3.11559206 C5.12902527,3.03287004 5.22627076,2.99150903 5.34138628,2.99150903 C5.45650181,2.99150903 5.5555343,3.03287004 5.63845126,3.11559206 C5.72117329,3.19870397 5.76272924,3.29734657 5.76272924,3.41246209 C5.76250181,3.52777256 5.72097834,3.62661011 5.63845126,3.70933213 Z M10.1899819,3.70933213 C10.1106715,3.79244404 10.013426,3.83380505 9.89850542,3.83380505 C9.78312996,3.83380505 9.68412996,3.79244404 9.60137545,3.70933213 C9.51849097,3.62661011 9.47712996,3.52796751 9.47712996,3.41246209 C9.47712996,3.29734657 9.51849097,3.19850903 9.60137545,3.11559206 C9.68412996,3.03287004 9.78312996,2.99150903 9.89850542,2.99150903 C10.0136209,2.99150903 10.110639,3.03287004 10.1899819,3.11559206 C10.2691949,3.19870397 10.308704,3.29734657 10.308704,3.41246209 C10.308704,3.52777256 10.2691625,3.62661011 10.1899819,3.70933213 Z" id="Shape"></path>
                                    <path d="M2.66331769,13.2174585 C2.66331769,13.5489314 2.77843321,13.8295235 3.00869675,14.059787 C3.23915523,14.2900505 3.51974729,14.4051661 3.85099278,14.4051661 L4.65014079,14.4051661 L4.66109025,16.8567401 C4.66109025,17.1663141 4.76905776,17.4291986 4.98499278,17.6451661 C5.2009278,17.8611336 5.46023827,17.9691011 5.76246931,17.9691011 C6.07188087,17.9691011 6.33473285,17.8611336 6.55070036,17.6451661 C6.76666787,17.4291986 6.87463538,17.1663466 6.87463538,16.8567401 L6.87463538,14.4053935 L8.36480144,14.4053935 L8.36480144,16.8567401 C8.36480144,17.1663141 8.47273646,17.4291986 8.68870397,17.6451661 C8.90467148,17.8611336 9.16729603,17.9691011 9.47693502,17.9691011 C9.78634657,17.9691011 10.0491986,17.8611336 10.2651661,17.6451661 C10.4811336,17.4291986 10.5890686,17.1663466 10.5890686,16.8567401 L10.5890686,14.4053935 L11.3990036,14.4053935 C11.7229061,14.4053935 11.9998917,14.2902455 12.2305776,14.0599819 C12.4608087,13.8297184 12.5759892,13.5491264 12.5759892,13.2176859 L12.5759892,6.02545126 L2.66331769,6.02545126 L2.66331769,13.2174585 Z" id="Shape"></path>
                                    <path d="M14.1100181,5.8204657 C13.8075596,5.8204657 13.5484765,5.92684116 13.332509,6.13900722 C13.116574,6.35156318 13.0086065,6.61266065 13.0086065,6.92184477 L13.0086065,11.5652599 C13.0086065,11.8752563 13.1165415,12.1377184 13.332509,12.3536859 C13.5484765,12.5696534 13.8077545,12.6776209 14.1100181,12.6776209 C14.4194296,12.6776209 14.6822816,12.5696534 14.8982491,12.3536859 C15.1142166,12.1377184 15.2221516,11.8752563 15.2221516,11.5652599 L15.2221516,6.92184477 C15.2221516,6.61262816 15.1142166,6.35156318 14.8982491,6.13900722 C14.6822816,5.92684116 14.4194296,5.8204657 14.1100181,5.8204657 Z" id="Shape"></path>
                                </g>
                            </g>
                        </g>
                    </g>
                </g>
            </g>
        </g>
    </g>
</svg>