<?xml version="1.0" encoding="UTF-8"?>
<svg width="40px" height="40px" viewBox="0 0 40 40" version="1.1" xmlns="http://www.w3.org/2000/svg" xmlns:xlink="http://www.w3.org/1999/xlink">
    <!-- Generator: Sketch 45.2 (43514) - http://www.bohemiancoding.com/sketch -->
    <title>Device--Web-Browser</title>
    <desc>Created with Sketch.</desc>
    <defs></defs>
    <g id="Templates" stroke="none" stroke-width="1" fill="none" fill-rule="evenodd">
        <g id="ICM-landing-page-v3-4" transform="translate(-1217.000000, -6994.000000)" fill-rule="nonzero">
            <g id="Group-193" transform="translate(506.000000, 6718.000000)">
                <g id="Group-192" transform="translate(472.000000, 0.000000)">
                    <g id="Group-122" transform="translate(0.000000, 253.000000)">
                        <g id="Group-121" transform="translate(24.000000, 24.000000)">
                            <g id="Group-180" transform="translate(216.000000, 0.000000)">
                                <g id="Device--Web-Browser">
                                    <g id="Group-5">
                                        <path d="M19,0 L19,0 C3.21167626,0 0,3.21167626 0,19 C0,34.7883237 3.21167626,38 19,38 C34.7883237,38 38,34.7883237 38,19 C38,3.21167626 34.7883237,0 19,0 L19,0 Z" id="Shape" stroke="#34E834" stroke-width="2"></path>
                                        <path d="M28.2426966,11 L9.33033708,11 C8.61123596,11 8,11.5752809 8,12.3303371 L8,25.6696629 C8,26.388764 8.5752809,27 9.33033708,27 L28.2426966,27 C28.9617978,27 29.5730337,26.4247191 29.5730337,25.6696629 L29.5730337,12.294382 C29.5730337,11.5752809 28.9977528,11 28.2426966,11 Z M16.2696629,13.3011236 C16.2696629,13.7325843 15.9460674,14.0561798 15.5146067,14.0561798 C15.0831461,14.0561798 14.7595506,13.7325843 14.7595506,13.3011236 C14.7595506,12.8696629 15.0831461,12.5460674 15.5146067,12.5460674 C15.9460674,12.5460674 16.2696629,12.8696629 16.2696629,13.3011236 Z M13.788764,13.3011236 C13.788764,13.7325843 13.4651685,14.0561798 13.0337079,14.0561798 C12.6022472,14.0561798 12.2786517,13.7325843 12.2786517,13.3011236 C12.2786517,12.8696629 12.6022472,12.5460674 13.0337079,12.5460674 C13.4651685,12.5460674 13.788764,12.8696629 13.788764,13.3011236 Z M11.2719101,13.3011236 C11.2719101,13.7325843 10.9483146,14.0561798 10.5168539,14.0561798 C10.0853933,14.0561798 9.76179775,13.7325843 9.76179775,13.3011236 C9.76179775,12.8696629 10.0853933,12.5460674 10.5168539,12.5460674 C10.9483146,12.5460674 11.2719101,12.8696629 11.2719101,13.3011236 Z M9.36629213,25.6337079 L9.36629213,15.5662921 L28.2426966,15.5662921 L28.2426966,25.6337079 L9.36629213,25.6337079 Z" id="Shape" fill="#34E834"></path>
                                    </g>
                                </g>
                            </g>
                        </g>
                    </g>
                </g>
            </g>
        </g>
    </g>
</svg>