<?xml version="1.0" encoding="UTF-8"?>
<svg width="40px" height="40px" viewBox="0 0 40 40" version="1.1" xmlns="http://www.w3.org/2000/svg" xmlns:xlink="http://www.w3.org/1999/xlink">
    <!-- Generator: Sketch 46.1 (44463) - http://www.bohemiancoding.com/sketch -->
    <title>Market--Cryptocurrency</title>
    <desc>Created with Sketch.</desc>
    <defs></defs>
    <g id="Templates" stroke="none" stroke-width="1" fill="none" fill-rule="evenodd">
        <g id="Market--Cryptocurrency">
            <g id="Group-221" transform="translate(1.000000, 1.000000)">
                <path d="M19,0 L19,0 C3.21167626,0 0,3.21167626 0,19 C0,34.7883237 3.21167626,38 19,38 C34.7883237,38 38,34.7883237 38,19 C38,3.21167626 34.7883237,0 19,0 L19,0 Z" id="Shape" stroke="#34E834" stroke-width="2" fill-rule="nonzero"></path>
                <path d="M18.2734375,20.7421875 C18.1848954,21.966152 17.733077,22.929684 16.9179688,23.6328125 C16.1028605,24.335941 15.0286525,24.6875 13.6953125,24.6875 C12.2369719,24.6875 11.0898479,24.1966195 10.2539062,23.2148438 C9.41796457,22.233068 9,20.8854252 9,19.171875 L9,18.4765625 C9,17.382807 9.19270641,16.419275 9.578125,15.5859375 C9.96354359,14.7526 10.5143193,14.1132835 11.2304688,13.6679688 C11.9466182,13.222654 12.7786411,13 13.7265625,13 C15.0390691,13 16.0963502,13.351559 16.8984375,14.0546875 C17.7005248,14.757816 18.1640619,15.7447853 18.2890625,17.015625 L15.9453125,17.015625 C15.8880205,16.2812463 15.6835955,15.7486996 15.3320312,15.4179688 C14.980467,15.0872379 14.4453161,14.921875 13.7265625,14.921875 C12.9453086,14.921875 12.360679,15.2018201 11.9726562,15.7617188 C11.5846335,16.3216174 11.3854167,17.1900983 11.375,18.3671875 L11.375,19.2265625 C11.375,20.4557353 11.5611961,21.3541638 11.9335938,21.921875 C12.3059914,22.4895862 12.8932252,22.7734375 13.6953125,22.7734375 C14.4192745,22.7734375 14.9596336,22.6080746 15.3164062,22.2773438 C15.6731789,21.9466129 15.8776039,21.4348993 15.9296875,20.7421875 L18.2734375,20.7421875 Z M24.0234375,20.3671875 L22.15625,20.3671875 L22.15625,24.53125 L19.8125,24.53125 L19.8125,13.15625 L24.0390625,13.15625 C25.3828192,13.15625 26.4192672,13.4557262 27.1484375,14.0546875 C27.8776078,14.6536488 28.2421875,15.4999945 28.2421875,16.59375 C28.2421875,17.3697955 28.0742204,18.0169245 27.7382812,18.5351562 C27.4023421,19.053388 26.8932326,19.4661443 26.2109375,19.7734375 L28.671875,24.421875 L28.671875,24.53125 L26.15625,24.53125 L24.0234375,20.3671875 Z M22.15625,18.46875 L24.046875,18.46875 C24.6354196,18.46875 25.0911442,18.3190119 25.4140625,18.0195312 C25.7369808,17.7200506 25.8984375,17.3072943 25.8984375,16.78125 C25.8984375,16.244789 25.7460953,15.8229182 25.4414062,15.515625 C25.1367172,15.2083318 24.669274,15.0546875 24.0390625,15.0546875 L22.15625,15.0546875 L22.15625,18.46875 Z" id="CR" fill="#34E834"></path>
            </g>
        </g>
    </g>
</svg>