<?xml version="1.0" encoding="UTF-8"?>
<svg width="40px" height="40px" viewBox="0 0 40 40" version="1.1" xmlns="http://www.w3.org/2000/svg" xmlns:xlink="http://www.w3.org/1999/xlink">
    <!-- Generator: Sketch 46.1 (44463) - http://www.bohemiancoding.com/sketch -->
    <title>Market--Commodities</title>
    <desc>Created with Sketch.</desc>
    <defs></defs>
    <g id="Templates" stroke="none" stroke-width="1" fill="none" fill-rule="evenodd">
        <g id="Market--Commodities">
            <g id="Group-220" transform="translate(1.000000, 1.000000)">
                <path d="M19,0 L19,0 C3.21167626,0 0,3.21167626 0,19 C0,34.7883237 3.21167626,38 19,38 C34.7883237,38 38,34.7883237 38,19 C38,3.21167626 34.7883237,0 19,0 L19,0 Z" id="Shape" stroke="#34E834" stroke-width="2" fill-rule="nonzero"></path>
                <path d="M18.2734375,20.7421875 C18.1848954,21.966152 17.733077,22.929684 16.9179688,23.6328125 C16.1028605,24.335941 15.0286525,24.6875 13.6953125,24.6875 C12.2369719,24.6875 11.0898479,24.1966195 10.2539062,23.2148438 C9.41796457,22.233068 9,20.8854252 9,19.171875 L9,18.4765625 C9,17.382807 9.19270641,16.419275 9.578125,15.5859375 C9.96354359,14.7526 10.5143193,14.1132835 11.2304688,13.6679688 C11.9466182,13.222654 12.7786411,13 13.7265625,13 C15.0390691,13 16.0963502,13.351559 16.8984375,14.0546875 C17.7005248,14.757816 18.1640619,15.7447853 18.2890625,17.015625 L15.9453125,17.015625 C15.8880205,16.2812463 15.6835955,15.7486996 15.3320312,15.4179688 C14.980467,15.0872379 14.4453161,14.921875 13.7265625,14.921875 C12.9453086,14.921875 12.360679,15.2018201 11.9726562,15.7617188 C11.5846335,16.3216174 11.3854167,17.1900983 11.375,18.3671875 L11.375,19.2265625 C11.375,20.4557353 11.5611961,21.3541638 11.9335938,21.921875 C12.3059914,22.4895862 12.8932252,22.7734375 13.6953125,22.7734375 C14.4192745,22.7734375 14.9596336,22.6080746 15.3164062,22.2773438 C15.6731789,21.9466129 15.8776039,21.4348993 15.9296875,20.7421875 L18.2734375,20.7421875 Z M29.15625,19.1015625 C29.15625,20.2213598 28.9583353,21.2031208 28.5625,22.046875 C28.1666647,22.8906292 27.6002641,23.5416644 26.8632812,24 C26.1262984,24.4583356 25.2812548,24.6875 24.328125,24.6875 C23.385412,24.6875 22.5442745,24.4609398 21.8046875,24.0078125 C21.0651005,23.5546852 20.4921895,22.9075563 20.0859375,22.0664062 C19.6796855,21.2252562 19.4739584,20.257818 19.46875,19.1640625 L19.46875,18.6015625 C19.46875,17.4817652 19.6705709,16.496098 20.0742188,15.6445312 C20.4778666,14.7929645 21.0481734,14.1393252 21.7851562,13.6835938 C22.5221391,13.2278623 23.3645786,13 24.3125,13 C25.2604214,13 26.1028609,13.2278623 26.8398438,13.6835938 C27.5768266,14.1393252 28.1471334,14.7929645 28.5507812,15.6445312 C28.9544291,16.496098 29.15625,17.4791611 29.15625,18.59375 L29.15625,19.1015625 Z M26.78125,18.5859375 C26.78125,17.3932232 26.5677105,16.4869823 26.140625,15.8671875 C25.7135395,15.2473927 25.1041706,14.9375 24.3125,14.9375 C23.5260377,14.9375 22.919273,15.2434865 22.4921875,15.8554688 C22.065102,16.467451 21.8489584,17.3645774 21.84375,18.546875 L21.84375,19.1015625 C21.84375,20.2630266 22.0572895,21.1640593 22.484375,21.8046875 C22.9114605,22.4453157 23.5260377,22.765625 24.328125,22.765625 C25.1145873,22.765625 25.7187479,22.4570343 26.140625,21.8398438 C26.5625021,21.2226532 26.7760416,20.3229226 26.78125,19.140625 L26.78125,18.5859375 Z" id="CO" fill="#34E834"></path>
            </g>
        </g>
    </g>
</svg>