<?xml version="1.0" encoding="UTF-8"?>
<svg width="40px" height="40px" viewBox="0 0 40 40" version="1.1" xmlns="http://www.w3.org/2000/svg" xmlns:xlink="http://www.w3.org/1999/xlink">
    <!-- Generator: Sketch 46.1 (44463) - http://www.bohemiancoding.com/sketch -->
    <title>Market--Stocks</title>
    <desc>Created with Sketch.</desc>
    <defs></defs>
    <g id="Templates" stroke="none" stroke-width="1" fill="none" fill-rule="evenodd">
        <g id="Market--Stocks">
            <g id="Group-219" transform="translate(1.000000, 1.000000)">
                <path d="M19,0 L19,0 C3.21167626,0 0,3.21167626 0,19 C0,34.7883237 3.21167626,38 19,38 C34.7883237,38 38,34.7883237 38,19 C38,3.21167626 34.7883237,0 19,0 L19,0 Z" id="Shape" stroke="#34E834" stroke-width="2" fill-rule="nonzero"></path>
                <path d="M16.375,21.546875 C16.375,21.1041645 16.2187516,20.7643241 15.90625,20.5273438 C15.5937484,20.2903634 15.0312541,20.0403659 14.21875,19.7773438 C13.4062459,19.5143216 12.7630232,19.2552096 12.2890625,19 C10.9973894,18.3020798 10.3515625,17.3619851 10.3515625,16.1796875 C10.3515625,15.5651011 10.5247379,15.0169295 10.8710938,14.5351562 C11.2174496,14.053383 11.7148405,13.6770847 12.3632812,13.40625 C13.011722,13.1354153 13.7395793,13 14.546875,13 C15.3593791,13 16.0833302,13.1471339 16.71875,13.4414062 C17.3541698,13.7356786 17.8476545,14.151039 18.1992188,14.6875 C18.550783,15.223961 18.7265625,15.8333299 18.7265625,16.515625 L16.3828125,16.515625 C16.3828125,15.9947891 16.2187516,15.5898452 15.890625,15.3007812 C15.5624984,15.0117173 15.1015655,14.8671875 14.5078125,14.8671875 C13.934893,14.8671875 13.4895849,14.98828 13.171875,15.2304688 C12.8541651,15.4726575 12.6953125,15.7916647 12.6953125,16.1875 C12.6953125,16.5572935 12.8815086,16.8671862 13.2539062,17.1171875 C13.6263039,17.3671888 14.1744755,17.6015614 14.8984375,17.8203125 C16.2317775,18.2213562 17.203122,18.718747 17.8125,19.3125 C18.421878,19.906253 18.7265625,20.6458289 18.7265625,21.53125 C18.7265625,22.5156299 18.3541704,23.2877576 17.609375,23.8476562 C16.8645796,24.4075549 15.8619855,24.6875 14.6015625,24.6875 C13.7265581,24.6875 12.9296911,24.5273454 12.2109375,24.2070312 C11.4921839,23.8867171 10.9440123,23.4479195 10.5664062,22.890625 C10.1888002,22.3333305 10,21.6875037 10,20.953125 L12.3515625,20.953125 C12.3515625,22.2083396 13.101555,22.8359375 14.6015625,22.8359375 C15.158857,22.8359375 15.5937484,22.7226574 15.90625,22.4960938 C16.2187516,22.2695301 16.375,21.953127 16.375,21.546875 Z M28.875,15.0546875 L25.390625,15.0546875 L25.390625,24.53125 L23.046875,24.53125 L23.046875,15.0546875 L19.609375,15.0546875 L19.609375,13.15625 L28.875,13.15625 L28.875,15.0546875 Z" id="ST" fill="#34E834"></path>
            </g>
        </g>
    </g>
</svg>