<?xml version="1.0" encoding="UTF-8"?>
<svg width="40px" height="40px" viewBox="0 0 40 40" version="1.1" xmlns="http://www.w3.org/2000/svg" xmlns:xlink="http://www.w3.org/1999/xlink">
    <!-- Generator: Sketch 46.1 (44463) - http://www.bohemiancoding.com/sketch -->
    <title>Market--Bonds</title>
    <desc>Created with Sketch.</desc>
    <defs></defs>
    <g id="Templates" stroke="none" stroke-width="1" fill="none" fill-rule="evenodd">
        <g id="Market--Bonds">
            <g id="Group-222" transform="translate(1.000000, 1.000000)">
                <path d="M19,0 L19,0 C3.21167626,0 0,3.21167626 0,19 C0,34.7883237 3.21167626,38 19,38 C34.7883237,38 38,34.7883237 38,19 C38,3.21167626 34.7883237,0 19,0 L19,0 Z" id="Shape" stroke="#34E834" stroke-width="2" fill-rule="nonzero"></path>
                <path d="M10,24.53125 L10,13.15625 L13.984375,13.15625 C15.3645902,13.15625 16.4114548,13.4205703 17.125,13.9492188 C17.8385452,14.4778672 18.1953125,15.2525991 18.1953125,16.2734375 C18.1953125,16.830732 18.0520848,17.3216125 17.765625,17.7460938 C17.4791652,18.170575 17.0807317,18.4817698 16.5703125,18.6796875 C17.1536488,18.8255216 17.6132796,19.1197895 17.9492188,19.5625 C18.2851579,20.0052105 18.453125,20.5468718 18.453125,21.1875 C18.453125,22.2812555 18.1041702,23.1093722 17.40625,23.671875 C16.7083298,24.2343778 15.7135481,24.5208333 14.421875,24.53125 L10,24.53125 Z M12.34375,19.578125 L12.34375,22.6484375 L14.3515625,22.6484375 C14.9036486,22.6484375 15.3346339,22.5169284 15.6445312,22.2539062 C15.9544286,21.9908841 16.109375,21.6276065 16.109375,21.1640625 C16.109375,20.1223906 15.5703179,19.5937501 14.4921875,19.578125 L12.34375,19.578125 Z M12.34375,17.921875 L14.078125,17.921875 C15.2604226,17.9010416 15.8515625,17.4296921 15.8515625,16.5078125 C15.8515625,15.9921849 15.7018244,15.6210949 15.4023438,15.3945312 C15.1028631,15.1679676 14.6302116,15.0546875 13.984375,15.0546875 L12.34375,15.0546875 L12.34375,17.921875 Z M29.5546875,19.1015625 C29.5546875,20.2213598 29.3567728,21.2031208 28.9609375,22.046875 C28.5651022,22.8906292 27.9987016,23.5416644 27.2617188,24 C26.5247359,24.4583356 25.6796923,24.6875 24.7265625,24.6875 C23.7838495,24.6875 22.942712,24.4609398 22.203125,24.0078125 C21.463538,23.5546852 20.890627,22.9075563 20.484375,22.0664062 C20.078123,21.2252562 19.8723959,20.257818 19.8671875,19.1640625 L19.8671875,18.6015625 C19.8671875,17.4817652 20.0690084,16.496098 20.4726562,15.6445312 C20.8763041,14.7929645 21.4466109,14.1393252 22.1835938,13.6835938 C22.9205766,13.2278623 23.7630161,13 24.7109375,13 C25.6588589,13 26.5012984,13.2278623 27.2382812,13.6835938 C27.9752641,14.1393252 28.5455709,14.7929645 28.9492188,15.6445312 C29.3528666,16.496098 29.5546875,17.4791611 29.5546875,18.59375 L29.5546875,19.1015625 Z M27.1796875,18.5859375 C27.1796875,17.3932232 26.966148,16.4869823 26.5390625,15.8671875 C26.111977,15.2473927 25.5026081,14.9375 24.7109375,14.9375 C23.9244752,14.9375 23.3177105,15.2434865 22.890625,15.8554688 C22.4635395,16.467451 22.2473959,17.3645774 22.2421875,18.546875 L22.2421875,19.1015625 C22.2421875,20.2630266 22.455727,21.1640593 22.8828125,21.8046875 C23.309898,22.4453157 23.9244752,22.765625 24.7265625,22.765625 C25.5130248,22.765625 26.1171854,22.4570343 26.5390625,21.8398438 C26.9609396,21.2226532 27.1744791,20.3229226 27.1796875,19.140625 L27.1796875,18.5859375 Z" id="BO" fill="#34E834"></path>
            </g>
        </g>
    </g>
</svg>