<?xml version="1.0" encoding="UTF-8"?>
<svg width="40px" height="45px" viewBox="0 0 40 45" version="1.1" xmlns="http://www.w3.org/2000/svg" xmlns:xlink="http://www.w3.org/1999/xlink">
    <!-- Generator: Sketch 46.1 (44463) - http://www.bohemiancoding.com/sketch -->
    <title>Payment--Withdrawal</title>
    <desc>Created with Sketch.</desc>
    <defs></defs>
    <g id="Templates" stroke="none" stroke-width="1" fill="none" fill-rule="evenodd">
        <g id="Payment--Withdrawal">
            <g id="Group-216" transform="translate(1.000000, 1.000000)">
                <path d="M6.00001899,6.3447169 C1.24582742,8.68344333 0,13.6381859 0,23.4714813 C0,39.259805 3.21167626,42.4714813 19,42.4714813 C34.7883237,42.4714813 38,39.259805 38,23.4714813 C38,13.6338039 36.753062,8.67902833 31.9936231,6.34159183" id="Shape-Copy-6" stroke="#34E834" stroke-width="2" fill-rule="nonzero"></path>
                <path d="M23.0343315,5.16642303 C22.863136,5.04239616 22.6591443,4.99186669 22.4551526,5.00105387 C22.393496,5.00367878 22.3331512,5.00958482 22.2734623,5.02467803 C22.2059024,5.0384588 22.1403102,5.05945806 22.0773417,5.0922694 C21.7697144,5.24845138 21.5755616,5.56606517 21.5755616,5.91124048 L21.5762175,9.03553642 L9.14552004,9.91028678 C7.96026944,9.91028678 7,10.8703466 7,12.0561485 C7.00065592,13.2406379 7.96026944,14.2006978 9.1442082,14.2006978 L21.5749056,15.0767606 L21.5762175,16.8256051 L21.5762175,18.2010565 C21.5762175,18.2778351 21.5893359,18.3533012 21.6070458,18.4267986 C21.6122932,18.4464854 21.6195083,18.4674846 21.6254116,18.4865152 C21.6437774,18.543607 21.6673906,18.5967613 21.6962512,18.6472908 C21.7047782,18.6636965 21.7106814,18.6787897 21.7205203,18.6932267 C21.756596,18.7509746 21.7972631,18.8034728 21.8444895,18.8507211 C21.9218882,18.9229061 21.9946956,18.9780291 22.0766858,19.0200276 C22.384969,19.1762096 22.7549089,19.1479919 23.0336756,18.9452178 L30.6154751,12.8003097 C30.8522629,12.6270659 30.993286,12.3501381 30.993286,12.0568047 C30.993942,11.7608464 30.8529188,11.4852312 30.616131,11.3113311 L23.0343315,5.16642303 Z" id="Shape-Copy-12" fill="#34E834" transform="translate(18.996644, 12.060000) rotate(-90.000000) translate(-18.996644, -12.060000) "></path>
            </g>
        </g>
    </g>
</svg>