<?xml version="1.0" encoding="UTF-8"?>
<svg width="40px" height="45px" viewBox="0 0 40 45" version="1.1" xmlns="http://www.w3.org/2000/svg" xmlns:xlink="http://www.w3.org/1999/xlink">
    <!-- Generator: Sketch 46.1 (44463) - http://www.bohemiancoding.com/sketch -->
    <title>Payment--Deposit</title>
    <desc>Created with Sketch.</desc>
    <defs></defs>
    <g id="Templates" stroke="none" stroke-width="1" fill="none" fill-rule="evenodd">
        <g id="Payment--Deposit">
            <g id="Group-215" transform="translate(1.000000, 0.000000)">
                <path d="M10.5166926,6.00173334 C1.98675369,7.41598075 0,12.0537529 0,24.4714813 C0,40.259805 3.21167626,43.4714813 19,43.4714813 C34.7883237,43.4714813 38,40.259805 38,24.4714813 C38,12.048675 36.0116211,7.41218906 27.4728399,6" id="Shape" stroke="#34E834" stroke-width="2" fill-rule="nonzero"></path>
                <path d="M23.0976873,5.10306725 C22.9264917,4.97904038 22.7225001,4.92851091 22.5185084,4.93769809 C22.4568518,4.940323 22.396507,4.94622904 22.3368181,4.96132226 C22.2692581,4.97510302 22.203666,4.99610228 22.1406975,5.02891362 C21.8330702,5.1850956 21.6389173,5.50270939 21.6389173,5.8478847 L21.6395733,8.97218064 L9.20887582,9.846931 C8.02362522,9.846931 7.06335578,10.8069909 7.06335578,11.9927927 C7.0640117,13.1772822 8.02362522,14.137342 9.20756398,14.137342 L21.6382614,15.0134048 L21.6395733,16.7622493 L21.6395733,18.1377008 C21.6395733,18.2144793 21.6526917,18.2899454 21.6704016,18.3634428 C21.675649,18.3831296 21.6828641,18.4041289 21.6887674,18.4231594 C21.7071332,18.4802512 21.7307464,18.5334055 21.7596069,18.583935 C21.7681339,18.6003407 21.7740372,18.6154339 21.7838761,18.6298709 C21.8199517,18.6876189 21.8606189,18.740117 21.9078453,18.7873653 C21.985244,18.8595503 22.0580513,18.9146733 22.1400416,18.9566719 C22.4483248,19.1128538 22.8182647,19.0846361 23.0970314,18.881862 L30.6788309,12.736954 C30.9156187,12.5637101 31.0566418,12.2867824 31.0566418,11.993449 C31.0572978,11.6974907 30.9162746,11.4218754 30.6794868,11.2479753 L23.0976873,5.10306725 Z" id="Shape-Copy-5" fill="#34E834" transform="translate(19.060000, 11.996644) rotate(-270.000000) translate(-19.060000, -11.996644) "></path>
            </g>
        </g>
    </g>
</svg>