<?xml version="1.0" encoding="UTF-8" standalone="no"?>
<svg
   xmlns:dc="http://purl.org/dc/elements/1.1/"
   xmlns:cc="http://creativecommons.org/ns#"
   xmlns:rdf="http://www.w3.org/1999/02/22-rdf-syntax-ns#"
   xmlns:svg="http://www.w3.org/2000/svg"
   xmlns="http://www.w3.org/2000/svg"
   xmlns:xlink="http://www.w3.org/1999/xlink"
   xmlns:sodipodi="http://sodipodi.sourceforge.net/DTD/sodipodi-0.dtd"
   xmlns:inkscape="http://www.inkscape.org/namespaces/inkscape"
   width="120px"
   height="120px"
   viewBox="0 0 120 120"
   version="1.1"
   id="svg3769"
   sodipodi:docname="usp-customer-service.svg"
   inkscape:version="0.92.3 (2405546, 2018-03-11)">
  <metadata
     id="metadata3773">
    <rdf:RDF>
      <cc:Work
         rdf:about="">
        <dc:format>image/svg+xml</dc:format>
        <dc:type
           rdf:resource="http://purl.org/dc/dcmitype/StillImage" />
      </cc:Work>
    </rdf:RDF>
  </metadata>
  <sodipodi:namedview
     pagecolor="#ffffff"
     bordercolor="#666666"
     borderopacity="1"
     objecttolerance="10"
     gridtolerance="10"
     guidetolerance="10"
     inkscape:pageopacity="0"
     inkscape:pageshadow="2"
     inkscape:window-width="1732"
     inkscape:window-height="1200"
     id="namedview3771"
     showgrid="false"
     inkscape:zoom="8.375"
     inkscape:cx="60"
     inkscape:cy="69.552879"
     inkscape:window-x="1714"
     inkscape:window-y="196"
     inkscape:window-maximized="0"
     inkscape:current-layer="Group-14" />
  <!-- Generator: Sketch 46 (44423) - http://www.bohemiancoding.com/sketch -->
  <title
     id="title3744">USP-Customer-Service</title>
  <desc
     id="desc3746">Created with Sketch.</desc>
  <defs
     id="defs3750">
    <path
       d="M80.1494219,5 L9.8483498,5 C7.12041366,5 5,7.12041366 5,9.8483498 L5,58.3318478 C5,61.0597718 7.12041366,63.1801976 9.8483498,63.1801976 L44.7716195,63.1801976 C45.3991899,63.1801976 46.0250391,63.4256453 46.4761174,63.8619968 C57.6597424,77.3945856 63.5560428,83.8356743 64.1650187,83.185263 C64.3085398,83.0319766 64.3085398,77.2474352 64.1650187,65.8316389 C64.0387191,64.4888884 65.240516,63.1743796 66.5891936,63.1801976 L80.1494219,63.1801976 C82.877358,63.1801976 84.9977717,61.0597718 84.9977717,58.3318478 L84.9977717,9.8483498 C84.9977717,7.12041366 82.877358,5 80.1494219,5 Z"
       id="path-1" />
    <path
       d="M75.1494219,0 L4.8483498,0 C2.12041366,0 0,2.12041366 0,4.8483498 L0,53.3318478 C0,56.0597718 2.12041366,58.1801976 4.8483498,58.1801976 L39.7716195,58.1801976 C40.3991899,58.1801976 41.0250391,58.4256453 41.4761174,58.8619968 C52.6597424,72.3945856 58.5560428,78.8356743 59.1650187,78.185263 C59.3085398,78.0319766 59.3085398,72.2474352 59.1650187,60.8316389 C59.0387191,59.4888884 60.240516,58.1743796 61.5891936,58.1801976 L75.1494219,58.1801976 C77.877358,58.1801976 79.9977717,56.0597718 79.9977717,53.3318478 L79.9977717,4.8483498 C79.9977717,2.12041366 77.877358,0 75.1494219,0 Z"
       id="path-2" />
  </defs>
  <g
     id="Templates"
     stroke="none"
     stroke-width="1"
     fill="none"
     fill-rule="evenodd">
    <g
       id="USP-Customer-Service">
      <g
         id="Group-3"
         transform="translate(11.000000, 18.000000)">
        <path
           d="M32.0727142,72.5938019 C32.2096813,83.4672801 32.2065209,81.544862 31.6653693,82.1228342 C31.2516073,82.5647492 30.7078894,82.6846664 30.2082207,82.5917963 C29.9716626,82.5478289 29.77439,82.4640994 29.5783882,82.3501549 C29.3533256,82.219316 29.1208852,82.0391463 28.848924,81.7970598 C28.396123,81.3939986 27.7929564,80.7784713 27.0241962,79.9386815 C25.5592198,78.3383488 23.4655477,75.8922203 20.7368391,72.5938153 L3.4086004,72.5938153 C1.21603247,72.5938153 -0.51588421,70.8618956 -0.51588421,68.6693307 L-0.51588421,44.4244846 C-0.51588421,42.2319152 1.21603095,40.5 3.4086004,40.5 L38.5636272,40.5 C40.7561967,40.5 42.4881118,42.2319152 42.4881118,44.4244846 L42.4881118,68.6693307 C42.4881118,70.8618956 40.7561951,72.5938153 38.5636272,72.5938153 L32.0727142,72.5938019 Z"
           id="Path"
           stroke="#666666"
           stroke-width="3"
           stroke-linecap="round"
           transform="translate(20.986114, 61.559999) scale(-1, 1) translate(-20.986114, -61.559999) " />
        <g
           id="Group-14"
           transform="translate(12.984116, 0.000000)">
          <g
             id="g3757"
             opacity="0.200000003"
             stroke-linecap="round">
            <use
               fill="#34E834"
               fill-rule="evenodd"
               xlink:href="#path-1"
               id="use3753" />
            <path
               stroke="#34E834"
               stroke-width="3"
               d="M45.3869497,64.8987157 C45.2228082,64.7626633 44.9956154,64.6801976 44.7716195,64.6801976 L9.8483498,64.6801976 C6.29199017,64.6801976 3.5,61.8882026 3.5,58.3318478 L3.5,9.8483498 C3.5,6.29198654 6.29198654,3.5 9.8483498,3.5 L80.1494219,3.5 C83.7057852,3.5 86.4977717,6.29198654 86.4977717,9.8483498 L86.4977717,58.3318478 C86.4977717,61.8882026 83.7057815,64.6801976 80.1494219,64.6801976 L66.5827228,64.6801837 C66.1205549,64.6781899 65.6151424,65.2309909 65.6584269,65.6911685 L65.6649001,65.8127822 C65.8760654,82.609055 65.8760654,83.5524704 65.2599834,84.2104713 C64.5170456,85.0039596 63.7348637,84.8585807 62.9349281,84.3935427 C62.5892055,84.1925588 62.1948032,83.8868489 61.719578,83.4638268 C60.8602492,82.6988945 59.685347,81.499915 58.1796434,79.855092 C55.2226622,76.6249008 50.9606502,71.6417102 45.3869497,64.8987157 Z"
               id="path3755" />
          </g>
          <g
             id="Path-Copy"
             stroke-linecap="round">
            <use
               fill="#181818"
               fill-rule="evenodd"
               xlink:href="#path-2"
               id="use3759" />
            <path
               stroke="#34E834"
               stroke-width="3"
               d="M40.3869497,59.8987157 C40.2228082,59.7626633 39.9956154,59.6801976 39.7716195,59.6801976 L4.8483498,59.6801976 C1.29199017,59.6801976 -1.5,56.8882026 -1.5,53.3318478 L-1.5,4.8483498 C-1.5,1.29198654 1.29198654,-1.5 4.8483498,-1.5 L75.1494219,-1.5 C78.7057852,-1.5 81.4977717,1.29198654 81.4977717,4.8483498 L81.4977717,53.3318478 C81.4977717,56.8882026 78.7057815,59.6801976 75.1494219,59.6801976 L61.5827228,59.6801837 C61.1205549,59.6781899 60.6151424,60.2309909 60.6584269,60.6911685 L60.6649001,60.8127822 C60.8760654,77.609055 60.8760654,78.5524704 60.2599834,79.2104713 C59.5170456,80.0039596 58.7348637,79.8585807 57.9349281,79.3935427 C57.5892055,79.1925588 57.1948032,78.8868489 56.719578,78.4638268 C55.8602492,77.6988945 54.685347,76.499915 53.1796434,74.855092 C50.2226622,71.6249008 45.9606502,66.6417102 40.3869497,59.8987157 Z"
               id="path3761" />
          </g>
          <text
             xml:space="preserve"
             style="font-style:normal;font-variant:normal;font-weight:bold;font-stretch:normal;font-size:29.93964577px;line-height:1.25;font-family:Arial;-inkscape-font-specification:'Arial Bold';letter-spacing:0px;word-spacing:0px;fill:#ffffff;fill-opacity:1;stroke:none;stroke-width:0.74849111"
             x="9.155324"
             y="42.014481"
             id="text3777"
             transform="scale(1.0428771,0.95888575)"><tspan
               sodipodi:role="line"
               id="tspan3775"
               x="9.155324"
               y="42.014481"
               style="stroke-width:0.74849111">24/7</tspan></text>
        </g>
      </g>
    </g>
  </g>
</svg>
