<?xml version="1.0" encoding="UTF-8"?>
<svg width="120px" height="120px" viewBox="0 0 120 120" version="1.1" xmlns="http://www.w3.org/2000/svg" xmlns:xlink="http://www.w3.org/1999/xlink">
    <!-- Generator: Sketch 45.2 (43514) - http://www.bohemiancoding.com/sketch -->
    <title>USP--Largest-FX-Broker</title>
    <desc>Created with Sketch.</desc>
    <defs>
        <path d="M49.4526224,3 C46.5065088,3 43.5603951,3.84174676 41.0351548,5.3148036 L8.41746765,24.0436691 C3.15655037,26.9897828 0,32.6715735 0,38.5638008 L0,76.2319686 C0,82.1241959 3.15655037,87.8059866 8.41746765,90.7521002 L41.0351548,109.691402 C46.2960721,112.637516 52.6091728,112.637516 57.8700901,109.691402 L90.4877772,90.9625369 C95.7486945,88.0164233 98.9052449,82.3346326 98.9052449,76.4424052 L98.9052449,38.7742375 C98.9052449,32.8820102 95.7486945,27.2002195 90.4877772,24.2541058 L57.8700901,5.3148036 C55.3448498,3.84174676 52.3987361,3 49.4526224,3 Z" id="path-1"></path>
    </defs>
    <g id="Templates" stroke="none" stroke-width="1" fill="none" fill-rule="evenodd">
        <g id="USP--Largest-FX-Broker">
            <g id="Group-2" transform="translate(10.000000, 0.000000)">
                <path d="M54.0019317,19 C51.3209655,19 48.6399994,19.7659903 46.3420284,21.1064734 L16.6599033,38.1497582 C11.8724637,40.8307243 9,46.001159 9,51.3630913 L9,85.6411584 C9,91.0030907 11.8724637,96.1735254 16.6599033,98.8544915 L46.3420284,116.089274 C51.129468,118.77024 56.8743954,118.77024 61.6618349,116.089274 L91.3439601,99.0459891 C96.1313996,96.365023 99.0038633,91.1945883 99.0038633,85.832656 L99.0038633,51.5545889 C99.0038633,46.1926566 96.1313996,41.0222219 91.3439601,38.3412557 L61.6618349,21.1064734 C59.363864,19.7659903 56.6828978,19 54.0019317,19 Z" id="Path-Copy-20" stroke="#34E834" stroke-width="3" fill="#34E834" opacity="0.200000003"></path>
                <path d="M50.0019317,15 C47.3209655,15 44.6399994,15.7659903 42.3420284,17.1064734 L12.6599033,34.1497582 C7.87246372,36.8307243 5,42.001159 5,47.3630913 L5,81.6411584 C5,87.0030907 7.87246372,92.1735254 12.6599033,94.8544915 L42.3420284,112.089274 C47.129468,114.77024 52.8743954,114.77024 57.6618349,112.089274 L87.3439601,95.0459891 C92.1313996,92.365023 95.0038633,87.1945883 95.0038633,81.832656 L95.0038633,47.5545889 C95.0038633,42.1926566 92.1313996,37.0222219 87.3439601,34.3412557 L57.6618349,17.1064734 C55.363864,15.7659903 52.6828978,15 50.0019317,15 Z" id="Path-Copy-21" stroke="#34E834" stroke-width="3" fill="#181818"></path>
                <mask id="mask-2" fill="white">
                    <use xlink:href="#path-1"></use>
                </mask>
                <g id="Mask"></g>
                <g id="Group-80" mask="url(#mask-2)">
                    <g transform="translate(12.989000, 33.175800)">
                        <g id="Group-78" transform="translate(22.950495, 22.360396)">
                            <path d="M11.4763389,0 C10.7926421,0 10.1089453,0.195341939 9.52291951,0.537190331 L1.95341939,4.88354847 C0.73253227,5.56724525 0,6.88580334 0,8.25319691 L0,70.2321026 C0,71.5994962 0.73253227,72.9180543 1.95341939,73.6017511 L9.52291951,77.9969447 C10.7438066,78.6806415 12.2088712,78.6806415 13.4297583,77.9969447 L20.9992584,73.6505865 C22.2201455,72.9668898 22.9526778,71.6483317 22.9526778,70.2809381 L22.9526778,8.3020324 C22.9526778,6.93463882 22.2201455,5.61608074 20.9992584,4.93238395 L13.4297583,0.537190331 C12.8437325,0.195341939 12.1600357,0 11.4763389,0 Z" id="Path-Copy-20" stroke="#FFFFFF" stroke-width="2" fill="#3E3E3E"></path>
                            <g id="Group-77" transform="translate(12.622772, 11.475248)" fill-rule="nonzero" fill="#FFFFFF">
                                <path d="M0.491140601,8.14862999 L4.13797431,5.97292303 C4.40649511,5.81112204 4.62911491,5.42096362 4.62911491,5.10654183 L4.62911491,0.348904148 C4.62911491,0.0344823619 4.40764263,-0.0905978377 4.13797431,0.0700556297 L0.491140601,2.24691011 C0.222619805,2.40871111 0,2.797722 0,3.11329131 L0,7.870929 C-8.15365388e-15,8.18420326 0.22147228,8.31043099 0.491140601,8.14862999 Z" id="Shape"></path>
                                <path d="M0.491140601,19.6244125 L4.13797431,17.447558 C4.40649511,17.285757 4.62911491,16.8967461 4.62911491,16.5811768 L4.62911491,11.8235391 C4.62911491,11.5102649 4.40764263,11.3840372 4.13797431,11.5458381 L0.491140601,13.7238402 C0.222619805,13.8844936 0,14.2735045 0,14.5879263 L0,19.3467115 C-8.15365388e-15,19.6599858 0.22147228,19.785066 0.491140601,19.6244125 Z" id="Shape"></path>
                                <path d="M0.491140601,29.9532234 L4.13797431,27.7752214 C4.40649511,27.6145679 4.62911491,27.225557 4.62911491,26.9099877 L4.62911491,22.1534975 C4.62911491,21.8379282 4.40764263,21.7117005 4.13797431,21.8735015 L0.491140601,24.0515035 C0.222619805,24.2133045 0,24.6011679 0,24.9155896 L0,29.6732273 C-8.15365388e-15,29.9876491 0.22147228,30.1138768 0.491140601,29.9532234 Z" id="Shape"></path>
                                <path d="M0.491140601,41.4275961 L4.13797431,39.2495941 C4.40649511,39.0877931 4.62911491,38.6999298 4.62911491,38.385508 L4.62911491,33.6267228 C4.62911491,33.312301 4.40764263,33.1872208 4.13797431,33.3490218 L0.491140601,35.5258763 C0.222619805,35.6876773 0,36.0766882 0,36.3911099 L0,41.1487476 C-8.15365388e-15,41.4620219 0.22147228,41.5882496 0.491140601,41.4275961 Z" id="Shape"></path>
                                <path d="M4.13797431,50.7259893 C4.40649511,50.5641883 4.62911491,50.1740299 4.62911491,49.8596081 L4.62911491,45.1019705 C4.62911491,44.7875487 4.40764263,44.6624685 4.13797431,44.8242695 L0.491140601,46.9999764 C0.222619805,47.1617774 0,47.5519358 0,47.8663576 L0,52.6239953 C0,52.9395646 0.22147228,53.0634973 0.491140601,52.9016963 L4.13797431,50.7259893 Z" id="Shape"></path>
                            </g>
                        </g>
                        <g id="Group-78-Copy-2" transform="translate(0.000000, 36.720793)">
                            <path d="M11.4763389,0 C10.7926421,0 10.1089453,0.195341939 9.52291951,0.537190331 L1.95341939,4.88354847 C0.73253227,5.56724525 0,6.88580334 0,8.25319691 L0,70.2321026 C0,71.5994962 0.73253227,72.9180543 1.95341939,73.6017511 L9.52291951,77.9969447 C10.7438066,78.6806415 12.2088712,78.6806415 13.4297583,77.9969447 L20.9992584,73.6505865 C22.2201455,72.9668898 22.9526778,71.6483317 22.9526778,70.2809381 L22.9526778,8.3020324 C22.9526778,6.93463882 22.2201455,5.61608074 20.9992584,4.93238395 L13.4297583,0.537190331 C12.8437325,0.195341939 12.1600357,0 11.4763389,0 Z" id="Path-Copy-20" stroke="#FFFFFF" stroke-width="2" fill="#3E3E3E"></path>
                            <g id="Group-77" transform="translate(12.622772, 11.475248)" fill-rule="nonzero" fill="#FFFFFF">
                                <path d="M0.491140601,8.14862999 L4.13797431,5.97292303 C4.40649511,5.81112204 4.62911491,5.42096362 4.62911491,5.10654183 L4.62911491,0.348904148 C4.62911491,0.0344823619 4.40764263,-0.0905978377 4.13797431,0.0700556297 L0.491140601,2.24691011 C0.222619805,2.40871111 0,2.797722 0,3.11329131 L0,7.870929 C-8.15365388e-15,8.18420326 0.22147228,8.31043099 0.491140601,8.14862999 Z" id="Shape"></path>
                                <path d="M0.491140601,19.6244125 L4.13797431,17.447558 C4.40649511,17.285757 4.62911491,16.8967461 4.62911491,16.5811768 L4.62911491,11.8235391 C4.62911491,11.5102649 4.40764263,11.3840372 4.13797431,11.5458381 L0.491140601,13.7238402 C0.222619805,13.8844936 0,14.2735045 0,14.5879263 L0,19.3467115 C-8.15365388e-15,19.6599858 0.22147228,19.785066 0.491140601,19.6244125 Z" id="Shape"></path>
                                <path d="M0.491140601,29.9532234 L4.13797431,27.7752214 C4.40649511,27.6145679 4.62911491,27.225557 4.62911491,26.9099877 L4.62911491,22.1534975 C4.62911491,21.8379282 4.40764263,21.7117005 4.13797431,21.8735015 L0.491140601,24.0515035 C0.222619805,24.2133045 0,24.6011679 0,24.9155896 L0,29.6732273 C-8.15365388e-15,29.9876491 0.22147228,30.1138768 0.491140601,29.9532234 Z" id="Shape"></path>
                                <path d="M0.491140601,41.4275961 L4.13797431,39.2495941 C4.40649511,39.0877931 4.62911491,38.6999298 4.62911491,38.385508 L4.62911491,33.6267228 C4.62911491,33.312301 4.40764263,33.1872208 4.13797431,33.3490218 L0.491140601,35.5258763 C0.222619805,35.6876773 0,36.0766882 0,36.3911099 L0,41.1487476 C-8.15365388e-15,41.4620219 0.22147228,41.5882496 0.491140601,41.4275961 Z" id="Shape"></path>
                            </g>
                        </g>
                        <g id="Group-78-Copy" transform="translate(45.900991, 0.000000)">
                            <path d="M11.4763389,0 C10.7926421,0 10.1089453,0.195341939 9.52291951,0.537190331 L1.95341939,4.88354847 C0.73253227,5.56724525 0,6.88580334 0,8.25319691 L2.13162821e-14,85.2321026 C2.13162821e-14,86.5994962 0.73253227,87.9180543 1.95341939,88.6017511 L9.52291951,92.9969447 C10.7438066,93.6806415 12.2088712,93.6806415 13.4297583,92.9969447 L20.9992584,88.6505865 C22.2201455,87.9668898 22.9526778,86.6483317 22.9526778,85.2809381 L22.9526778,8.3020324 C22.9526778,6.93463882 22.2201455,5.61608074 20.9992584,4.93238395 L13.4297583,0.537190331 C12.8437325,0.195341939 12.1600357,0 11.4763389,0 Z" id="Path-Copy-20" stroke="#FFFFFF" stroke-width="2" fill="#3E3E3E"></path>
                            <g id="Group-77" transform="translate(12.622772, 11.475248)" fill-rule="nonzero" fill="#FFFFFF">
                                <path d="M0.491140601,8.14862999 L4.13797431,5.97292303 C4.40649511,5.81112204 4.62911491,5.42096362 4.62911491,5.10654183 L4.62911491,0.348904148 C4.62911491,0.0344823619 4.40764263,-0.0905978377 4.13797431,0.0700556297 L0.491140601,2.24691011 C0.222619805,2.40871111 0,2.797722 0,3.11329131 L0,7.870929 C-8.15365388e-15,8.18420326 0.22147228,8.31043099 0.491140601,8.14862999 Z" id="Shape"></path>
                                <path d="M0.491140601,19.6244125 L4.13797431,17.447558 C4.40649511,17.285757 4.62911491,16.8967461 4.62911491,16.5811768 L4.62911491,11.8235391 C4.62911491,11.5102649 4.40764263,11.3840372 4.13797431,11.5458381 L0.491140601,13.7238402 C0.222619805,13.8844936 0,14.2735045 0,14.5879263 L0,19.3467115 C-8.15365388e-15,19.6599858 0.22147228,19.785066 0.491140601,19.6244125 Z" id="Shape"></path>
                                <path d="M0.491140601,29.9532234 L4.13797431,27.7752214 C4.40649511,27.6145679 4.62911491,27.225557 4.62911491,26.9099877 L4.62911491,22.1534975 C4.62911491,21.8379282 4.40764263,21.7117005 4.13797431,21.8735015 L0.491140601,24.0515035 C0.222619805,24.2133045 0,24.6011679 0,24.9155896 L0,29.6732273 C-8.15365388e-15,29.9876491 0.22147228,30.1138768 0.491140601,29.9532234 Z" id="Shape"></path>
                                <path d="M0.491140601,41.4275961 L4.13797431,39.2495941 C4.40649511,39.0877931 4.62911491,38.6999298 4.62911491,38.385508 L4.62911491,33.6267228 C4.62911491,33.312301 4.40764263,33.1872208 4.13797431,33.3490218 L0.491140601,35.5258763 C0.222619805,35.6876773 0,36.0766882 0,36.3911099 L0,41.1487476 C-8.15365388e-15,41.4620219 0.22147228,41.5882496 0.491140601,41.4275961 Z" id="Shape"></path>
                                <path d="M4.13797431,50.7259893 C4.40649511,50.5641883 4.62911491,50.1740299 4.62911491,49.8596081 L4.62911491,45.1019705 C4.62911491,44.7875487 4.40764263,44.6624685 4.13797431,44.8242695 L0.491140601,46.9999764 C0.222619805,47.1617774 0,47.5519358 0,47.8663576 L0,52.6239953 C0,52.9395646 0.22147228,53.0634973 0.491140601,52.9016963 L4.13797431,50.7259893 Z" id="Shape"></path>
                            </g>
                        </g>
                    </g>
                </g>
                <path d="M54.0798464,44.972405 L45.6798464,37.972405 C45.4798464,37.772405 45.1798464,37.772405 44.8798464,37.872405 C44.5798464,37.972405 44.4798464,38.272405 44.4798464,38.572405 L44.4798464,41.772405 L12.7148073,42.972405 C12.3148073,42.972405 12.0148073,43.372405 12.0148073,43.772405 L12.0148073,47.272405 C12.0148073,47.672405 12.3148073,47.972405 12.7148073,48.072405 L44.4798464,49.272405 L44.4798464,52.472405 C44.4798464,52.772405 44.6798464,53.072405 44.8798464,53.172405 C44.9798464,53.172405 45.0798464,53.272405 45.1798464,53.272405 C45.3798464,53.272405 45.4798464,53.172405 45.6798464,53.072405 L54.0798464,46.172405 C54.2798464,46.072405 54.3798464,45.772405 54.3798464,45.572405 C54.3798464,45.272405 54.2798464,45.072405 54.0798464,44.972405 Z" id="Shape" fill="#34E834" fill-rule="nonzero" transform="translate(33.197327, 45.539562) rotate(-35.000000) translate(-33.197327, -45.539562) "></path>
                <g id="Group-78-Copy" transform="translate(59.000000, 0.000000)">
                    <path d="M22.9526778,60.2809381 L22.9526778,8.3020324 C22.9526778,6.93463882 22.2201455,5.61608074 20.9992584,4.93238395 L13.4297583,0.537190331 C12.8437325,0.195341939 12.1600357,0 11.4763389,0 C10.7926421,0 10.1089453,0.195341939 9.52291951,0.537190331 L1.95341939,4.88354847 C0.73253227,5.56724525 0,6.88580334 0,8.25319691 L0,60.2321026" id="Path-Copy-20" stroke="#FFFFFF" stroke-width="2" fill="#3E3E3E"></path>
                    <g id="Group-77" transform="translate(12.622772, 11.475248)" fill-rule="nonzero" fill="#FFFFFF">
                        <path d="M0.491140601,8.14862999 L4.13797431,5.97292303 C4.40649511,5.81112204 4.62911491,5.42096362 4.62911491,5.10654183 L4.62911491,0.348904148 C4.62911491,0.0344823619 4.40764263,-0.0905978377 4.13797431,0.0700556297 L0.491140601,2.24691011 C0.222619805,2.40871111 0,2.797722 0,3.11329131 L0,7.870929 C-8.15365388e-15,8.18420326 0.22147228,8.31043099 0.491140601,8.14862999 Z" id="Shape"></path>
                        <path d="M0.491140601,19.6244125 L4.13797431,17.447558 C4.40649511,17.285757 4.62911491,16.8967461 4.62911491,16.5811768 L4.62911491,11.8235391 C4.62911491,11.5102649 4.40764263,11.3840372 4.13797431,11.5458381 L0.491140601,13.7238402 C0.222619805,13.8844936 0,14.2735045 0,14.5879263 L0,19.3467115 C-8.15365388e-15,19.6599858 0.22147228,19.785066 0.491140601,19.6244125 Z" id="Shape"></path>
                        <path d="M0.491140601,29.9532234 L4.13797431,27.7752214 C4.40649511,27.6145679 4.62911491,27.225557 4.62911491,26.9099877 L4.62911491,22.1534975 C4.62911491,21.8379282 4.40764263,21.7117005 4.13797431,21.8735015 L0.491140601,24.0515035 C0.222619805,24.2133045 0,24.6011679 0,24.9155896 L0,29.6732273 C-8.15365388e-15,29.9876491 0.22147228,30.1138768 0.491140601,29.9532234 Z" id="Shape"></path>
                        <path d="M0.491140601,41.4275961 L4.13797431,39.2495941 C4.40649511,39.0877931 4.62911491,38.6999298 4.62911491,38.385508 L4.62911491,33.6267228 C4.62911491,33.312301 4.40764263,33.1872208 4.13797431,33.3490218 L0.491140601,35.5258763 C0.222619805,35.6876773 0,36.0766882 0,36.3911099 L0,41.1487476 C-8.15365388e-15,41.4620219 0.22147228,41.5882496 0.491140601,41.4275961 Z" id="Shape"></path>
                        <path d="M4.13797431,50.7259893 C4.40649511,50.5641883 4.62911491,50.1740299 4.62911491,49.8596081 L4.62911491,45.1019705 C4.62911491,44.7875487 4.40764263,44.6624685 4.13797431,44.8242695 L0.491140601,46.9999764 C0.222619805,47.1617774 0,47.5519358 0,47.8663576 L0,52.6239953 C0,52.9395646 0.22147228,53.0634973 0.491140601,52.9016963 L4.13797431,50.7259893 Z" id="Shape"></path>
                    </g>
                </g>
            </g>
        </g>
    </g>
</svg>