<?xml version="1.0" encoding="UTF-8"?>
<svg width="120px" height="120px" viewBox="0 0 120 120" version="1.1" xmlns="http://www.w3.org/2000/svg" xmlns:xlink="http://www.w3.org/1999/xlink">
    <!-- Generator: Sketch 46 (44423) - http://www.bohemiancoding.com/sketch -->
    <title>USP--Asic</title>
    <desc>Created with Sketch.</desc>
    <defs></defs>
    <g id="Templates" stroke="none" stroke-width="1" fill="none" fill-rule="evenodd">
        <g id="USP--Asic">
            <g id="Group" transform="translate(8.000000, 4.000000)">
                <path d="M54.0016428,4 C51.0228215,4 48.0440002,4.85109179 45.4907249,6.34050243 L12.5109179,25.2772948 C7.19159422,28.2561161 4,34.0009857 4,39.9586282 L4,78.0449859 C4,84.0026285 7.19159422,89.7474981 12.5109179,92.7263193 L45.4907249,111.875885 C50.8100486,114.854706 57.193237,114.854706 62.5125607,111.875885 L95.4923677,92.9390923 C100.811691,89.960271 104.003286,84.2154014 104.003286,78.2577589 L104.003286,40.1714012 C104.003286,34.2137586 100.811691,28.468889 95.4923677,25.4900678 L62.5125607,6.34050243 C59.9592853,4.85109179 56.9804641,4 54.0016428,4 Z" id="Path-Copy-2" stroke="#34E834" stroke-width="3" fill="#34E834" opacity="0.200000003"></path>
                <path d="M50.0016428,0 C47.0228215,0 44.0440002,0.851091792 41.4907249,2.34050243 L8.51091792,21.2772948 C3.19159422,24.2561161 0,30.0009857 0,35.9586282 L0,74.0449859 C0,80.0026285 3.19159422,85.7474981 8.51091792,88.7263193 L41.4907249,107.875885 C46.8100486,110.854706 53.193237,110.854706 58.5125607,107.875885 L91.4923677,88.9390923 C96.8116914,85.960271 100.003286,80.2154014 100.003286,74.2577589 L100.003286,36.1714012 C100.003286,30.2137586 96.8116914,24.468889 91.4923677,21.4900678 L58.5125607,2.34050243 C55.9592853,0.851091792 52.9804641,0 50.0016428,0 Z" id="Path-Copy-2" stroke="#34E834" stroke-width="3" fill="#181818"></path>
                <g id="Group-66-Copy" transform="translate(22.026911, 54.451532) rotate(-15.000000) translate(-22.026911, -54.451532) translate(9.526911, 31.451532)" fill-rule="nonzero" fill="#666666">
                    <path d="M23.1150076,0.752169207 C23.036446,0.740501639 22.9539951,0.728056234 22.8692108,0.717944341 C22.7844265,0.710943801 22.6973086,0.704721098 22.6070795,0.696942719 C22.244607,0.673607584 21.8261303,0.653383799 21.3679838,0.665829205 C21.1416329,0.679052449 20.9043924,0.696942719 20.65704,0.721833531 C20.5333637,0.734278936 20.407354,0.748280018 20.2782329,0.764614613 C20.1491118,0.78017137 20.0184351,0.797283803 19.889314,0.825285966 C19.6295161,0.876623264 19.3603842,0.935738941 19.0850296,1.00341083 C18.9473523,1.0376357 18.8073415,1.0726384 18.6673307,1.11308597 C18.5296534,1.15820057 18.3911983,1.20487084 18.2511875,1.25465246 C17.9711658,1.35421571 17.6856993,1.46389085 17.3971215,1.58367788 C17.1170999,1.71591031 16.8347447,1.85981031 16.5516117,2.01460005 C16.4108231,2.09316167 16.2669231,2.17016762 16.128468,2.2580633 C15.9915685,2.34751465 15.8554469,2.43929952 15.7193252,2.53497357 C15.5832036,2.62986979 15.4478598,2.72787736 15.312516,2.82899628 C15.1771723,2.92933737 15.0426063,3.03201196 14.9173744,3.14713197 C14.6622436,3.37270495 14.4180025,3.60372279 14.1846511,3.83862982 C14.065642,3.95374982 13.9614117,4.08131523 13.8540701,4.20499145 C13.7482841,4.32944551 13.6456095,4.4546774 13.5452684,4.5799093 C13.4449273,4.70514119 13.3476976,4.83115093 13.2535792,4.95716066 C13.1610165,5.08472607 13.07701,5.21773634 12.9930036,5.34685742 C12.8257684,5.60743311 12.669423,5.86723095 12.5239673,6.12391744 C12.38629,6.3860488 12.2633916,6.64973583 12.1482716,6.90564449 C12.0347073,7.16310882 11.9250322,7.41046126 11.8433592,7.66559207 C11.757797,7.9168337 11.6807911,8.16185263 11.6115635,8.39831534 C11.5773387,8.51654669 11.5438916,8.63166669 11.5151116,8.7467867 C11.4902208,8.86346237 11.4661078,8.9770267 11.4419949,9.08903535 C11.3968803,9.31227482 11.3587662,9.52618023 11.326097,9.72841807 C11.2942057,9.93143375 11.2646478,10.1204483 11.2522024,10.3055738 C11.2218668,10.6719354 11.2094213,10.9885154 11.2055322,11.2475354 C11.1985316,11.5049997 11.2125327,11.7119046 11.2242003,11.8526933 C11.23509,11.9927041 11.2444241,12.0681543 11.2444241,12.0681543 C16.3688198,9.78286672 21.6215589,6.36582502 24.3401022,1.00418867 C24.3401022,1.00418867 24.0577471,0.919404346 23.5435962,0.824508128 C23.4160308,0.800395154 23.2729087,0.775504343 23.1150076,0.752169207 Z" id="Shape"></path>
                    <path d="M3.25447359,18.2947464 C3.382039,18.8174534 3.52749468,19.2927124 3.67839522,19.7174118 C3.83474063,20.143667 4.01130983,20.522474 4.17076659,20.8468324 C4.33411254,21.1727465 4.47879038,21.4442119 4.62035687,21.6658957 C4.89882282,22.1084854 5.08472607,22.3402811 5.08472607,22.3402811 C5.08472607,22.3402811 5.12361796,22.2702757 5.19673472,22.1403767 C5.23173742,22.0750384 5.2745185,21.9949211 5.32430013,21.9008027 C5.37330391,21.8066843 5.42775256,21.697787 5.49542446,21.578 C5.62687905,21.3376481 5.78011311,21.0459589 5.94345906,20.7114886 C5.98468447,20.62826 6.0243542,20.5411421 6.06946879,20.4532464 C6.11458339,20.3653508 6.16125366,20.2751216 6.20947961,20.1825589 C6.30359799,19.9974335 6.39927204,19.8021961 6.49572394,19.5984026 C6.54317205,19.4965059 6.59062016,19.3922756 6.63962394,19.2857118 C6.69173908,19.1807037 6.74463205,19.0741399 6.79830286,18.9652426 C6.90408881,18.747448 7.00831909,18.521875 7.11099368,18.2877458 C7.20822342,18.052061 7.32956612,17.8187096 7.43457423,17.5736907 C7.54424937,17.3302274 7.64381261,17.0758745 7.75270991,16.8207436 C7.86471857,16.5671685 7.97283803,16.305815 8.07551263,16.0382388 C8.1284056,15.9052285 8.1735202,15.7667733 8.22874668,15.6322074 C8.28319533,15.4976415 8.33608831,15.360742 8.38742561,15.2222868 C8.49243372,14.9469322 8.58188507,14.6591322 8.68067048,14.3728879 C8.7817894,14.0881993 8.87512994,13.7957322 8.96069211,13.494709 C9.0408094,13.1913522 9.1372613,12.9019965 9.21193373,12.6056403 C9.25082563,12.4578511 9.28738401,12.3108398 9.32238671,12.1630506 C9.35583374,12.0144835 9.38928076,11.8674722 9.42739482,11.72435 C9.49973374,11.4357722 9.56351644,11.1471943 9.62107645,10.8601722 C9.65141212,10.71705 9.67396942,10.5708165 9.70508293,10.4315835 C9.73464077,10.2907948 9.76342077,10.1515619 9.79142294,10.0138846 C9.84664942,9.73619645 9.89565321,9.46006401 9.93998997,9.18782076 C9.98277105,8.91402183 10.0372197,8.6565575 10.0784451,8.39675966 C10.1655629,7.88027532 10.2301235,7.37701423 10.3055738,6.9243126 C10.3755792,6.46694394 10.4300278,6.03835528 10.4759202,5.65565905 C10.5295911,5.27996337 10.5715943,4.94704877 10.60193,4.66936065 C10.664157,4.11476226 10.6804916,3.78807036 10.6804916,3.78807036 C10.6804916,3.78807036 10.3483548,3.95374982 9.7906451,4.28977578 C9.65141212,4.37378227 9.49740023,4.46790065 9.3324986,4.57524227 C9.17304184,4.68569525 9.00113967,4.80781579 8.81912562,4.9416039 C8.63711156,5.07539201 8.44576344,5.22006985 8.24585912,5.37641526 C8.19607749,5.41608499 8.14551803,5.45575472 8.09495857,5.49620229 C8.04595479,5.53820554 7.996951,5.58098662 7.94716938,5.62454554 C7.84838397,5.71244122 7.74648721,5.80189257 7.64381261,5.89367744 C7.43846342,6.07880285 7.22689152,6.27559583 7.01220828,6.48327853 C6.80141422,6.69407259 6.59606502,6.92197908 6.38527096,7.15766395 C6.28026285,7.27589531 6.1744769,7.39646018 6.06946879,7.5201364 C6.01735366,7.58236342 5.96446068,7.64459045 5.91156771,7.70759532 C5.86178609,7.77215586 5.81200446,7.83749424 5.761445,7.90361046 C5.56154067,8.16729749 5.36319202,8.44109642 5.16795472,8.7242294 C4.96727255,9.00425103 4.79692606,9.30838563 4.61880119,9.61407591 C4.53168335,9.76730996 4.44534335,9.92287753 4.36133686,10.0800008 C4.32011145,10.1585624 4.27810821,10.2379019 4.23610497,10.3172413 C4.19799091,10.3981365 4.16065469,10.4798094 4.12254064,10.5614824 C3.97164009,10.88973 3.8300736,11.2242003 3.69861901,11.5641154 C3.63016928,11.7329062 3.57416495,11.9071419 3.52049414,12.0829333 C3.46604549,12.2579468 3.41470819,12.434516 3.36648224,12.611863 C3.16191089,13.3165841 3.06623683,14.022083 2.9977871,14.6871344 C2.97911899,14.8528139 2.97289629,15.020049 2.96822926,15.1849506 C2.96356223,15.3490744 2.96122872,15.5116425 2.96122872,15.6718771 C2.9627844,15.9923463 2.9690071,16.301148 2.99312007,16.6037269 C3.05301359,17.2112182 3.13702007,17.7743729 3.25447359,18.2947464 Z" id="Shape"></path>
                    <path d="M3.32603467,34.3283181 C3.60138928,34.6013392 3.88296658,34.8308014 4.13343037,35.0252608 C4.38389416,35.2189425 4.60791146,35.3768435 4.79537038,35.5005198 C4.98282931,35.624196 5.13372985,35.715203 5.23718229,35.7750965 C5.34141256,35.83499 5.40208391,35.86377 5.40208391,35.86377 C5.40208391,35.86377 5.4059731,35.7945425 5.41919635,35.6646436 C5.43086391,35.5347446 5.44564283,35.34573 5.45808824,35.1084895 C5.47053364,34.8704711 5.4798677,34.5850046 5.48220121,34.2606462 C5.49775797,33.9339543 5.50631419,33.5691484 5.502425,33.1747846 C5.48997959,32.7819765 5.50320283,32.3549435 5.48297905,31.9092424 C5.47753418,31.7980116 5.47208932,31.6852251 5.46664445,31.5708829 C5.45964391,31.4565408 5.4510877,31.3414207 5.44875418,31.2247451 C5.44019797,30.9906159 5.42697472,30.7525975 5.40675094,30.5106899 C5.39663905,30.3893472 5.38574932,30.2680045 5.37252607,30.1451061 C5.36552553,30.0836569 5.35852499,30.0222077 5.35230229,29.9599807 C5.34685742,29.8977537 5.3421904,29.8355267 5.33674553,29.7732996 C5.31496607,29.5236137 5.28540823,29.2708164 5.24807202,29.0149077 C5.22940391,28.8873423 5.20918012,28.7589991 5.18662283,28.629878 C5.16717688,28.5007569 5.1469531,28.370858 5.12750715,28.2401812 C5.08472607,27.9796055 5.03338877,27.7159185 4.97271742,27.4506758 C4.9066012,27.1854331 4.85448606,26.9248574 4.78836984,26.6673931 C4.72303146,26.4107066 4.65069254,26.1579093 4.57213092,25.9090012 C4.42356389,25.4119628 4.27266335,24.9328146 4.09531631,24.470779 C3.77095793,23.5513746 3.39526224,22.7035314 3.0779044,21.98092 C2.91533629,21.6192254 2.74965682,21.2863108 2.60653466,20.9930659 C2.46730168,20.7005989 2.3381806,20.4446902 2.22772762,20.234674 C2.00759951,19.8138637 1.86136599,19.5766232 1.86136599,19.5766232 C1.86136599,19.5766232 1.69957572,19.8426437 1.45455679,20.325681 C1.3931076,20.4462459 1.32699138,20.5808118 1.25620814,20.728601 C1.18853624,20.8763902 1.12319786,21.0381805 1.05241462,21.2116383 C0.914737319,21.5593319 0.75839191,21.9552513 0.623048123,22.3947297 C0.493927039,22.834986 0.365583793,23.3172454 0.255130817,23.8329519 C0.16334595,24.3494363 0.0785616235,24.8993676 0.0318913521,25.4703006 C0.0155567571,25.7565449 0.00466702714,26.0474563 0.00155567571,26.3430347 C1.35109209e-14,26.6386131 -0.00544486499,26.9373028 0.0241129735,27.2383261 C0.0482259471,27.5393493 0.0808951371,27.8427061 0.122898381,28.145285 C0.143900003,28.2969634 0.167235139,28.4486418 0.193681626,28.6003201 C0.225572978,28.7512207 0.259797844,28.9028991 0.296356223,29.0530218 C0.444923254,29.6558461 0.61682542,30.2236677 0.851732453,30.7471526 C1.08041678,31.2721932 1.31687949,31.757564 1.60156815,32.1970424 C1.74002328,32.4171705 1.8800341,32.6264089 2.02160059,32.8255354 C2.16472275,33.023884 2.30006654,33.2136765 2.4533006,33.3902457 C2.7512125,33.7441619 3.04601305,34.0560749 3.32603467,34.3283181 Z" id="Shape"></path>
                    <path d="M8.7366748,45.6544151 C8.97858238,45.7275319 9.19015427,45.7819806 9.36516779,45.8216503 C9.71519483,45.9009897 9.91976618,45.9243249 9.91976618,45.9243249 C9.91976618,45.9243249 9.86765105,45.7049746 9.75175321,45.3425022 C9.6941932,45.1612659 9.62107645,44.9442492 9.53006942,44.7015638 C9.44606293,44.4549892 9.35194455,44.1773011 9.23682454,43.8840562 C9.17926454,43.7370448 9.11781535,43.5853664 9.0509213,43.4305767 C8.98636075,43.2742313 8.92491156,43.1108854 8.85412832,42.9459837 C8.78490075,42.7810821 8.71022832,42.613847 8.63011102,42.4442783 C8.54999372,42.2754875 8.46287588,42.105141 8.38275858,41.927794 C8.21707911,41.5762113 8.02417533,41.2230729 7.81338127,40.867601 C7.61347694,40.507462 7.38790396,40.1496566 7.13043963,39.7980739 C6.88464287,39.442602 6.62951205,39.1073539 6.35649096,38.7946631 C6.28881907,38.7161015 6.22036934,38.6390955 6.15114177,38.5636452 C6.08580339,38.4866393 6.01968717,38.411189 5.95357095,38.3365166 C5.82056068,38.1879496 5.68521689,38.0440496 5.54909527,37.9048166 C4.9929412,37.3525517 4.47412335,36.8640695 3.98330766,36.4642609 C3.86196496,36.3639198 3.74295576,36.2698014 3.62939144,36.1803501 C3.5197163,36.0901209 3.41393035,36.0061144 3.31358927,35.9275527 C3.11212926,35.7704295 2.93167088,35.6366414 2.7799925,35.5285219 C2.47663573,35.3115052 2.28995465,35.1987187 2.28995465,35.1987187 C2.28995465,35.1987187 2.264286,35.4375149 2.25184059,35.854436 C2.24717357,36.0628965 2.24017303,36.3164717 2.25339627,36.6050495 C2.2705087,36.8928495 2.29773303,37.2172079 2.33973627,37.5695685 C2.36073789,37.7461377 2.38562871,37.9289296 2.41440871,38.1179442 C2.45018925,38.3054031 2.49141465,38.4983069 2.53730709,38.6958777 C2.58319952,38.8934485 2.63375898,39.0956863 2.68976331,39.3010355 C2.74576763,39.5063847 2.80566115,39.7156231 2.88500061,39.9233058 C3.03745683,40.3394491 3.21091467,40.7649264 3.41781954,41.184181 C3.63794765,41.5987686 3.88530009,42.0086891 4.16143253,42.4022751 C4.44689903,42.7927497 4.76036768,43.1419989 5.07150282,43.4593567 C5.15006445,43.5386962 5.22784823,43.6157021 5.30718769,43.6903746 C5.38963851,43.7634913 5.47208932,43.8350524 5.55454013,43.9035021 C5.71944176,44.0419573 5.88434338,44.1710784 6.04846717,44.2924211 C6.21259096,44.4137638 6.37515907,44.5273281 6.53539367,44.633114 C6.69562827,44.7389 6.86364124,44.8314627 7.02309801,44.9201362 C7.3435672,45.0959276 7.65081316,45.2421611 7.93627965,45.3642816 C8.21785695,45.491847 8.49710074,45.5797427 8.7366748,45.6544151 Z" id="Shape"></path>
                    <path d="M18.0256145,13.3165841 C18.080841,13.211576 18.1321783,13.1143463 18.176515,13.0248949 C18.3561956,12.6655338 18.4440913,12.4337381 18.4440913,12.4337381 C18.4440913,12.4337381 18.1936275,12.3582879 17.7502599,12.2820598 C17.5277983,12.2439457 17.2563328,12.2058316 16.9413085,12.1793852 C16.6325069,12.160717 16.2848134,12.1568279 15.8982279,12.1747181 C15.5069755,12.1871635 15.101722,12.2462792 14.6645771,12.3333971 C14.4483382,12.3792895 14.2157647,12.4251819 13.9948587,12.4951873 C13.7716192,12.5636371 13.5437128,12.6421987 13.3111392,12.7308722 C13.1952414,12.775209 13.0777879,12.8226571 12.9595565,12.8724387 C12.8405473,12.9214425 12.7300944,12.9805581 12.6141965,13.038896 C12.3847343,13.1571273 12.1529387,13.2862484 11.9203651,13.4278149 C11.8021338,13.4970425 11.690903,13.5740484 11.58045,13.6549436 C11.4692192,13.7350609 11.3587662,13.8190674 11.2483132,13.9054074 C11.0297408,14.0804209 10.8010565,14.2601014 10.6011521,14.468562 C10.3965808,14.6739112 10.1997878,14.8870387 10.0123289,15.1056112 C9.82642564,15.3249614 9.66619104,15.5590906 9.50517861,15.7916642 C9.42583914,15.9083398 9.3488332,16.0257934 9.27338292,16.1432469 C9.19715481,16.2607004 9.13492779,16.3843766 9.06881157,16.5049415 C8.93891265,16.7476269 8.8167921,16.9910901 8.70322778,17.2329977 C8.59355264,17.476461 8.50487912,17.7245912 8.41620561,17.965721 C8.33219912,18.2091842 8.2435256,18.4440913 8.18674344,18.6836653 C8.12529425,18.9209059 8.07006776,19.1534794 8.02106398,19.3790524 C7.99772884,19.4918388 7.9743937,19.6030697 7.95183641,19.711967 C7.93627965,19.8224199 7.92072289,19.9313172 7.90594397,20.037881 C7.87794181,20.2510086 7.85460667,20.4555799 7.83516073,20.6500394 C7.82660451,20.7472691 7.81804829,20.8421654 7.80949208,20.9339502 C7.80249154,21.0265129 7.80249154,21.11752 7.80015802,21.2054156 C7.79237965,21.5562205 7.79704667,21.8619108 7.80560289,22.1131524 C7.8079364,22.2383843 7.81960397,22.3519486 7.82971586,22.4499562 C7.84138343,22.5479638 7.85071748,22.6319703 7.85849586,22.6996422 C7.8756083,22.834986 7.8880537,22.9081027 7.8880537,22.9081027 C7.8880537,22.9081027 8.14629587,22.7797595 8.56243912,22.5401854 C8.76778832,22.4196205 9.03147535,22.2764984 9.31383049,22.1084854 C9.60007482,21.9412503 9.90498726,21.7483465 10.2394575,21.5406638 C10.5785948,21.3345367 10.9340667,21.1089637 11.2895386,20.8655005 C11.6551224,20.6259264 12.036263,20.3731291 12.3987354,20.1008859 C12.5846387,19.9663199 12.7783203,19.831754 12.96189,19.6901875 C13.0544527,19.6194043 13.1462376,19.5478432 13.2364668,19.4747264 C13.326696,19.4016097 13.4145917,19.3269372 13.5094879,19.2545983 C13.8844057,18.9644648 14.2196539,18.6432177 14.5681252,18.320415 C14.6529095,18.2379642 14.7345825,18.1555134 14.8131441,18.0715069 C14.8917058,17.9875004 14.9663782,17.9019383 15.0472733,17.821821 C15.2043966,17.658475 15.3506301,17.4920177 15.4867517,17.3224491 L15.5870928,17.1948837 L15.6913231,17.0727631 C15.7597728,16.9910901 15.825889,16.9086393 15.8888939,16.8254107 C16.0187928,16.6612869 16.1269123,16.4854955 16.2513663,16.3275944 C16.3711534,16.1658042 16.4816063,16.0024582 16.5850588,15.8383344 C16.6107274,15.797109 16.6356182,15.7558836 16.6612869,15.7154361 C16.6877334,15.6757663 16.7149577,15.6368744 16.7414042,15.5979825 C16.7935193,15.5201987 16.8440788,15.4416371 16.8930826,15.3630755 C16.991868,15.2075079 17.0789858,15.0480512 17.1668815,14.8971506 C17.2586664,14.7501393 17.3442285,14.6039058 17.423568,14.4607836 C17.4624599,14.3884447 17.5005739,14.3168836 17.5379101,14.247656 C17.5558004,14.2118755 17.5736907,14.1768728 17.591581,14.1426479 C17.6110269,14.1092009 17.629695,14.0765317 17.6483631,14.0438625 C17.7222577,13.9139636 17.7907075,13.787176 17.8529345,13.6658333 C17.9151615,13.5444906 17.9742772,13.4270371 18.0256145,13.3165841 Z" id="Shape"></path>
                    <path d="M9.41806077,33.2549019 C9.60551969,32.9585457 9.79764564,32.6388543 9.98354889,32.3012727 C10.0730002,32.1332597 10.179564,31.9582462 10.2744602,31.7808991 C10.37169,31.6035521 10.4665862,31.421538 10.5575932,31.2371905 C10.7302732,30.8684953 10.927844,30.4842434 11.0857451,30.0891018 C11.2366457,29.694738 11.4038808,29.2887066 11.5221122,28.8710077 C11.5524478,28.7667774 11.5796722,28.6625472 11.604563,28.5590947 C11.6348987,28.4556423 11.6636787,28.3529677 11.6893473,28.2510709 C11.7406846,28.0464996 11.7834657,27.8442617 11.8169127,27.6435796 C11.8449149,27.4428974 11.8908073,27.2461044 11.916476,27.0508671 C11.9444781,26.8556298 11.9654797,26.6635039 11.9794808,26.4737114 C12.0207062,26.0956822 12.0479306,25.7300985 12.0479306,25.3785157 C12.0658208,25.0300444 12.0681543,24.6979076 12.0549311,24.3859946 C12.0479306,24.0756373 12.045597,23.7901708 12.0253733,23.5311508 C12.0152614,23.4012519 12.0051495,23.2799092 11.9965933,23.1671227 C11.9911484,23.0551141 11.9841479,22.9516616 11.9763695,22.8567654 C11.945256,22.479514 11.9055862,22.2531632 11.9055862,22.2531632 C11.9055862,22.2531632 11.6823468,22.3278357 11.3144295,22.4981822 C11.1300819,22.5837443 10.9099538,22.6934195 10.6633792,22.8326524 C10.4191381,22.9718854 10.1616738,23.1437876 9.88165213,23.3460254 C9.31538617,23.7489454 8.73122994,24.2949876 8.18052074,24.988819 C7.91994505,25.3372903 7.65625802,25.7223201 7.43224072,26.1439082 C7.32412126,26.3554801 7.22144666,26.5748304 7.12499476,26.8035147 C7.03009855,27.032199 6.93364665,27.2678839 6.86830827,27.5129028 C6.79752503,27.7579217 6.73685367,28.0044963 6.68473854,28.2510709 C6.65984773,28.3747472 6.6326234,28.4984234 6.61551097,28.6213218 C6.59917637,28.744998 6.58517529,28.8678964 6.57350772,28.9907947 C6.54939475,29.2365915 6.53306016,29.4808326 6.5237261,29.7219623 C6.52217043,29.7826337 6.51983691,29.8425272 6.51828124,29.9024207 C6.51983691,29.9623142 6.52139259,30.0222077 6.52294826,30.0813234 C6.52683745,30.2003326 6.53228232,30.3177861 6.53928286,30.4344618 C6.55328394,30.6678132 6.57272989,30.8972753 6.5976207,31.1212926 C6.60773259,31.2333013 6.6264007,31.3429764 6.64584665,31.4518737 C6.66607043,31.5599932 6.68629421,31.6673348 6.706518,31.7723429 C6.79363584,32.1931532 6.879198,32.5890727 7.00598557,32.9453224 C7.12421693,33.3031278 7.24555963,33.6267084 7.3599018,33.9098413 C7.48824504,34.1906408 7.60880991,34.4317706 7.71148451,34.6277857 C7.81493694,34.8238008 7.90127695,34.9754792 7.9619483,35.0789316 C8.02106398,35.1823841 8.06073371,35.2344992 8.06073371,35.2344992 C8.06073371,35.2344992 8.09884776,35.1847176 8.16963101,35.0929327 C8.24119209,34.9995922 8.34464452,34.8626927 8.46909858,34.688457 C8.59433048,34.5142214 8.74056399,34.3034273 8.90002075,34.0622976 C9.05869968,33.8227235 9.22515698,33.5528138 9.41806077,33.2549019 Z" id="Shape"></path>
                    <path d="M8.99413913,40.3596729 C9.10925914,40.7377021 9.25393698,41.0970631 9.40561536,41.4393118 C9.47873212,41.6119918 9.56740563,41.7730042 9.65607915,41.9301275 C9.74475266,42.0872507 9.83498186,42.2381513 9.92598889,42.383607 C10.0177738,42.5282848 10.1056694,42.6698513 10.2013435,42.800528 C10.2985732,42.930427 10.3950251,43.0541032 10.4899213,43.1707789 C10.6797138,43.4041302 10.8593943,43.6133686 11.028963,43.7914935 C11.2039765,43.9657292 11.3626554,44.1119627 11.4956657,44.230194 C11.7616862,44.4658789 11.9265879,44.5887773 11.9265879,44.5887773 C11.9265879,44.5887773 11.9927041,44.3950957 12.0805997,44.0637367 C12.1249365,43.8980573 12.1747181,43.6981529 12.2252776,43.4718021 C12.2773927,43.2438956 12.3217295,42.9957654 12.3808452,42.7157437 C12.4360716,42.4380556 12.4874089,42.1409215 12.5294122,41.8313421 C12.5519695,41.6757745 12.5651927,41.5202069 12.5869722,41.3560831 C12.6079738,41.1919594 12.6258641,41.0262799 12.6398652,40.8582669 C12.6538662,40.6902539 12.6639781,40.5206853 12.669423,40.349561 C12.6725344,40.2639988 12.6733122,40.1784366 12.67409,40.0928745 C12.6772014,40.0049788 12.6803127,39.9170831 12.6810906,39.8291874 C12.6873133,39.4752712 12.6632003,39.1229107 12.6219749,38.7651052 C12.4586289,37.3369949 11.9849257,36.089343 11.5345576,35.1380473 C11.4248824,34.9008068 11.3136516,34.6845679 11.2070878,34.4932197 C11.1044132,34.3010938 11.0188511,34.1315251 10.9387338,33.99307 C10.7816105,33.7153819 10.6727132,33.5582586 10.6727132,33.5582586 C10.6727132,33.5582586 10.5389251,33.6959359 10.3351316,33.9565116 C10.2332348,34.0864105 10.1142256,34.2482008 9.9858824,34.4387711 C9.9220997,34.5344451 9.85520564,34.6371197 9.78753375,34.7475727 C9.72375104,34.85647 9.65996834,34.9731457 9.5954078,35.0960441 C9.34261049,35.5876376 9.06881157,36.1990182 8.91713319,36.8874047 C8.87668562,37.0600847 8.84012724,37.2389874 8.80823589,37.4225571 C8.79267913,37.514342 8.77790021,37.6076825 8.7654548,37.7018009 C8.75612075,37.7951414 8.74834237,37.8892598 8.74289751,37.984156 C8.72034021,38.3652966 8.71722886,38.7666609 8.75767643,39.1758036 C8.80901372,39.5795015 8.8906867,39.9769766 8.99413913,40.3596729 Z" id="Shape"></path>
                </g>
                <g id="Group-68-Copy" transform="translate(77.509874, 54.580942) rotate(15.000000) translate(-77.509874, -54.580942) translate(64.509874, 31.580942)" fill-rule="nonzero" fill="#666666">
                    <path d="M13.7602052,12.0673765 C13.7602052,12.0673765 13.7695392,11.9927041 13.780429,11.8519154 C13.7920965,11.7111268 13.8060976,11.5042219 13.7990971,11.2467576 C13.7952079,10.9877376 13.7827625,10.6711576 13.7524268,10.3047959 C13.7407592,10.1196705 13.7112014,9.93065591 13.6785322,9.72764023 C13.645863,9.52540239 13.607749,9.31149698 13.5626344,9.08825751 C13.5385214,8.97624886 13.5144084,8.8619067 13.4895176,8.74600886 C13.4599598,8.63166669 13.4272906,8.51576885 13.3930657,8.3975375 C13.324616,8.16107479 13.24761,7.9168337 13.16127,7.66481424 C13.0795971,7.40968342 12.9699219,7.16233098 12.8563576,6.90486665 C12.7412376,6.648958 12.6183392,6.38527096 12.4806619,6.12313961 C12.3352062,5.86645311 12.1788608,5.60743311 12.0116257,5.34607959 C11.9268414,5.21618066 11.8436127,5.08317039 11.75105,4.95638282 C11.6569316,4.83037309 11.5589241,4.70514119 11.4593608,4.57913146 C11.3590197,4.45389957 11.2563451,4.32866767 11.1505592,4.20421361 C11.0439954,4.08053739 10.9397651,3.95297199 10.8199781,3.83785198 C10.5866267,3.60294495 10.3423856,3.37114927 10.0872548,3.14635413 C9.96202293,3.03123413 9.82667915,2.92855953 9.6921132,2.82821845 C9.55754725,2.72709952 9.42142562,2.62909195 9.285304,2.53419574 C9.14918237,2.43929952 9.01306075,2.34673681 8.87616129,2.25728546 C8.73848398,2.16938978 8.59380614,2.09238383 8.45301749,2.01382221 C8.16988451,1.85903248 7.88752937,1.71513247 7.60750774,1.58290004 C7.3189299,1.46233517 7.03424124,1.35266003 6.75344178,1.25387462 C6.61343096,1.204093 6.47419798,1.15664489 6.33729852,1.11230813 C6.19728771,1.07186057 6.05727689,1.03685786 5.91959959,1.002633 C5.64424499,0.934183266 5.37511309,0.875067588 5.11531525,0.824508128 C4.98619417,0.796505965 4.85551741,0.779393532 4.72639632,0.763836775 C4.59805308,0.74750218 4.4712655,0.733501099 4.34758929,0.721055693 C4.10023685,0.696164881 3.8629963,0.677496773 3.63664548,0.665051367 C3.17849899,0.652605962 2.76002222,0.672829746 2.39754978,0.696164881 C2.30732059,0.703165422 2.21942491,0.710165963 2.13541842,0.717166504 C2.0506341,0.726500558 1.96818328,0.739723801 1.88962166,0.751391369 C1.73249841,0.774726505 1.58859841,0.799617316 1.46025516,0.822952452 C0.946104339,0.917848671 0.663749198,1.002633 0.663749198,1.002633 C3.38307034,6.36504718 8.63580939,9.78208888 13.7602052,12.0673765 Z" id="Shape"></path>
                    <path d="M14.5294868,5.65799257 C14.5753793,6.04068879 14.6298279,6.46927745 14.6998333,6.92664611 C14.7752836,7.37934774 14.8398441,7.88260884 14.926962,8.39909317 C14.9681874,8.65889102 15.022636,8.91635535 15.0654171,9.19015427 C15.1097539,9.46239752 15.1587577,9.73852996 15.2139841,10.0162181 C15.2427641,10.1538954 15.2715441,10.2931284 15.3003241,10.433917 C15.3314377,10.57315 15.3547728,10.7193835 15.3843306,10.8625057 C15.4418906,11.1503057 15.5056733,11.4381057 15.5780123,11.7266835 C15.6161263,11.8698057 15.6487955,12.016817 15.6830204,12.1653841 C15.7172452,12.3131733 15.7545814,12.4609625 15.7934733,12.6079738 C15.8689236,12.90433 15.9653755,13.1936857 16.044715,13.4970425 C16.1302771,13.7972879 16.2236177,14.0897549 16.3247366,14.3752214 C16.423522,14.6614658 16.5129734,14.9492658 16.6179815,15.2246204 C16.6693188,15.3630755 16.7222117,15.4991971 16.7766604,15.6345409 C16.8318869,15.7691069 16.8770015,15.9067842 16.9298945,16.0405723 C17.032569,16.3089263 17.1406885,16.569502 17.2526972,16.8230772 C17.3608166,17.0789858 17.4603799,17.332561 17.5708328,17.5760242 C17.6766188,17.8210431 17.7971837,18.0551723 17.8944134,18.2900794 C17.997088,18.5234307 18.1013183,18.7497815 18.2071042,18.9675761 C18.260775,19.0764734 18.313668,19.1830372 18.3657831,19.2880453 C18.4147869,19.3938313 18.4630129,19.4980615 18.5096831,19.6007361 C18.606135,19.8045297 18.7018091,19.999767 18.7959275,20.1848924 C18.8441534,20.2774551 18.8900458,20.3676843 18.9359383,20.4555799 C18.9810529,20.5434756 19.0207226,20.6305935 19.061948,20.7138221 C19.225294,21.0482924 19.378528,21.3392038 19.5099826,21.5803335 C19.5776545,21.7001205 19.6321032,21.8090178 19.6811069,21.9031362 C19.7308886,21.9972546 19.7744475,22.0773719 19.8086724,22.1427103 C19.8810113,22.2726092 19.920681,22.3426146 19.920681,22.3426146 C19.920681,22.3426146 20.1065843,22.1108189 20.3850502,21.6682292 C20.5266167,21.4465454 20.6712945,21.17508 20.8346405,20.8491659 C20.9933194,20.5248075 21.1698886,20.1452226 21.3270119,19.7197453 C21.4779124,19.2950459 21.6241459,18.8197869 21.7509335,18.2970799 C21.868387,17.7767064 21.9523935,17.2135518 22.012287,16.6060604 C22.0371778,16.3042593 22.0426227,15.9946798 22.0441784,15.6742106 C22.0441784,15.513976 22.0418448,15.3521858 22.0371778,15.1872841 C22.0325108,15.0223825 22.0262881,14.8559252 22.00762,14.6894679 C21.9391702,14.0244166 21.8434962,13.3189176 21.6389248,12.6141965 C21.5906989,12.4368495 21.5393616,12.2602803 21.4849129,12.0852668 C21.4312421,11.9094754 21.3752378,11.7352397 21.3067881,11.5664489 C21.1753335,11.2265338 21.033767,10.8920635 20.8852,10.5638159 C20.8470859,10.482143 20.8089718,10.40047 20.7716356,10.3195748 C20.7296324,10.2402354 20.688407,10.1608959 20.6464037,10.0823343 C20.5623972,9.92521105 20.4760572,9.76964348 20.3889394,9.61640942 C20.2115924,9.31071914 20.0412459,9.00658454 19.8397859,8.72656291 C19.6445486,8.44342993 19.4454221,8.16963101 19.2462956,7.90594397 C19.1957361,7.84060559 19.1459545,7.77526721 19.0961729,7.70992883 C19.0432799,7.64692397 18.9903869,7.58469694 18.9382718,7.52246991 C18.8324858,7.39879369 18.7274777,7.27822882 18.6224696,7.15999747 C18.4108977,6.9243126 18.2063264,6.69640611 17.9955323,6.48561205 C17.7808491,6.27792934 17.5692772,6.08113636 17.363928,5.89601095 C17.2604755,5.80422608 17.1593566,5.71477473 17.0605712,5.62687905 C17.0107896,5.58332013 16.961008,5.54131689 16.912782,5.49853581 C16.8614447,5.45808824 16.8116631,5.41841851 16.7618815,5.37874878 C16.5619771,5.22240337 16.370629,5.07772553 16.188615,4.94393742 C16.0066009,4.8101493 15.8354766,4.68802876 15.675242,4.57757578 C15.5111182,4.471012 15.3563285,4.37689362 15.2170955,4.29210929 C14.6593857,3.95608334 14.327249,3.79040387 14.327249,3.79040387 C14.327249,3.79040387 14.3443614,4.11787361 14.4058106,4.67169417 C14.4338128,4.94860444 14.475816,5.28229688 14.5294868,5.65799257 Z" id="Shape"></path>
                    <path d="M25.0046292,26.3438125 C25.0015179,26.049012 24.991406,25.7573228 24.9742936,25.4710784 C24.9268455,24.8993676 24.842839,24.3502141 24.7510541,23.8337298 C24.641379,23.3180233 24.5122579,22.8365416 24.3831368,22.3955076 C24.247793,21.9560292 24.0906698,21.5601097 23.9537703,21.2124162 C23.882987,21.0389583 23.8176487,20.8771681 23.7499768,20.7293789 C23.6791935,20.5815897 23.6130773,20.4478016 23.5516281,20.3264589 C23.3058314,19.8434216 23.1440411,19.5781788 23.1440411,19.5781788 C23.1440411,19.5781788 22.9985854,19.8154194 22.7776795,20.2362297 C22.6672265,20.4462459 22.5381054,20.7021545 22.3988724,20.9946216 C22.2565281,21.2878665 22.0900708,21.6207811 21.9275027,21.9824757 C21.609367,22.705087 21.2336713,23.5529303 20.9100908,24.4723346 C20.7327437,24.9343703 20.5818432,25.4135184 20.4332762,25.9105568 C20.3547145,26.1594649 20.2823756,26.4122623 20.2170372,26.6689487 C20.150921,26.9256352 20.0988059,27.1862109 20.0326897,27.4522315 C19.9720183,27.7174742 19.920681,27.9811612 19.8778999,28.2417369 C19.8576761,28.3724136 19.8382302,28.5023126 19.8187842,28.6314337 C19.796227,28.7605547 19.7760032,28.888898 19.7573351,29.0164634 C19.7199988,29.272372 19.6912188,29.5251694 19.6686615,29.7748553 C19.6632167,29.8370823 19.6585497,29.8993094 19.6531048,29.9615364 C19.6461042,30.0237634 19.6391037,30.0852126 19.632881,30.1466618 C19.6196578,30.2695602 19.6079902,30.3916807 19.5986561,30.5122456 C19.5784324,30.7541532 19.5652091,30.9929494 19.5566529,31.2263007 C19.5543194,31.3437543 19.546541,31.4588743 19.5387626,31.5724386 C19.5333178,31.6867808 19.5278729,31.7995672 19.522428,31.9107981 C19.5022042,32.3564992 19.5154275,32.7835321 19.5029821,33.1763403 C19.4990929,33.5699262 19.5076491,33.9347322 19.5232059,34.2622019 C19.5247615,34.5865603 19.5348734,34.8728046 19.5473188,35.1100452 C19.5597642,35.3480635 19.5745432,35.5370781 19.5862107,35.6661992 C19.599434,35.7960982 19.6033232,35.8653257 19.6033232,35.8653257 C19.6033232,35.8653257 19.6639945,35.8365457 19.7682248,35.7766522 C19.8724551,35.7167587 20.0225778,35.6257517 20.2100367,35.5020754 C20.3974956,35.3776214 20.6215129,35.2204981 20.8719767,35.0268165 C21.1216627,34.8331349 21.4040178,34.6028949 21.6793724,34.3298738 C21.959394,34.0576305 22.2541946,33.7457176 22.5528843,33.3925792 C22.7061184,33.2167878 22.8406843,33.0269954 22.9845843,32.8278689 C23.1261508,32.6287424 23.2661616,32.419504 23.4046168,32.1993759 C23.6893054,31.7606754 23.9257681,31.2745267 24.1544525,30.7494861 C24.3901373,30.2252234 24.5612617,29.6574018 24.7098287,29.0553553 C24.7463871,28.9044547 24.7806119,28.7535542 24.8125033,28.6026537 C24.8389498,28.4509753 24.8615071,28.2992969 24.8832865,28.1476185 C24.9252898,27.8442617 24.957959,27.5416828 24.9820719,27.2406596 C25.0108519,26.9373028 25.0054071,26.6386131 25.0046292,26.3438125 Z" id="Shape"></path>
                    <path d="M22.7146746,35.1994965 C22.7146746,35.1994965 22.5279935,35.3130608 22.2246367,35.5292998 C22.0729584,35.6374192 21.8917221,35.7712073 21.69104,35.9283306 C21.5906989,36.0068922 21.4849129,36.0916765 21.3752378,36.1811279 C21.2616735,36.2705792 21.1426643,36.3646976 21.0213216,36.4650387 C20.5305059,36.8640695 20.011688,37.3533295 19.455534,37.9055944 C19.3194123,38.0448274 19.1840686,38.1879496 19.0510583,38.3372944 C18.9841642,38.4119669 18.9188258,38.4874171 18.8534875,38.5644231 C18.7842599,38.6398734 18.7158102,38.7168793 18.6481383,38.7954409 C18.3751172,39.1081317 18.1199864,39.4441577 17.8741896,39.7988518 C17.6175031,40.1496566 17.3911523,40.5082399 17.191248,40.8683788 C16.9804539,41.2230729 16.7867723,41.5769891 16.6218707,41.9285718 C16.5417534,42.1059188 16.4546355,42.2762653 16.3745182,42.4450561 C16.2944009,42.6146248 16.2205063,42.7818599 16.1505009,42.9467616 C16.0797177,43.1108854 16.0182685,43.2750091 15.9537079,43.4313545 C15.8868139,43.5861443 15.8253647,43.7378227 15.7685825,43.884834 C15.6534625,44.1780789 15.5593441,44.455767 15.4745598,44.7023416 C15.3843306,44.9458049 15.3112139,45.1620438 15.252876,45.34328 C15.137756,45.7057524 15.0848631,45.9251027 15.0848631,45.9251027 C15.0848631,45.9251027 15.2886566,45.9017676 15.6394614,45.8224281 C15.814475,45.7827584 16.0268247,45.7283097 16.2679544,45.655193 C16.5075285,45.5805205 16.7867723,45.491847 17.0675718,45.3681708 C17.3530382,45.2460503 17.6595064,45.0998168 17.9807534,44.9240254 C18.1394323,44.8353519 18.3082231,44.7427892 18.4684577,44.6370032 C18.6286923,44.5312173 18.7912604,44.417653 18.9553842,44.2963102 C19.119508,44.1749675 19.2844096,44.0450686 19.4493113,43.9073913 C19.5317621,43.8381637 19.6142129,43.7673805 19.6966637,43.6942637 C19.7760032,43.6195913 19.853787,43.5425854 19.9323486,43.4632459 C20.2434837,43.1458881 20.5569524,42.795861 20.8424189,42.4061643 C21.1185513,42.0125783 21.3659037,41.6018799 21.5860319,41.1880702 C21.7921589,40.7688156 21.9663946,40.3441161 22.1188508,39.927195 C22.1981903,39.7195123 22.2588616,39.5110518 22.3140881,39.3049247 C22.3700924,39.0995755 22.4214297,38.8973377 22.4665443,38.6997669 C22.5124367,38.5021961 22.5528843,38.3092923 22.5894427,38.1218333 C22.6182227,37.9328187 22.6431135,37.749249 22.6641151,37.5734577 C22.7061184,37.2210971 22.7333427,36.8967387 22.7504551,36.6089387 C22.7644562,36.3203609 22.7566778,36.0660079 22.7520108,35.8583252 C22.7411211,35.4382927 22.7146746,35.1994965 22.7146746,35.1994965 Z" id="Shape"></path>
                    <path d="M12.0427392,19.6894097 C12.2263089,19.8309761 12.4199906,19.9655421 12.6058938,20.100108 C12.9683662,20.3731291 13.3495068,20.6251486 13.7150906,20.8647227 C14.0705625,21.1081859 14.4260344,21.3337589 14.7651717,21.5398859 C15.099642,21.7475686 15.4045544,21.9404724 15.6907987,22.1077076 C15.972376,22.2757205 16.2368409,22.4188427 16.4421901,22.5394076 C16.8583334,22.7797595 17.1165755,22.9073249 17.1165755,22.9073249 C17.1165755,22.9073249 17.1290209,22.834986 17.1461334,22.6988643 C17.1539118,22.6304146 17.1632458,22.5471859 17.1749134,22.4491784 C17.1858031,22.350393 17.1966928,22.2368286 17.1990263,22.1123746 C17.2075826,21.861133 17.2122496,21.5554427 17.2044712,21.2046378 C17.2021377,21.1167421 17.2013599,21.0257351 17.1951372,20.9331724 C17.1865809,20.8406097 17.1780247,20.7464913 17.1694685,20.6492616 C17.1508004,20.4548021 17.1274653,20.2502308 17.0986853,20.0371032 C17.0839063,19.9305394 17.0683496,19.8216421 17.0527928,19.7111891 C17.0302355,19.6022918 17.0069004,19.491061 16.9835653,19.3782745 C16.9345615,19.1527015 16.879335,18.9209059 16.8178858,18.6828875 C16.7611036,18.4433134 16.6724301,18.2084064 16.5884236,17.9649431 C16.4997501,17.7238134 16.4110766,17.4756831 16.3014015,17.2322199 C16.1878371,16.9903123 16.0657166,16.746849 15.9358177,16.5041636 C15.8689236,16.3835988 15.8066966,16.2599226 15.7312463,16.142469 C15.655796,16.0250155 15.5787901,15.907562 15.4994506,15.7908863 C15.3384382,15.5590906 15.1782036,15.3249614 14.9923004,15.1048333 C14.8048414,14.8862609 14.6080484,14.6731333 14.4034771,14.4677841 C14.2043506,14.2593236 13.9748884,14.079643 13.756316,13.9046295 C13.645863,13.8182895 13.5346322,13.734283 13.4241792,13.6541657 C13.3137263,13.5732706 13.2024954,13.4962646 13.0842641,13.4270371 C12.8516906,13.2854706 12.6198949,13.1563495 12.3904327,13.0381181 C12.2745349,12.9797803 12.1640819,12.9206646 12.0450727,12.8716608 C11.9268414,12.8218792 11.8101657,12.775209 11.69349,12.7300944 C11.4609165,12.6414208 11.23301,12.5628592 11.0097705,12.4944095 C10.7880867,12.4244041 10.5562911,12.3785116 10.3400521,12.3326192 C9.90290726,12.2455014 9.49765373,12.1871635 9.10640129,12.1739403 C8.71981588,12.15605 8.37212235,12.1599392 8.06332073,12.1786073 C7.74751856,12.2058316 7.47605314,12.2431679 7.25436935,12.2812819 C6.81022394,12.35751 6.55976015,12.4329603 6.55976015,12.4329603 C6.55976015,12.4329603 6.64765583,12.664756 6.82733637,13.0241171 C6.87167313,13.1143463 6.92301043,13.2107982 6.97823692,13.3158063 C7.02957421,13.4254814 7.08635638,13.5421571 7.14936124,13.6634998 C7.21236611,13.7848425 7.280038,13.9116301 7.3539326,14.041529 C7.37260071,14.0741982 7.39126882,14.1068674 7.41071476,14.1403144 C7.42860503,14.1753171 7.44649531,14.2103198 7.46438558,14.2453225 C7.50172179,14.3153279 7.53983585,14.3861112 7.57872774,14.4584501 C7.6580672,14.6023501 7.74362937,14.7478058 7.83541423,14.8948171 C7.92408775,15.0457177 8.01120559,15.2051744 8.10921316,15.360742 C8.15821694,15.4393036 8.2087764,15.5170874 8.26089154,15.595649 C8.28733803,15.6345409 8.31378452,15.6734328 8.34100884,15.7131025 C8.36589965,15.7543279 8.3915683,15.7947755 8.41723695,15.8360009 C8.52068939,16.0001247 8.63114236,16.1634707 8.75092939,16.3252609 C8.87538345,16.483162 8.98428075,16.6589534 9.11340183,16.8230772 C9.17718454,16.9063058 9.24252292,16.9887566 9.31097265,17.0704296 L9.41520292,17.1925501 L9.515544,17.3201155 C9.65166563,17.4896842 9.79789915,17.6561415 9.95502239,17.8194875 C10.0359175,17.8996048 10.1113678,17.9851669 10.1891516,18.0691734 C10.2677132,18.1531799 10.3493862,18.2364085 10.4341705,18.3180815 C10.7834197,18.6408842 11.11789,18.9621313 11.4928078,19.2522648 C11.5877041,19.3238259 11.6755997,19.3992761 11.7658289,19.4723929 C11.8583916,19.5470653 11.9501765,19.6186264 12.0427392,19.6894097 Z" id="Shape"></path>
                    <path d="M16.8373317,35.0944884 C16.908115,35.1862733 16.946229,35.2360549 16.946229,35.2360549 C16.946229,35.2360549 16.9858988,35.1831619 17.0450145,35.0804873 C17.1056858,34.9778127 17.1920258,34.8261343 17.2954782,34.6293414 C17.3989307,34.4333262 17.5194955,34.1921965 17.647061,33.911397 C17.7614031,33.628264 17.8827458,33.3046835 18.0009772,32.9468781 C18.1277647,32.5906283 18.2133269,32.1947089 18.3004448,31.7738986 C18.3206685,31.6681126 18.3408923,31.5615489 18.3611161,31.4534294 C18.3813399,31.3453099 18.3992302,31.234857 18.4093421,31.1228483 C18.433455,30.898831 18.4536788,30.6701467 18.4676799,30.4360175 C18.4746804,30.3193418 18.4801253,30.2011105 18.4847923,30.0828791 C18.486348,30.0237634 18.4879037,29.9638699 18.4894594,29.9039764 C18.4879037,29.8440829 18.4855702,29.7841894 18.4840145,29.723518 C18.4746804,29.4823883 18.4583458,29.2381472 18.4342329,28.9923504 C18.4225653,28.869452 18.4085642,28.7465537 18.3922296,28.6228774 C18.3751172,28.4992012 18.3478929,28.3763028 18.3230021,28.2526266 C18.2708869,28.006052 18.2102156,27.7586996 18.1394323,27.5144585 C18.0740939,27.2694396 17.977642,27.0329769 17.8827458,26.8050704 C17.7862939,26.5771639 17.6836193,26.3570358 17.5754999,26.1454639 C17.3514826,25.7238757 17.0877955,25.3396238 16.8272199,24.9903747 C16.2765107,24.2965433 15.6923544,23.7505011 15.1260885,23.3475811 C14.8460668,23.1453433 14.5886025,22.9734411 14.3443614,22.8342081 C14.097009,22.695753 13.8768809,22.5853 13.6933111,22.4997378 C13.3253938,22.3293913 13.1021544,22.2547189 13.1021544,22.2547189 C13.1021544,22.2547189 13.0624846,22.4810697 13.0313711,22.8583211 C13.0235927,22.9524395 13.0165922,23.0566697 13.0111473,23.1686784 C13.0018133,23.2814649 12.9924792,23.4035854 12.9823673,23.5327065 C12.9621435,23.7917265 12.95981,24.077193 12.9528095,24.3875503 C12.9395862,24.6994633 12.9419198,25.0323779 12.95981,25.3800714 C12.95981,25.7316541 12.9862565,26.0972379 13.0282598,26.4752671 C13.0422608,26.6650596 13.0624846,26.8579633 13.0912646,27.0524228 C13.1169333,27.2476601 13.1628257,27.4444531 13.1908279,27.6451353 C13.2242749,27.8458174 13.2662781,28.0480553 13.3183933,28.2526266 C13.3440619,28.3545234 13.3728419,28.4579758 13.4031776,28.5606504 C13.4280684,28.6641028 13.4552927,28.7683331 13.4856284,28.8725634 C13.6038598,29.2902623 13.7710949,29.6962937 13.9219955,30.0906575 C14.0798965,30.4850213 14.2774674,30.8692732 14.4501474,31.2387462 C14.5411544,31.4230937 14.6360506,31.6051078 14.7332803,31.7824548 C14.8281766,31.9598018 14.9355182,32.1348154 15.0241917,32.3028283 C15.210095,32.6396321 15.4022209,32.9601013 15.5896798,33.2564576 C15.7825836,33.5535916 15.9490409,33.8242792 16.1092755,34.0654089 C16.2687323,34.3065387 16.4157436,34.5181106 16.5401977,34.6915684 C16.6623182,34.8650262 16.7657707,35.0019257 16.8373317,35.0944884 Z" id="Shape"></path>
                    <path d="M12.3367619,40.3487831 C12.3422068,40.5199075 12.3523187,40.6894761 12.3663197,40.8574891 C12.3803208,41.0255021 12.3982111,41.1919594 12.4192127,41.3553053 C12.4402143,41.5194291 12.4542154,41.6749967 12.4767727,41.8305642 C12.518776,42.1401437 12.5701133,42.4372778 12.6253398,42.7149659 C12.6844554,42.9949875 12.7280144,43.2431178 12.7809073,43.4710243 C12.8314668,43.6973751 12.8812484,43.8972794 12.9255852,44.0629589 C13.0134808,44.3943178 13.0795971,44.5879994 13.0795971,44.5879994 C13.0795971,44.5879994 13.2444987,44.4658789 13.5105192,44.2294162 C13.6435295,44.1111848 13.8014306,43.9649513 13.9772219,43.7907156 C14.1467906,43.6133686 14.3256933,43.4041302 14.5154857,43.170001 C14.610382,43.0533254 14.7068339,42.9296491 14.8040636,42.7997502 C14.8989598,42.6690735 14.9876333,42.527507 15.0794182,42.3828291 C15.1704252,42.2373734 15.2606544,42.0856951 15.3493279,41.9293496 C15.4380014,41.7730042 15.526675,41.611214 15.5997917,41.438534 C15.7514701,41.0962853 15.8961479,40.7369242 16.0112679,40.358895 C16.1147204,39.9761988 16.1963934,39.5787236 16.2477307,39.1734701 C16.2874004,38.7643274 16.2850669,38.3629631 16.2625096,37.9818225 C16.2562869,37.8861485 16.2492863,37.7920301 16.2399523,37.6994674 C16.226729,37.605349 16.2127279,37.5120085 16.1971712,37.4202236 C16.1660577,37.2366539 16.1294993,37.0577512 16.0882739,36.8850712 C15.9365955,36.1966846 15.6635744,35.5853041 15.4099993,35.0937106 C15.3454387,34.9708122 15.281656,34.8541365 15.2178733,34.7452392 C15.1502014,34.6347862 15.0840852,34.5321116 15.0195247,34.4364376 C14.8911814,34.2458673 14.7721722,34.084077 14.6702755,33.9541781 C14.4672598,33.6936024 14.3326938,33.5559251 14.3326938,33.5559251 C14.3326938,33.5559251 14.2237965,33.7130484 14.0666733,33.9907365 C13.986556,34.1291916 13.9009938,34.2987603 13.7983192,34.4908862 C13.6925333,34.6822343 13.5805246,34.8976954 13.4708495,35.1357138 C13.0204814,36.0870095 12.5467781,37.3338836 12.3834322,38.7627717 C12.3422068,39.1205771 12.3188716,39.4737155 12.3243165,39.8268539 C12.3250943,39.9147496 12.3282057,40.0034231 12.331317,40.090541 C12.3328727,40.1776588 12.3344284,40.263221 12.3367619,40.3487831 Z" id="Shape"></path>
                </g>
                <path d="M34.6235924,56 L32.1899986,56 L35.1431236,46.6689453 L38.1714439,46.6689453 L41.1040611,56 L38.4858971,56 L37.9526939,53.9765625 L35.1704674,53.9765625 L34.6235924,56 Z M36.633358,48.8017578 L36.5171471,48.8017578 L35.6011314,52.2197266 L37.5288658,52.2197266 L36.633358,48.8017578 Z M42.5061314,53.2314453 C42.5266392,54.6054688 43.4358189,56.1640625 46.3479283,56.1640625 C48.8840611,56.1640625 50.2512486,54.9335938 50.2512486,53.1083984 C50.2512486,51.2900391 48.9934361,50.6269531 47.6672642,50.3876953 L46.3684361,50.1416016 C45.5754673,49.9980469 45.1242955,49.7246094 45.1242955,49.2529297 C45.1242955,48.7060547 45.5686314,48.3164062 46.4026158,48.3164062 C47.3528111,48.3164062 47.803983,48.8632812 47.8381627,49.3828125 L50.0803502,49.3828125 C50.0666783,47.8310547 48.781522,46.4980469 46.4094517,46.4980469 C44.2492955,46.4980469 42.6907017,47.5644531 42.6907017,49.4511719 C42.6907017,51.1123047 43.7981236,51.8642578 45.2268345,52.1445312 L46.484647,52.3974609 C47.3733189,52.5751953 47.8449986,52.8144531 47.8449986,53.3613281 C47.8449986,53.9082031 47.4074986,54.3251953 46.4299595,54.3251953 C45.397733,54.3251953 44.8576939,53.7851562 44.8235142,53.2314453 L42.5061314,53.2314453 Z M55.1328111,56 L55.1328111,46.6689453 L52.6855454,46.6689453 L52.6855454,56 L55.1328111,56 Z M60.1237485,50.8525391 C60.1237485,49.3212891 60.7526548,48.5146484 61.7643735,48.5146484 C62.7692564,48.5146484 63.2887876,49.2939453 63.2887876,50.2167969 L65.6198423,50.2167969 L65.6198423,49.9091797 C65.6198423,47.9335938 64.0749204,46.5048828 61.7438657,46.5048828 C59.1188657,46.5048828 57.6217954,48.1796875 57.6217954,50.8525391 L57.6217954,51.8300781 C57.6217954,54.5097656 59.1120298,56.1640625 61.7370298,56.1640625 C64.1022642,56.1640625 65.6198423,54.7285156 65.6198423,52.8144531 L65.6198423,52.4931641 L63.2887876,52.4931641 C63.2887876,53.4160156 62.7760923,54.1542969 61.7712095,54.1542969 C60.7458189,54.1542969 60.1237485,53.375 60.1237485,51.8369141 L60.1237485,50.8525391 Z" id="ASIC" stroke="#FFFFFF" stroke-width="0.5" fill="#FFFFFF"></path>
                <g id="Group-67" transform="translate(39.000000, 69.000000)">
                    <path d="M21.402,9.098 C20.931,8.686 20.444,8.26 20.28,7.865 C20.103,7.439 20.144,6.77 20.184,6.124 C20.246,5.103 20.311,4.049 19.632,3.369 C18.953,2.69 17.898,2.756 16.877,2.817 C16.229,2.856 15.561,2.896 15.136,2.721 C14.741,2.557 14.315,2.07 13.903,1.599 C13.248,0.85 12.504,0 11.5,0 C10.496,0 9.752,0.85 9.098,1.598 C8.686,2.069 8.26,2.556 7.865,2.72 C7.439,2.897 6.77,2.856 6.124,2.816 C5.103,2.755 4.048,2.688 3.369,3.368 C2.69,4.048 2.754,5.102 2.817,6.123 C2.856,6.77 2.897,7.438 2.721,7.864 C2.557,8.259 2.07,8.685 1.599,9.097 C0.85,9.752 0,10.496 0,11.5 C0,12.504 0.85,13.248 1.598,13.902 C2.069,14.314 2.556,14.74 2.72,15.135 C2.897,15.561 2.856,16.23 2.816,16.876 C2.754,17.897 2.689,18.951 3.368,19.631 C4.048,20.311 5.103,20.245 6.123,20.183 C6.769,20.143 7.438,20.102 7.864,20.279 C8.259,20.443 8.685,20.93 9.097,21.401 C9.752,22.15 10.496,23 11.5,23 C12.504,23 13.248,22.15 13.902,21.402 C14.314,20.931 14.74,20.444 15.135,20.28 C15.561,20.104 16.229,20.144 16.876,20.184 C17.896,20.245 18.952,20.311 19.631,19.632 C20.31,18.952 20.246,17.898 20.183,16.877 C20.144,16.23 20.103,15.562 20.279,15.136 C20.443,14.741 20.93,14.315 21.401,13.903 C22.15,13.248 23,12.504 23,11.5 C23,10.496 22.15,9.752 21.402,9.098 Z" id="Path" fill="#34E834"></path>
                    <polygon id="Shape" stroke="#000000" fill="#000000" fill-rule="nonzero" points="8.73856037 11.1542849 10.9253491 13.3428794 15.2682286 9 16.0067889 9.74036614 10.9253491 14.8200002 8 11.894651"></polygon>
                </g>
            </g>
        </g>
    </g>
</svg>