<?xml version="1.0" encoding="utf-8"?>
<!-- Generator: Adobe Illustrator 25.2.3, SVG Export Plug-In . SVG Version: 6.00 Build 0)  -->
<svg version="1.1" id="Слой_1" xmlns="http://www.w3.org/2000/svg" xmlns:xlink="http://www.w3.org/1999/xlink" x="0px" y="0px"
	 viewBox="0 0 600 400" style="enable-background:new 0 0 600 400;" xml:space="preserve">
<style type="text/css">
	.st0{fill:#34E834;}
</style>
<g id="NAME">
</g>
<g>
	<path class="st0" d="M43.6,0.7v35.8h-7.8V0.7H43.6z"/>
	<path d="M8,24.6v11.7H0V24.6H8z"/>
	<path d="M19.7,10.7v25.6h-7.8V10.7H19.7z"/>
	<path d="M31.4,18.7v17.8h-7.8V18.7H31.4z"/>
	<path class="st0" d="M79.8,22.8c-0.8,8.8-6.2,14.7-16,14.7c-10.4,0-17.3-7.5-17.3-18.7C46.6,8.3,53.3,0,64,0
		c8.6,0,14.8,5.4,15.5,12.9H72c-0.8-3.9-3.7-6.2-8-6.2c-6.8,0-9.4,6.2-9.4,12.2c0,7.3,3.6,12.1,9.4,12.1c4.7,0,7.5-2.8,8.1-8h7.7
		C79.8,23,79.8,22.8,79.8,22.8z"/>
	<path d="M87.1,36.2V0.3h11.1l8.3,24.6l8.1-24.6h10.9v35.8h-7.3V10.7l-8.8,25.4h-6L94.6,11v25.1L87.1,36.2L87.1,36.2z"/>
	<path d="M152.8,36.3c0-2.8,0-4.9,0-6.4V18.1c0-7.2-5.9-8.5-11.1-8.5h-0.2c-7.5,0-11.6,2.9-11.9,8.8h6.7c0.5-2.9,1.8-3.9,5-3.9
		c3.1,0,4.7,1.1,4.7,3.4c0,2.1-1.6,2.4-6.2,3.1l-1.1,0.2c-4.9,0.7-10.3,1.8-10.3,8.1c0,4.9,3.4,7.8,9.3,7.8c3.1,0,6.2-1,8.3-3.3v2.4
		L152.8,36.3L152.8,36.3z M145.9,23.8v2.9c0,3.7-2.6,5.7-6.4,5.7c-2.4,0-3.9-1.3-3.9-3.4c0-3.1,2.8-3.4,5.2-3.9
		C142.7,24.8,144.3,24.8,145.9,23.8z"/>
	<path d="M162.2,36.3V20.2c0-1.6,1.3-3.1,3.1-3.1h6.5v-7h-6.5c-5.5,0-9.9,4.6-9.9,10.1v16.1C155.4,36.3,162.2,36.3,162.2,36.3z"/>
	<path d="M231.3,0.5v9.6h7.8v7h-7.8v9.1c0,1.6,1.3,3.1,3.1,3.1h4.9v7h-4.9c-5.5,0-9.9-4.6-9.9-10.1V0.5H231.3z"/>
	<path d="M197.9,10.3l-9.8,9.6L199,36.2h-8.6l-7.2-11.6l-2.9,2.8v8.8h-7V0.3h7v19.2l9.1-9.3L197.9,10.3L197.9,10.3z"/>
	<path d="M221.8,28.2H215c-1,2.6-2.6,3.7-5.2,3.7c-3.7,0-6-2.4-6-6.8h18.6v-0.7c0-9.1-4.9-14.8-12.7-14.8c-7.5,0-13,5.9-13,13.8
		c0,8.1,5.2,13.5,13.2,13.5C215.6,37,220.2,33.7,221.8,28.2z M215,20.5h-11.2c0.3-3.6,2.6-5.9,5.7-5.9C213,14.7,214.8,17.4,215,20.5
		z"/>
	<path d="M263.5,17.8h-6.7c-0.3-2.8-2.1-3.6-4.9-3.6c-2.4,0-4.1,1-4.1,2.6c0,1.8,1.6,2.3,4.7,2.9l2.4,0.5c4.4,1,9.3,2.3,9.3,7.8
		c0,5.4-4.4,8.8-11.7,8.8c-6.5,0-12.1-2.6-12.1-9.1h6.7c0.3,3.1,2.3,4.4,5.5,4.4c2.9,0,4.7-1.3,4.7-3.3c0-2.1-2-2.6-5.5-3.4
		l-0.7-0.2c-4.6-1-10.3-1.8-10.3-7.8c0-5,4.1-8,11.2-8C258.3,9.6,263.4,11.7,263.5,17.8z"/>
</g>
</svg>
