<?xml version="1.0" encoding="utf-8"?>
<!-- Generator: Adobe Illustrator 16.0.0, SVG Export Plug-In . SVG Version: 6.00 Build 0)  -->
<!DOCTYPE svg PUBLIC "-//W3C//DTD SVG 1.1//EN" "http://www.w3.org/Graphics/SVG/1.1/DTD/svg11.dtd">
<svg version="1.1" id="Слой_1" xmlns="http://www.w3.org/2000/svg" xmlns:xlink="http://www.w3.org/1999/xlink" x="0px" y="0px"
	 width="31.919px" height="40.22px" viewBox="0 0 31.919 40.22" enable-background="new 0 0 31.919 40.22" xml:space="preserve">
<g>
	<g>
		<defs>
			<rect id="SVGID_1_" y="35.604" width="31.919" height="2.741"/>
		</defs>
		<clipPath id="SVGID_2_">
			<use xlink:href="#SVGID_1_"  overflow="visible"/>
		</clipPath>
		<path clip-path="url(#SVGID_2_)" fill="#FFFFFF" d="M31.919,36.974c0,0.757-6.995,1.371-15.959,1.371S0,37.73,0,36.974
			s6.995-1.37,15.959-1.37S31.919,36.217,31.919,36.974"/>
		<path clip-path="url(#SVGID_2_)" fill="#FFFFFF" d="M15.959,35.62c8.868,0,15.788,0.606,15.788,1.354
			c0,0.748-6.92,1.354-15.788,1.354c-8.867,0-15.787-0.606-15.787-1.354C0.172,36.227,7.092,35.62,15.959,35.62"/>
		<path clip-path="url(#SVGID_2_)" fill="#FFFFFF" d="M15.959,35.637c8.77,0,15.616,0.599,15.616,1.338
			c0,0.738-6.846,1.337-15.616,1.337c-8.771,0-15.615-0.599-15.615-1.337C0.344,36.235,7.189,35.637,15.959,35.637"/>
		<path clip-path="url(#SVGID_2_)" fill="#FDFEFF" d="M15.959,35.653c8.673,0,15.444,0.592,15.444,1.321s-6.771,1.32-15.444,1.32
			c-8.673,0-15.443-0.591-15.443-1.32S7.287,35.653,15.959,35.653"/>
		<path clip-path="url(#SVGID_2_)" fill="#FBFCFC" d="M15.959,35.67c8.576,0,15.271,0.584,15.271,1.304
			c0,0.721-6.695,1.306-15.271,1.306S0.688,37.694,0.688,36.974C0.688,36.254,7.384,35.67,15.959,35.67"/>
		<path clip-path="url(#SVGID_2_)" fill="#FAFAFA" d="M15.959,35.686c8.479,0,15.099,0.577,15.099,1.288
			c0,0.712-6.62,1.289-15.099,1.289c-8.479,0-15.099-0.577-15.099-1.289C0.86,36.263,7.481,35.686,15.959,35.686"/>
		<path clip-path="url(#SVGID_2_)" fill="#F9F9FA" d="M15.959,35.702c8.381,0,14.927,0.569,14.927,1.271
			c0,0.703-6.546,1.272-14.927,1.272S1.032,37.677,1.032,36.974C1.032,36.271,7.578,35.702,15.959,35.702"/>
		<path clip-path="url(#SVGID_2_)" fill="#F7F8F9" d="M15.959,35.719c8.285,0,14.755,0.563,14.755,1.256
			c0,0.692-6.471,1.255-14.755,1.255c-8.284,0-14.755-0.563-14.755-1.255C1.204,36.281,7.675,35.719,15.959,35.719"/>
		<path clip-path="url(#SVGID_2_)" fill="#F7F8F9" d="M15.959,35.735c8.187,0,14.583,0.555,14.583,1.238
			c0,0.685-6.396,1.239-14.583,1.239S1.376,37.658,1.376,36.974C1.376,36.29,7.772,35.735,15.959,35.735"/>
		<path clip-path="url(#SVGID_2_)" fill="#F6F6F7" d="M15.959,35.752c8.09,0,14.411,0.548,14.411,1.222
			c0,0.676-6.32,1.223-14.411,1.223c-8.09,0-14.411-0.547-14.411-1.223C1.548,36.3,7.87,35.752,15.959,35.752"/>
		<path clip-path="url(#SVGID_2_)" fill="#F5F5F5" d="M15.959,35.769c7.993,0,14.239,0.54,14.239,1.205
			c0,0.666-6.246,1.206-14.239,1.206S1.72,37.64,1.72,36.974C1.72,36.309,7.967,35.769,15.959,35.769"/>
		<path clip-path="url(#SVGID_2_)" fill="#F4F4F5" d="M15.959,35.785c7.896,0,14.067,0.532,14.067,1.189
			c0,0.656-6.171,1.188-14.067,1.188c-7.896,0-14.067-0.532-14.067-1.188C1.892,36.317,8.064,35.785,15.959,35.785"/>
		<path clip-path="url(#SVGID_2_)" fill="#F3F4F4" d="M15.959,35.801c7.798,0,13.895,0.525,13.895,1.174
			c0,0.647-6.097,1.172-13.895,1.172S2.064,37.622,2.064,36.975C2.064,36.326,8.161,35.801,15.959,35.801"/>
		<path clip-path="url(#SVGID_2_)" fill="#F2F3F3" d="M15.959,35.817c7.702,0,13.723,0.519,13.723,1.156
			c0,0.639-6.021,1.157-13.723,1.157c-7.701,0-13.723-0.519-13.723-1.157C2.236,36.336,8.258,35.817,15.959,35.817"/>
		<path clip-path="url(#SVGID_2_)" fill="#F2F2F2" d="M15.959,35.834c7.604,0,13.551,0.51,13.551,1.14s-5.947,1.141-13.551,1.141
			S2.408,37.604,2.408,36.974S8.355,35.834,15.959,35.834"/>
		<path clip-path="url(#SVGID_2_)" fill="#F1F1F2" d="M15.959,35.851c7.507,0,13.379,0.503,13.379,1.124
			c0,0.62-5.872,1.123-13.379,1.123c-7.507,0-13.379-0.503-13.379-1.123C2.581,36.354,8.453,35.851,15.959,35.851"/>
		<path clip-path="url(#SVGID_2_)" fill="#F0F0F0" d="M15.959,35.867c7.41,0,13.208,0.495,13.208,1.107
			c0,0.611-5.798,1.106-13.208,1.106S2.752,37.586,2.752,36.975C2.752,36.362,8.55,35.867,15.959,35.867"/>
		<path clip-path="url(#SVGID_2_)" fill="#EFEFEF" d="M15.959,35.884c7.313,0,13.035,0.488,13.035,1.09
			c0,0.603-5.722,1.091-13.035,1.091c-7.313,0-13.035-0.488-13.035-1.091C2.924,36.372,8.647,35.884,15.959,35.884"/>
		<path clip-path="url(#SVGID_2_)" fill="#EEEEEE" d="M15.959,35.899c7.215,0,12.863,0.481,12.863,1.074
			c0,0.594-5.647,1.074-12.863,1.074s-12.863-0.48-12.863-1.074C3.097,36.381,8.744,35.899,15.959,35.899"/>
		<path clip-path="url(#SVGID_2_)" fill="#ECEDED" d="M15.959,35.916c7.118,0,12.691,0.474,12.691,1.058
			c0,0.585-5.573,1.058-12.691,1.058c-7.118,0-12.691-0.473-12.691-1.058C3.269,36.39,8.841,35.916,15.959,35.916"/>
		<path clip-path="url(#SVGID_2_)" fill="#EBECEB" d="M15.959,35.933c7.021,0,12.519,0.467,12.519,1.042
			c0,0.574-5.498,1.041-12.519,1.041S3.44,37.549,3.44,36.975C3.44,36.399,8.938,35.933,15.959,35.933"/>
		<path clip-path="url(#SVGID_2_)" fill="#EAEAEC" d="M15.959,35.949c6.923,0,12.347,0.459,12.347,1.024
			c0,0.566-5.424,1.025-12.347,1.025c-6.924,0-12.347-0.459-12.347-1.025C3.613,36.408,9.036,35.949,15.959,35.949"/>
		<path clip-path="url(#SVGID_2_)" fill="#E9EAEB" d="M15.959,35.966c6.827,0,12.175,0.451,12.175,1.008
			c0,0.558-5.349,1.009-12.175,1.009S3.785,37.531,3.785,36.974C3.785,36.417,9.133,35.966,15.959,35.966"/>
		<path clip-path="url(#SVGID_2_)" fill="#E9E9EA" d="M15.959,35.982c6.73,0,12.003,0.443,12.003,0.991s-5.273,0.992-12.003,0.992
			c-6.729,0-12.003-0.444-12.003-0.992S9.23,35.982,15.959,35.982"/>
		<path clip-path="url(#SVGID_2_)" fill="#E8E8E8" d="M15.959,35.999c6.632,0,11.831,0.437,11.831,0.976
			c0,0.538-5.198,0.975-11.831,0.975c-6.632,0-11.831-0.437-11.831-0.975C4.128,36.436,9.328,35.999,15.959,35.999"/>
		<path clip-path="url(#SVGID_2_)" fill="#E7E7E7" d="M15.959,36.016c6.535,0,11.659,0.429,11.659,0.958
			c0,0.53-5.124,0.96-11.659,0.96c-6.535,0-11.659-0.43-11.659-0.96C4.3,36.444,9.424,36.016,15.959,36.016"/>
		<path clip-path="url(#SVGID_2_)" fill="#E5E6E7" d="M15.959,36.031c6.438,0,11.487,0.422,11.487,0.942
			c0,0.521-5.049,0.942-11.487,0.942c-6.438,0-11.487-0.421-11.487-0.942C4.473,36.453,9.522,36.031,15.959,36.031"/>
		<path clip-path="url(#SVGID_2_)" fill="#E4E5E6" d="M15.959,36.048c6.34,0,11.315,0.415,11.315,0.926
			c0,0.512-4.975,0.927-11.315,0.927c-6.341,0-11.315-0.415-11.315-0.927C4.645,36.463,9.619,36.048,15.959,36.048"/>
		<path clip-path="url(#SVGID_2_)" fill="#E3E4E5" d="M15.959,36.064c6.244,0,11.143,0.407,11.143,0.91
			c0,0.502-4.899,0.909-11.143,0.909c-6.243,0-11.143-0.407-11.143-0.909C4.816,36.472,9.716,36.064,15.959,36.064"/>
		<path clip-path="url(#SVGID_2_)" fill="#E2E3E4" d="M15.959,36.081c6.146,0,10.971,0.399,10.971,0.894
			c0,0.492-4.825,0.893-10.971,0.893c-6.146,0-10.971-0.4-10.971-0.893C4.989,36.48,9.813,36.081,15.959,36.081"/>
		<path clip-path="url(#SVGID_2_)" fill="#E1E2E2" d="M15.959,36.098c6.049,0,10.798,0.393,10.798,0.876
			c0,0.484-4.749,0.877-10.798,0.877c-6.049,0-10.799-0.393-10.799-0.877C5.161,36.49,9.911,36.098,15.959,36.098"/>
		<path clip-path="url(#SVGID_2_)" fill="#E0E1E2" d="M15.959,36.114c5.952,0,10.626,0.385,10.626,0.859
			c0,0.476-4.675,0.86-10.626,0.86c-5.952,0-10.627-0.385-10.627-0.86C5.333,36.499,10.007,36.114,15.959,36.114"/>
		<path clip-path="url(#SVGID_2_)" fill="#E0E1E1" d="M15.959,36.131c5.855,0,10.455,0.377,10.455,0.843
			c0,0.467-4.6,0.844-10.455,0.844c-5.854,0-10.455-0.377-10.455-0.844C5.505,36.508,10.105,36.131,15.959,36.131"/>
		<path clip-path="url(#SVGID_2_)" fill="#DEDFE0" d="M15.959,36.146c5.757,0,10.283,0.371,10.283,0.828s-4.525,0.827-10.283,0.827
			s-10.283-0.37-10.283-0.827S10.202,36.146,15.959,36.146"/>
		<path clip-path="url(#SVGID_2_)" fill="#DDDEDF" d="M15.959,36.163c5.661,0,10.111,0.363,10.111,0.811
			c0,0.448-4.45,0.811-10.111,0.811c-5.66,0-10.111-0.362-10.111-0.811C5.849,36.526,10.299,36.163,15.959,36.163"/>
		<path clip-path="url(#SVGID_2_)" fill="#DDDEDF" d="M15.959,36.18c5.563,0,9.939,0.355,9.939,0.794
			c0,0.439-4.376,0.795-9.939,0.795c-5.563,0-9.938-0.355-9.938-0.795C6.021,36.535,10.396,36.18,15.959,36.18"/>
		<path clip-path="url(#SVGID_2_)" fill="#DCDDDE" d="M15.959,36.196c5.466,0,9.767,0.349,9.767,0.777
			c0,0.43-4.301,0.778-9.767,0.778c-5.466,0-9.767-0.349-9.767-0.778C6.193,36.545,10.494,36.196,15.959,36.196"/>
		<path clip-path="url(#SVGID_2_)" fill="#DBDCDD" d="M15.959,36.213c5.369,0,9.595,0.341,9.595,0.762
			c0,0.42-4.227,0.761-9.595,0.761s-9.595-0.341-9.595-0.761C6.365,36.554,10.591,36.213,15.959,36.213"/>
		<path clip-path="url(#SVGID_2_)" fill="#DBDCDC" d="M15.959,36.229c5.272,0,9.423,0.333,9.423,0.744
			c0,0.412-4.151,0.746-9.423,0.746c-5.271,0-9.422-0.334-9.422-0.746C6.537,36.563,10.688,36.229,15.959,36.229"/>
		<path clip-path="url(#SVGID_2_)" fill="#D9DADB" d="M15.959,36.245c5.174,0,9.25,0.326,9.25,0.729c0,0.403-4.076,0.729-9.25,0.729
			s-9.25-0.325-9.25-0.729C6.709,36.571,10.785,36.245,15.959,36.245"/>
		<path clip-path="url(#SVGID_2_)" fill="#D8D9DA" d="M15.959,36.263c5.078,0,9.079,0.318,9.079,0.711
			c0,0.394-4.001,0.713-9.079,0.713c-5.077,0-9.079-0.319-9.079-0.713C6.881,36.581,10.882,36.263,15.959,36.263"/>
		<path clip-path="url(#SVGID_2_)" fill="#D7D8D9" d="M15.959,36.278c4.98,0,8.907,0.312,8.907,0.696
			c0,0.384-3.927,0.694-8.907,0.694s-8.907-0.311-8.907-0.694C7.053,36.59,10.979,36.278,15.959,36.278"/>
		<path clip-path="url(#SVGID_2_)" fill="#D6D7D8" d="M15.959,36.295c4.883,0,8.735,0.305,8.735,0.679
			c0,0.376-3.852,0.68-8.735,0.68s-8.735-0.304-8.735-0.68C7.225,36.6,11.076,36.295,15.959,36.295"/>
		<path clip-path="url(#SVGID_2_)" fill="#D6D6D7" d="M15.959,36.312c4.786,0,8.563,0.297,8.563,0.662
			c0,0.366-3.777,0.663-8.563,0.663s-8.563-0.297-8.563-0.663C7.397,36.608,11.174,36.312,15.959,36.312"/>
		<path clip-path="url(#SVGID_2_)" fill="#D5D6D6" d="M15.959,36.328c4.689,0,8.39,0.289,8.39,0.646c0,0.357-3.701,0.646-8.39,0.646
			c-4.688,0-8.391-0.289-8.391-0.646C7.569,36.617,11.271,36.328,15.959,36.328"/>
		<path clip-path="url(#SVGID_2_)" fill="#D4D5D5" d="M15.959,36.344c4.591,0,8.218,0.282,8.218,0.63s-3.627,0.63-8.218,0.63
			s-8.219-0.282-8.219-0.63S11.368,36.344,15.959,36.344"/>
		<path clip-path="url(#SVGID_2_)" fill="#D3D4D5" d="M15.959,36.361c4.495,0,8.046,0.274,8.046,0.612
			c0,0.339-3.552,0.614-8.046,0.614c-4.494,0-8.046-0.275-8.046-0.614C7.913,36.636,11.465,36.361,15.959,36.361"/>
		<path clip-path="url(#SVGID_2_)" fill="#D2D3D3" d="M15.959,36.377c4.397,0,7.875,0.268,7.875,0.597
			c0,0.33-3.478,0.598-7.875,0.598s-7.875-0.268-7.875-0.598C8.085,36.645,11.563,36.377,15.959,36.377"/>
		<path clip-path="url(#SVGID_2_)" fill="#D1D2D2" d="M15.959,36.394c4.3,0,7.703,0.26,7.703,0.58c0,0.321-3.402,0.581-7.703,0.581
			c-4.3,0-7.703-0.26-7.703-0.581C8.257,36.653,11.66,36.394,15.959,36.394"/>
		<path clip-path="url(#SVGID_2_)" fill="#D0D1D3" d="M15.959,36.41c4.203,0,7.531,0.253,7.531,0.563
			c0,0.313-3.328,0.564-7.531,0.564s-7.53-0.252-7.53-0.564C8.429,36.663,11.757,36.41,15.959,36.41"/>
		<path clip-path="url(#SVGID_2_)" fill="#CFD0D1" d="M15.959,36.427c4.106,0,7.359,0.245,7.359,0.548
			c0,0.302-3.253,0.547-7.359,0.547c-4.105,0-7.358-0.245-7.358-0.547C8.601,36.672,11.854,36.427,15.959,36.427"/>
		<path clip-path="url(#SVGID_2_)" fill="#CDCED0" d="M15.959,36.443c4.008,0,7.186,0.237,7.186,0.53
			c0,0.294-3.178,0.531-7.186,0.531s-7.187-0.237-7.187-0.531C8.773,36.681,11.951,36.443,15.959,36.443"/>
		<path clip-path="url(#SVGID_2_)" fill="#CDCDCF" d="M15.959,36.46c3.911,0,7.014,0.229,7.014,0.514s-3.104,0.515-7.014,0.515
			c-3.911,0-7.014-0.23-7.014-0.515S12.048,36.46,15.959,36.46"/>
		<path clip-path="url(#SVGID_2_)" fill="#CBCCCE" d="M15.959,36.477c3.814,0,6.842,0.223,6.842,0.497
			c0,0.275-3.028,0.499-6.842,0.499c-3.813,0-6.842-0.224-6.842-0.499C9.117,36.699,12.146,36.477,15.959,36.477"/>
		<path clip-path="url(#SVGID_2_)" fill="#CACBCC" d="M15.959,36.492c3.716,0,6.67,0.216,6.67,0.482c0,0.266-2.954,0.481-6.67,0.481
			c-3.717,0-6.67-0.216-6.67-0.481C9.289,36.708,12.243,36.492,15.959,36.492"/>
		<path clip-path="url(#SVGID_2_)" fill="#C9CACB" d="M15.959,36.509c3.62,0,6.499,0.209,6.499,0.465
			c0,0.258-2.879,0.466-6.499,0.466s-6.498-0.208-6.498-0.466C9.461,36.718,12.34,36.509,15.959,36.509"/>
		<path clip-path="url(#SVGID_2_)" fill="#C8C9CA" d="M15.959,36.525c3.523,0,6.327,0.201,6.327,0.448
			c0,0.248-2.804,0.449-6.327,0.449c-3.522,0-6.326-0.201-6.326-0.449C9.633,36.727,12.437,36.525,15.959,36.525"/>
		<path clip-path="url(#SVGID_2_)" fill="#C7C8C9" d="M15.959,36.542c3.425,0,6.155,0.193,6.155,0.432
			c0,0.239-2.729,0.433-6.155,0.433c-3.425,0-6.154-0.193-6.154-0.433C9.805,36.735,12.535,36.542,15.959,36.542"/>
		<path clip-path="url(#SVGID_2_)" fill="#C7C8C9" d="M15.959,36.559c3.328,0,5.983,0.187,5.983,0.415
			c0,0.23-2.655,0.416-5.983,0.416c-3.328,0-5.982-0.186-5.982-0.416C9.977,36.745,12.631,36.559,15.959,36.559"/>
		<path clip-path="url(#SVGID_2_)" fill="#C6C7C8" d="M15.959,36.575c3.231,0,5.81,0.179,5.81,0.398c0,0.221-2.579,0.399-5.81,0.399
			c-3.23,0-5.811-0.179-5.811-0.399C10.149,36.754,12.729,36.575,15.959,36.575"/>
		<path clip-path="url(#SVGID_2_)" fill="#C5C6C7" d="M15.959,36.591c3.133,0,5.638,0.172,5.638,0.383
			c0,0.212-2.505,0.383-5.638,0.383c-3.134,0-5.638-0.171-5.638-0.383C10.321,36.763,12.826,36.591,15.959,36.591"/>
		<path clip-path="url(#SVGID_2_)" fill="#C3C5C6" d="M15.959,36.608c3.037,0,5.466,0.163,5.466,0.365s-2.43,0.367-5.466,0.367
			c-3.036,0-5.466-0.165-5.466-0.367S12.923,36.608,15.959,36.608"/>
		<path clip-path="url(#SVGID_2_)" fill="#C2C4C5" d="M15.959,36.624c2.939,0,5.294,0.157,5.294,0.35
			c0,0.193-2.355,0.351-5.294,0.351c-2.939,0-5.294-0.157-5.294-0.351C10.665,36.781,13.02,36.624,15.959,36.624"/>
		<path clip-path="url(#SVGID_2_)" fill="#C2C3C5" d="M15.959,36.641c2.842,0,5.123,0.149,5.123,0.333
			c0,0.185-2.28,0.334-5.123,0.334c-2.842,0-5.123-0.149-5.123-0.334C10.837,36.79,13.118,36.641,15.959,36.641"/>
		<path clip-path="url(#SVGID_2_)" fill="#C0C2C4" d="M15.959,36.657c2.745,0,4.951,0.143,4.951,0.316
			c0,0.176-2.206,0.317-4.951,0.317s-4.95-0.142-4.95-0.317C11.009,36.8,13.215,36.657,15.959,36.657"/>
		<path clip-path="url(#SVGID_2_)" fill="#BFC1C3" d="M15.959,36.674c2.648,0,4.778,0.135,4.778,0.3c0,0.166-2.13,0.301-4.778,0.301
			c-2.647,0-4.778-0.135-4.778-0.301C11.181,36.809,13.312,36.674,15.959,36.674"/>
		<path clip-path="url(#SVGID_2_)" fill="#BFC0C2" d="M15.959,36.69c2.55,0,4.606,0.127,4.606,0.283
			c0,0.157-2.056,0.284-4.606,0.284s-4.606-0.127-4.606-0.284C11.353,36.817,13.409,36.69,15.959,36.69"/>
		<path clip-path="url(#SVGID_2_)" fill="#BEBFC1" d="M15.959,36.707c2.454,0,4.434,0.119,4.434,0.268
			c0,0.146-1.98,0.267-4.434,0.267c-2.453,0-4.434-0.12-4.434-0.267C11.525,36.826,13.506,36.707,15.959,36.707"/>
		<path clip-path="url(#SVGID_2_)" fill="#BDBEC0" d="M15.959,36.723c2.356,0,4.262,0.113,4.262,0.251
			c0,0.139-1.906,0.251-4.262,0.251s-4.262-0.112-4.262-0.251C11.697,36.836,13.604,36.723,15.959,36.723"/>
		<path clip-path="url(#SVGID_2_)" fill="#BBBDBF" d="M20.05,36.974c0,0.13-1.831,0.235-4.09,0.235c-2.259,0-4.09-0.105-4.09-0.235
			s1.831-0.234,4.09-0.234C18.219,36.739,20.05,36.844,20.05,36.974"/>
	</g>
</g>
<path fill="#535353" d="M23.86,12.909c0-1.13,0.007-2.095-0.001-3.059c-0.013-1.66-0.942-2.605-2.585-2.609
	c-4.45-0.011-8.9-0.017-13.35-0.013C6.533,7.23,5.539,8.203,5.532,9.601c-0.01,2.2,0.033,4.401,0.029,6.602
	c-0.005,4.2-0.02,8.4-0.045,12.601c-0.011,1.812,0.891,2.74,2.714,2.741c4.315,0.001,8.63,0.001,12.945-0.001
	c1.726,0,2.676-0.935,2.684-2.658c0.01-2.271,0.016-4.54-0.007-6.81c-0.005-0.509,0.119-0.889,0.504-1.241
	c0.442-0.407,0.813-0.893,1.339-1.485c0.07,0.385,0.117,0.525,0.117,0.666c0.001,3.708,0.006,7.416-0.011,11.124
	c-0.008,1.603-1.271,2.849-2.887,2.853C17.43,34.002,11.946,34.006,6.462,34c-1.623-0.002-2.883-1.265-2.891-2.927
	c-0.018-3.933-0.002-7.865-0.004-11.798c-0.002-3.974-0.017-7.947-0.012-11.92C3.557,5.418,4.84,4.203,6.757,4.26
	c0.37,0.011,0.553,0.091,0.609,0.513c0.127,0.953,0.576,1.352,1.528,1.355c3.843,0.015,7.687,0.015,11.53,0.001
	c0.995-0.003,1.413-0.419,1.594-1.38c0.033-0.179,0.241-0.438,0.399-0.462c1.801-0.282,3.34,1.051,3.363,2.887
	c0.009,0.719-0.115,1.461,0.023,2.152C26.143,11.027,25.041,11.88,23.86,12.909"/>
<path fill="#535353" d="M14.653,5.255c-1.864,0-3.729-0.015-5.592,0.009C8.455,5.272,8.277,5.05,8.212,4.445
	C8.092,3.309,8.529,2.577,9.421,1.901c3.658-2.773,8.08-2.505,11.362,0.759c0.338,0.335,0.555,2.003,0.244,2.347
	c-0.149,0.164-0.471,0.236-0.714,0.238C18.427,5.264,16.54,5.255,14.653,5.255 M14.686,1.045c-0.711,0-1.3,0.575-1.29,1.259
	c0.01,0.688,0.609,1.266,1.307,1.261c0.669-0.005,1.221-0.56,1.236-1.242C15.955,1.603,15.407,1.044,14.686,1.045"/>
<path fill="#535353" d="M16.93,24.089c0.585-1.644,1.086-3.103,1.632-4.544c0.093-0.246,0.373-0.423,0.575-0.625
	c2.276-2.279,4.555-4.556,6.834-6.833c0.077-0.078,0.164-0.147,0.245-0.218c0.962,0.99,1.907,1.964,2.919,3.007
	c-0.089,0.099-0.252,0.299-0.435,0.481c-2.29,2.271-4.582,4.54-6.877,6.806c-0.126,0.125-0.257,0.274-0.415,0.332
	C19.981,23.014,18.549,23.516,16.93,24.089 M27.606,14.867c-0.074-0.11-0.147-0.247-0.166-0.24
	c-0.195,0.073-0.424,0.126-0.564,0.266c-2.002,1.986-3.994,3.981-5.976,5.988c-0.146,0.147-0.183,0.4-0.27,0.605
	c0.223-0.073,0.506-0.083,0.656-0.229c0.865-0.844,1.689-1.729,2.545-2.583c1.14-1.138,2.297-2.259,3.442-3.391
	C27.396,15.163,27.49,15.015,27.606,14.867 M19.683,20.498c0.112-0.076,0.214-0.125,0.29-0.2c0.636-0.627,1.267-1.258,1.898-1.889
	c0.758-0.755,1.517-1.512,2.272-2.27c0.713-0.715,1.432-1.425,2.128-2.157c0.09-0.094,0.061-0.301,0.086-0.457
	c-0.16,0.028-0.371,0.001-0.471,0.093c-0.624,0.579-1.229,1.18-1.83,1.783c-0.896,0.899-1.783,1.808-2.679,2.708
	c-0.596,0.6-1.204,1.187-1.79,1.796c-0.088,0.092-0.099,0.276-0.105,0.418C19.48,20.375,19.601,20.431,19.683,20.498 M19.82,22.539
	c-0.463-0.501-0.855-0.923-1.303-1.407c-0.251,0.709-0.477,1.346-0.753,2.124C18.554,22.981,19.178,22.764,19.82,22.539"/>
<path fill="#535353" d="M26.696,11.2c0.505-0.476,1.019-1.004,1.579-1.479c0.534-0.451,1.183-0.407,1.705,0.08
	c0.427,0.397,0.838,0.812,1.233,1.24c0.484,0.525,0.531,1.102,0.083,1.639c-0.484,0.582-1.028,1.112-1.495,1.611
	C28.73,13.226,27.755,12.254,26.696,11.2"/>
<path fill="#535353" d="M22.254,12.321v0.952H12.31c-0.014-0.31-0.028-0.606-0.044-0.952H22.254z"/>
<rect x="12.292" y="25.352" fill="#535353" width="9.951" height="0.884"/>
<path fill="#535353" d="M8.788,18.531c0.71-0.76,1.359-1.455,2.063-2.207c0.243,0.217,0.482,0.432,0.774,0.692
	c-0.965,1.021-1.892,2.001-2.868,3.034c-0.583-0.678-1.114-1.296-1.659-1.93c0.246-0.295,0.427-0.513,0.646-0.775
	C8.095,17.745,8.412,18.104,8.788,18.531"/>
<path fill="#535353" d="M17.475,19.798c-1.621,0-3.248,0.015-4.875-0.025c-0.138-0.004-0.311-0.354-0.377-0.571
	c-0.023-0.075,0.223-0.334,0.353-0.339c1.082-0.038,2.165-0.039,3.247-0.047c0.267-0.002,0.537,0.039,0.802,0.016
	C17.517,18.756,17.561,18.793,17.475,19.798"/>
<rect x="7.255" y="10.962" fill="none" stroke="#535353" stroke-width="0.67" stroke-miterlimit="10" width="3.684" height="3.457"/>
<rect x="7.255" y="16.917" fill="none" stroke="#535353" stroke-width="0.67" stroke-miterlimit="10" width="3.684" height="3.457"/>
<rect x="7.042" y="23.54" fill="none" stroke="#535353" stroke-width="0.67" stroke-miterlimit="10" width="3.684" height="3.457"/>
<path fill="#535353" d="M8.726,13.14c0.71-0.76,1.36-1.455,2.063-2.207c0.243,0.217,0.482,0.432,0.774,0.692
	c-0.965,1.021-1.892,2.001-2.868,3.035c-0.583-0.678-1.114-1.296-1.659-1.93c0.246-0.296,0.427-0.513,0.646-0.776
	C8.033,12.354,8.35,12.712,8.726,13.14"/>
</svg>
