<?xml version="1.0" encoding="UTF-8" standalone="no"?>
<svg width="18px" height="18px" viewBox="0 0 18 18" version="1.1" xmlns="http://www.w3.org/2000/svg" xmlns:xlink="http://www.w3.org/1999/xlink">
    <!-- Generator: Sketch 39.1 (31720) - http://www.bohemiancoding.com/sketch -->
    <title>Group 5</title>
    <desc>Created with Sketch.</desc>
    <defs></defs>
    <g id="Page-1" stroke="none" stroke-width="1" fill="none" fill-rule="evenodd">
        <g id="Styleguide" transform="translate(-93.000000, -2542.000000)">
            <g id="Group" transform="translate(86.000000, 1139.000000)">
                <g id="Group-5" transform="translate(7.000000, 1403.000000)">
                    <circle id="Oval-3" fill="#525252" cx="9" cy="9" r="9"></circle>
                    <path d="M10.2805913,3 C11.0957565,3 11.5032174,3.54804 11.5032174,4.17468 C11.5032174,4.95732 10.7954261,5.68128 9.8730087,5.68128 C9.10069565,5.68128 8.65013913,5.23104 8.67156522,4.48764 C8.67156522,3.86112 9.20782609,3 10.2805913,3 L10.2805913,3 Z M7.77045217,15 C7.12681739,15 6.65483478,14.60856 7.1053913,12.8862 L7.84434783,9.83136 C7.97302609,9.34212 7.99408696,9.14652 7.84434783,9.14652 C7.65102609,9.14652 6.81553043,9.48444 6.3213913,9.81732 L6,9.28872 C7.56593043,7.9776 9.36754783,7.20864 10.1396174,7.20864 C10.7830087,7.20864 10.8905043,7.97196 10.5687478,9.1464 L9.72278261,12.3576 C9.57255652,12.92508 9.6372,13.12068 9.78693913,13.12068 C9.98001739,13.12068 10.6131826,12.88512 11.2351478,12.39576 L11.6,12.88524 C10.0768,14.412 8.41408696,15 7.77045217,15 L7.77045217,15 Z" id="Shape" fill="#FFFFFF"></path>
                </g>
            </g>
        </g>
    </g>
</svg>