<?xml version="1.0" encoding="utf-8"?>
<!-- Generator: Adobe Illustrator 25.2.3, SVG Export Plug-In . SVG Version: 6.00 Build 0)  -->
<svg version="1.1" id="Layer_1" xmlns="http://www.w3.org/2000/svg" xmlns:xlink="http://www.w3.org/1999/xlink" x="0px" y="0px"
	 viewBox="0 0 140 35" style="enable-background:new 0 0 140 35;" xml:space="preserve">
<style type="text/css">
	.st0{fill:#34E834;}
	.st1{fill:#FFFFFF;}
</style>
<g>
	<path class="st0" d="M23.2,7.8v19h-4.1v-19C19.1,7.8,23.2,7.8,23.2,7.8z"/>
	<path class="st1" d="M4.3,20.5v6.2H0.1v-6.2H4.3z"/>
	<path class="st1" d="M10.5,13.2v13.5H6.4V13.2H10.5z"/>
	<path class="st1" d="M16.7,17.4v9.4h-4.1v-9.4H16.7z"/>
	<path class="st0" d="M42.4,19.6c-0.4,4.7-3.3,7.8-8.5,7.8c-5.5,0-9.1-4-9.1-9.9c0-5.5,3.5-9.9,9.2-9.9c4.6,0,7.8,2.8,8.2,6.8h-4
		c-0.4-2.1-2-3.3-4.2-3.3c-3.6,0-5,3.3-5,6.5c0,3.9,1.9,6.4,5,6.4c2.5,0,4-1.5,4.3-4.2L42.4,19.6L42.4,19.6z"/>
	<path class="st1" d="M46.2,26.6v-19h5.9l4.4,13l4.3-13h5.8v19h-3.9V13.2l-4.6,13.4h-3.2l-4.7-13.3v13.3H46.2z"/>
	<path class="st1" d="M81,26.7c0-1.5,0-2.6,0-3.4V17c0-3.8-3.1-4.5-5.9-4.5l0,0c-4,0-6.1,1.6-6.3,4.7h3.5c0.3-1.6,0.9-2.1,2.7-2.1
		c1.6,0,2.5,0.6,2.5,1.8c0,1.1-0.9,1.3-3.3,1.6l-0.6,0.1c-2.6,0.3-5.4,0.9-5.4,4.3c0,2.6,1.8,4.1,4.9,4.1c1.6,0,3.3-0.5,4.4-1.7v1.3
		H81V26.7z M77.4,20.1v1.6c0,2-1.4,3-3.4,3c-1.3,0-2.1-0.7-2.1-1.8c0-1.6,1.5-1.8,2.8-2.1C75.7,20.6,76.5,20.6,77.4,20.1z"/>
	<path class="st1" d="M86,26.7v-8.5c0-0.9,0.7-1.6,1.6-1.6h3.5v-3.7h-3.5c-2.9,0-5.3,2.4-5.3,5.3v8.5C82.4,26.7,86,26.7,86,26.7z"/>
	<path class="st1" d="M122.6,7.7v5.1h4.1v3.7h-4.1v4.8c0,0.9,0.7,1.6,1.6,1.6h2.6v3.7h-2.6c-2.9,0-5.3-2.4-5.3-5.3V7.7H122.6z"/>
	<path class="st1" d="M104.9,12.9L99.7,18l5.8,8.6h-4.6l-3.8-6.1L95.5,22v4.7h-3.7v-19h3.7v10.2l4.8-4.9h4.6V12.9z"/>
	<path class="st1" d="M117.6,22.4H114c-0.5,1.4-1.4,2-2.8,2c-2,0-3.2-1.3-3.2-3.6h9.8v-0.3c0-4.8-2.6-7.8-6.7-7.8
		c-4,0-6.9,3.1-6.9,7.3c0,4.3,2.8,7.2,7,7.2C114.2,27.1,116.7,25.3,117.6,22.4z M114,18.3h-6c0.2-1.9,1.4-3.1,3-3.1
		C112.9,15.2,113.9,16.7,114,18.3z"/>
	<path class="st1" d="M139.7,16.9h-3.6c-0.2-1.5-1.1-1.9-2.6-1.9c-1.3,0-2.2,0.5-2.2,1.4c0,0.9,0.9,1.2,2.5,1.6l1.3,0.3
		c2.3,0.5,4.9,1.2,4.9,4.1c0,2.8-2.3,4.7-6.2,4.7c-3.5,0-6.4-1.4-6.4-4.8h3.5c0.2,1.6,1.2,2.3,2.9,2.3c1.6,0,2.5-0.7,2.5-1.7
		c0-1.1-1-1.4-2.9-1.8L133,21c-2.4-0.5-5.4-0.9-5.4-4.1c0-2.7,2.2-4.2,6-4.2C136.9,12.6,139.6,13.7,139.7,16.9z"/>
</g>
</svg>
