<svg width="28px" height="28px" viewBox="0 0 28 28" version="1.1" xmlns="http://www.w3.org/2000/svg" xmlns:xlink="http://www.w3.org/1999/xlink" ><defs></defs><g id="Page-1" stroke="none" stroke-width="1" fill="none" fill-rule="evenodd"><g id="agentonline" fill="#fff"><path d="M14,25.5 C12.4,25.5 10.8,25.2 9.4,24.7 L4.5,27.5 L4.5,21.9 C2,19.6 0.5,16.5 0.5,13 C0.5,6.1 6.5,0.5 14,0.5 C21.5,0.5 27.5,6.1 27.5,13 C27.5,19.9 21.5,25.5 14,25.5 L14,25.5 Z M9,11.5 C8.2,11.5 7.5,12.2 7.5,13 C7.5,13.8 8.2,14.5 9,14.5 C9.8,14.5 10.5,13.8 10.5,13 C10.5,12.2 9.8,11.5 9,11.5 L9,11.5 Z M14,11.5 C13.2,11.5 12.5,12.2 12.5,13 C12.5,13.8 13.2,14.5 14,14.5 C14.8,14.5 15.5,13.8 15.5,13 C15.5,12.2 14.8,11.5 14,11.5 L14,11.5 Z M19,11.5 C18.2,11.5 17.5,12.2 17.5,13 C17.5,13.8 18.2,14.5 19,14.5 C19.8,14.5 20.5,13.8 20.5,13 C20.5,12.2 19.8,11.5 19,11.5 L19,11.5 Z" id="Shape"></path></g></g></svg>
