<svg width="252" height="70" viewBox="0 0 252 70" fill="none" xmlns="http://www.w3.org/2000/svg">
<path d="M13.6932 0.694092L9.90517 9.78806L0.699219 6.91564V69.3001H238.45L251.281 63.0826V0.694092H13.6932Z" fill="white"/>
<path d="M238.61 70H0V5.97011L9.50357 8.93506L13.2248 0H251.978V63.5169L238.61 70ZM1.39699 68.606H238.298L250.591 62.65V1.38793H14.1602L10.3134 10.6408L1.39699 7.86092V68.606Z" fill="#161C4B"/>
<path d="M98.4103 58.7577C98.0929 58.8905 97.7652 58.9974 97.4304 59.0775C97.0984 59.1534 96.7587 59.1912 96.4181 59.1902C96.0379 59.1948 95.6601 59.1314 95.3025 59.0031C94.9793 58.8867 94.6827 58.7076 94.4299 58.4761C94.1856 58.2501 93.9912 57.9761 93.859 57.6715C93.7205 57.3465 93.6516 56.9965 93.6565 56.6436C93.6541 56.2923 93.7229 55.9441 93.859 55.6198C93.9881 55.3161 94.1791 55.0421 94.4198 54.8152C94.6658 54.584 94.9565 54.4047 95.2742 54.2882C95.6257 54.1616 95.9977 54.1009 96.3715 54.1091C97.0501 54.1197 97.7153 54.2981 98.3071 54.6281L97.8211 55.5192C97.6082 55.4078 97.3868 55.313 97.1591 55.2356C96.9575 55.168 96.7462 55.1334 96.5335 55.133C96.3183 55.1304 96.1046 55.1687 95.9038 55.2456C95.7209 55.3153 95.5545 55.4218 95.4151 55.5586C95.2757 55.6953 95.1664 55.8593 95.094 56.0402C95.0169 56.2355 94.9784 56.4438 94.9806 56.6537C94.978 56.8675 95.0165 57.0798 95.094 57.2793C95.1655 57.4597 95.2746 57.6231 95.4141 57.7586C95.5537 57.8942 95.7206 57.9989 95.9038 58.0658C96.1047 58.142 96.3184 58.1796 96.5335 58.1764C96.7544 58.1783 96.9738 58.1408 97.1814 58.0658V57.2109H96.1933V56.2373H98.4204L98.4103 58.7577Z" fill="#161C4B"/>
<path d="M99.3652 54.1855H100.712V58.0778H102.722V59.1016H99.3652V54.1855Z" fill="#161C4B"/>
<path d="M102.93 56.6435C102.927 56.2922 102.996 55.944 103.132 55.6197C103.261 55.3166 103.45 55.0428 103.689 54.8151C103.934 54.5844 104.223 54.4051 104.539 54.2881C105.245 54.0413 106.014 54.0413 106.72 54.2881C107.037 54.4056 107.328 54.5848 107.574 54.8151C107.814 55.0421 108.005 55.3161 108.133 55.6197C108.398 56.2783 108.398 57.0128 108.133 57.6714C108.005 57.975 107.814 58.2489 107.574 58.476C107.328 58.7064 107.037 58.8855 106.72 59.003C106.015 59.2524 105.245 59.2524 104.539 59.003C104.223 58.886 103.934 58.7067 103.689 58.476C103.45 58.2483 103.261 57.9745 103.132 57.6714C102.996 57.3459 102.927 56.9962 102.93 56.6435V56.6435ZM104.307 56.6435C104.304 56.8487 104.337 57.0528 104.404 57.247C104.461 57.4236 104.553 57.5875 104.673 57.7297C104.787 57.8622 104.93 57.968 105.09 58.0395C105.26 58.1125 105.443 58.1502 105.628 58.1502C105.813 58.1502 105.995 58.1125 106.165 58.0395C106.326 57.9677 106.469 57.862 106.584 57.7297C106.705 57.5894 106.798 57.4277 106.858 57.253C106.984 56.8606 106.984 56.4386 106.858 56.0461C106.798 55.8719 106.705 55.7107 106.584 55.5714C106.469 55.4387 106.326 55.3324 106.165 55.2596C105.995 55.188 105.812 55.1511 105.628 55.1511C105.443 55.1511 105.26 55.188 105.09 55.2596C104.93 55.3319 104.787 55.4384 104.673 55.5714C104.554 55.7109 104.463 55.8721 104.406 56.0461C104.339 56.2383 104.306 56.4403 104.307 56.6435V56.6435Z" fill="#161C4B"/>
<path d="M109.072 54.1857H111.379C111.608 54.1831 111.836 54.2163 112.055 54.2843C112.247 54.3426 112.427 54.436 112.585 54.5598C112.73 54.6736 112.847 54.8188 112.927 54.9843C113.009 55.153 113.051 55.3381 113.049 55.5253C113.053 55.739 112.993 55.9491 112.877 56.1288C112.768 56.2986 112.617 56.4373 112.437 56.5311C112.673 56.6198 112.876 56.7794 113.016 56.9877C113.139 57.176 113.21 57.3923 113.224 57.6159C113.239 57.8395 113.195 58.063 113.097 58.265C113.011 58.4361 112.889 58.587 112.739 58.7075C112.576 58.8367 112.39 58.9343 112.19 58.9952C111.966 59.0653 111.731 59.0999 111.496 59.0978H109.066L109.072 54.1857ZM110.368 56.1529H111.194C111.341 56.1599 111.486 56.1118 111.599 56.0182C111.65 55.9729 111.691 55.917 111.717 55.8543C111.744 55.7917 111.756 55.724 111.753 55.6561C111.756 55.5876 111.744 55.5193 111.717 55.4561C111.69 55.3928 111.65 55.3361 111.599 55.29C111.487 55.1944 111.342 55.1448 111.194 55.1512H110.368V56.1529ZM110.368 58.1363H111.281C111.447 58.1439 111.608 58.0893 111.735 57.9834C111.791 57.9326 111.836 57.8704 111.865 57.801C111.895 57.7315 111.909 57.6565 111.907 57.5811C111.91 57.5056 111.896 57.4303 111.866 57.3607C111.837 57.2912 111.792 57.229 111.735 57.1788C111.607 57.0757 111.446 57.0227 111.281 57.0299H110.368V58.1363Z" fill="#161C4B"/>
<path d="M115.352 54.1855H116.596L118.598 59.1016H117.251L116.883 58.108H115.061L114.692 59.1016H113.338L115.352 54.1855ZM115.411 57.1404H116.529L115.97 55.6419L115.411 57.1404Z" fill="#161C4B"/>
<path d="M119.047 54.1855H120.395V58.0778H122.406V59.1016H119.047V54.1855Z" fill="#161C4B"/>
<path d="M124.951 54.1856H127.146C127.399 54.1833 127.651 54.2255 127.889 54.3104C128.106 54.3869 128.305 54.5067 128.474 54.6624C128.638 54.8129 128.768 54.9959 128.857 55.1994C128.95 55.4154 128.997 55.6483 128.994 55.8833C128.997 56.1196 128.95 56.3538 128.857 56.5713C128.769 56.7754 128.639 56.9585 128.474 57.1083C128.303 57.2613 128.105 57.3808 127.889 57.4604C127.651 57.5468 127.399 57.5898 127.146 57.5871H126.255V59.1017H124.959L124.951 54.1856ZM126.247 56.5632H126.923C127.12 56.5717 127.313 56.5048 127.462 56.3762C127.527 56.3126 127.579 56.2368 127.615 56.153C127.65 56.0692 127.668 55.9793 127.668 55.8884C127.668 55.7975 127.65 55.7075 127.615 55.6237C127.579 55.54 127.527 55.4641 127.462 55.4006C127.314 55.27 127.121 55.2014 126.923 55.2095H126.247V56.5632Z" fill="#161C4B"/>
<path d="M130.743 54.1855H131.988L133.991 59.1016H132.644L132.276 58.108H130.453L130.085 59.1016H128.729L130.743 54.1855ZM130.804 57.1404H131.921L131.363 55.6419L130.804 57.1404Z" fill="#161C4B"/>
<path d="M134.436 54.1857H136.663C136.91 54.1826 137.155 54.2235 137.387 54.3064C137.596 54.3808 137.789 54.4941 137.954 54.6403C138.114 54.7808 138.241 54.9536 138.327 55.1472C138.416 55.3543 138.461 55.5777 138.458 55.803C138.467 56.1324 138.37 56.4561 138.183 56.7282C138 56.989 137.729 57.177 137.42 57.2593L138.687 59.1018H137.23L136.177 57.4705H135.719V59.1018H134.436V54.1857ZM135.731 56.4466H136.46C136.64 56.4543 136.817 56.3939 136.954 56.2777C137.014 56.219 137.062 56.1491 137.095 56.0719C137.127 55.9947 137.144 55.9118 137.144 55.8281C137.144 55.7444 137.127 55.6615 137.095 55.5843C137.062 55.5071 137.014 55.4371 136.954 55.3785C136.817 55.2623 136.64 55.2019 136.46 55.2096H135.731V56.4466Z" fill="#161C4B"/>
<path d="M140.34 55.2094H138.904V54.1855H143.118V55.2094H141.688V59.1016H140.34V55.2094Z" fill="#161C4B"/>
<path d="M143.662 54.1855H144.962L147.215 57.2812V54.1855H148.452V59.1016H147.157L144.909 56.008V59.1016H143.666L143.662 54.1855Z" fill="#161C4B"/>
<path d="M149.496 54.1855H153.082V55.1812H150.844V56.1025H152.847V57.068H150.844V58.108H153.201V59.1016H149.496V54.1855Z" fill="#161C4B"/>
<path d="M154.039 54.1857H156.267C156.513 54.1826 156.759 54.2235 156.991 54.3064C157.2 54.3803 157.393 54.4937 157.558 54.6403C157.718 54.7808 157.845 54.9536 157.931 55.1472C158.022 55.3539 158.067 55.5774 158.064 55.803C158.072 56.1327 157.975 56.4564 157.787 56.7282C157.604 56.989 157.335 57.1771 157.026 57.2593L158.291 59.1018H156.833L155.781 57.4705H155.325V59.1018H154.029L154.039 54.1857ZM155.335 56.4466H156.064C156.244 56.454 156.419 56.3936 156.556 56.2777C156.617 56.2195 156.665 56.1497 156.699 56.0724C156.732 55.9952 156.749 55.9121 156.749 55.8281C156.749 55.7441 156.732 55.661 156.699 55.5838C156.665 55.5065 156.617 55.4367 156.556 55.3785C156.419 55.2626 156.244 55.2022 156.064 55.2096H155.335V56.4466Z" fill="#161C4B"/>
<path d="M126.692 10.2466V46.9121H125.295V10.2466H126.692ZM55.7771 31.5423C56.4591 31.5222 57.1412 31.5748 57.8119 31.6992V30.3374H53.0196V38.492H58.0933L58.7149 36.9713C57.8044 37.191 56.8699 37.2971 55.933 37.2871C55.5727 37.2871 55.2305 37.275 54.9045 37.2509V34.7446H57.4657V33.5377H54.9086V31.5543C55.1704 31.5463 55.46 31.5423 55.7771 31.5423ZM46.9073 16.619H45.5812V10.8903C46.0675 10.8322 46.5572 10.8066 47.047 10.8138C47.8852 10.8138 48.5371 10.9345 48.9441 11.1799C49.2432 11.3172 49.489 11.5478 49.6441 11.8367C49.7992 12.1255 49.8551 12.4568 49.8033 12.7801C49.7515 13.1034 49.5949 13.4011 49.3572 13.6278C49.1195 13.8546 48.8137 13.998 48.4865 14.0362L50.6265 16.619H49.0068L46.9134 14.0041L46.9073 16.619ZM46.9073 13.4509C47.0132 13.4664 47.1201 13.4738 47.2272 13.473C47.9743 13.473 48.5067 13.1512 48.5067 12.5558C48.5067 11.9262 47.9743 11.711 47.2272 11.711C47.1203 11.7112 47.0135 11.7172 46.9073 11.7291V13.4509ZM53.5096 16.8362C55.0625 16.8362 56.1193 15.9814 56.1193 14.2414V10.8903H54.7729V14.2917C54.7729 15.2029 54.3012 15.742 53.5258 15.742C52.7503 15.742 52.2786 15.1848 52.2786 14.2495V10.8903H50.9322V14.2816C50.9322 15.9733 51.9547 16.8362 53.5096 16.8362ZM60.2637 16.8362C61.1363 16.8362 61.9765 16.5084 62.4584 16.0316V13.7848H61.195V15.6434C60.9233 15.7627 60.6296 15.8243 60.3325 15.8245C60.0603 15.8347 59.789 15.7886 59.5356 15.6893C59.2823 15.5899 59.0524 15.4394 58.8606 15.2472C58.4833 14.8413 58.2737 14.3091 58.2737 13.7566C58.2737 13.2041 58.4833 12.6719 58.8606 12.2661C59.0546 12.0698 59.2877 11.916 59.545 11.8145C59.8023 11.713 60.0782 11.6661 60.3548 11.6768C60.9196 11.6635 61.4767 11.8085 61.9624 12.0951V11.0632C61.3929 10.8197 60.7759 10.7056 60.1564 10.7293C59.2433 10.7293 58.4173 10.9747 57.824 11.55C57.5356 11.83 57.3082 12.1658 57.156 12.5368C57.0038 12.9078 56.93 13.3059 56.9393 13.7064C56.9393 14.6859 57.2288 15.388 57.7997 15.9029C58.475 16.5087 59.3539 16.8416 60.2637 16.8362V16.8362ZM70.0285 16.619H71.3242V14.348L73.5513 10.8903H72.0814L70.6642 13.1431L69.247 10.8903H67.7771L70.0042 14.348L70.0285 16.619ZM73.2921 19.8112C74.0676 20.2839 74.4563 20.9296 74.4563 21.7564C74.4733 22.2636 74.313 22.7611 74.0028 23.1644C73.6793 23.5536 73.2204 23.8078 72.7172 23.8765L75.6265 27.5575H73.3124L70.5063 23.8342V27.5575H68.6173V19.4009C69.2888 19.3172 69.9653 19.2802 70.6419 19.2903C71.8364 19.2903 72.7192 19.4653 73.2921 19.8112ZM72.4823 21.8227C72.4823 20.99 71.9512 20.5736 70.8889 20.5736C70.7492 20.5736 70.6196 20.5736 70.4961 20.5877V23.0699C70.6196 23.0699 70.7492 23.0819 70.8889 23.0819C71.9512 23.0779 72.4857 22.6562 72.4924 21.8167L72.4823 21.8227ZM82.2288 26.1132C81.664 26.2762 80.6456 26.3586 79.4996 26.3586C79.1813 26.363 78.863 26.3503 78.546 26.3204V19.4009H76.6591V27.5575H81.6417L82.2288 26.1132ZM70.9659 31.5443C71.6478 31.5242 72.3299 31.5768 73.0006 31.7012V30.3394H68.2306V38.494H73.2921L73.9178 36.9733C73.0073 37.1933 72.0728 37.2994 71.1359 37.2891C70.7776 37.2891 70.4334 37.277 70.1074 37.2529V34.7446H72.6686V33.5377H70.1074V31.5543C70.3693 31.5463 70.6588 31.5423 70.976 31.5423L70.9659 31.5443ZM59.3688 20.3362C60.2165 19.5585 61.3401 19.1696 62.7398 19.1696C64.1348 19.1696 65.2605 19.5578 66.1088 20.3362C66.5498 20.7312 66.8989 21.2168 67.1318 21.7594C67.3647 22.3021 67.4757 22.8886 67.4572 23.4782C67.4749 24.0692 67.3635 24.6569 67.1307 25.201C66.898 25.7452 66.5493 26.2327 66.1088 26.6302C65.2605 27.4026 64.1348 27.7868 62.7398 27.7868C61.3449 27.7868 60.2171 27.4026 59.3688 26.6302C58.9279 26.2331 58.5789 25.7456 58.3461 25.2014C58.1133 24.6572 58.0022 24.0692 58.0204 23.4782C58.0015 22.8885 58.1123 22.3019 58.3452 21.7592C58.5781 21.2165 58.9275 20.7309 59.3688 20.3362V20.3362ZM60.1544 23.4882C60.1214 24.2266 60.3555 24.9523 60.8144 25.5339C61.044 25.8186 61.3382 26.0454 61.6728 26.1957C62.0074 26.346 62.373 26.4156 62.7398 26.3989C63.108 26.4145 63.4747 26.3444 63.8107 26.1943C64.1468 26.0441 64.4429 25.818 64.6754 25.5339C65.1258 24.9483 65.3557 24.2246 65.3253 23.4882C65.3547 22.7526 65.1249 22.0299 64.6754 21.4446C64.4335 21.1722 64.136 20.9544 63.8026 20.8055C63.4692 20.6566 63.1077 20.5802 62.7421 20.5814C62.3766 20.5825 62.0156 20.6612 61.6831 20.8121C61.3507 20.9631 61.0545 21.1828 60.8144 21.4566C60.3619 22.0362 60.1283 22.7552 60.1544 23.4882V23.4882ZM47.956 26.8897C48.1696 27.1742 48.4573 27.3954 48.7882 27.5293C48.9319 27.5937 49.268 27.7064 49.7883 27.8713L51.5902 22.5046L52.8435 26.1676C52.9376 26.4655 53.0739 26.7486 53.2484 27.0084C53.4616 27.2384 53.7247 27.4172 54.0178 27.5314C54.4591 27.6862 54.7932 27.7989 55.0301 27.8733L57.905 19.4009H56.1072L54.3599 24.9989L52.39 19.4009H51.0537L49.1992 24.9828L47.2434 19.4009H45.2188L47.6078 26.0831C47.6912 26.3647 47.8081 26.6355 47.956 26.8897V26.8897ZM64.9365 16.7115C64.4423 16.7176 63.9481 16.6948 63.4565 16.6431V10.8359C64.0477 10.7837 64.5438 10.7977 64.9467 10.7977C65.7444 10.7977 66.4793 10.9305 66.8964 11.1759C67.0817 11.2927 67.2318 11.4573 67.3305 11.6521C67.4293 11.8469 67.4731 12.0647 67.4572 12.2822C67.4409 12.4794 67.3772 12.6697 67.2715 12.8374C67.1658 13.005 67.0212 13.1451 66.8498 13.2457L66.7425 13.3081C66.7086 13.3244 66.6734 13.3379 66.6372 13.3483C66.865 13.3973 67.0827 13.4843 67.281 13.6058L67.3742 13.6681C67.5333 13.7876 67.6656 13.9387 67.7626 14.1119C67.8595 14.2851 67.9189 14.4765 67.937 14.6739C67.937 14.7181 67.937 14.7644 67.937 14.8107C67.937 15.6153 67.5544 16.0578 66.8822 16.3756C66.3963 16.611 65.7464 16.7115 64.9365 16.7115V16.7115ZM64.7199 13.0546H65.1248C65.795 13.0546 66.2363 12.8213 66.2363 12.3365C66.2363 11.7954 65.7322 11.6184 65.0621 11.6184H64.7138L64.7199 13.0546ZM64.7199 15.8707C64.8232 15.8707 65.1451 15.8707 65.3111 15.8707C66.2809 15.8707 66.6797 15.4946 66.6797 14.877C66.6797 14.2193 66.1088 13.8914 65.2625 13.8914C65.0965 13.8914 64.8211 13.8914 64.7179 13.8914L64.7199 15.8707ZM85.3994 27.6581C84.6489 27.6688 83.8988 27.6204 83.1561 27.5132V19.4351C83.8991 19.3309 84.649 19.2825 85.3994 19.2903C87.0488 19.2903 88.3358 19.651 89.2603 20.3724C89.7387 20.7352 90.1228 21.2064 90.3806 21.7467C90.6385 22.2869 90.7625 22.8806 90.7424 23.4782C90.7634 24.0739 90.6397 24.6659 90.3817 25.204C90.1238 25.7421 89.7391 26.2106 89.2603 26.5699C88.3331 27.2927 87.0461 27.6534 85.3994 27.652V27.6581ZM85.0451 26.3325C85.2475 26.3486 85.4358 26.3586 85.6099 26.3586C87.6562 26.3533 88.6793 25.3945 88.6793 23.4822C88.6793 22.5227 88.4039 21.7966 87.8694 21.2997C87.3349 20.8029 86.598 20.5937 85.6282 20.5937C85.454 20.5937 85.2678 20.5937 85.0633 20.6158L85.0451 26.3325ZM87.5536 37.2127C87.2291 37.3585 86.8749 37.4274 86.519 37.4138C85.5258 37.4188 84.5567 37.1103 83.7513 36.5328L84.0591 38.2204C84.8236 38.5777 85.6625 38.7493 86.5068 38.7213C87.4584 38.7213 88.242 38.5295 88.8574 38.146C89.2101 37.9365 89.4992 37.6361 89.6942 37.2767C89.8891 36.9173 89.9827 36.5122 89.9649 36.1043C89.9664 35.7863 89.8926 35.4724 89.7495 35.188C89.6063 34.9036 89.3979 34.6566 89.1409 34.467C88.6101 34.1038 88.0404 33.8003 87.4422 33.5618C87.096 33.413 86.7581 33.2458 86.4299 33.0609C86.025 32.7914 85.8225 32.5158 85.8225 32.2302C85.8225 31.7072 86.2619 31.4477 87.1385 31.4477C87.9237 31.4368 88.6931 31.6672 89.3413 32.1075V30.5747C88.6577 30.2507 87.9081 30.0875 87.1507 30.098C86.3917 30.0717 85.6397 30.2496 84.9742 30.613C84.6392 30.7813 84.3594 31.041 84.1676 31.3616C83.9758 31.6822 83.8799 32.0505 83.891 32.4233C83.891 33.1649 84.2561 33.7811 84.9864 34.2719C85.0754 34.3282 85.7503 34.6547 87.011 35.2515C87.7317 35.6035 88.0921 35.9776 88.0921 36.3779C88.0962 36.5545 88.0472 36.7283 87.9512 36.877C87.8553 37.0257 87.7168 37.1426 87.5536 37.2127V37.2127ZM63.2095 36.0541L60.9237 30.3374H58.8708L61.6162 37.0538C61.7807 37.5071 62.0595 37.9108 62.426 38.2265C62.835 38.4644 63.2761 38.6432 63.7359 38.7575L67.1778 30.3374H65.4812L63.2095 36.0541ZM101.621 25.5943C100.849 26.1091 99.9379 26.3765 99.0089 26.3607C98.1181 26.3607 97.4216 26.1032 96.9175 25.5742C96.4133 25.0451 96.1542 24.3451 96.1542 23.448C96.1298 22.6954 96.4072 21.9639 96.9256 21.4144C97.1828 21.1475 97.4941 20.9377 97.8389 20.7991C98.1837 20.6604 98.5542 20.5959 98.9259 20.6098C99.8147 20.6098 100.523 20.7868 101.046 21.1469V19.5699C100.33 19.2954 99.5691 19.1588 98.8024 19.1676C97.4702 19.1676 96.3566 19.5457 95.4699 20.3121C95.0084 20.6967 94.641 21.1805 94.3955 21.7269C94.15 22.2733 94.0327 22.868 94.0526 23.4661C94.0526 24.7964 94.498 25.8504 95.3889 26.6282C96.2392 27.3684 97.3453 27.7392 98.7072 27.7405C99.4471 27.7555 100.183 27.6355 100.88 27.3865L101.621 25.5943ZM108.642 44.277C108.642 45.7273 107.63 46.8518 106.148 46.8518C104.666 46.8518 103.643 45.7273 103.643 44.277C103.643 42.8268 104.656 41.7023 106.148 41.7023C107.64 41.7023 108.642 42.8288 108.642 44.2791V44.277ZM107.377 44.277C107.377 43.5147 107.069 42.5572 106.148 42.5572C105.227 42.5572 104.911 43.5227 104.911 44.277C104.911 45.0313 105.218 45.9888 106.148 45.9888C107.077 45.9888 107.377 45.0394 107.377 44.2791V44.277ZM101.187 45.9647C101.795 45.2687 102.973 43.9753 102.973 43.0239C102.973 42.0724 102.129 41.7023 101.299 41.7023C100.821 41.7008 100.348 41.8053 99.9159 42.0081L99.7398 42.9595C100.127 42.6941 100.585 42.5498 101.056 42.5451C101.445 42.5451 101.835 42.7121 101.835 43.1486C101.826 43.3406 101.771 43.5276 101.673 43.6937C101.474 44.0418 101.245 44.3722 100.989 44.6814C100.453 45.393 99.8713 46.0695 99.2478 46.7069H103.095L103.473 45.8641C102.997 45.9528 102.514 45.9946 102.03 45.9888C101.746 45.9969 101.467 45.9808 101.187 45.9667V45.9647ZM49.3834 37.2127C49.0596 37.3585 48.7061 37.4274 48.3508 37.4138C47.3571 37.4185 46.3874 37.11 45.5812 36.5328L45.8889 38.2204C46.6541 38.5776 47.4937 38.7493 48.3387 38.7213C49.2835 38.7213 50.067 38.5295 50.6893 38.146C51.0416 37.9361 51.3305 37.6357 51.5254 37.2764C51.7203 36.9171 51.8141 36.5122 51.7967 36.1043C51.7983 35.7861 51.7244 35.472 51.5808 35.1875C51.4373 34.903 51.2283 34.6561 50.9707 34.467C50.4404 34.1042 49.8714 33.8006 49.2741 33.5618C48.9277 33.4132 48.5898 33.246 48.2618 33.0609C47.8568 32.7914 47.6544 32.5158 47.6544 32.2302C47.6544 31.7072 48.0937 31.4477 48.9704 31.4477C49.7562 31.4369 50.5261 31.6673 51.1752 32.1075V30.5747C50.4914 30.2511 49.7419 30.088 48.9845 30.098C48.225 30.072 47.4724 30.2499 46.8061 30.613C46.4714 30.7817 46.1919 31.0415 46.0001 31.362C45.8083 31.6825 45.7122 32.0506 45.7229 32.4233C45.7229 33.1649 46.088 33.7811 46.8182 34.2719C46.9086 34.3282 47.5835 34.6547 48.8428 35.2515C49.5636 35.6035 49.926 35.9776 49.926 36.3779C49.9298 36.555 49.8801 36.7291 49.7834 36.8779C49.6867 37.0266 49.5474 37.1432 49.3834 37.2127ZM95.3099 41.8391L97.3588 46.7109H96.1076L95.563 45.3431H93.8218L93.2873 46.715H92.19L94.2146 41.8431L95.3099 41.8391ZM95.2512 44.5546L94.6803 43.1245L94.1235 44.5546H95.2512ZM88.7501 44.275C88.7501 43.3015 89.4162 42.5632 90.4042 42.5632C90.8496 42.5355 91.2924 42.6482 91.6696 42.8851V41.9417C91.2449 41.771 90.7894 41.6889 90.3314 41.7003C88.8007 41.7003 87.4969 42.6658 87.4969 44.2831C87.4969 45.9003 88.7117 46.8497 90.2787 46.8497C90.7201 46.8572 91.1591 46.785 91.5745 46.6365L92.0199 45.5624C91.5646 45.8804 91.0172 46.0421 90.4609 46.023C89.3798 46.027 88.7501 45.3391 88.7501 44.2791V44.275ZM114.716 45.9627C115.323 45.2667 116.502 43.9733 116.502 43.0219C116.502 42.0704 115.657 41.7003 114.827 41.7003C114.35 41.6986 113.878 41.8031 113.446 42.0061L113.268 42.9575C113.656 42.6921 114.114 42.5478 114.584 42.5431C114.975 42.5431 115.364 42.7101 115.364 43.1466C115.356 43.3387 115.3 43.526 115.202 43.6917C115.003 44.0398 114.774 44.3702 114.517 44.6793C113.981 45.3909 113.4 46.0675 112.776 46.7049H116.623L117.004 45.8621C116.527 45.9507 116.043 45.9925 115.558 45.9868C115.275 45.9969 114.999 45.9808 114.716 45.9667V45.9627ZM116.741 20.7707C116.96 21.1574 117.073 21.5942 117.071 22.038C117.084 22.3735 117.021 22.7079 116.886 23.0156C116.751 23.3233 116.546 23.5964 116.289 23.8141C115.769 24.248 115.105 24.4739 114.426 24.4477C113.953 24.461 113.486 24.3433 113.076 24.1078V27.5575H111.189V19.3868C111.923 19.3161 112.66 19.2839 113.398 19.2903C115.049 19.2903 116.16 19.7851 116.732 20.7747L116.741 20.7707ZM115.149 21.9776C115.16 21.7733 115.123 21.5693 115.039 21.3823C114.956 21.1952 114.829 21.0305 114.669 20.9015C114.341 20.6617 113.94 20.5416 113.534 20.5615C113.376 20.5615 113.224 20.5716 113.076 20.5736V23.5486C113.178 23.5647 113.281 23.5728 113.384 23.5727C114.558 23.5768 115.141 23.0437 115.141 21.9816L115.149 21.9776ZM109.721 19.4009H107.848V24.138C107.848 25.4052 107.194 26.1495 106.113 26.1495C105.032 26.1495 104.378 25.373 104.378 24.0736V19.4009H102.507V24.1178C102.507 26.4693 103.925 27.6681 106.091 27.6681C108.257 27.6681 109.721 26.4814 109.721 24.0615V19.4009ZM111.499 45.9969C111.219 45.9969 110.94 45.9808 110.661 45.9667C111.268 45.2707 112.446 43.9773 112.446 43.0259C112.446 42.0745 111.6 41.7043 110.77 41.7043C110.292 41.7029 109.821 41.8073 109.389 42.0101L109.213 42.9615C109.6 42.6961 110.059 42.5518 110.529 42.5472C110.918 42.5472 111.306 42.7141 111.306 43.1506C111.298 43.3428 111.243 43.53 111.144 43.6957C110.947 44.0442 110.718 44.3747 110.462 44.6834C109.926 45.3945 109.344 46.0711 108.721 46.7089H112.163L112.938 45.8661C112.464 45.9566 111.982 46.0004 111.499 45.9969V45.9969ZM85.7699 46.715H86.8956V41.8391H85.7699V46.715ZM54.5482 42.4023C54.802 42.6462 55.0038 42.9383 55.1417 43.2612C55.2795 43.5841 55.3505 43.9313 55.3505 44.2821C55.3505 44.6328 55.2795 44.98 55.1417 45.303C55.0038 45.6259 54.802 45.918 54.5482 46.1618C53.974 46.6099 53.2649 46.8535 52.5347 46.8535C51.8045 46.8535 51.0955 46.6099 50.5212 46.1618C50.2674 45.918 50.0656 45.6259 49.9278 45.303C49.7899 44.98 49.7189 44.6328 49.7189 44.2821C49.7189 43.9313 49.7899 43.5841 49.9278 43.2612C50.0656 42.9383 50.2674 42.6462 50.5212 42.4023C51.094 41.9508 51.8036 41.7051 52.5347 41.7051C53.2658 41.7051 53.9755 41.9508 54.5482 42.4023V42.4023ZM54.0785 44.2871C54.0785 43.3477 53.5521 42.5492 52.5357 42.5492C51.5194 42.5492 50.9909 43.3538 50.9909 44.2871C50.9909 45.2204 51.5173 46.025 52.5357 46.025C53.5541 46.025 54.0785 45.2325 54.0785 44.2871V44.2871ZM59.2129 44.6894C59.2129 45.4658 58.808 45.9245 58.152 45.9245C57.4961 45.9245 57.0952 45.4598 57.0952 44.6552V41.8391H55.9513V44.6793C55.9513 46.1176 56.8219 46.8497 58.1419 46.8497C59.462 46.8497 60.369 46.1236 60.369 44.6371V41.8391H59.2251L59.2129 44.6894ZM47.7819 43.7722C47.4742 43.6334 46.8162 43.3699 46.8162 42.9676C46.8162 42.5653 47.292 42.4989 47.5977 42.4989C48.0656 42.4957 48.5231 42.6362 48.9076 42.9012V41.99C48.5013 41.7974 48.056 41.6997 47.6058 41.7043C46.7352 41.7043 45.6662 42.0483 45.6662 43.0923C45.6662 44.6411 48.1686 44.5446 48.1686 45.4518C48.1686 45.9325 47.62 46.0552 47.2332 46.0552C46.6433 46.0546 46.0678 45.8734 45.5852 45.5362L45.7694 46.542C46.2241 46.7547 46.7229 46.8574 47.2252 46.8417C48.2132 46.8417 49.2822 46.4394 49.2822 45.2788C49.2781 44.3997 48.4662 44.0779 47.7819 43.7722ZM83.4153 44.5184L85.2374 46.715H83.8607L82.081 44.4903V46.715H80.9553V41.8391C81.3686 41.7911 81.7845 41.7696 82.2005 41.7747C82.9131 41.7747 83.4659 41.8793 83.8202 42.0865C84.0306 42.1992 84.2059 42.3669 84.3273 42.5715C84.4486 42.776 84.5113 43.0097 84.5085 43.2472C84.5326 43.5577 84.432 43.8651 84.2287 44.1022C84.0253 44.3393 83.7358 44.4867 83.4234 44.5124L83.4153 44.5184ZM83.4314 43.2592C83.4314 42.7262 82.98 42.5411 82.3463 42.5411C82.2549 42.5416 82.1637 42.547 82.0729 42.5572V44.0216C82.1634 44.0347 82.2548 44.0408 82.3463 44.0397C82.9881 44.0397 83.4395 43.7661 83.4395 43.2592H83.4314ZM60.944 42.6135H62.3612V46.715H63.4808V42.6135H64.8859V41.8391H60.9521L60.944 42.6135ZM77.5783 46.715H78.7121V44.4822H80.1111V43.7561H78.7121V42.5693C78.8518 42.5693 78.9975 42.5693 79.1372 42.5693C79.5443 42.5602 79.9513 42.5919 80.352 42.6638V41.8592H77.5783V46.715ZM82.5224 38.7615V30.3374H80.8683V35.2917L76.734 30.3374H74.9827V38.492H76.6348V33.1153L80.3156 37.5164C80.5872 37.8587 80.9235 38.145 81.3056 38.3592C81.6977 38.5377 82.1085 38.6726 82.5305 38.7615H82.5224ZM68.6598 43.7561H66.6109V41.8391H65.4771V46.7109H66.6109V44.5486H68.6598V46.715H69.7956V41.8391H68.6598V43.7561ZM74.9969 41.8431L77.0478 46.715H75.8027L75.2621 45.3431H73.5189L72.9844 46.715H71.8871L73.9117 41.8431H74.9969ZM74.9382 44.5587L74.3672 43.1285L73.8125 44.5587H74.9382Z" fill="#161C4B"/>
<path d="M23.2833 24.5565C21.8235 26.5177 21.3234 28.4829 21.1959 28.7806C21.0157 29.1829 20.5196 28.8953 20.0661 28.4829C20.031 27.5147 20.0081 26.4962 19.9973 25.4274C21.0987 23.1947 23.184 20.447 26.1866 20.8714C27.946 21.1731 30.0759 22.4142 28.9684 26.2119C28.361 28.1973 26.7413 31.1039 26.1096 33.7309C26.0874 33.8294 26.0772 34.0246 26.2453 33.9843L29.8896 33.1797C29.8032 34.1761 29.7027 35.1282 29.5879 36.0361L24.0546 37.255C22.9168 37.4944 22.19 35.2435 26.3101 26.1455C26.6583 25.2404 26.8871 24.0234 26.0529 23.4984C25.1884 22.9875 24.0283 23.595 23.2833 24.5565ZM14.5774 32.9886C15.5067 32.2464 15.3751 31.4177 15.1706 30.9349C14.8021 30.1021 13.8607 29.7682 13.2998 29.3539C13.2078 29.2818 13.1439 29.1801 13.1192 29.0663C13.0944 28.9525 13.1103 28.8337 13.1642 28.7303C13.2371 28.6297 13.5226 28.328 14.2858 28.9154C14.5794 29.1165 15.2981 28.157 15.0613 27.9096C14.049 26.928 12.8342 27.0769 12.2268 27.6682C11.9778 27.9217 11.8054 28.2395 11.7292 28.5855C11.6529 28.9315 11.6759 29.2918 11.7955 29.6254C12.1175 30.3938 13.316 30.8182 13.7655 31.2829C13.968 31.4981 13.9032 31.9366 13.1581 32.0875C12.8238 32.1253 12.4854 32.0732 12.1782 31.9366C11.9033 31.8144 11.6398 31.6683 11.3906 31.5001C11.4777 31.997 11.5769 32.4838 11.6862 32.9565C12.5771 33.3467 13.7068 33.5921 14.5774 32.9886ZM36.4838 33.4332C36.1335 33.1938 37.5852 31.474 36.5344 31.6932L34.1676 32.2223C33.9753 33.2682 33.7485 34.2519 33.4975 35.1731L36.2206 34.5697C37.3625 34.3142 37.0122 33.755 36.4777 33.4231L36.4838 33.4332ZM16.2477 33.6203C16.4002 34.3618 16.5723 35.0819 16.764 35.7806L16.3267 40.2059C16.2943 40.6283 15.0977 40.5076 15.1402 40.1294C15.1402 40.1294 15.2415 39.2182 15.3569 38.2588C15.1544 38.4961 14.8386 38.3613 14.6847 38.295C14.5754 38.2487 13.8465 37.8927 13.3262 37.6432C13.1237 37.2289 12.9374 36.8024 12.7613 36.368C13.557 35.6398 15.4804 33.8838 15.6909 33.7108C15.7697 33.655 15.8599 33.6172 15.955 33.5998C16.0502 33.5824 16.148 33.586 16.2416 33.6102L16.2477 33.6203ZM15.6403 35.5694L14.2595 36.7924C14.6644 36.9935 15.4115 37.3415 15.4115 37.3415L15.6403 35.5694ZM32.7828 37.4602C32.5803 38.0496 32.3556 38.6088 32.1329 39.1358C32.9933 39.1393 33.8503 39.244 34.6859 39.4476C35.0022 39.5274 35.31 39.6371 35.6051 39.7754C35.927 39.3027 36.2267 38.818 36.502 38.3251C36.0637 38.0993 35.6003 37.9251 35.1212 37.8062C34.3523 37.6099 33.5655 37.4906 32.7726 37.4501L32.7828 37.4602ZM35.35 29.1869C35.3358 29.1869 35.3196 29.1869 35.3297 29.1668L37.7755 24.828C38.4679 23.42 38.3383 22.5771 37.5184 22.1487C36.6336 21.7162 35.5585 22.5349 34.7993 23.3093C34.8195 24.0113 34.8256 24.6973 34.8155 25.3631C35.68 24.0496 36.4048 23.428 36.5972 23.5789C36.7288 23.6875 36.5708 24.1582 35.9554 25.2042C35.6132 25.7674 35.1455 26.6122 34.7406 27.3645C34.6717 28.5111 34.5604 29.5993 34.4166 30.6332L39.1644 29.4263C39.2116 29.0039 39.2501 28.5821 39.2798 28.1611L35.35 29.1869ZM30.167 42.8932C29.7878 43.5043 29.3776 44.0957 28.938 44.6654C29.4948 44.6553 30.0597 44.6171 30.6205 44.5527L30.744 44.5386C31.7775 43.8529 32.7374 43.0636 33.6088 42.1832C32.5801 42.5219 31.5179 42.7505 30.4403 42.8651L30.167 42.8932ZM24.168 41.7326C24.1437 41.5214 24.4839 41.0105 25.5225 40.4714C26.6344 39.9264 27.8238 39.554 29.0494 39.3671C29.1607 38.8039 29.264 38.2145 29.3591 37.603C27.5896 37.8464 25.9598 38.3251 24.7268 38.9668C22.5949 40.0792 22.3985 41.2961 22.4694 41.9237C22.6597 43.5953 24.8422 44.4542 27.4965 44.6352L27.5329 44.5567C27.7462 44.0713 27.9487 43.5423 28.1403 42.9697C25.6055 42.8973 24.2247 42.1611 24.1761 41.7326H24.168Z" fill="#51C1B1"/>
<path d="M29.6241 12.1756C29.8265 13.7466 29.9905 15.7279 30.1019 17.9003L22.2261 17.8742L20.0618 19.6624C20.1225 17.7756 20.1994 16.1785 20.1994 16.1785C20.1994 16.1785 23.5279 14 29.6241 12.1756ZM36.6819 10.2466C34.3779 10.5704 33.0821 11.0814 33.0821 11.0814C33.6305 13.337 34.0583 15.6199 34.3637 17.9204H36.8621L39.0426 20.5937C38.6212 17.0723 37.83 13.6043 36.6819 10.2466V10.2466ZM11.0117 23.1483L13.9697 24.6891L15.5104 23.4178C15.5712 21.7684 15.6906 20.2658 15.808 18.9926L15.8384 18.6506C14.1575 19.73 12.5658 20.9407 11.0785 22.2713C11.0785 22.2713 11.0502 22.6072 11.0117 23.1483Z" fill="#B2479A"/>
<path d="M19.9886 23.7918C19.9886 22.6111 20.017 21.0562 20.0615 19.6622L22.2258 17.874L30.1016 17.9002C30.2251 20.2637 30.2818 22.8525 30.2372 25.3849C30.2089 28.201 30.0915 30.816 29.891 33.1654L26.2467 33.97C26.0787 34.0102 26.0888 33.8151 26.1111 33.7166C26.7448 31.0895 28.3584 28.1829 28.9698 26.1976C30.0773 22.3999 27.9474 21.1689 26.188 20.8571C23.1855 20.4326 21.1001 23.1803 19.9987 25.4131C19.9906 24.8901 19.9886 24.349 19.9886 23.7918ZM36.5905 23.5786C36.3982 23.4278 35.6734 24.0493 34.8088 25.3628C34.798 26.0481 34.7737 26.7152 34.736 27.3643C35.1409 26.614 35.6065 25.7671 35.9507 25.2039C36.5703 24.1579 36.7282 23.6872 36.5966 23.5786H36.5905ZM16.241 33.6099C16.1762 33.2901 16.1135 32.9683 16.0568 32.6404C15.4899 29.4361 15.415 26.2157 15.5162 23.4177L13.9694 24.689L11.0054 23.1482C10.9507 23.9125 10.8879 25.1053 10.9082 26.4188C10.928 28.1166 11.0823 29.8101 11.3698 31.4838C11.6189 31.652 11.8825 31.798 12.1574 31.9203C12.4645 32.0569 12.8029 32.109 13.1373 32.0711C13.8884 31.9203 13.9613 31.4818 13.7447 31.2666C13.2952 30.8019 12.0966 30.3775 11.7747 29.6091C11.6551 29.2754 11.6321 28.9151 11.7083 28.5692C11.7846 28.2232 11.957 27.9054 12.206 27.6519C12.8134 27.0605 14.0382 26.9117 15.0404 27.8933C15.2874 28.1467 14.5586 29.1102 14.265 28.899C13.5017 28.3157 13.2163 28.6134 13.1434 28.714C13.0895 28.8174 13.0736 28.9362 13.0983 29.05C13.1231 29.1638 13.187 29.2655 13.279 29.3375C13.8398 29.7519 14.7813 30.0858 15.1498 30.9186C15.3522 31.4013 15.4859 32.2301 14.5566 32.9723C13.692 33.5898 12.5623 33.3404 11.6573 32.9341C11.7869 33.4852 11.9326 34.0223 12.0926 34.5433C12.287 35.1695 12.5029 35.773 12.7405 36.3536C13.5361 35.6255 15.4595 33.8694 15.6701 33.6964C15.7525 33.6401 15.8467 33.6031 15.9456 33.5881C16.0445 33.5731 16.1455 33.5806 16.241 33.6099V33.6099ZM39.0423 20.5956L36.8618 17.9223H34.3634C34.5998 19.7122 34.7451 21.5127 34.7987 23.3171C35.558 22.5427 36.633 21.724 37.5178 22.1565C38.3378 22.5849 38.4673 23.4378 37.7749 24.8358L35.3292 29.1666C35.319 29.1847 35.3292 29.1907 35.3494 29.1867L39.2772 28.1608C39.4366 25.6373 39.358 23.1045 39.0423 20.5956V20.5956ZM15.6296 35.5591L14.2488 36.7821C14.6537 36.9832 15.4008 37.3312 15.4008 37.3312L15.6296 35.5591ZM24.1755 41.7324C24.2241 42.1608 25.6049 42.897 28.1418 42.9694C28.5222 41.7887 28.8279 40.5855 29.0569 39.3668C27.8314 39.5537 26.6419 39.9261 25.53 40.4711C24.4974 41.0102 24.1512 41.5211 24.1755 41.7324ZM16.7573 35.7703L16.32 40.1956C16.2876 40.618 15.0911 40.4973 15.1336 40.1191C15.1336 40.1191 15.2348 39.2079 15.3502 38.2484C15.1477 38.4858 14.8319 38.351 14.678 38.2847C14.5687 38.2384 13.8398 37.8824 13.3195 37.6329C14.0391 39.1422 14.9553 40.5509 16.0446 41.8229C19.0046 45.2565 22.0881 46.2099 22.2177 46.2482L22.8535 46.4393L22.3837 45.9746C19.8003 43.42 17.9154 39.9944 16.7573 35.7703ZM34.1691 32.212L36.5358 31.6829C37.5866 31.4637 36.1309 33.1835 36.4852 33.4229C37.0197 33.7548 37.37 34.314 36.222 34.5634L33.4989 35.1668C33.2762 35.9714 33.0366 36.7338 32.7802 37.4539C33.5693 37.4918 34.3526 37.6077 35.1186 37.7999C35.5977 37.9188 36.0611 38.093 36.4994 38.3189C38.0341 35.5611 38.8378 32.4976 39.1739 29.4361L34.4262 30.643C34.3439 31.1767 34.2554 31.6997 34.161 32.212H34.1691ZM32.1303 39.1255C31.5766 40.4307 30.9199 41.6905 30.1664 42.893L30.4276 42.8648C31.5093 42.7511 32.5756 42.5225 33.6082 42.1829C34.3414 41.4377 35.0073 40.63 35.5984 39.7691C35.3033 39.6309 34.9955 39.5211 34.6793 39.4413C33.8424 39.236 32.9841 39.13 32.1222 39.1255H32.1303ZM22.4728 41.9234C22.402 41.2959 22.5983 40.0789 24.7303 38.9666C25.9633 38.3249 27.5931 37.8461 29.3626 37.6028C29.4409 37.0918 29.5151 36.5648 29.5853 36.0217L24.052 37.2407C22.9142 37.4801 22.1874 35.2292 26.3075 26.1312C26.6557 25.226 26.8845 24.0091 26.0503 23.4841C25.1838 22.9872 24.0257 23.5947 23.2786 24.5562C21.8189 26.5174 21.3188 28.4826 21.1912 28.7803C21.011 29.1826 20.515 28.895 20.0615 28.4826C20.3794 37.4217 21.6205 42.1306 22.6935 44.5746C23.6937 46.6947 25.0603 46.918 25.1231 46.926C25.1858 46.9341 26.5119 46.7007 27.5101 44.649C24.8497 44.4539 22.6753 43.595 22.4728 41.9234ZM28.9516 44.6651C28.5095 45.2583 28.0164 45.8123 27.4777 46.3206C28.624 45.827 29.7225 45.2304 30.7596 44.5384L30.6341 44.5525C30.0672 44.6168 29.5023 44.6551 28.9516 44.6651V44.6651Z" fill="#161C4B"/>
<path d="M152.797 21.4204V35.5652H149.59V21.4204H152.797Z" fill="#34E834"/>
<path d="M138.559 30.7759V35.3581H135.352V30.7759H138.559Z" fill="black"/>
<path d="M143.371 25.4053V35.5653H140.164V25.4053H143.371Z" fill="black"/>
<path d="M147.984 28.5913V35.5652H144.777V28.5913H147.984Z" fill="black"/>
<path d="M167.234 30.2186C166.916 33.7146 164.73 36.0922 160.798 36.0922C156.613 36.0922 153.854 33.0991 153.854 28.5632C153.854 24.3913 156.518 21.0684 160.924 21.0684C164.38 21.0684 166.9 23.2408 167.139 26.2017H164.05C163.732 24.6267 162.559 23.6974 160.863 23.6974C158.105 23.6974 157.026 26.1695 157.026 28.5632C157.026 31.5241 158.5 33.4149 160.816 33.4149C162.717 33.4149 163.853 32.2804 164.112 30.1865H167.234V30.2186Z" fill="#34E834"/>
<path d="M170.041 35.366V21.2212H174.102L177.496 30.9367L180.81 21.2212H185.282V35.366H182.274V25.3085L178.686 35.366H176.611L173.05 25.4172V35.366H170.041Z" fill="black"/>
<path d="M196.311 35.5652V28.2856C196.311 25.5097 193.993 25.0209 191.966 25.0068H191.903C188.986 25.0068 187.389 26.1514 187.237 28.3922H189.504C189.707 27.2155 190.264 26.8071 191.602 26.8071C192.891 26.8071 193.505 27.2476 193.505 28.189C193.505 29.0218 192.829 29.1948 190.988 29.4281L190.537 29.4925C188.537 29.758 186.285 30.1824 186.285 32.741C186.285 34.6861 187.721 35.8629 190.061 35.8629C191.335 35.8922 192.571 35.4251 193.503 34.5614V35.5672L196.311 35.5652ZM193.503 30.5063V31.6548C193.503 33.1292 192.472 33.9379 191.003 33.9379C190.035 33.9379 189.456 33.4249 189.456 32.5721C189.456 31.3129 190.551 31.2042 191.519 31.0494C192.221 30.9247 192.847 30.8784 193.503 30.5063Z" fill="black"/>
<path d="M199.921 35.5653V29.1909C199.92 29.033 199.95 28.8763 200.009 28.7299C200.069 28.5836 200.158 28.4504 200.269 28.3382C200.381 28.226 200.514 28.1369 200.661 28.0761C200.808 28.0153 200.965 27.984 201.124 27.984H203.732V25.2061H201.142C200.079 25.2008 199.058 25.615 198.302 26.3577C197.547 27.1004 197.119 28.1108 197.113 29.1667V35.5653H199.921Z" fill="black"/>
<path d="M227.394 21.4204V25.206H230.605V27.994H227.398V31.5805C227.398 31.8974 227.525 32.2013 227.75 32.4253C227.976 32.6494 228.282 32.7753 228.601 32.7753H230.605V35.5652H228.619C227.557 35.5711 226.536 35.1579 225.781 34.4164C225.025 33.6749 224.597 32.6657 224.59 31.6106V21.4204H227.394Z" fill="black"/>
<path d="M214.158 25.22L210.252 28.9775L214.609 35.366H211.117L208.282 30.818L207.126 31.8881V35.366H204.32V21.2212H207.126V28.8548L210.795 25.206H214.146L214.158 25.22Z" fill="black"/>
<path d="M223.632 32.1839H221C220.595 33.1897 219.988 33.6362 218.959 33.6362C217.483 33.6362 216.645 32.715 216.615 30.9891H223.788V30.7175C223.788 27.2216 221.868 25.0129 218.838 25.0129C215.928 25.0129 213.812 27.2517 213.812 30.3535C213.812 33.4552 215.853 35.5733 218.929 35.5733C221.21 35.5673 223.006 34.3422 223.632 32.1839ZM220.951 29.1968H216.451C216.608 27.7687 217.483 26.8977 218.732 26.8977C220.17 26.8776 220.842 27.9316 220.951 29.1908V29.1968Z" fill="black"/>
<path d="M240.322 28.1932H237.66C237.5 27.107 236.836 26.761 235.678 26.761C234.665 26.761 234.058 27.1392 234.058 27.7849C234.058 28.5251 234.724 28.7303 235.961 28.9918L236.927 29.1929C238.718 29.5711 240.638 30.1222 240.638 32.3429C240.638 34.5153 238.846 35.8691 235.866 35.8691C233.266 35.8691 231.007 34.8452 230.982 32.184H233.71C233.805 33.4291 234.613 33.9179 235.937 33.9179C237.111 33.9179 237.84 33.413 237.84 32.6265C237.84 31.7757 237.046 31.5866 235.635 31.2708L235.382 31.2084C233.544 30.8061 231.213 30.4843 231.213 28.0584C231.213 26.0268 232.861 24.8763 235.779 24.8763C238.174 24.8702 240.235 25.7694 240.322 28.1932Z" fill="black"/>
</svg>
